<?xml version="1.0" encoding="utf-8"?>
<!-- Generator: Adobe Illustrator 26.0.2, SVG Export Plug-In . SVG Version: 6.00 Build 0)  -->
<svg version="1.1" id="Layer_1" xmlns="http://www.w3.org/2000/svg" xmlns:xlink="http://www.w3.org/1999/xlink" x="0px" y="0px"
	 viewBox="0 0 1080 1080" style="enable-background:new 0 0 1080 1080;" xml:space="preserve">
<style type="text/css">
	.st0{fill:#B5324B;}
	.st1{fill-rule:evenodd;clip-rule:evenodd;fill:#FFFFFF;}
	.st2{opacity:0.75;fill:#333333;stroke:#FFFFFF;stroke-width:2;stroke-miterlimit:10;enable-background:new    ;}
	.st3{opacity:0.75;fill:#FFFFFF;enable-background:new    ;}
</style>
<rect y="0" class="st0" width="1080" height="1080"/>
<path id="How_to_use" class="st1" d="M362.8,419.4h-36.4v-28.3h-9.3v65.4h9.3V428h36.4v28.5h9.3v-65.4h-9.3L362.8,419.4L362.8,419.4
	z M389.2,419.6c-8.7,8.6-8.7,22.7-0.1,31.4c4.3,4.2,10.1,6.4,16,6.2c6.6,0,12.1-2.1,16.4-6.2c4.3-4,6.7-9.6,6.5-15.5
	c0.2-6-2.2-11.8-6.4-15.9c-4.3-4.2-10.1-6.5-16.2-6.3C399.5,413.2,393.6,415.4,389.2,419.6L389.2,419.6z M415.4,425.1
	c5.4,5.6,5.5,14.6,0.2,20.3c-2.7,2.7-6.4,4.1-10.2,4c-3.8,0.1-7.5-1.3-10.2-3.9c-2.7-2.7-4.1-6.3-4-10.1c-0.1-3.8,1.3-7.5,3.9-10.2
	c2.6-2.7,6.2-4.1,10-4C408.9,420.9,412.7,422.4,415.4,425.1L415.4,425.1z M478.7,439.6l-10.8-26.1h-6.3l-10.9,26.1l-11.2-26.1h-9.1
	l19,43.8h2.7l12.4-30l12.6,30h2.7l18.8-43.8h-9L478.7,439.6z M525.2,421.1h7.4v19.1c-0.1,2.7,0.1,5.3,0.5,7.9
	c0.3,1.2,0.7,2.3,1.3,3.4c0.5,0.9,1.2,1.7,2,2.3c2.7,2.3,6.1,3.5,9.6,3.4c3.7,0,7.4-0.9,10.6-2.8v-8c-2.9,1.9-6.2,2.9-9.6,3
	c-4,0-6.1-2.5-6.1-7.4v-21.1h13.5v-7.7H541v-8.9l-15.8,15.7L525.2,421.1L525.2,421.1z M566.8,419.6c-8.7,8.6-8.7,22.7-0.1,31.4
	c4.3,4.2,10.1,6.4,16,6.2c6.6,0,12.1-2.1,16.4-6.2c4.3-4,6.7-9.6,6.5-15.5c0.2-6-2.2-11.7-6.4-15.9c-4.3-4.2-10.1-6.5-16.2-6.3
	C577.1,413.2,571.2,415.4,566.8,419.6L566.8,419.6z M593.1,425.1c5.4,5.6,5.5,14.6,0.2,20.3c-2.7,2.7-6.4,4.1-10.2,4
	c-3.8,0.1-7.5-1.3-10.2-3.9c-2.7-2.7-4.1-6.3-4-10.1c-0.1-3.8,1.3-7.5,3.9-10.2c2.6-2.7,6.2-4.1,10-4
	C586.5,420.9,590.3,422.4,593.1,425.1L593.1,425.1z M677,456.5v-43h-8.4v30.7c-2.8,4-6.2,5.9-10.2,5.9c-3.2,0-5.5-0.9-6.7-2.7
	c-1.3-1.8-1.9-4.9-1.9-9.5v-24.5h-8.4v24.7c0,5.4,0.6,9.3,1.7,11.6c1.1,2.3,2.9,4.2,5.1,5.5c2.2,1.4,4.8,2.1,7.4,2
	c2.4,0,4.7-0.6,6.9-1.7c2.3-1.1,4.4-2.7,6.1-4.6v5.5H677L677,456.5z M694.3,456.4c2.2,0.6,4.5,0.8,6.8,0.8c3.8,0.2,7.5-1,10.5-3.4
	c2.7-2.1,4.2-5.3,4.1-8.7c0-4.9-3.6-9.4-10.7-13.5l-3-1.7c-1.7-0.9-3.3-2-4.8-3.3c-0.8-0.7-1.3-1.8-1.4-2.9c0-1.1,0.6-2.2,1.5-2.8
	c1.2-0.8,2.6-1.1,4-1.1c3.2,0,7.3,1.5,12.3,4.6v-8.4c-3.9-2.2-8.3-3.5-12.8-3.6c-3.5-0.2-7,1-9.8,3.1c-2.5,1.9-3.9,4.9-3.8,8.1
	c0,2.6,0.9,5.1,2.5,7.1c1.7,2.2,5.2,4.8,10.7,7.8c1.9,1,3.7,2.2,5.3,3.6c0.8,0.8,1.3,2,1.2,3.1c0,1.3-0.8,2.5-1.9,3.1
	c-1.3,0.9-2.9,1.4-4.5,1.3c-2.2-0.1-4.3-0.6-6.3-1.6c-2.6-1.1-5-2.5-7.3-4.1v9.2C689.2,454.6,691.7,455.6,694.3,456.4L694.3,456.4z
	 M761.7,434.6c0-6.7-1.7-12.1-5-16c-3.4-4-7.9-6-13.5-6c-5.4-0.2-10.7,2.1-14.3,6.2c-3.7,4.1-5.5,9.4-5.5,16c-0.1,4,0.8,8,2.6,11.5
	c1.6,3.2,4,5.9,7,7.9c2.9,2,6.7,2.9,11.4,2.9c3,0.1,6-0.3,9-1.1c2.7-0.8,5.3-2.1,7.7-3.7V444c-4.4,3.4-9.8,5.2-15.4,5.2
	c-3.6,0.1-7.1-1.2-9.8-3.6c-2.6-2.6-4.1-6.1-4.1-9.8h30V434.6L761.7,434.6z M735.7,422.8c2-1.9,4.7-2.9,7.4-2.8
	c2.7-0.1,5.3,0.9,7.2,2.8c1.8,1.8,2.8,4.5,3,7.9h-21.4C732.3,427.7,733.6,424.9,735.7,422.8z"/>
<path id="Lexsitus-Lectures" class="st1" d="M151.4,655.5h45.1v-10h-34.2v-66.7h-10.9V655.5z M247.3,629.8c0-7.9-2-14.2-5.9-18.8
	s-9.2-7-15.9-7c-6.9,0-12.5,2.4-16.8,7.2c-4.3,4.8-6.5,11.1-6.5,18.8c-0.1,4.7,1,9.3,3.1,13.5c1.9,3.7,4.7,6.9,8.2,9.3
	c3.4,2.3,7.9,3.5,13.4,3.5c3.6,0.1,7.1-0.4,10.5-1.3c3.2-1,6.3-2.5,9.1-4.4v-9.8c-5.2,4-11.5,6.2-18.1,6.2
	c-4.2,0.2-8.4-1.4-11.4-4.3c-3-2.9-4.6-6.7-4.8-11.5h35.2L247.3,629.8L247.3,629.8z M216.7,615.9c2.4-2.2,5.5-3.4,8.7-3.2
	c3.2-0.2,6.2,1,8.5,3.2c2.1,2.2,3.3,5.2,3.5,9.2h-25.2C212.7,621.6,214.3,618.4,216.7,615.9L216.7,615.9z M278.3,622.3L263.4,605
	h-12.5l21.1,24.9l-21.1,25.6h12.4l14.8-18.1l15.7,18.1h12.7l-22.1-25.6l20.6-24.9h-12.7L278.3,622.3z M320,655.4
	c2.6,0.7,5.3,1,7.9,1c5,0,9.2-1.3,12.4-4c3.1-2.5,4.9-6.2,4.8-10.2c0-5.8-4.2-11.1-12.5-15.8l-3.5-2c-2-1-3.9-2.3-5.6-3.8
	c-1-0.9-1.5-2.1-1.6-3.4c0-1.3,0.7-2.6,1.8-3.3c1.4-0.9,3-1.3,4.6-1.2c3.7,0,8.5,1.8,14.4,5.4v-9.9c-4.6-2.6-9.8-4.1-15.1-4.2
	c-4.7,0-8.6,1.2-11.6,3.7c-2.9,2.3-4.6,5.8-4.5,9.5c0,3,1.1,6,3,8.3c2,2.5,6.2,5.6,12.5,9.2c2.2,1.2,4.3,2.6,6.2,4.2
	c1,1,1.5,2.3,1.4,3.7c-0.1,1.5-0.9,2.9-2.2,3.7c-1.6,1.1-3.4,1.6-5.3,1.5c-2.6-0.1-5.1-0.8-7.4-1.8c-3-1.3-5.9-2.9-8.6-4.8v10.8
	C314,653.3,316.9,654.5,320,655.4L320,655.4z M357.6,585.5c-1.1,1.1-1.7,2.5-1.7,4.1c0,1.6,0.6,3.1,1.7,4.1c1,1.1,2.5,1.8,4,1.8
	c3.3,0,5.9-2.7,5.9-5.9c0-1.6-0.6-3.1-1.7-4.2c-1.1-1.1-2.6-1.7-4.2-1.7C360.1,583.7,358.6,584.4,357.6,585.5L357.6,585.5z
	 M356.7,655.5h9.9V605h-9.9V655.5z M373.9,614h8.7v22.4c-0.1,3.1,0.1,6.2,0.6,9.3c0.3,1.4,0.8,2.7,1.5,4c0.6,1,1.4,1.9,2.3,2.7
	c3.1,2.7,7.2,4.2,11.3,4c4.4,0,8.7-1.1,12.5-3.2v-9.3c-3.4,2.2-7.2,3.4-11.3,3.6c-4.8,0-7.1-2.9-7.1-8.7V614h15.8v-9h-15.8v-10.4
	L373.9,613L373.9,614L373.9,614z M459.8,655.5V605h-9.9v36.1c-3.3,4.7-7.3,7-12,7c-3.8,0-6.4-1.1-7.9-3.2c-1.5-2.1-2.3-5.8-2.3-11.1
	V605h-9.9v28.9c0,6.3,0.7,10.9,2,13.6c1.3,2.7,3.4,5,6,6.5c2.6,1.6,5.7,2.4,8.7,2.4c2.8,0,5.6-0.7,8.1-1.9c2.7-1.3,5.2-3.2,7.2-5.4
	v6.5H459.8L459.8,655.5z M480,655.4c2.6,0.7,5.3,1,7.9,1c5,0,9.2-1.3,12.4-4c3.1-2.5,4.9-6.2,4.8-10.2c0-5.8-4.2-11.1-12.5-15.8
	l-3.5-2c-2-1-3.9-2.3-5.6-3.8c-1-0.9-1.5-2.1-1.6-3.4c0-1.3,0.7-2.6,1.8-3.3c1.4-0.9,3-1.3,4.6-1.2c3.7,0,8.5,1.8,14.4,5.4v-9.9
	c-4.6-2.6-9.8-4.1-15.1-4.2c-4.7,0-8.6,1.2-11.6,3.7c-2.9,2.3-4.6,5.8-4.5,9.5c0,3,1.1,6,3,8.3c2,2.5,6.2,5.6,12.5,9.2
	c2.2,1.2,4.3,2.6,6.2,4.2c1,1,1.5,2.3,1.4,3.7c-0.1,1.5-0.9,2.9-2.2,3.7c-1.6,1.1-3.4,1.6-5.3,1.5c-2.6-0.1-5.1-0.8-7.4-1.8
	c-3-1.3-5.9-2.9-8.6-4.8v10.8C474.1,653.3,477,654.5,480,655.4L480,655.4z M514,635.9h27.1v-10.7H514V635.9z M553.9,655.5H599v-10
	h-34.2v-66.7h-10.9V655.5z M649.8,629.8c0-7.9-2-14.2-5.9-18.8c-4-4.7-9.2-7-15.9-7c-6.9,0-12.5,2.4-16.8,7.2s-6.5,11.1-6.5,18.8
	c-0.1,4.7,1,9.3,3.1,13.5c1.9,3.7,4.7,6.9,8.2,9.3c3.4,2.3,7.9,3.5,13.4,3.5c3.6,0.1,7.1-0.4,10.5-1.3c3.2-1,6.3-2.5,9.1-4.4v-9.8
	c-5.2,4-11.5,6.2-18.1,6.2c-4.2,0.2-8.4-1.4-11.4-4.3c-3-2.9-4.6-6.7-4.8-11.5h35.2L649.8,629.8L649.8,629.8z M619.3,615.9
	c2.4-2.2,5.5-3.4,8.7-3.2c3.2-0.2,6.2,1,8.5,3.2c2.1,2.2,3.3,5.2,3.5,9.2h-25.2C615.3,621.6,616.8,618.4,619.3,615.9z M684.9,647
	c-5.3,0-9.4-1.5-12.5-4.6s-4.6-7.1-4.7-12.3c-0.2-4.4,1.4-8.8,4.3-12.1c2.8-3.1,6.8-4.9,11-4.8c4.3,0,8.9,1.6,13.9,4.8v-10.7
	c-2.4-1.2-5-2.1-7.6-2.8c-2.3-0.5-4.6-0.8-6.9-0.7c-7.4,0-13.4,2.4-17.9,7.3s-6.8,11.3-6.8,19.2c0,7.9,2.3,14.2,7,18.8
	s10.9,7,18.7,7c5,0,9.9-1,14.6-2.8v-9.9C693.1,645.9,688.7,647,684.9,647L684.9,647L684.9,647z M702.3,614h8.7v22.4
	c-0.1,3.1,0.1,6.2,0.6,9.3c0.3,1.4,0.8,2.7,1.5,4c0.6,1,1.4,1.9,2.3,2.7c3.1,2.7,7.2,4.2,11.3,4c4.4,0,8.7-1.1,12.5-3.2v-9.3
	c-3.4,2.2-7.2,3.4-11.3,3.6c-4.8,0-7.1-2.9-7.1-8.7V614h15.8v-9h-15.8v-10.4L702.3,613L702.3,614L702.3,614z M788.1,655.5V605h-9.9
	v36.1c-3.3,4.7-7.3,7-12,7c-3.8,0-6.4-1.1-7.9-3.2c-1.5-2.1-2.3-5.8-2.3-11.1V605h-9.9v28.9c0,6.3,0.7,10.9,2,13.6
	c1.3,2.7,3.4,5,6,6.5c2.6,1.6,5.7,2.4,8.7,2.4c2.8,0,5.6-0.7,8.1-1.9c2.7-1.3,5.2-3.2,7.2-5.4v6.5H788.1L788.1,655.5z M802.7,605
	v50.5h10v-26.4c-0.1-3.9,1.1-7.8,3.5-10.9c2.3-3.1,5.1-4.6,8.3-4.6c2.9,0,6.1,1.6,9.6,4.9l5.2-8.8c-4.1-3.8-8-5.7-11.7-5.7
	c-4.8,0-9.6,3.9-14.4,11.7l-0.5,0.9V605L802.7,605L802.7,605z M886.6,629.8c0-7.9-2-14.2-5.9-18.8c-4-4.7-9.2-7-15.9-7
	c-6.9,0-12.5,2.4-16.8,7.2c-4.3,4.8-6.5,11.1-6.5,18.8c-0.1,4.7,1,9.3,3.1,13.5c1.9,3.7,4.7,6.9,8.2,9.3c3.4,2.3,7.9,3.5,13.4,3.5
	c3.6,0.1,7.1-0.4,10.5-1.3c3.2-1,6.3-2.5,9.1-4.4v-9.8c-5.2,4-11.5,6.2-18.1,6.2c-4.2,0.2-8.4-1.4-11.4-4.3c-3-2.9-4.6-6.7-4.8-11.5
	h35.2L886.6,629.8L886.6,629.8z M856,615.9c2.4-2.2,5.5-3.4,8.7-3.2c3.2-0.2,6.2,1,8.5,3.2c2.1,2.2,3.3,5.2,3.5,9.2h-25.2
	C852,621.6,853.6,618.4,856,615.9L856,615.9z M903.6,655.4c2.6,0.7,5.3,1,7.9,1c5,0,9.2-1.3,12.4-4c3.1-2.5,4.9-6.2,4.8-10.2
	c0-5.8-4.2-11.1-12.5-15.8l-3.5-2c-2-1-3.9-2.3-5.6-3.8c-1-0.9-1.5-2.1-1.6-3.4c0-1.3,0.7-2.6,1.8-3.3c1.4-0.9,3-1.3,4.6-1.2
	c3.7,0,8.5,1.8,14.4,5.4v-9.9c-4.6-2.6-9.8-4.1-15.1-4.2c-4.7,0-8.6,1.2-11.6,3.7c-2.9,2.3-4.6,5.8-4.5,9.5c0,3,1.1,6,3,8.3
	c2,2.5,6.2,5.6,12.5,9.2c2.2,1.2,4.3,2.6,6.2,4.2c1,1,1.5,2.3,1.4,3.7c-0.1,1.5-0.9,2.9-2.2,3.7c-1.6,1.1-3.4,1.6-5.3,1.5
	c-2.6-0.1-5.1-0.8-7.4-1.8c-3-1.3-5.9-2.9-8.6-4.8v10.8C897.6,653.3,900.6,654.5,903.6,655.4L903.6,655.4z"/>
<circle class="st2" cx="156.2" cy="156.2" r="116.2"/>
<polygon class="st3" points="207.8,156.2 119.1,105 119.1,207.4 "/>
</svg>
