<?xml version="1.0" encoding="utf-8"?>
<!-- Generator: Adobe Illustrator 26.0.2, SVG Export Plug-In . SVG Version: 6.00 Build 0)  -->
<svg version="1.1" id="Layer_1" xmlns="http://www.w3.org/2000/svg" xmlns:xlink="http://www.w3.org/1999/xlink" x="0px" y="0px"
	 viewBox="0 0 1920 1080" style="enable-background:new 0 0 1920 1080;" xml:space="preserve">
<style type="text/css">
	.st0{fill:#B0612B;}
	.st1{fill-rule:evenodd;clip-rule:evenodd;fill:#FFFFFF;}
	.st2{opacity:0.75;fill:#333333;stroke:#FFFFFF;stroke-width:2;stroke-miterlimit:10;enable-background:new    ;}
	.st3{opacity:0.75;fill:#FFFFFF;enable-background:new    ;}
</style>
<rect y="0" class="st0" width="1920" height="1080"/>
<path id="How_to_use_the" class="st1" d="M707.8,419.4h-36.4v-28.3h-9.3v65.4h9.3V428h36.4v28.5h9.3v-65.4h-9.3L707.8,419.4
	L707.8,419.4z M734.2,419.6c-8.7,8.6-8.7,22.7-0.1,31.4c4.3,4.2,10.1,6.4,16,6.2c6.6,0,12.1-2.1,16.4-6.2c4.3-4,6.7-9.6,6.5-15.5
	c0.2-6-2.2-11.8-6.4-15.9c-4.3-4.2-10.1-6.5-16.2-6.3C744.5,413.2,738.6,415.4,734.2,419.6L734.2,419.6z M760.4,425.1
	c5.4,5.6,5.5,14.6,0.2,20.3c-2.7,2.7-6.4,4.1-10.2,4c-3.8,0.1-7.5-1.3-10.2-3.9c-2.7-2.7-4.1-6.3-4-10.1c-0.1-3.8,1.3-7.5,3.9-10.2
	c2.6-2.7,6.2-4.1,10-4C753.9,420.9,757.7,422.4,760.4,425.1z M823.7,439.6l-10.8-26.1h-6.3l-10.9,26.1l-11.2-26.1h-9.1l19,43.8h2.7
	l12.4-30l12.6,30h2.7l18.8-43.8h-9L823.7,439.6z M870.2,421.1h7.4v19.1c-0.1,2.7,0.1,5.3,0.5,7.9c0.3,1.2,0.7,2.3,1.3,3.4
	c0.5,0.9,1.2,1.7,2,2.3c2.7,2.3,6.1,3.5,9.6,3.4c3.7,0,7.4-0.9,10.6-2.8v-8c-2.9,1.9-6.2,2.9-9.6,3c-4,0-6.1-2.5-6.1-7.4v-21.1h13.5
	v-7.7H886v-8.9l-15.8,15.7L870.2,421.1L870.2,421.1z M911.8,419.6c-8.7,8.6-8.7,22.7-0.1,31.4c4.3,4.2,10.1,6.4,16,6.2
	c6.6,0,12.1-2.1,16.4-6.2c4.3-4,6.7-9.6,6.5-15.5c0.2-6-2.2-11.7-6.4-15.9c-4.3-4.2-10.1-6.5-16.2-6.3
	C922.1,413.2,916.2,415.4,911.8,419.6L911.8,419.6z M938.1,425.1c5.4,5.6,5.5,14.6,0.2,20.3c-2.7,2.7-6.4,4.1-10.2,4
	c-3.8,0.1-7.5-1.3-10.2-3.9c-2.7-2.7-4.1-6.3-4-10.1c-0.1-3.8,1.3-7.5,3.9-10.2c2.6-2.7,6.2-4.1,10-4
	C931.5,420.9,935.3,422.4,938.1,425.1L938.1,425.1z M1022,456.5v-43h-8.4v30.7c-2.8,4-6.2,5.9-10.2,5.9c-3.2,0-5.5-0.9-6.7-2.7
	c-1.3-1.8-1.9-4.9-1.9-9.5v-24.5h-8.4v24.7c0,5.4,0.6,9.3,1.7,11.6c1.1,2.3,2.9,4.2,5.1,5.5c2.2,1.4,4.8,2.1,7.4,2
	c2.4,0,4.7-0.6,6.9-1.7c2.3-1.1,4.4-2.7,6.1-4.6v5.5H1022L1022,456.5z M1039.3,456.4c2.2,0.6,4.5,0.9,6.8,0.8
	c3.8,0.2,7.5-1,10.5-3.4c2.7-2.1,4.2-5.3,4.1-8.7c0-4.9-3.6-9.4-10.7-13.5l-3-1.7c-1.7-0.9-3.3-2-4.8-3.3c-0.8-0.7-1.3-1.8-1.4-2.9
	c0-1.1,0.6-2.2,1.5-2.8c1.2-0.8,2.6-1.1,4-1.1c3.2,0,7.3,1.5,12.3,4.6v-8.4c-3.9-2.2-8.3-3.5-12.8-3.6c-3.6-0.2-7,1-9.8,3.1
	c-2.5,1.9-3.9,4.9-3.8,8.1c0,2.6,0.9,5.1,2.5,7.1c1.7,2.2,5.2,4.8,10.7,7.8c1.9,1,3.7,2.2,5.3,3.6c0.8,0.8,1.3,1.9,1.2,3.1
	c-0.1,1.3-0.8,2.5-1.9,3.1c-1.3,0.9-2.9,1.4-4.5,1.3c-2.2-0.1-4.3-0.6-6.3-1.6c-2.6-1.1-5-2.5-7.3-4.1v9.2
	C1034.2,454.6,1036.7,455.6,1039.3,456.4L1039.3,456.4z M1106.7,434.6c0-6.7-1.7-12.1-5.1-16c-3.4-4-7.9-6-13.5-6
	c-5.5-0.2-10.7,2.1-14.3,6.2c-3.7,4.1-5.5,9.4-5.5,16c-0.1,4,0.8,8,2.6,11.5c1.6,3.2,4,5.9,7,7.9c2.9,2,6.7,2.9,11.4,2.9
	c3,0.1,6-0.3,9-1.1c2.7-0.8,5.3-2.1,7.7-3.7V444c-4.4,3.4-9.8,5.2-15.4,5.2c-3.6,0.1-7.1-1.2-9.8-3.6c-2.6-2.6-4.1-6.1-4.1-9.8h30
	L1106.7,434.6L1106.7,434.6z M1080.7,422.8c2-1.9,4.7-2.9,7.4-2.8c2.7-0.1,5.3,0.9,7.2,2.8c1.8,1.8,2.8,4.5,3,7.9h-21.4
	C1077.3,427.7,1078.6,424.9,1080.7,422.8L1080.7,422.8z M1136.2,421.1h7.4v19.1c-0.1,2.7,0.1,5.3,0.5,7.9c0.3,1.2,0.7,2.3,1.3,3.4
	c0.5,0.9,1.2,1.7,2,2.3c2.7,2.3,6.1,3.5,9.6,3.4c3.7,0,7.4-0.9,10.6-2.8v-8c-2.9,1.9-6.2,2.9-9.6,3c-4,0-6.1-2.5-6.1-7.4v-21.1h13.5
	v-7.7h-13.5v-8.9l-15.8,15.7L1136.2,421.1L1136.2,421.1z M1173.6,456.5h8.4v-30.8c1.5-1.9,3.4-3.5,5.4-4.8c1.6-1,3.4-1.5,5.2-1.5
	c2.4-0.1,4.6,1,6.1,2.9c1.6,2.2,2.4,4.9,2.3,7.6v26.6h8.4V432c0-5-0.5-8.8-1.6-11.3c-1-2.4-2.8-4.5-5-5.9c-2.3-1.4-4.9-2.2-7.6-2.2
	c-5.2,0-10,2.4-13.1,6.5v-28h-8.4L1173.6,456.5L1173.6,456.5z M1257.6,434.6c0-6.7-1.7-12.1-5.1-16c-3.4-4-7.9-6-13.5-6
	c-5.4-0.2-10.7,2.1-14.3,6.2c-3.7,4.1-5.5,9.4-5.5,16c-0.1,4,0.8,8,2.6,11.5c1.6,3.2,4,5.9,7,7.9c2.9,2,6.7,2.9,11.4,2.9
	c3,0.1,6-0.3,9-1.1c2.7-0.8,5.4-2.1,7.7-3.7V444c-4.4,3.4-9.8,5.2-15.4,5.2c-3.6,0.1-7.1-1.2-9.8-3.6c-2.6-2.6-4.1-6.1-4.1-9.8h30
	L1257.6,434.6L1257.6,434.6z M1231.6,422.8c2-1.9,4.7-2.9,7.4-2.8c2.7-0.1,5.3,0.9,7.2,2.8c1.8,1.8,2.8,4.5,3,7.9h-21.4
	C1228.1,427.7,1229.5,424.9,1231.6,422.8L1231.6,422.8z"/>
<path id="Means_of_Proof_Digest_on_Lexsitus" class="st1" d="M226.7,610.3l-25.2-31.5h-10.3v76.7H202v-59.7l23.6,29.7h2l23.4-29.7
	v59.7H262v-76.7h-10.2L226.7,610.3z M319.6,629.8c0-7.9-2-14.2-5.9-18.8c-4-4.7-9.2-7-15.9-7c-6.9,0-12.5,2.4-16.8,7.2
	c-4.3,4.8-6.5,11.1-6.5,18.8c-0.1,4.7,1,9.3,3.1,13.5c1.9,3.7,4.7,6.9,8.2,9.3c3.4,2.3,7.9,3.5,13.4,3.5c3.6,0.1,7.1-0.4,10.5-1.3
	c3.2-1,6.3-2.5,9.1-4.4v-9.8c-5.2,4-11.5,6.2-18.1,6.2c-4.2,0.2-8.4-1.4-11.4-4.3c-3-2.9-4.6-6.7-4.8-11.5h35.2L319.6,629.8
	L319.6,629.8z M289.1,615.9c2.4-2.2,5.5-3.4,8.7-3.2c3.2-0.2,6.2,1,8.5,3.2c2.1,2.2,3.3,5.2,3.5,9.2h-25.2
	C285.3,621.1,286.8,618.1,289.1,615.9L289.1,615.9z M361.4,616.5c-0.3-1.6-0.8-3.2-1.7-4.6c-0.8-1.4-1.8-2.6-2.9-3.7
	c-3.3-2.9-7.6-4.3-13-4.3c-7.2,0-12.7,2.3-16.6,6.9v10.9c5.1-5.6,10.4-8.5,15.8-8.5c6,0,9,3,9,9.1v2.7l-12.7,4.4
	c-3.7,1.1-7,3.2-9.7,6c-2.2,2.3-3.4,5.4-3.4,8.5c-0.2,6.6,5,12.1,11.6,12.2c0.2,0,0.4,0,0.6,0c4.9-0.1,9.7-1.8,13.4-4.9
	c0.8,3.4,3.3,5.1,7.5,5.1c1.5,0,2.9-0.3,4.3-0.8c1.9-0.8,3.7-1.8,5.4-3v-6.1c-2.5,1.8-4.4,2.7-5.6,2.7c-1.2,0-1.7-0.9-1.7-2.6v-21.5
	C361.8,622.2,361.7,619.3,361.4,616.5L361.4,616.5z M343.3,649.4c-1.9,0.1-3.8-0.6-5.1-2c-2.7-2.9-2.6-7.4,0.1-10.2
	c2.1-1.8,4.5-3.2,7.2-4.1l6.6-2.6v15C349.7,647.9,346.6,649.3,343.3,649.4L343.3,649.4L343.3,649.4z M377.6,605v50.5h10.1v-36.1
	c3.3-4.7,7.2-7.1,11.9-7.1c3.7,0,6.3,1.1,7.8,3.3s2.3,5.9,2.3,11.1v28.8h9.9v-28.9c0-6.2-0.7-10.6-2.1-13.5
	c-1.3-2.8-3.5-5.1-6.1-6.7c-2.6-1.6-5.6-2.5-8.7-2.4c-5.6,0-10.6,2.5-15.1,7.4V605L377.6,605L377.6,605z M439.8,655.4
	c2.6,0.7,5.3,1,7.9,1c5,0,9.2-1.3,12.4-4c3.1-2.5,4.9-6.2,4.8-10.2c0-5.8-4.2-11.1-12.5-15.8l-3.5-2c-2-1-3.9-2.3-5.6-3.8
	c-1-0.9-1.5-2.1-1.6-3.4c0-1.3,0.7-2.6,1.8-3.3c1.4-0.9,3-1.3,4.6-1.2c3.7,0,8.5,1.8,14.4,5.4v-9.9c-4.6-2.6-9.8-4.1-15.1-4.2
	c-4.7,0-8.6,1.2-11.6,3.7c-2.9,2.3-4.6,5.8-4.5,9.5c0,3,1.1,6,3,8.3c2,2.5,6.2,5.6,12.5,9.2c2.2,1.2,4.3,2.6,6.2,4.2
	c1,1,1.5,2.3,1.4,3.7c-0.1,1.5-0.9,2.9-2.2,3.7c-1.6,1.1-3.4,1.6-5.3,1.5c-2.6-0.1-5.1-0.8-7.4-1.8c-3-1.3-5.9-2.9-8.6-4.8v10.8
	C433.9,653.3,436.8,654.5,439.8,655.4L439.8,655.4z M512.1,612.2c-10.2,10.2-10.2,26.6-0.1,36.8c5,4.9,11.8,7.5,18.8,7.3
	c7.8,0,14.2-2.4,19.3-7.2c5-4.7,7.8-11.3,7.7-18.2c0.2-7-2.5-13.8-7.6-18.7c-5-5-11.4-7.4-19-7.4
	C523.6,604.9,517.2,607.3,512.1,612.2z M542.9,618.6c6.4,6.6,6.5,17.1,0.2,23.8c-3.2,3.1-7.5,4.8-11.9,4.6c-4.5,0.2-8.8-1.5-12-4.6
	c-3.1-3.1-4.8-7.4-4.7-11.8c-0.2-4.5,1.5-8.8,4.6-12c3.1-3.2,7.3-4.9,11.7-4.7C535.3,613.7,539.6,615.4,542.9,618.6L542.9,618.6z
	 M562.8,605v9h7.2v41.5h9.9V614h8.9v-9h-8.9v-3c0-5.3,0.8-9.1,2.3-11.2c1.5-2.1,4.2-3.1,8.1-3.1c1.6,0,3.1,0.3,4.6,0.9v-9.8
	c-2.4-0.6-4.9-0.9-7.3-1c-4.8,0-8.9,2-12.3,6c-3.4,4-5.1,10.1-5.1,18.2v3H562.8L562.8,605z M639.3,655.5v-33.3h8
	c7.2,0,12.7-0.8,16.5-2.3c3.7-1.5,6.9-4.1,9.1-7.5c2.2-3.5,3.4-7.7,3.3-11.9c0-6.7-2.2-12-6.5-15.9c-4.3-4-10.1-5.9-17.3-5.9h-24.1
	v76.9H639.3L639.3,655.5z M665,600.2c0,3.9-1.2,6.9-3.6,9s-5.8,3.2-10.2,3.2h-11.9v-24h11.3C660.2,588.4,665,592.4,665,600.2
	L665,600.2L665,600.2z M685,605v50.5h10v-26.4c-0.1-3.9,1.1-7.8,3.5-10.9c2.3-3.1,5.1-4.6,8.3-4.6c2.9,0,6.1,1.6,9.6,4.9l5.2-8.8
	c-4.1-3.8-8-5.7-11.7-5.7c-4.8,0-9.6,3.9-14.4,11.7l-0.5,0.9V605L685,605L685,605z M730.4,612.2c-10.2,10.2-10.2,26.6-0.1,36.8
	c5,4.9,11.8,7.5,18.8,7.3c7.8,0,14.2-2.4,19.3-7.2c5.1-4.7,7.8-11.3,7.7-18.2c0.2-7-2.5-13.8-7.6-18.7c-5-5-11.4-7.4-19-7.4
	C741.9,604.9,735.5,607.3,730.4,612.2L730.4,612.2z M761.2,618.6c6.4,6.6,6.5,17.1,0.2,23.8c-3.2,3.1-7.5,4.8-11.9,4.6
	c-4.5,0.2-8.8-1.5-12-4.6c-3.1-3.1-4.8-7.4-4.7-11.8c-0.2-4.5,1.5-8.8,4.6-12c3.1-3.2,7.3-4.9,11.7-4.7
	C753.6,613.7,758,615.4,761.2,618.6L761.2,618.6z M791.9,612.2c-10.2,10.2-10.2,26.6-0.1,36.8c5,4.9,11.8,7.5,18.8,7.3
	c7.8,0,14.2-2.4,19.3-7.2c5.1-4.7,7.8-11.3,7.7-18.2c0.2-7-2.5-13.8-7.6-18.7c-5-5-11.4-7.4-19-7.4
	C803.4,604.9,797,607.3,791.9,612.2L791.9,612.2z M822.7,618.6c6.4,6.6,6.5,17.1,0.2,23.8c-3.2,3.1-7.5,4.8-11.9,4.6
	c-4.5,0.2-8.8-1.5-12-4.6c-3.1-3.1-4.8-7.4-4.7-11.8c-0.2-4.5,1.5-8.8,4.6-12c3.1-3.2,7.3-4.9,11.7-4.7
	C815,613.7,819.4,615.4,822.7,618.6L822.7,618.6z M842.5,605v9h7.2v41.5h9.9V614h8.9v-9h-8.9v-3c0-5.3,0.8-9.1,2.3-11.2
	c1.5-2.1,4.2-3.1,8.1-3.1c1.6,0,3.1,0.3,4.6,0.9v-9.8c-2.4-0.6-4.9-0.9-7.3-1c-4.8,0-8.9,2-12.3,6c-3.4,4-5.1,10.1-5.1,18.2v3H842.5
	L842.5,605z M932.9,655.4c4.6,0.1,9.2-0.1,13.7-0.6c2.7-0.5,5.3-1.2,7.9-2.3c4.8-1.8,9.2-4.7,12.9-8.3c3.6-3.5,6.4-7.7,8.4-12.4
	c2-4.7,3-9.7,2.9-14.7c0.1-7-1.8-13.9-5.3-19.9c-3.4-5.9-8.3-10.7-14.4-13.8c-6-3.1-14.2-4.7-24.5-4.7h-25.6v76.6L932.9,655.4
	L932.9,655.4z M944.7,589.1c2.6,0.5,5.1,1.3,7.5,2.5c2.6,1.2,4.9,2.8,7,4.8c5.5,5.2,8.3,11.9,8.3,20.2c0,8.4-2.7,15.3-8,20.8
	c-1.6,1.7-3.5,3.1-5.5,4.3c-2.4,1.3-4.9,2.3-7.5,2.9c-4.2,0.9-8.4,1.2-12.7,1.1h-13.9v-57.1h13.6
	C937.1,588.5,940.9,588.7,944.7,589.1L944.7,589.1z M992,585.5c-1.1,1.1-1.7,2.5-1.7,4.1c0,1.6,0.6,3.1,1.7,4.1c1,1.1,2.5,1.8,4,1.8
	c1.6,0,3.1-0.6,4.2-1.8c1.1-1.1,1.8-2.6,1.7-4.2c0-1.6-0.6-3.1-1.7-4.2c-1.1-1.1-2.6-1.7-4.2-1.7C994.5,583.7,993,584.4,992,585.5
	L992,585.5z M991.1,655.5h9.9V605h-9.9V655.5z M1023.8,638.4c-2.1,0.5-4.1,1.5-5.8,2.9c-1.3,1.1-2.1,2.7-2.1,4.4
	c0,2.1,1.7,4.3,5,6.4c-8.4,2-12.6,6.4-12.6,13.2c0,4.8,2.1,8.7,6.4,11.6c4.3,2.9,10,4.3,17.1,4.3c7.1,0,12.7-1.4,16.9-4.3
	c4.2-2.9,6.3-6.7,6.3-11.5c0.1-3.4-1.2-6.7-3.6-9.1c-1.4-1.4-3-2.5-4.8-3.3c-1.8-0.8-5.7-1.8-11.8-3.2c-2.6-0.5-5.2-1.3-7.6-2.3
	c-1.2-0.5-2-1.6-2.1-2.9c0-2,1.9-3.4,5.6-3.9c5.3-0.8,9.2-1.9,11.5-3.2c2.4-1.4,4.4-3.4,5.7-5.8c1.4-2.3,2.2-5,2.2-7.8
	c0-1.9-0.4-3.9-1.1-5.7c-1-2-2.4-3.9-4.1-5.5h10.1V605h-20.6c-6.7,0-12.1,1.6-16,4.7s-5.8,7.4-5.8,12.8
	C1012.8,629.8,1016.4,635.1,1023.8,638.4L1023.8,638.4L1023.8,638.4z M1038.4,616.3c1.9,1.7,2.9,4.1,2.8,6.6c0.1,2.5-1,4.8-2.8,6.5
	c-4,3.5-10,3.5-14,0.1c-1.8-1.6-2.8-4-2.8-6.5c0-2.5,1-4.9,2.8-6.6c1.8-1.8,4.3-2.8,6.8-2.7C1034,613.6,1036.5,614.5,1038.4,616.3
	L1038.4,616.3z M1040.8,660.1c3,1.5,4.6,3.4,4.6,5.7c0,2.4-1.2,4.2-3.6,5.5s-5.8,2-10.2,2c-9.3,0-13.9-2.6-13.9-7.8
	c0-2.3,1.2-4.4,3.2-5.5c2.5-1.5,5.3-2.3,8.2-2.1C1033.1,657.7,1037.1,658.5,1040.8,660.1L1040.8,660.1z M1105.5,629.8
	c0-7.9-2-14.2-5.9-18.8s-9.2-7-15.9-7c-6.9,0-12.5,2.4-16.8,7.2c-4.3,4.8-6.5,11.1-6.5,18.8c-0.1,4.7,1,9.3,3.1,13.5
	c1.9,3.7,4.7,6.9,8.2,9.3c3.4,2.3,7.9,3.5,13.4,3.5c3.6,0.1,7.1-0.4,10.5-1.3c3.2-1,6.3-2.5,9.1-4.4v-9.8c-5.2,4-11.5,6.2-18.1,6.2
	c-4.2,0.2-8.4-1.4-11.4-4.3c-2.9-2.9-4.6-6.7-4.8-11.5h35.2L1105.5,629.8L1105.5,629.8z M1074.9,615.9c2.4-2.2,5.5-3.4,8.7-3.2
	c3.2-0.2,6.2,1,8.5,3.2c2.1,2.2,3.3,5.2,3.5,9.2h-25.2C1071,621.6,1072.5,618.4,1074.9,615.9L1074.9,615.9z M1122.5,655.4
	c2.6,0.7,5.3,1,7.9,1c5,0,9.2-1.3,12.4-4c3.1-2.5,4.9-6.2,4.8-10.2c0-5.8-4.2-11.1-12.5-15.8l-3.5-2c-2-1-3.9-2.3-5.6-3.8
	c-1-0.9-1.5-2.1-1.6-3.4c0-1.3,0.7-2.6,1.8-3.3c1.4-0.9,3-1.3,4.7-1.2c3.7,0,8.5,1.8,14.4,5.4v-9.9c-4.6-2.6-9.8-4.1-15.1-4.2
	c-4.7,0-8.6,1.2-11.6,3.7c-2.9,2.3-4.6,5.8-4.5,9.5c0,3,1.1,6,3,8.3c2,2.5,6.2,5.6,12.5,9.2c2.2,1.2,4.3,2.6,6.2,4.2
	c1,1,1.5,2.3,1.4,3.7c-0.1,1.5-0.9,2.9-2.2,3.7c-1.6,1.1-3.4,1.6-5.3,1.5c-2.6-0.1-5.1-0.8-7.4-1.8c-3-1.3-5.9-2.9-8.6-4.8v10.8
	C1116.6,653.3,1119.5,654.5,1122.5,655.4L1122.5,655.4z M1152,614h8.7v22.4c-0.1,3.1,0.1,6.2,0.6,9.3c0.3,1.4,0.8,2.7,1.6,4
	c0.6,1,1.4,1.9,2.3,2.7c3.1,2.7,7.2,4.2,11.3,4c4.4,0,8.7-1.1,12.4-3.2v-9.3c-3.4,2.2-7.3,3.4-11.3,3.6c-4.8,0-7.1-2.9-7.1-8.7V614
	h15.8v-9h-15.8v-10.4L1152,613L1152,614L1152,614z M1231.8,612.2c-10.2,10.2-10.2,26.6-0.1,36.8c5,4.9,11.8,7.5,18.8,7.3
	c7.8,0,14.2-2.4,19.3-7.2c5-4.7,7.8-11.3,7.7-18.2c0.2-7-2.5-13.8-7.6-18.7c-5-5-11.4-7.4-19-7.4
	C1243.3,604.9,1236.9,607.3,1231.8,612.2L1231.8,612.2z M1262.6,618.6c6.4,6.6,6.5,17.1,0.2,23.8c-3.2,3.1-7.5,4.8-11.9,4.6
	c-4.5,0.2-8.8-1.5-12-4.6c-3.1-3.1-4.8-7.4-4.7-11.8c-0.2-4.5,1.5-8.8,4.6-12c3.1-3.2,7.3-4.9,11.7-4.7
	C1255,613.7,1259.4,615.4,1262.6,618.6L1262.6,618.6z M1288.3,605v50.5h10.1v-36.1c3.3-4.7,7.2-7.1,11.9-7.1c3.7,0,6.3,1.1,7.8,3.3
	c1.6,2.2,2.3,5.9,2.3,11.1v28.8h9.9v-28.9c0-6.2-0.7-10.6-2.1-13.5c-1.3-2.8-3.5-5.1-6.1-6.7c-2.6-1.6-5.6-2.5-8.7-2.4
	c-5.6,0-10.6,2.5-15.1,7.4V605L1288.3,605L1288.3,605z M1376.5,655.5h45.1v-10h-34.2v-66.7h-10.9V655.5L1376.5,655.5z M1472.4,629.8
	c0-7.9-2-14.2-5.9-18.8c-3.9-4.7-9.2-7-15.9-7c-6.9,0-12.5,2.4-16.8,7.2c-4.3,4.8-6.5,11.1-6.5,18.8c-0.1,4.7,1,9.3,3.1,13.5
	c1.9,3.7,4.7,6.9,8.2,9.3c3.4,2.3,7.9,3.5,13.4,3.5c3.6,0.1,7.1-0.4,10.5-1.3c3.2-1,6.3-2.5,9.1-4.4v-9.8c-5.2,4-11.5,6.2-18.1,6.2
	c-4.2,0.2-8.4-1.4-11.4-4.3c-2.9-2.9-4.6-6.7-4.8-11.5h35.2L1472.4,629.8L1472.4,629.8z M1441.9,615.9c2.4-2.2,5.5-3.4,8.7-3.2
	c3.2-0.2,6.2,1,8.5,3.2c2.1,2.2,3.3,5.2,3.5,9.2h-25.2C1438.1,621.1,1439.6,618.1,1441.9,615.9L1441.9,615.9z M1503.4,622.3
	l-14.8-17.3h-12.5l21.1,24.9l-21.1,25.6h12.4l14.8-18.1l15.7,18.1h12.7l-22.1-25.6l20.6-24.9h-12.7L1503.4,622.3z M1545.1,655.4
	c2.6,0.7,5.3,1,7.9,1c5,0,9.2-1.3,12.4-4c3.1-2.5,4.9-6.2,4.8-10.2c0-5.8-4.2-11.1-12.5-15.8l-3.5-2c-2-1-3.9-2.3-5.6-3.8
	c-1-0.9-1.5-2.1-1.6-3.4c0-1.3,0.7-2.6,1.8-3.3c1.4-0.9,3-1.3,4.7-1.2c3.7,0,8.5,1.8,14.4,5.4v-9.9c-4.6-2.6-9.8-4.1-15.1-4.2
	c-4.7,0-8.6,1.2-11.6,3.7c-2.9,2.3-4.6,5.8-4.5,9.5c0,3,1.1,6,3,8.3c2,2.5,6.1,5.6,12.5,9.2c2.2,1.2,4.3,2.6,6.2,4.2
	c1,1,1.5,2.3,1.4,3.7c-0.1,1.5-0.9,2.9-2.2,3.7c-1.6,1.1-3.4,1.6-5.3,1.5c-2.6-0.1-5.1-0.8-7.4-1.8c-3-1.3-5.9-2.9-8.6-4.8v10.8
	C1539.2,653.3,1542.1,654.5,1545.1,655.4L1545.1,655.4z M1582.7,585.5c-1.1,1.1-1.7,2.5-1.7,4.1c0,1.6,0.6,3.1,1.7,4.1
	c1,1.1,2.5,1.8,4,1.8c3.3,0,5.9-2.7,5.9-5.9c0-1.6-0.6-3.1-1.7-4.2c-1.1-1.1-2.6-1.7-4.2-1.7
	C1585.2,583.7,1583.8,584.4,1582.7,585.5L1582.7,585.5z M1581.9,655.5h9.9V605h-9.9V655.5L1581.9,655.5z M1599.1,614h8.7v22.4
	c-0.1,3.1,0.1,6.2,0.6,9.3c0.3,1.4,0.8,2.7,1.6,4c0.6,1,1.4,1.9,2.3,2.7c3.1,2.7,7.2,4.1,11.3,4c4.4,0,8.7-1.1,12.4-3.2v-9.3
	c-3.4,2.2-7.3,3.4-11.3,3.6c-4.8,0-7.1-2.9-7.1-8.7V614h15.8v-9h-15.8v-10.4l-18.6,18.5V614L1599.1,614z M1684.9,655.5V605h-9.9
	v36.1c-3.3,4.7-7.3,7-12,7c-3.8,0-6.4-1.1-7.9-3.2s-2.2-5.8-2.2-11.1V605h-9.9v28.9c0,6.3,0.7,10.9,2,13.6c1.3,2.7,3.4,5,6,6.5
	c2.6,1.6,5.7,2.4,8.7,2.4c2.8,0,5.6-0.7,8.1-1.9c2.7-1.3,5.2-3.2,7.2-5.4v6.5L1684.9,655.5L1684.9,655.5z M1705.2,655.4
	c2.6,0.7,5.3,1,7.9,1c5,0,9.2-1.3,12.4-4c3.1-2.5,4.9-6.2,4.8-10.2c0-5.8-4.2-11.1-12.5-15.8l-3.5-2c-2-1-3.9-2.3-5.6-3.8
	c-1-0.9-1.5-2.1-1.6-3.4c0-1.3,0.7-2.6,1.8-3.3c1.4-0.9,3-1.3,4.7-1.2c3.7,0,8.5,1.8,14.4,5.4v-9.9c-4.6-2.6-9.8-4.1-15.1-4.2
	c-4.7,0-8.6,1.2-11.6,3.7c-2.9,2.3-4.6,5.8-4.5,9.5c0,3,1.1,6,3,8.3c2,2.5,6.1,5.6,12.5,9.2c2.2,1.2,4.3,2.6,6.2,4.2
	c1,1,1.5,2.3,1.4,3.7c-0.1,1.5-0.9,2.9-2.2,3.7c-1.6,1.1-3.4,1.6-5.3,1.5c-2.6-0.1-5.1-0.8-7.4-1.8c-3-1.3-5.9-2.9-8.6-4.8v10.8
	C1699.2,653.3,1702.1,654.5,1705.2,655.4L1705.2,655.4z"/>
<circle class="st2" cx="156.2" cy="156.2" r="116.2"/>
<polygon class="st3" points="207.8,156.2 119.1,105 119.1,207.4 "/>
</svg>
