<?xml version="1.0" encoding="utf-8"?>
<!-- Generator: Adobe Illustrator 27.0.1, SVG Export Plug-In . SVG Version: 6.00 Build 0)  -->
<svg version="1.1" id="Layer_1" xmlns="http://www.w3.org/2000/svg" xmlns:xlink="http://www.w3.org/1999/xlink" x="0px" y="0px"
	 viewBox="0 0 740.5 740.5" enable-background="new 0 0 740.5 740.5" xml:space="preserve">
<g>
	<g>
		<g>
			<g>
				<g>
					<path fill="#64226E" d="M370.2,370.3l320.6-185.1c102.2,177.1,41.6,403.5-135.5,505.8c-59,34-117,49.6-185.1,49.6V370.3z"/>
				</g>
			</g>
		</g>
		<g>
			<g>
				<g>
					<path fill="#C5C6C8" d="M370.2,370.3L49.6,185.2C151.8,8.1,378.3-52.6,555.4,49.7c59,34,101.5,76.5,135.5,135.5L370.2,370.3z"
						/>
				</g>
			</g>
		</g>
		<g>
			<g>
				<g>
					<path fill="#CC081E" d="M370.2,370.3v370.2C165.8,740.5,0,574.8,0,370.3c0-68.1,15.6-126.2,49.6-185.1L370.2,370.3z"/>
				</g>
			</g>
		</g>
	</g>
	<g>
		<path d="M338.2,83.2c-2.1,0.2-4,0.2-5.8-0.1c-1.7-0.3-3.2-0.9-4.5-1.7s-2.3-1.9-3-3.1c-0.8-1.3-1.2-2.8-1.4-4.5
			c-0.1-1.2-0.1-2.6,0.1-4.1c0.2-1.5,0.5-3,0.9-4.5l3.9,0.7c-0.4,1.2-0.7,2.4-0.9,3.6c-0.2,1.2-0.2,2.2-0.1,3.1
			c0.2,1.7,1,2.9,2.5,3.6c1.5,0.8,3.5,1,6,0.7l3.2-0.3c2.7-0.3,4.8-0.8,6.3-1.6c1.5-0.8,2.4-1.7,2.5-2.7l-10-0.6l-0.6-5.6l2.3-0.3
			c1.8-0.2,2.9-0.5,3.5-1c0.6-0.5,0.8-1.2,0.7-2.3c0-0.4-0.1-0.9-0.3-1.5c-0.1-0.6-0.3-1.4-0.6-2.4l-1.1-3.6l4.3-1.2l1,3.6
			c0.2,0.7,0.4,1.5,0.6,2.4s0.3,1.6,0.4,2.3c0.2,1.9-0.3,3.4-1.6,4.5l0,0.2l0.8,0.1c1.3,0.2,2.4,0.7,3.2,1.4c0.8,0.7,1.3,1.7,1.4,3
			c0.2,1.6,0,3.1-0.5,4.5c-0.5,1.4-1.4,2.5-2.6,3.6s-2.7,1.8-4.4,2.5C342.6,82.5,340.6,82.9,338.2,83.2z M352.2,87.5
			c-0.7,0.1-1.3-0.1-1.8-0.5c-0.5-0.4-0.8-1-0.9-2c-0.1-0.9,0-1.6,0.4-2.1s0.9-0.7,1.6-0.8l0.8-0.1c0.7-0.1,1.3,0.1,1.8,0.5
			c0.5,0.4,0.8,1,0.9,2c0.1,0.9,0,1.6-0.4,2.1c-0.4,0.5-0.9,0.7-1.6,0.8L352.2,87.5z"/>
		<path d="M362.7,71.9c-2.7,0.1-4.7-0.5-6.1-1.7c-1.4-1.2-2.1-3.3-2.2-6.2l-0.9-21.4l4.8-0.2l0.8,20.6c0,1.2,0.3,2,0.8,2.3
			c0.5,0.4,1.3,0.5,2.5,0.5l1.2,0l0.2,4.8L362.7,71.9L362.7,71.9z"/>
		<path d="M362.3,67.1l1.2-1.2l1.2,0c1,0,1.8-0.1,2.4-0.2c0.6-0.1,1.1-0.2,1.5-0.4s0.6-0.5,0.8-0.8c0.1-0.3,0.2-0.7,0.2-1.1
			c0-0.4,0-0.9-0.1-1.5c-0.1-0.6-0.2-1.4-0.4-2.5l-0.7-3.7l4.3-0.8l0.7,3.7c0.1,0.7,0.3,1.5,0.4,2.4s0.1,1.7,0.2,2.3
			c0,2.9-0.6,5.1-2,6.4c-1.4,1.4-3.7,2.1-7,2.2l-2.4,0L362.3,67.1z M366.4,80.5c-0.7,0-1.3-0.2-1.7-0.6c-0.4-0.4-0.7-1.1-0.7-2
			c0-0.9,0.2-1.6,0.6-2.1c0.4-0.4,1-0.7,1.7-0.7l0.8,0c0.7,0,1.3,0.2,1.7,0.6c0.4,0.4,0.7,1.1,0.7,2s-0.2,1.6-0.6,2.1
			c-0.4,0.4-1,0.7-1.7,0.7L366.4,80.5z M372.7,80.4c-0.7,0-1.3-0.2-1.7-0.6c-0.4-0.4-0.7-1.1-0.7-2c0-0.9,0.2-1.6,0.6-2.1
			s1-0.7,1.7-0.7l0.8,0c0.7,0,1.3,0.2,1.7,0.6c0.4,0.4,0.7,1.1,0.7,2s-0.2,1.6-0.6,2.1s-1,0.7-1.7,0.7L372.7,80.4z"/>
		<path d="M376.4,75.4l1.6,0.1c2.4,0.1,4.2-0.3,5.4-1.2c1.2-0.9,1.8-2.5,1.9-4.8c0-0.6,0-1.3,0-1.9c0-0.7-0.1-1.4-0.2-2.2l-0.6-5.4
			l4.4-0.5l0.4,3.7c0.2,1.3,0.3,2.5,0.3,3.6s0.1,2,0.1,2.7c-0.1,1.9-0.4,3.6-1,5.2c-0.6,1.5-1.3,2.8-2.4,3.9c-1,1.1-2.2,1.8-3.7,2.4
			c-1.4,0.5-3.1,0.7-4.9,0.6l-1.6-0.1L376.4,75.4z M385.9,56.1c-0.7,0-1.2-0.3-1.7-0.7c-0.4-0.4-0.6-1.1-0.6-2.1
			c0-0.9,0.3-1.6,0.8-2c0.5-0.4,1-0.6,1.7-0.6l0.8,0c0.7,0,1.2,0.3,1.7,0.7c0.4,0.4,0.6,1.1,0.6,2.1c0,0.9-0.3,1.6-0.8,2
			c-0.5,0.4-1,0.6-1.7,0.6L385.9,56.1z"/>
		<path d="M400.7,73.3c-2.7-0.2-4.6-1-5.8-2.4c-1.2-1.4-1.7-3.5-1.4-6.4l1.8-21.4l4.8,0.4l-1.8,20.6c-0.1,1.2,0.1,2,0.5,2.4
			c0.4,0.4,1.3,0.7,2.4,0.8l1.2,0.1l-0.4,4.8L400.7,73.3L400.7,73.3z"/>
		<path d="M400.9,68.5l1.3-1l1.2,0.1c1,0.1,1.7,0.2,2.4,0.2c0.6,0,1.2-0.1,1.6-0.2c0.4-0.2,0.7-0.4,0.9-0.7c0.2-0.3,0.3-0.7,0.4-1.1
			c0-0.4,0.1-0.9,0.1-1.5c0-0.6,0-1.5-0.1-2.5l-0.2-3.8l4.4-0.2l0.1,3.8c0,0.7,0.1,1.5,0,2.4c0,0.9-0.1,1.7-0.2,2.3
			c-0.4,2.9-1.3,4.9-2.9,6.1c-1.6,1.2-4,1.6-7.2,1.2l-2.3-0.3L400.9,68.5z M406.2,82.6c-0.7-0.1-1.2-0.4-1.6-0.8
			c-0.4-0.5-0.5-1.2-0.4-2.1c0.1-0.9,0.4-1.6,0.9-1.9c0.5-0.4,1.1-0.5,1.8-0.4l0.8,0.1c0.7,0.1,1.2,0.4,1.6,0.8
			c0.4,0.5,0.5,1.2,0.4,2.1s-0.4,1.6-0.9,1.9c-0.5,0.4-1.1,0.5-1.8,0.4L406.2,82.6z"/>
	</g>
	<g>
		<path fill="#FFFFFF" d="M56.8,491.1c-0.8-2-1.2-3.9-1.4-5.6s0-3.4,0.5-4.8c0.5-1.4,1.2-2.7,2.2-3.7c1-1.1,2.4-1.9,4-2.5
			c1.1-0.4,2.4-0.8,4-1c1.5-0.2,3.1-0.3,4.6-0.3l0.3,4c-1.3-0.1-2.5-0.1-3.7,0.1s-2.2,0.4-3,0.7c-1.6,0.6-2.5,1.7-2.9,3.4
			c-0.3,1.7-0.1,3.7,0.9,6l1.2,3c1,2.6,2.2,4.4,3.5,5.7c1.3,1.2,2.7,1.7,4.1,1.3l-1.3-6.1c-0.5-2.4-0.5-4.5,0.1-6.1
			c0.6-1.6,1.9-2.8,3.8-3.5c1.3-0.5,2.6-0.8,4.1-0.8s2.9,0.2,4.3,0.6c1.4,0.4,2.7,1.1,3.8,2c1.1,0.9,2,2.1,2.5,3.5
			c0.6,1.6,0.7,3.1,0.4,4.6c-0.4,1.5-1.1,2.9-2.2,4.2l-5.1-2.6c0.5-0.6,0.9-1.4,1.1-2.2s0.2-1.8-0.2-2.8c-0.2-0.6-0.6-1.2-1.1-1.7
			c-0.5-0.5-1-0.9-1.5-1.2c-0.6-0.3-1.1-0.5-1.7-0.6c-0.6-0.1-1.2,0-1.7,0.2c-0.7,0.3-1.1,0.8-1.2,1.6s0,2,0.3,3.5l1,5
			c0.3,1.5,0.2,2.7-0.4,3.6c-0.6,0.9-1.6,1.7-3.2,2.3c-1.7,0.7-3.4,0.9-5,0.8c-1.6-0.1-3.1-0.6-4.5-1.4s-2.7-2-3.8-3.5
			C58.7,495.2,57.7,493.3,56.8,491.1z"/>
		<path fill="#FFFFFF" d="M68,503.4l0.7,1.4c1.1,2.2,2.3,3.5,3.7,4.1c1.4,0.6,3.1,0.3,5.1-0.7c0.5-0.3,1.1-0.6,1.7-1
			c0.6-0.4,1.2-0.8,1.8-1.3l4.4-3.1l2.5,3.6l-2.4,1.7l3.9,5.4l3.1-1.5l2,3.9l-5,2.5c-1.1,0.5-1.7,1.1-1.8,1.7
			c-0.1,0.6,0.1,1.4,0.6,2.5l0.5,1.1l-4.3,2.1l-1.6-0.5l-0.2-0.4c-0.9-1.8-1.2-3.4-1-4.8c0.2-1.4,1.1-2.6,2.6-3.7l-3.6-5
			c-0.2,0.1-0.4,0.2-0.6,0.3c-0.2,0.1-0.4,0.2-0.5,0.2c-1.7,0.9-3.4,1.4-5,1.7c-1.6,0.3-3.1,0.2-4.5-0.2c-1.4-0.4-2.7-1.1-3.9-2.1
			c-1.2-1-2.1-2.3-3-4l-0.7-1.5L68,503.4z M71.2,521.1c-0.3-0.6-0.4-1.2-0.2-1.8c0.2-0.6,0.7-1.1,1.5-1.5c0.8-0.4,1.5-0.5,2.1-0.3
			c0.6,0.2,1,0.6,1.3,1.2l0.4,0.7c0.3,0.6,0.4,1.2,0.2,1.8c-0.2,0.6-0.7,1.1-1.5,1.5c-0.8,0.4-1.5,0.5-2.1,0.3
			c-0.6-0.2-1-0.6-1.3-1.2L71.2,521.1z M74,526.8c-0.3-0.6-0.4-1.2-0.2-1.8c0.2-0.6,0.7-1.1,1.5-1.5c0.8-0.4,1.5-0.5,2.1-0.3
			s1,0.6,1.3,1.2l0.4,0.7c0.3,0.6,0.4,1.2,0.2,1.8c-0.2,0.6-0.7,1.1-1.5,1.5c-0.8,0.4-1.5,0.5-2.1,0.3c-0.6-0.2-1-0.6-1.3-1.2
			L74,526.8z"/>
		<path fill="#FFFFFF" d="M87.6,523.7l1.6,0.4l3.4,6c0.5,0.8,0.9,1.3,1.2,1.5c0.3,0.2,0.8,0.2,1.2-0.1c0.4-0.2,0.7-0.6,0.8-1
			c0.1-0.4,0.2-1.2,0.2-2.4l-0.2-7.3l9.1-5.3l14.9,13.6l-4.6,2.6L102,519.5l-0.2,0.1l0.1,5.1c0,1.4,0,2.6-0.2,3.6
			c-0.1,1-0.4,1.9-0.7,2.7c-0.3,0.8-0.8,1.4-1.3,2c-0.5,0.6-1.2,1.1-2,1.5c-2.4,1.4-4.6,1.9-6.3,1.5c-1.8-0.4-3.4-1.8-4.8-4.3
			l-3.2-5.6L87.6,523.7z M108.8,513.3l14.9,13.6l-1.7,1l-14.9-13.6L108.8,513.3z"/>
		<path fill="#FFFFFF" d="M95.8,546.9c-1-1.6-1.4-3-1.2-4.3c0.2-1.3,1.2-2.6,2.9-3.7l2.2-1.5l2.5,3.8l-2.1,1.4l3.4,5.1
			c1,1.5,2.1,1.9,3.2,1.1c0.3-0.2,0.5-0.4,0.7-0.8c0.2-0.3,0.4-0.8,0.6-1.3c0.2-0.5,0.4-1.2,0.5-2c0.2-0.8,0.3-1.7,0.5-2.8l0.9-5.3
			l5.9,1l-0.9,4.5c-0.3,1.4-0.6,2.6-0.9,3.6c-0.3,1-0.7,2-1.2,2.8c-0.5,0.8-1,1.5-1.6,2.2c-0.6,0.6-1.3,1.2-2.2,1.8
			c-2.1,1.4-4.2,1.9-6.1,1.6c-1.9-0.3-3.5-1.5-4.8-3.5L95.8,546.9z"/>
		<path fill="#FFFFFF" d="M109.8,567c-1.6-2.2-2.3-4.2-2-6c0.3-1.8,1.6-3.6,3.9-5.3l17.3-12.7l2.8,3.9l-16.7,12.2
			c-1,0.7-1.5,1.4-1.5,2c0,0.6,0.3,1.4,1,2.3l0.7,1l-3.9,2.8L109.8,567L109.8,567z"/>
		<path fill="#FFFFFF" d="M105.8,575.8c-0.4-0.5-0.6-1.1-0.6-1.7c0.1-0.6,0.5-1.2,1.2-1.8c0.7-0.6,1.4-0.8,2-0.7s1.1,0.4,1.6,0.9
			l0.5,0.6c0.4,0.5,0.6,1.1,0.6,1.7c-0.1,0.6-0.5,1.2-1.2,1.8c-0.7,0.6-1.4,0.8-2,0.7c-0.6-0.1-1.1-0.4-1.6-0.9L105.8,575.8z
			 M109.7,580.8c-0.4-0.5-0.6-1.1-0.6-1.7c0.1-0.6,0.5-1.2,1.2-1.8c0.7-0.6,1.4-0.8,2-0.7c0.6,0.1,1.1,0.4,1.6,0.9l0.5,0.6
			c0.4,0.5,0.6,1.1,0.6,1.7c-0.1,0.6-0.5,1.2-1.2,1.8s-1.4,0.8-2,0.7c-0.6-0.1-1.1-0.4-1.6-0.9L109.7,580.8z M113.9,564.5l1.7,0.2
			l0.7,0.9c0.6,0.8,1.1,1.4,1.6,1.8s0.9,0.8,1.3,0.9c0.4,0.2,0.8,0.2,1.1,0.2c0.3-0.1,0.7-0.3,1-0.5c0.3-0.2,0.7-0.6,1.1-1
			s1-1,1.7-1.8l2.5-2.8l3.3,3l-2.5,2.8c-0.5,0.6-1,1.1-1.7,1.7c-0.6,0.6-1.2,1.1-1.7,1.5c-2.3,1.8-4.4,2.6-6.3,2.3s-3.9-1.7-6-4.2
			l-1.5-1.9L113.9,564.5z"/>
	</g>
	<g>
		<path fill="#FFFFFF" d="M646.5,561.6c-2.1,3.1-4.5,4.8-7.1,5.3c-2.6,0.5-5.4-0.3-8.3-2.2c-1-0.7-2-1.6-3.1-2.7
			c-1.1-1.1-2-2.3-2.8-3.6l3.1-2.5c0.6,1.1,1.4,2.1,2.2,3c0.8,0.9,1.5,1.6,2.2,2.1c1.4,0.9,2.7,1.3,4.1,1c1.3-0.3,2.5-1.2,3.5-2.6
			l1.8-2.6c0.6-0.9,1-1.7,1.2-2.4c0.2-0.7,0.2-1.4,0-2.1c-0.2-0.7-0.7-1.4-1.3-2.1c-0.6-0.7-1.5-1.4-2.6-2.2l-21-14.4l2.7-4
			l19.5,13.3l2.5-3.7l4,2.7l0.3,1.7l-2,2.9c2.4,2.3,3.7,4.7,3.9,7.1C649.3,556.1,648.5,558.8,646.5,561.6z"/>
		<path fill="#FFFFFF" d="M643.3,540.4l-0.4-1.6l2.2-3.7l4.1,2.5l0.4,1.6l-2.2,3.7L643.3,540.4z"/>
		<path fill="#FFFFFF" d="M645.6,536.6l-0.4-1.6l2.2-3.7l4.1,2.4l0.4,1.6l-2.2,3.7L645.6,536.6z"/>
		<path fill="#FFFFFF" d="M647.9,532.7l-0.5-1.6l0.6-1.1c1-1.9,0.7-3.3-0.9-4.2l-5-2.8l2.1-3.9l5,2.8c1.6,0.9,2.9,0.5,3.8-1.1
			l0.8-1.4l4.2,2.3l0.5,1.6c-1,1.9-2.2,3.1-3.5,3.6c-1.3,0.6-2.8,0.5-4.7,0l-0.1,0.2c1.5,1.2,2.3,2.4,2.7,3.7
			c0.3,1.2,0.1,2.6-0.8,4.1L647.9,532.7z M661.7,535.5c-0.3,0.6-0.8,1-1.4,1.2c-0.6,0.2-1.3,0-2.1-0.4c-0.8-0.5-1.3-1-1.5-1.6
			c-0.2-0.6-0.1-1.2,0.3-1.8l0.4-0.7c0.3-0.6,0.8-1,1.4-1.2s1.3,0,2.1,0.4c0.8,0.5,1.3,1,1.5,1.6c0.2,0.6,0.1,1.2-0.3,1.8
			L661.7,535.5z M664.8,530c-0.3,0.6-0.8,1-1.4,1.2c-0.6,0.2-1.3,0-2.1-0.4c-0.8-0.5-1.3-1-1.5-1.6c-0.2-0.6-0.1-1.2,0.3-1.8
			l0.4-0.7c0.3-0.6,0.8-1,1.4-1.2c0.6-0.2,1.3,0,2.1,0.4s1.3,1,1.5,1.6c0.2,0.6,0.1,1.2-0.3,1.8L664.8,530z"/>
		<path fill="#FFFFFF" d="M654.5,520.9l-0.5-1.6l0.4-0.9c1-1.9,0.6-3.3-1.1-4.1l-18.6-9.3l2.1-4.3l18.6,9.3c1.7,0.8,2.9,0.4,3.8-1.3
			l0.6-1.3l4.3,2.1l0.5,1.6c-1,2-2.1,3.3-3.4,3.9c-1.3,0.6-2.8,0.7-4.7,0.2l-0.1,0.2c1.5,1.1,2.5,2.3,2.9,3.5c0.4,1.2,0.2,2.5-0.5,4
			L654.5,520.9z"/>
		<path fill="#FFFFFF" d="M661,508.6l-0.6-1.6l1.1-2.5c0.6-1.4,1.1-2.6,1.5-3.7c0.4-1.1,0.8-2.2,1-3.2c0.3-1,0.4-2.1,0.5-3.2
			s0.1-2.2,0-3.5l-0.1-1.6l-0.2-0.1l-3.7,5.4l-3.7,5l2.8,1.2l-1.8,4.2l-2.8-1.2c-1.7-0.7-2.9-1.6-3.4-2.7c-0.5-1.1-0.4-2.4,0.2-4
			c0.1-0.2,0.2-0.4,0.3-0.6c0.1-0.2,0.3-0.4,0.4-0.7c0.2-0.3,0.4-0.6,0.6-0.9c0.3-0.4,0.6-0.8,1-1.3l4.8-6.3c0.7-0.9,1.3-1.8,2-2.9
			c0.6-1.1,1.2-2.2,1.6-3.3l0.3-0.7l5.5,2.3l-1.1,2.6c0.7,0.3,1.3,0.3,1.7,0c0.4-0.3,0.8-0.9,1.2-1.8l0.5-1.1l4.4,1.9l0.6,1.6
			c-0.8,1.8-1.8,3.1-3.1,3.8c-1.3,0.7-2.8,0.8-4.7,0.3l0,0.2c0.4,2.1,0.7,3.9,0.8,5.5c0.1,1.6,0.1,3,0,4.3s-0.4,2.5-0.7,3.7
			c-0.3,1.1-0.8,2.3-1.3,3.5l-1.5,3.7L661,508.6z"/>
		<path fill="#FFFFFF" d="M658.3,474.3c-0.2,0.7-0.6,1.1-1.2,1.4c-0.5,0.3-1.3,0.3-2.1-0.1c-0.9-0.3-1.4-0.7-1.7-1.3
			c-0.3-0.6-0.3-1.2,0-1.8l0.3-0.8c0.2-0.7,0.6-1.1,1.2-1.4c0.5-0.3,1.3-0.3,2.1,0.1c0.9,0.3,1.4,0.7,1.7,1.3c0.3,0.6,0.3,1.2,0,1.8
			L658.3,474.3z M660.5,468.3c-0.2,0.7-0.6,1.1-1.2,1.4c-0.5,0.3-1.3,0.3-2.1-0.1c-0.9-0.3-1.4-0.7-1.7-1.3c-0.3-0.6-0.3-1.2,0-1.8
			l0.3-0.8c0.2-0.7,0.6-1.1,1.2-1.4c0.5-0.3,1.3-0.3,2.1,0.1c0.9,0.3,1.4,0.7,1.7,1.3c0.3,0.6,0.3,1.2,0,1.8L660.5,468.3z
			 M671.4,483.3l-0.7-1.5l0.4-1.1c0.3-0.9,0.5-1.7,0.7-2.3c0.1-0.6,0.2-1.1,0.1-1.6c-0.1-0.4-0.2-0.8-0.4-1c-0.2-0.2-0.6-0.4-1-0.6
			c-0.4-0.1-0.9-0.3-1.5-0.4c-0.6-0.1-1.4-0.3-2.4-0.5l-3.7-0.6l0.8-4.3l3.7,0.7c0.7,0.1,1.5,0.3,2.4,0.5c0.9,0.2,1.6,0.4,2.2,0.7
			c2.7,1,4.5,2.4,5.3,4.2s0.7,4.2-0.4,7.3l-0.8,2.2L671.4,483.3z"/>
	</g>
	<g>
		<path d="M288.5,215.8c-0.6,0-1-0.2-1.4-0.5s-0.5-0.8-0.5-1.5v-1.8h1.6v1.8h3.1c0.5,0,1,0,1.3,0c0.3,0,0.6-0.1,0.8-0.2
			s0.3-0.2,0.4-0.3c0.1-0.1,0.1-0.3,0.1-0.5c0-0.2,0-0.4-0.1-0.7c-0.1-0.3-0.2-0.7-0.4-1.2l-2.2-6.1l1.6-0.6l2.4,6.5
			c0.2,0.6,0.4,1.1,0.6,1.5c0.2,0.4,0.4,0.7,0.5,0.9c0.2,0.2,0.4,0.4,0.6,0.5c0.2,0.1,0.4,0.1,0.7,0.1h0.6v1.5l-0.5,0.5
			c-0.4,0-0.8,0-1.1-0.1c-0.3-0.1-0.6-0.2-0.8-0.4c-0.2-0.2-0.5-0.4-0.7-0.6c-0.2-0.3-0.4-0.6-0.6-1h-0.1c-0.1,0.8-0.4,1.3-0.9,1.6
			c-0.5,0.3-1.2,0.5-2.2,0.5H288.5z"/>
		<path d="M297.7,214.3l0.5-0.5h0.8c1.3,0,2-0.7,2-2v-3.7h1.6v3.7c0,1.3,0.7,2,2,2h0.8v1.5l-0.5,0.5c-2.1,0-3.4-0.8-3.8-2.3h-0.1
			c-0.2,0.9-0.5,1.4-1,1.8s-1.3,0.5-2.3,0.5V214.3z M300.2,220.5c-0.3,0-0.6-0.1-0.7-0.3c-0.2-0.2-0.3-0.5-0.3-0.9
			c0-0.4,0.1-0.7,0.3-0.9c0.2-0.2,0.4-0.3,0.7-0.3h0.3c0.3,0,0.6,0.1,0.7,0.3c0.2,0.2,0.3,0.5,0.3,0.9c0,0.4-0.1,0.7-0.3,0.9
			c-0.2,0.2-0.4,0.3-0.7,0.3H300.2z M303.2,220.5c-0.3,0-0.6-0.1-0.7-0.3c-0.2-0.2-0.3-0.5-0.3-0.9c0-0.4,0.1-0.7,0.3-0.9
			c0.2-0.2,0.4-0.3,0.7-0.3h0.3c0.3,0,0.6,0.1,0.7,0.3c0.2,0.2,0.3,0.5,0.3,0.9c0,0.4-0.1,0.7-0.3,0.9c-0.2,0.2-0.4,0.3-0.7,0.3
			H303.2z"/>
		<path d="M304.9,214.3l0.5-0.5h0.3c1,0,1.8-0.1,2.2-0.4c0.5-0.3,0.7-0.7,0.7-1.5c0-0.3,0-0.6-0.1-1.1c0-0.4-0.1-1-0.2-1.7l-0.3-1.9
			l1.6-0.3l0.3,1.9c0.1,0.8,0.2,1.4,0.2,1.9c0,0.5,0.1,0.9,0.1,1.2c0,1.3-0.4,2.3-1.1,2.9s-1.9,1-3.3,1h-0.8V214.3z M308.5,220.5
			c-0.3,0-0.6-0.1-0.7-0.3c-0.2-0.2-0.3-0.5-0.3-0.9c0-0.4,0.1-0.7,0.3-0.9c0.2-0.2,0.4-0.3,0.7-0.3h0.3c0.3,0,0.6,0.1,0.7,0.3
			c0.2,0.2,0.3,0.5,0.3,0.9c0,0.4-0.1,0.7-0.3,0.9c-0.2,0.2-0.4,0.3-0.7,0.3H308.5z"/>
		<path d="M317.1,215.8c-0.7,0-1.4-0.1-1.9-0.2c-0.5-0.1-0.9-0.3-1.3-0.6c-0.3-0.3-0.5-0.7-0.7-1.1c-0.1-0.5-0.2-1-0.2-1.7v-13.6
			h1.7v13.6c0,0.6,0.2,1,0.5,1.3s0.8,0.4,1.5,0.4h0.8v1.5L317.1,215.8L317.1,215.8z"/>
		<path d="M317.1,214.3l0.5-0.5h0.8c1.3,0,2-0.7,2-2v-3.7h1.6v3.7c0,1.3,0.7,2,2,2h0.8v1.5l-0.5,0.5c-2.1,0-3.4-0.8-3.8-2.3h-0.1
			c-0.2,0.9-0.5,1.4-1,1.8s-1.3,0.5-2.3,0.5V214.3z M319.5,220.5c-0.3,0-0.6-0.1-0.7-0.3c-0.2-0.2-0.3-0.5-0.3-0.9
			c0-0.4,0.1-0.7,0.3-0.9c0.2-0.2,0.4-0.3,0.7-0.3h0.3c0.3,0,0.6,0.1,0.7,0.3c0.2,0.2,0.3,0.5,0.3,0.9c0,0.4-0.1,0.7-0.3,0.9
			c-0.2,0.2-0.4,0.3-0.7,0.3H319.5z M322.5,220.5c-0.3,0-0.6-0.1-0.7-0.3c-0.2-0.2-0.3-0.5-0.3-0.9c0-0.4,0.1-0.7,0.3-0.9
			c0.2-0.2,0.4-0.3,0.7-0.3h0.3c0.3,0,0.6,0.1,0.7,0.3c0.2,0.2,0.3,0.5,0.3,0.9c0,0.4-0.1,0.7-0.3,0.9c-0.2,0.2-0.4,0.3-0.7,0.3
			H322.5z"/>
		<path d="M324.3,214.3l0.5-0.5h0.3c1,0,1.8-0.1,2.2-0.4c0.5-0.3,0.7-0.7,0.7-1.5c0-0.3,0-0.6-0.1-1.1c0-0.4-0.1-1-0.2-1.7l-0.3-1.9
			l1.6-0.3l0.3,1.9c0.1,0.8,0.2,1.4,0.2,1.9c0,0.5,0.1,0.9,0.1,1.2c0,1.3-0.4,2.3-1.1,2.9s-1.9,1-3.3,1h-0.8V214.3z M327.8,220.5
			c-0.3,0-0.6-0.1-0.7-0.3c-0.2-0.2-0.3-0.5-0.3-0.9c0-0.4,0.1-0.7,0.3-0.9c0.2-0.2,0.4-0.3,0.7-0.3h0.3c0.3,0,0.6,0.1,0.7,0.3
			c0.2,0.2,0.3,0.5,0.3,0.9c0,0.4-0.1,0.7-0.3,0.9c-0.2,0.2-0.4,0.3-0.7,0.3H327.8z"/>
		<path d="M337.9,198.6h1.7v17.2h-1.7V198.6z"/>
		<path d="M339.9,219.4h0.9c0.9,0,1.5-0.1,2.1-0.4c0.5-0.2,1-0.6,1.3-1c0.3-0.4,0.5-0.9,0.7-1.4s0.2-1.1,0.2-1.7
			c0-0.4,0-0.9-0.1-1.4c0-0.5-0.1-1-0.2-1.4l-0.5-2.6l1.6-0.3l0.3,1.8c0.2,1.4,0.4,2.8,0.4,4c0,0.9-0.1,1.7-0.3,2.5
			c-0.2,0.8-0.5,1.5-0.9,2.1c-0.4,0.6-1,1.1-1.8,1.4c-0.7,0.4-1.7,0.5-2.8,0.5h-0.9V219.4z"/>
		<path d="M361,221.4c-2.2,0-4-0.5-5.2-1.5c-1.3-1-1.9-2.4-1.9-4.3c0-0.7,0.1-1.5,0.3-2.3c0.2-0.8,0.5-1.6,0.8-2.4l1.4,0.4
			c-0.3,0.6-0.5,1.2-0.7,1.9c-0.2,0.7-0.3,1.3-0.3,1.9c0,1.3,0.4,2.3,1.3,3.1c0.9,0.7,2.1,1.1,3.6,1.1h1.4c0.9,0,1.8-0.1,2.5-0.3
			c0.7-0.2,1.3-0.4,1.8-0.8s0.9-0.7,1.1-1.1c0.3-0.4,0.4-0.8,0.4-1.2v0l-5-1.1V213h1c0.7,0,1.2-0.1,1.7-0.2c0.5-0.1,0.8-0.3,1.1-0.5
			c0.3-0.2,0.5-0.6,0.6-1c0.1-0.4,0.2-0.9,0.2-1.5v-0.7h-0.1c-0.2,0.5-0.6,0.9-1.1,1.2c-0.5,0.3-1.1,0.4-1.8,0.4
			c-1.2,0-2.2-0.3-2.9-1c-0.7-0.6-1-1.5-1-2.7c0-0.7,0.1-1.3,0.3-1.9c0.2-0.6,0.5-1.1,0.9-1.6s0.8-0.8,1.3-1.1s1.1-0.4,1.7-0.4
			c1.3,0,2.4,0.6,3.1,1.7c0.8,1.1,1.1,2.8,1.1,4.8c0,1.3-0.2,2.4-0.5,3.3c-0.3,0.8-1,1.5-1.9,1.8v0.1l1.3,0.3
			c0.9,0.2,1.4,0.9,1.4,1.8c0,0.7-0.2,1.4-0.5,2.1c-0.4,0.7-0.9,1.2-1.6,1.7c-0.7,0.5-1.5,0.9-2.6,1.2
			C363.4,221.3,362.3,221.4,361,221.4z M362.8,199.3c-0.3,0-0.6-0.1-0.7-0.3c-0.2-0.2-0.3-0.5-0.3-0.9c0-0.4,0.1-0.7,0.3-0.9
			c0.2-0.2,0.4-0.3,0.7-0.3h0.3c0.3,0,0.6,0.1,0.7,0.3c0.2,0.2,0.3,0.5,0.3,0.9c0,0.4-0.1,0.7-0.3,0.9c-0.2,0.2-0.4,0.3-0.7,0.3
			H362.8z M364.7,208.7c0.7,0,1.2-0.1,1.6-0.2c0.4-0.1,0.7-0.3,0.9-0.5c0-1.2-0.3-2.1-0.8-2.8c-0.5-0.7-1.2-1-2-1
			c-0.8,0-1.4,0.3-1.8,0.8c-0.4,0.5-0.6,1.2-0.6,2c0,0.7,0.2,1.1,0.5,1.4c0.4,0.3,0.9,0.4,1.7,0.4H364.7z M365.8,199.3
			c-0.3,0-0.6-0.1-0.7-0.3c-0.2-0.2-0.3-0.5-0.3-0.9c0-0.4,0.1-0.7,0.3-0.9c0.2-0.2,0.4-0.3,0.7-0.3h0.3c0.3,0,0.6,0.1,0.7,0.3
			c0.2,0.2,0.3,0.5,0.3,0.9c0,0.4-0.1,0.7-0.3,0.9c-0.2,0.2-0.4,0.3-0.7,0.3H365.8z"/>
		<path d="M370.6,219.4h1.2c1.7,0,3-0.3,3.9-0.9s1.5-1.5,1.7-2.6h-2.7c-1.2,0-2.2-0.3-2.9-1c-0.7-0.7-1-1.6-1-2.7
			c0-0.7,0.1-1.4,0.3-2c0.2-0.6,0.5-1.2,0.9-1.6c0.4-0.5,0.8-0.8,1.3-1.1c0.5-0.3,1.1-0.4,1.7-0.4c1.3,0,2.3,0.6,3,1.7
			c0.7,1.1,1.1,2.8,1.1,4.8v0.3h1.1v1.5l-0.5,0.5H379c-0.3,1.8-1.1,3.2-2.3,4.1s-2.8,1.5-4.9,1.5h-1.2V219.4z M372.5,211.9
			c0,0.7,0.2,1.2,0.5,1.5c0.4,0.3,0.9,0.5,1.7,0.5h2.8v-0.7c0-1.3-0.2-2.2-0.7-3c-0.5-0.7-1.1-1.1-1.9-1.1c-0.8,0-1.4,0.3-1.8,0.8
			C372.7,210.3,372.5,211,372.5,211.9z"/>
		<path d="M379.8,214.3l0.5-0.5h3.4l0-0.1c-0.8-0.6-1.4-1.3-1.8-2c-0.4-0.7-0.7-1.6-0.7-2.5c0-0.6,0.1-1.2,0.3-1.7s0.5-1,0.9-1.4
			s0.8-0.7,1.3-1c0.5-0.2,1.1-0.4,1.7-0.4c0.6,0,1.2,0.1,1.7,0.4c0.5,0.2,1,0.6,1.3,1s0.7,0.9,0.9,1.4s0.3,1.1,0.3,1.8
			c0,1-0.2,1.8-0.7,2.5c-0.4,0.7-1,1.4-1.8,2l0,0.1h3.4v1.5l-0.5,0.5h-0.3c-0.8,0-1.5-0.1-2.3-0.3c-0.7-0.2-1.4-0.4-2.1-0.8
			c-0.7,0.4-1.3,0.6-2.1,0.8c-0.7,0.2-1.5,0.3-2.3,0.3h-1.3V214.3z M383.7,201.9c-0.3,0-0.6-0.1-0.7-0.3c-0.2-0.2-0.3-0.5-0.3-0.9
			s0.1-0.7,0.3-0.9c0.2-0.2,0.4-0.3,0.7-0.3h0.3c0.3,0,0.6,0.1,0.7,0.3c0.2,0.2,0.3,0.5,0.3,0.9s-0.1,0.7-0.3,0.9
			c-0.2,0.2-0.4,0.3-0.7,0.3H383.7z M385.4,213.1c0.8-0.4,1.4-0.9,1.9-1.5c0.5-0.6,0.7-1.3,0.7-2.1c0-0.8-0.2-1.5-0.7-2
			s-1-0.7-1.8-0.7h-0.2c-0.7,0-1.3,0.2-1.8,0.7c-0.4,0.5-0.7,1.2-0.7,2c0,0.8,0.2,1.6,0.7,2.1C384,212.2,384.6,212.7,385.4,213.1z
			 M386.7,201.9c-0.3,0-0.6-0.1-0.7-0.3c-0.2-0.2-0.3-0.5-0.3-0.9s0.1-0.7,0.3-0.9c0.2-0.2,0.4-0.3,0.7-0.3h0.3
			c0.3,0,0.6,0.1,0.7,0.3c0.2,0.2,0.3,0.5,0.3,0.9s-0.1,0.7-0.3,0.9c-0.2,0.2-0.4,0.3-0.7,0.3H386.7z"/>
		<path d="M390.1,214.3l0.5-0.5h0.8c0.7,0,1.3,0,1.9-0.1c0.6,0,1.2-0.1,1.8-0.3c0.6-0.1,1.2-0.3,1.9-0.6c0.7-0.2,1.4-0.6,2.3-1
			l2.1-1v-0.1l-3.4-0.8l-4.8-1.2v2h-1.6v-1.8c0-0.7,0.2-1.1,0.5-1.5c0.4-0.3,0.8-0.5,1.4-0.5c0.2,0,0.4,0,0.6,0.1
			c0.2,0,0.6,0.1,1.1,0.2l5.7,1.5c0.9,0.2,1.6,0.4,2.1,0.5c0.6,0.1,1.1,0.1,1.5,0.1h0.4v2H403l-3.2,1.9c-1,0.6-1.8,1-2.6,1.4
			c-0.7,0.3-1.4,0.6-2.1,0.7c-0.7,0.2-1.3,0.3-1.9,0.3c-0.6,0-1.3,0.1-2,0.1h-1.3V214.3z"/>
		<path d="M417.4,222.9c-2.1,0-3.7-0.4-4.8-1.3c-1.1-0.9-1.7-2.2-1.7-3.8c0-0.6,0.1-1.2,0.2-1.7c0.2-0.5,0.4-1,0.8-1.4
			s0.9-0.9,1.5-1.3s1.4-0.9,2.3-1.4l0.3-0.1l-3.2-3.9v-2c0.7-0.4,1.4-0.6,2.2-0.8c0.8-0.2,1.6-0.3,2.3-0.3c1.4,0,2.5,0.3,3.3,0.9
			c0.8,0.6,1.2,1.4,1.2,2.4c0,0.4,0,0.8-0.1,1.2c-0.1,0.4-0.2,0.7-0.5,1s-0.5,0.7-0.9,1c-0.4,0.3-0.9,0.6-1.5,0.9l-0.2,0.1
			c0.3,0.3,0.6,0.6,0.9,0.8c0.3,0.2,0.6,0.4,0.9,0.5s0.7,0.2,1.1,0.3c0.4,0.1,0.8,0.1,1.3,0.1h1.3v1.5l-0.5,0.5h-0.9
			c-0.7,0-1.2,0-1.7-0.1c-0.5-0.1-1-0.2-1.4-0.5c-0.4-0.2-0.9-0.5-1.3-0.9c-0.4-0.4-0.9-0.8-1.3-1.4l-0.4,0.2
			c-0.7,0.4-1.3,0.7-1.8,1.1s-0.9,0.7-1.2,1s-0.5,0.7-0.7,1c-0.1,0.3-0.2,0.7-0.2,1.1v0.3c0,1,0.4,1.8,1.3,2.4s2,0.8,3.5,0.8
			c1,0,1.8-0.2,2.6-0.5c0.8-0.4,1.6-1,2.3-1.8l1.3,1.6c-0.9,1-1.9,1.7-2.9,2.2C419.8,222.7,418.6,222.9,417.4,222.9z M414.3,207.3
			l3.1,3.7l0.5-0.3c0.8-0.4,1.4-0.9,1.7-1.2c0.3-0.4,0.5-0.8,0.5-1.2c0-0.5-0.3-0.9-0.8-1.2c-0.5-0.3-1.2-0.4-2.2-0.4
			c-0.4,0-0.9,0-1.4,0.1C415.4,206.9,414.8,207,414.3,207.3L414.3,207.3z"/>
		<path d="M423.6,214.3l0.5-0.5h0.3c1,0,1.8-0.1,2.2-0.4c0.5-0.3,0.7-0.7,0.7-1.5c0-0.3,0-0.6-0.1-1.1c0-0.4-0.1-1-0.2-1.7l-0.3-1.9
			l1.6-0.3l0.3,1.9c0.1,0.8,0.2,1.4,0.2,1.9c0,0.5,0.1,0.9,0.1,1.2c0,1.3-0.4,2.3-1.1,2.9s-1.9,1-3.3,1h-0.8V214.3z M427.1,220.5
			c-0.3,0-0.6-0.1-0.7-0.3c-0.2-0.2-0.3-0.5-0.3-0.9c0-0.4,0.1-0.7,0.3-0.9c0.2-0.2,0.4-0.3,0.7-0.3h0.3c0.3,0,0.6,0.1,0.7,0.3
			c0.2,0.2,0.3,0.5,0.3,0.9c0,0.4-0.1,0.7-0.3,0.9c-0.2,0.2-0.4,0.3-0.7,0.3H427.1z"/>
		<path d="M435.7,215.8c-0.7,0-1.4-0.1-1.9-0.2c-0.5-0.1-0.9-0.3-1.3-0.6c-0.3-0.3-0.5-0.7-0.7-1.1c-0.1-0.5-0.2-1-0.2-1.7v-13.6
			h1.7v13.6c0,0.6,0.2,1,0.5,1.3s0.8,0.4,1.5,0.4h0.8v1.5L435.7,215.8L435.7,215.8z"/>
		<path d="M435.7,214.3l0.5-0.5h0.8c1.3,0,2-0.7,2-2v-3.7h1.6v3.7c0,1.3,0.7,2,2,2h0.8v1.5l-0.5,0.5c-2.1,0-3.4-0.8-3.8-2.3H439
			c-0.2,0.9-0.5,1.4-1,1.8s-1.3,0.5-2.3,0.5V214.3z M439.6,205.4c-0.3,0-0.6-0.1-0.7-0.3c-0.2-0.2-0.3-0.5-0.3-0.9s0.1-0.7,0.3-0.9
			c0.2-0.2,0.4-0.3,0.7-0.3h0.3c0.3,0,0.6,0.1,0.7,0.3c0.2,0.2,0.3,0.5,0.3,0.9s-0.1,0.7-0.3,0.9c-0.2,0.2-0.4,0.3-0.7,0.3H439.6z"
			/>
		<path d="M446,214.5c-0.4,0.5-0.8,0.8-1.2,1c-0.5,0.2-1.1,0.3-1.8,0.3v-1.5l0.5-0.5c0.3,0,0.5,0,0.8-0.1c0.2-0.1,0.4-0.2,0.6-0.4
			c0.2-0.2,0.3-0.4,0.4-0.7c0.1-0.3,0.3-0.6,0.4-1l0.7-1.7c0.4-0.9,0.8-1.6,1.4-2.1c0.6-0.5,1.4-0.8,2.3-0.8c1.1,0,2,0.5,2.7,1.6
			c0.6,1,0.9,2.5,0.9,4.3v1.1l-1.4,2L446,214.5z M446.9,212.7l5,1.3v-1c0-1.2-0.2-2.2-0.6-2.8c-0.4-0.7-0.9-1-1.7-1
			c-0.6,0-1,0.2-1.4,0.5c-0.3,0.4-0.6,0.8-0.8,1.3L446.9,212.7z"/>
	</g>
	<g>
		<path fill="#FFFFFF" d="M151.1,414.1h0.8c0.8,0,1.5-0.1,2-0.4c0.5-0.2,0.9-0.5,1.2-0.9c0.3-0.4,0.5-0.8,0.6-1.4
			c0.1-0.5,0.2-1.1,0.2-1.6c0-0.4,0-0.9-0.1-1.3c0-0.5-0.1-0.9-0.2-1.3l-0.5-2.5l1.5-0.3l0.3,1.7c0.2,1.3,0.4,2.6,0.4,3.8
			c0,0.8-0.1,1.6-0.3,2.3s-0.5,1.4-0.9,2s-1,1-1.7,1.4c-0.7,0.3-1.6,0.5-2.6,0.5h-0.8V414.1z"/>
		<path fill="#FFFFFF" d="M160.8,410.7c-0.5,0-1-0.2-1.3-0.5c-0.3-0.3-0.5-0.8-0.5-1.4v-1.7h1.5v1.7h3c0.5,0,0.9,0,1.2,0
			c0.3,0,0.6-0.1,0.8-0.1c0.2-0.1,0.3-0.2,0.4-0.3c0.1-0.1,0.1-0.3,0.1-0.5c0-0.2,0-0.4-0.1-0.6c-0.1-0.2-0.2-0.6-0.4-1.1l-2.1-5.8
			l1.6-0.6l2.2,6.2c0.2,0.6,0.4,1.1,0.6,1.4c0.2,0.4,0.3,0.7,0.5,0.9c0.2,0.2,0.4,0.4,0.5,0.5c0.2,0.1,0.4,0.1,0.6,0.1h0.5v1.5
			l-0.4,0.4c-0.4,0-0.7,0-1-0.1c-0.3-0.1-0.6-0.2-0.8-0.3c-0.2-0.2-0.4-0.4-0.6-0.6c-0.2-0.2-0.4-0.6-0.6-0.9h-0.1
			c-0.1,0.7-0.4,1.2-0.8,1.5c-0.5,0.3-1.2,0.5-2.1,0.5H160.8z M163.7,397.4c-0.3,0-0.5-0.1-0.7-0.3s-0.3-0.4-0.3-0.8
			c0-0.4,0.1-0.7,0.3-0.8c0.2-0.2,0.4-0.3,0.7-0.3h0.2c0.3,0,0.5,0.1,0.7,0.3c0.2,0.2,0.3,0.4,0.3,0.8c0,0.4-0.1,0.7-0.3,0.8
			c-0.2,0.2-0.4,0.3-0.7,0.3H163.7z"/>
		<path fill="#FFFFFF" d="M169.5,409.3l0.4-0.4h2c0.7,0,1.3-0.1,1.6-0.2c0.3-0.2,0.5-0.4,0.5-0.8c0-0.1,0-0.2-0.1-0.4
			c0-0.1-0.1-0.3-0.2-0.4c-0.1-0.2-0.2-0.3-0.4-0.5c-0.1-0.2-0.3-0.5-0.6-0.7l-2.7-3.3v-3.8l9.5-4.4v2l-8.7,4v0.1l4.9,6.1
			c0.4,0.5,0.7,0.9,1,1.2c0.3,0.3,0.6,0.5,0.9,0.7c0.3,0.2,0.6,0.3,1,0.4c0.3,0.1,0.7,0.1,1.1,0.1v1.5l-0.4,0.4c-0.5,0-1,0-1.4-0.1
			c-0.4-0.1-0.7-0.2-1.1-0.4s-0.6-0.5-1-0.8c-0.3-0.3-0.6-0.8-1-1.3l-0.4-0.5l-0.1,0c0,0.1,0,0.2,0,0.3c0,0.1,0,0.2,0,0.3
			c0,0.8-0.2,1.4-0.7,1.8c-0.5,0.4-1.1,0.7-1.9,0.7h-2.5V409.3z M170.2,395.9l9.5-4.4v1.1l-9.5,4.4V395.9z"/>
		<path fill="#FFFFFF" d="M179.5,409.3l0.4-0.4h3.2l0-0.1c-0.7-0.6-1.3-1.2-1.7-1.9c-0.4-0.7-0.6-1.4-0.6-2.2c0-0.5,0.1-1.1,0.3-1.6
			s0.4-0.9,0.7-1.3c0.3-0.4,0.7-0.7,1.1-0.9c0.4-0.2,0.9-0.4,1.4-0.5l0.8-1.3l3.3,2c0.8,0.5,1.4,0.9,1.9,1.4s1,1,1.3,1.6
			c0.3,0.6,0.6,1.2,0.7,1.9c0.2,0.7,0.2,1.5,0.2,2.3v0.4l-1.3,1.9h-2.5c-0.7,0-1.5-0.1-2.2-0.3c-0.7-0.2-1.3-0.4-2-0.8
			c-0.6,0.3-1.3,0.6-2,0.8c-0.7,0.2-1.4,0.3-2.2,0.3h-1.2V409.3z M184.8,408.2c0.7-0.4,1.3-0.9,1.7-1.5c0.4-0.6,0.6-1.3,0.6-1.9
			c0-0.8-0.2-1.4-0.6-1.9c-0.4-0.5-0.9-0.7-1.6-0.7h-0.2c-0.7,0-1.2,0.2-1.6,0.7c-0.4,0.5-0.6,1.1-0.6,1.9c0,0.7,0.2,1.3,0.6,1.9
			C183.5,407.2,184.1,407.8,184.8,408.2z M188.4,403.2c0.2,0.5,0.3,1,0.3,1.5c0,0.7-0.2,1.5-0.6,2.2s-0.9,1.3-1.7,1.9l0,0.1h4.7
			v-0.2c0-0.7-0.1-1.2-0.2-1.8c-0.1-0.5-0.3-1-0.5-1.4s-0.5-0.8-0.8-1.2C189.3,403.8,188.9,403.5,188.4,403.2L188.4,403.2z"/>
		<path fill="#FFFFFF" d="M192.4,414.1h0.8c0.8,0,1.5-0.1,2-0.4c0.5-0.2,0.9-0.5,1.2-0.9c0.3-0.4,0.5-0.8,0.6-1.4
			c0.1-0.5,0.2-1.1,0.2-1.6c0-0.4,0-0.9-0.1-1.3c0-0.5-0.1-0.9-0.2-1.3l-0.5-2.5l1.5-0.3l0.3,1.7c0.2,1.3,0.4,2.6,0.4,3.8
			c0,0.8-0.1,1.6-0.3,2.3s-0.5,1.4-0.9,2s-1,1-1.7,1.4c-0.7,0.3-1.6,0.5-2.6,0.5h-0.8V414.1z"/>
		<path fill="#FFFFFF" d="M203.4,414.1h0.8c0.8,0,1.5-0.1,2-0.4c0.5-0.2,0.9-0.5,1.2-0.9c0.3-0.4,0.5-0.8,0.6-1.4
			c0.1-0.5,0.2-1.1,0.2-1.6c0-0.4,0-0.9-0.1-1.3c0-0.5-0.1-0.9-0.2-1.3l-0.5-2.5l1.5-0.3l0.3,1.7c0.2,1.3,0.4,2.6,0.4,3.8
			c0,0.8-0.1,1.6-0.3,2.3s-0.5,1.4-0.9,2s-1,1-1.7,1.4c-0.7,0.3-1.6,0.5-2.6,0.5h-0.8V414.1z M207.8,401.7c-0.3,0-0.5-0.1-0.7-0.3
			s-0.3-0.4-0.3-0.8c0-0.4,0.1-0.7,0.3-0.8c0.2-0.2,0.4-0.3,0.7-0.3h0.2c0.3,0,0.5,0.1,0.7,0.3c0.2,0.2,0.3,0.4,0.3,0.8
			c0,0.4-0.1,0.7-0.3,0.8s-0.4,0.3-0.7,0.3H207.8z"/>
		<path fill="#FFFFFF" d="M212.2,394.4h1.6v16.3h-1.6V394.4z"/>
		<path fill="#FFFFFF" d="M222.3,394.4h1.6v16.3h-1.6V394.4z"/>
		<path fill="#FFFFFF" d="M224.3,414.1h0.8c0.8,0,1.5-0.1,2-0.4c0.5-0.2,0.9-0.5,1.2-0.9c0.3-0.4,0.5-0.8,0.6-1.4
			c0.1-0.5,0.2-1.1,0.2-1.6c0-0.4,0-0.9-0.1-1.3c0-0.5-0.1-0.9-0.2-1.3l-0.5-2.5l1.5-0.3l0.3,1.7c0.2,1.3,0.4,2.6,0.4,3.8
			c0,0.8-0.1,1.6-0.3,2.3s-0.5,1.4-0.9,2s-1,1-1.7,1.4c-0.7,0.3-1.6,0.5-2.6,0.5h-0.8V414.1z"/>
		<path fill="#FFFFFF" d="M243.3,416c-1.8,0-3.3-0.5-4.3-1.5s-1.5-2.3-1.5-4c0-0.7,0.1-1.4,0.3-2.1c0.2-0.8,0.4-1.5,0.8-2.3l1.4,0.4
			c-0.3,0.6-0.5,1.3-0.7,1.9s-0.3,1.3-0.3,1.9c0,1.2,0.3,2.1,1,2.8s1.6,1,2.8,1h1.3c0.7,0,1.3-0.1,1.7-0.2c0.5-0.2,0.9-0.4,1.2-0.8
			c0.3-0.4,0.5-0.8,0.6-1.4c0.1-0.6,0.2-1.3,0.2-2.1v-15h1.6v14.4h2.7v1.5l-0.4,0.4h-2.3c-0.2,1.8-0.7,3.2-1.7,4
			S245.2,416,243.3,416z"/>
		<path fill="#FFFFFF" d="M251.6,409.3l0.4-0.4h0.8c1.2,0,1.9-0.6,1.9-1.9v-12.5h1.6v12.5c0,1.2,0.6,1.9,1.9,1.9h0.8v1.5l-0.4,0.4
			c-2.1,0-3.3-0.7-3.7-2.2h-0.1c-0.2,0.8-0.5,1.4-0.9,1.7c-0.5,0.3-1.2,0.5-2.2,0.5V409.3z"/>
		<path fill="#FFFFFF" d="M263.2,411.5c-0.5-0.3-0.9-0.5-1.3-0.6c-0.4-0.1-0.9-0.2-1.4-0.2h-2v-1.5l0.4-0.4h1.6v-14.4h1.6V409
			c0.3,0.1,0.6,0.2,0.9,0.3c0.3,0.1,0.6,0.3,1,0.5l1.1,0.6l-0.9,1.6L263.2,411.5z"/>
		<path fill="#FFFFFF" d="M266.1,394.4h1.6v16.3h-1.6V394.4z"/>
		<path fill="#FFFFFF" d="M290.2,410.7c-0.7,0-1.2-0.1-1.7-0.2c-0.5-0.1-0.9-0.3-1.2-0.6c-0.3-0.3-0.5-0.6-0.6-1.1
			c-0.1-0.4-0.2-1-0.2-1.6v-0.2l-3.7,0.6c0.1,0.5,0.1,1,0.2,1.3c0,0.4,0.1,0.7,0.1,1.1c0,2-0.5,3.5-1.6,4.4
			c-1.1,0.9-2.8,1.4-5.1,1.4c-1.9,0-3.4-0.5-4.5-1.5c-1.1-1-1.6-2.3-1.6-4c0-0.7,0.1-1.4,0.3-2.1c0.2-0.8,0.4-1.5,0.8-2.3l1.4,0.4
			c-0.3,0.6-0.5,1.2-0.7,1.8c-0.2,0.6-0.3,1.2-0.3,1.8c0,1.2,0.4,2.2,1.1,2.9c0.7,0.7,1.7,1,2.9,1h1.3c1.6,0,2.7-0.3,3.4-0.9
			c0.7-0.6,1.1-1.6,1.1-2.9c0-0.2,0-0.5,0-0.7c0-0.2,0-0.5-0.1-0.8c0-0.3-0.1-0.6-0.2-1c-0.1-0.4-0.1-0.7-0.2-1.2l-0.4-1.8l1.5-0.3
			l0.3,1.6l4-0.7v-1.8h1.5v3.8c0,0.6,0.2,1,0.5,1.2c0.3,0.2,0.8,0.4,1.4,0.4h0.8v1.5L290.2,410.7L290.2,410.7z M276.7,403.8
			c-0.3,0-0.5-0.1-0.7-0.3c-0.2-0.2-0.3-0.4-0.3-0.8c0-0.4,0.1-0.7,0.3-0.8c0.2-0.2,0.4-0.3,0.7-0.3h0.2c0.3,0,0.5,0.1,0.7,0.3
			c0.2,0.2,0.3,0.4,0.3,0.8c0,0.4-0.1,0.7-0.3,0.8c-0.2,0.2-0.4,0.3-0.7,0.3H276.7z M285.7,415.1c-0.3,0-0.5-0.1-0.7-0.3
			c-0.2-0.2-0.3-0.4-0.3-0.8c0-0.4,0.1-0.7,0.3-0.8c0.2-0.2,0.4-0.3,0.7-0.3h0.2c0.3,0,0.5,0.1,0.7,0.3c0.2,0.2,0.3,0.4,0.3,0.8
			c0,0.4-0.1,0.7-0.3,0.8c-0.2,0.2-0.4,0.3-0.7,0.3H285.7z M288.6,415.1c-0.3,0-0.5-0.1-0.7-0.3c-0.2-0.2-0.3-0.4-0.3-0.8
			c0-0.4,0.1-0.7,0.3-0.8c0.2-0.2,0.4-0.3,0.7-0.3h0.2c0.3,0,0.5,0.1,0.7,0.3c0.2,0.2,0.3,0.4,0.3,0.8c0,0.4-0.1,0.7-0.3,0.8
			c-0.2,0.2-0.4,0.3-0.7,0.3H288.6z"/>
		<path fill="#FFFFFF" d="M290.3,409.3l0.4-0.4h0.3c1,0,1.7-0.1,2.1-0.4s0.6-0.7,0.6-1.4c0-0.3,0-0.6-0.1-1c0-0.4-0.1-1-0.2-1.6
			l-0.3-1.8l1.5-0.2l0.3,1.8c0.1,0.7,0.2,1.3,0.2,1.8c0,0.5,0.1,0.8,0.1,1.1c0,1.2-0.4,2.1-1.1,2.8c-0.7,0.6-1.8,0.9-3.2,0.9h-0.8
			V409.3z M293.6,415.1c-0.3,0-0.5-0.1-0.7-0.3c-0.2-0.2-0.3-0.4-0.3-0.8c0-0.4,0.1-0.7,0.3-0.8c0.2-0.2,0.4-0.3,0.7-0.3h0.2
			c0.3,0,0.5,0.1,0.7,0.3c0.2,0.2,0.3,0.4,0.3,0.8c0,0.4-0.1,0.7-0.3,0.8c-0.2,0.2-0.4,0.3-0.7,0.3H293.6z"/>
		<path fill="#FFFFFF" d="M308.8,416c-2,0-3.6-0.5-4.7-1.5c-1.1-1-1.7-2.3-1.7-4c0-0.7,0.1-1.4,0.3-2.1c0.2-0.8,0.4-1.5,0.8-2.3
			l1.4,0.4c-0.3,0.6-0.5,1.2-0.7,1.8c-0.2,0.6-0.3,1.2-0.3,1.8c0,1.2,0.4,2.2,1.1,2.9c0.8,0.7,1.8,1,3.2,1h1.3c1.8,0,3.2-0.3,4-0.9
			c0.9-0.6,1.3-1.6,1.3-2.9v-0.9h-0.1c-0.2,0.5-0.5,0.9-1,1.1c-0.5,0.3-1,0.4-1.7,0.4c-1.2,0-2.1-0.3-2.7-0.9c-0.6-0.6-1-1.5-1-2.6
			c0-0.7,0.1-1.3,0.3-1.9s0.5-1.1,0.8-1.5s0.8-0.8,1.3-1c0.5-0.3,1-0.4,1.6-0.4c1.3,0,2.3,0.6,3,1.8c0.7,1.2,1.1,2.9,1,5.1
			c0,2.3-0.6,4-1.8,5.1S311.3,416,308.8,416z M310.6,399.7c-0.3,0-0.5-0.1-0.7-0.3c-0.2-0.2-0.3-0.4-0.3-0.8c0-0.4,0.1-0.7,0.3-0.8
			s0.4-0.3,0.7-0.3h0.2c0.3,0,0.5,0.1,0.7,0.3s0.3,0.4,0.3,0.8c0,0.4-0.1,0.7-0.3,0.8c-0.2,0.2-0.4,0.3-0.7,0.3H310.6z M312.3,408.8
			c0.6,0,1.1-0.1,1.5-0.2c0.4-0.1,0.7-0.3,0.9-0.5c0-1.2-0.2-2.1-0.7-2.8c-0.5-0.7-1.1-1-1.9-1c-0.7,0-1.3,0.2-1.7,0.7
			c-0.4,0.5-0.6,1.2-0.6,2c0,0.6,0.2,1.1,0.5,1.4c0.3,0.3,0.9,0.4,1.6,0.4H312.3z M313.4,399.7c-0.3,0-0.5-0.1-0.7-0.3
			c-0.2-0.2-0.3-0.4-0.3-0.8c0-0.4,0.1-0.7,0.3-0.8s0.4-0.3,0.7-0.3h0.2c0.3,0,0.5,0.1,0.7,0.3s0.3,0.4,0.3,0.8
			c0,0.4-0.1,0.7-0.3,0.8c-0.2,0.2-0.4,0.3-0.7,0.3H313.4z"/>
		<path fill="#FFFFFF" d="M318,414.1h1.2c1.6,0,2.8-0.3,3.7-0.9c0.9-0.6,1.4-1.4,1.6-2.5h-2.6c-1.2,0-2.1-0.3-2.7-0.9
			c-0.6-0.6-1-1.5-1-2.6c0-0.7,0.1-1.3,0.3-1.9s0.5-1.1,0.8-1.5c0.4-0.4,0.8-0.8,1.3-1c0.5-0.3,1-0.4,1.6-0.4c1.2,0,2.2,0.5,2.9,1.6
			c0.7,1.1,1,2.6,1,4.6v0.2h1v1.5l-0.4,0.4h-0.8c-0.3,1.7-1,3-2.2,3.9c-1.1,0.9-2.7,1.4-4.6,1.4H318V414.1z M319.7,407
			c0,0.6,0.2,1.1,0.5,1.4c0.3,0.3,0.9,0.4,1.6,0.4h2.7v-0.7c0-1.2-0.2-2.1-0.7-2.8c-0.4-0.7-1.1-1-1.8-1c-0.7,0-1.3,0.2-1.7,0.7
			C319.9,405.5,319.7,406.2,319.7,407z"/>
		<path fill="#FFFFFF" d="M326.7,409.3l0.4-0.4h3.2l0-0.1c-0.7-0.6-1.3-1.2-1.7-1.9c-0.4-0.7-0.6-1.5-0.6-2.4c0-0.6,0.1-1.1,0.3-1.7
			c0.2-0.5,0.5-1,0.8-1.4c0.4-0.4,0.8-0.7,1.3-0.9c0.5-0.2,1-0.3,1.6-0.3c0.6,0,1.1,0.1,1.6,0.3c0.5,0.2,0.9,0.5,1.3,0.9
			c0.4,0.4,0.6,0.8,0.8,1.4c0.2,0.5,0.3,1.1,0.3,1.7c0,0.9-0.2,1.7-0.6,2.4c-0.4,0.7-1,1.3-1.7,1.9l0,0.1h3.2v1.5l-0.4,0.4h-0.3
			c-0.7,0-1.5-0.1-2.2-0.3c-0.7-0.2-1.3-0.4-2-0.8c-0.6,0.3-1.3,0.6-2,0.8c-0.7,0.2-1.4,0.3-2.2,0.3h-1.2V409.3z M330.4,397.5
			c-0.3,0-0.5-0.1-0.7-0.3c-0.2-0.2-0.3-0.4-0.3-0.8s0.1-0.7,0.3-0.8c0.2-0.2,0.4-0.3,0.7-0.3h0.2c0.3,0,0.5,0.1,0.7,0.3
			c0.2,0.2,0.3,0.4,0.3,0.8s-0.1,0.7-0.3,0.8c-0.2,0.2-0.4,0.3-0.7,0.3H330.4z M332,408.2c0.7-0.4,1.3-0.9,1.8-1.5s0.7-1.2,0.7-2
			s-0.2-1.4-0.6-1.9c-0.4-0.5-1-0.7-1.7-0.7h-0.2c-0.7,0-1.3,0.2-1.7,0.7c-0.4,0.5-0.6,1.1-0.6,1.9s0.2,1.5,0.7,2
			C330.6,407.3,331.2,407.7,332,408.2z M333.2,397.5c-0.3,0-0.5-0.1-0.7-0.3c-0.2-0.2-0.3-0.4-0.3-0.8s0.1-0.7,0.3-0.8
			c0.2-0.2,0.4-0.3,0.7-0.3h0.2c0.3,0,0.5,0.1,0.7,0.3c0.2,0.2,0.3,0.4,0.3,0.8s-0.1,0.7-0.3,0.8c-0.2,0.2-0.4,0.3-0.7,0.3H333.2z"
			/>
		<path fill="#FFFFFF" d="M336.4,409.3l0.4-0.4h0.7c0.6,0,1.2,0,1.8-0.1s1.1-0.1,1.7-0.3c0.6-0.1,1.2-0.3,1.8-0.5
			c0.6-0.2,1.4-0.5,2.2-0.9l2-1V406l-3.3-0.7l-4.6-1.1v1.9h-1.5v-1.7c0-0.6,0.2-1.1,0.5-1.4c0.3-0.3,0.8-0.5,1.3-0.5
			c0.2,0,0.4,0,0.6,0.1c0.2,0,0.6,0.1,1.1,0.2l5.4,1.4c0.8,0.2,1.5,0.3,2,0.4c0.5,0.1,1,0.1,1.4,0.1h0.4v1.9h-1.7l-3,1.8
			c-0.9,0.5-1.7,1-2.4,1.3c-0.7,0.3-1.4,0.5-2,0.7c-0.6,0.2-1.2,0.2-1.8,0.3c-0.6,0-1.2,0.1-1.9,0.1h-1.2V409.3z"/>
		<path fill="#FFFFFF" d="M181.2,448c-2.1,0-3.8-0.5-5-1.5s-1.8-2.3-1.8-4c0-0.7,0.1-1.4,0.3-2.1c0.2-0.8,0.4-1.5,0.8-2.3l1.4,0.4
			c-0.3,0.6-0.5,1.2-0.7,1.8c-0.2,0.6-0.3,1.2-0.3,1.8c0,1.2,0.4,2.2,1.2,2.9s2,1,3.4,1h1.3c1.8,0,3.1-0.3,4.1-1
			c1-0.7,1.5-1.6,1.5-2.8V442l-3.5-0.8c-1.3-0.3-2.2-0.7-2.8-1.3c-0.6-0.6-0.9-1.3-0.9-2.2c0-0.7,0.1-1.4,0.4-2
			c0.3-0.7,0.6-1.2,1.1-1.8c0.4-0.5,1-0.9,1.6-1.3c0.6-0.3,1.2-0.5,1.8-0.5c0.8,0,1.5,0.2,2,0.5c0.5,0.3,1,0.8,1.4,1.5l-1.3,1.3
			c-0.3-0.5-0.6-0.8-1-1c-0.4-0.2-0.8-0.3-1.3-0.3c-0.4,0-0.8,0.1-1.2,0.3c-0.4,0.2-0.7,0.4-1,0.7c-0.3,0.3-0.5,0.7-0.7,1.1
			c-0.2,0.4-0.3,0.8-0.3,1.3c0,0.5,0.2,0.8,0.5,1.1c0.4,0.3,0.9,0.5,1.7,0.7l3,0.7c0.7,0.2,1.1,0.4,1.5,0.8c0.3,0.4,0.5,0.8,0.5,1.5
			c0,0.9-0.2,1.7-0.5,2.4c-0.3,0.7-0.8,1.3-1.5,1.8c-0.7,0.5-1.5,0.9-2.4,1.1C183.5,447.9,182.4,448,181.2,448z"/>
		<path fill="#FFFFFF" d="M195,442.7c-0.7,0-1.3-0.1-1.8-0.2c-0.5-0.1-0.9-0.3-1.2-0.6c-0.3-0.3-0.5-0.6-0.6-1.1
			c-0.1-0.4-0.2-1-0.2-1.6v-12.8h1.6v12.8c0,0.6,0.2,1,0.5,1.2c0.3,0.2,0.8,0.4,1.4,0.4h0.8v1.5L195,442.7L195,442.7z"/>
		<path fill="#FFFFFF" d="M195.1,441.3l0.4-0.4h3.2l0-0.1c-0.7-0.6-1.3-1.2-1.7-1.9c-0.4-0.7-0.6-1.4-0.6-2.2c0-0.5,0.1-1.1,0.3-1.6
			s0.4-0.9,0.7-1.3c0.3-0.4,0.7-0.7,1.1-0.9c0.4-0.2,0.9-0.4,1.4-0.5l0.8-1.3l3.3,2c0.8,0.5,1.4,0.9,1.9,1.4s1,1,1.3,1.6
			c0.3,0.6,0.6,1.2,0.7,1.9c0.2,0.7,0.2,1.5,0.2,2.3v0.4l-1.3,1.9h-2.5c-0.7,0-1.5-0.1-2.2-0.3c-0.7-0.2-1.3-0.4-2-0.8
			c-0.6,0.3-1.3,0.6-2,0.8c-0.7,0.2-1.4,0.3-2.2,0.3h-1.2V441.3z M200.4,440.2c0.7-0.4,1.3-0.9,1.7-1.5c0.4-0.6,0.6-1.3,0.6-1.9
			c0-0.8-0.2-1.4-0.6-1.9c-0.4-0.5-0.9-0.7-1.6-0.7h-0.2c-0.7,0-1.2,0.2-1.6,0.7c-0.4,0.5-0.6,1.1-0.6,1.9c0,0.7,0.2,1.3,0.6,1.9
			C199.1,439.2,199.7,439.8,200.4,440.2z M204,435.2c0.2,0.5,0.3,1,0.3,1.5c0,0.7-0.2,1.5-0.6,2.2s-0.9,1.3-1.7,1.9l0,0.1h4.7v-0.2
			c0-0.7-0.1-1.2-0.2-1.8c-0.1-0.5-0.3-1-0.5-1.4s-0.5-0.8-0.8-1.2C204.9,435.8,204.5,435.5,204,435.2L204,435.2z"/>
		<path fill="#FFFFFF" d="M208,446.1h0.8c0.8,0,1.5-0.1,2-0.4c0.5-0.2,0.9-0.5,1.2-0.9c0.3-0.4,0.5-0.8,0.6-1.4
			c0.1-0.5,0.2-1.1,0.2-1.6c0-0.4,0-0.9-0.1-1.3c0-0.5-0.1-0.9-0.2-1.3l-0.5-2.5l1.5-0.3l0.3,1.7c0.2,1.3,0.4,2.6,0.4,3.8
			c0,0.8-0.1,1.6-0.3,2.3s-0.5,1.4-0.9,2s-1,1-1.7,1.4c-0.7,0.3-1.6,0.5-2.6,0.5H208V446.1z"/>
		<path fill="#FFFFFF" d="M220.6,442.7c-0.7,0-1.3-0.1-1.8-0.2c-0.5-0.1-0.9-0.3-1.2-0.6c-0.3-0.3-0.5-0.6-0.6-1.1
			c-0.1-0.4-0.2-1-0.2-1.6v-12.8h1.6v12.8c0,0.6,0.2,1,0.5,1.2c0.3,0.2,0.8,0.4,1.4,0.4h0.8v1.5L220.6,442.7L220.6,442.7z"/>
		<path fill="#FFFFFF" d="M220.6,441.3l0.4-0.4h0.8c1.2,0,1.9-0.6,1.9-1.9v-3.5h1.5v3.5c0,1.2,0.6,1.9,1.9,1.9h0.8v1.5l-0.4,0.4
			c-2,0-3.2-0.7-3.6-2.2h-0.1c-0.2,0.8-0.5,1.4-0.9,1.7c-0.5,0.3-1.2,0.5-2.2,0.5V441.3z M222.8,432.8c-0.3,0-0.5-0.1-0.7-0.3
			c-0.2-0.2-0.3-0.4-0.3-0.8c0-0.4,0.1-0.7,0.3-0.8c0.2-0.2,0.4-0.3,0.7-0.3h0.2c0.3,0,0.5,0.1,0.7,0.3c0.2,0.2,0.3,0.4,0.3,0.8
			c0,0.4-0.1,0.7-0.3,0.8s-0.4,0.3-0.7,0.3H222.8z M225.7,432.8c-0.3,0-0.5-0.1-0.7-0.3s-0.3-0.4-0.3-0.8c0-0.4,0.1-0.7,0.3-0.8
			c0.2-0.2,0.4-0.3,0.7-0.3h0.2c0.3,0,0.5,0.1,0.7,0.3c0.2,0.2,0.3,0.4,0.3,0.8c0,0.4-0.1,0.7-0.3,0.8c-0.2,0.2-0.4,0.3-0.7,0.3
			H225.7z"/>
		<path fill="#FFFFFF" d="M227.4,441.3l0.4-0.4h3.2l0-0.1c-0.7-0.6-1.3-1.2-1.7-1.9c-0.4-0.7-0.6-1.5-0.6-2.4c0-0.6,0.1-1.1,0.3-1.7
			c0.2-0.5,0.5-1,0.8-1.4c0.4-0.4,0.8-0.7,1.3-0.9c0.5-0.2,1-0.3,1.6-0.3c0.6,0,1.1,0.1,1.6,0.3c0.5,0.2,0.9,0.5,1.3,0.9
			c0.4,0.4,0.6,0.8,0.8,1.4c0.2,0.5,0.3,1.1,0.3,1.7c0,0.9-0.2,1.7-0.6,2.4c-0.4,0.7-1,1.3-1.7,1.9l0,0.1h3.2v1.5l-0.4,0.4h-0.3
			c-0.7,0-1.5-0.1-2.2-0.3c-0.7-0.2-1.3-0.4-2-0.8c-0.6,0.3-1.3,0.6-2,0.8c-0.7,0.2-1.4,0.3-2.2,0.3h-1.2V441.3z M232.7,440.2
			c0.7-0.4,1.3-0.9,1.8-1.5s0.7-1.2,0.7-2s-0.2-1.4-0.6-1.9c-0.4-0.5-1-0.7-1.7-0.7h-0.2c-0.7,0-1.3,0.2-1.7,0.7
			c-0.4,0.5-0.6,1.1-0.6,1.9s0.2,1.5,0.7,2C231.4,439.3,232,439.7,232.7,440.2z M232.6,429.5c-0.3,0-0.5-0.1-0.7-0.3
			c-0.2-0.2-0.3-0.4-0.3-0.8s0.1-0.7,0.3-0.8c0.2-0.2,0.4-0.3,0.7-0.3h0.2c0.3,0,0.5,0.1,0.7,0.3c0.2,0.2,0.3,0.4,0.3,0.8
			s-0.1,0.7-0.3,0.8c-0.2,0.2-0.4,0.3-0.7,0.3H232.6z"/>
		<path fill="#FFFFFF" d="M237.1,441.3l0.4-0.4h2.3c0.7,0,1.3-0.1,1.6-0.4c0.4-0.3,0.6-0.7,0.6-1.2c0-0.3-0.1-0.6-0.2-0.8
			c-0.1-0.2-0.4-0.5-0.7-0.9l-3.4-3.2v-3.7l9.5-4.4v2l-8.7,4v0.1l2.6,2.5c0.5,0.4,0.8,0.8,1.2,1.2c0.3,0.4,0.6,0.7,0.8,1.1
			c0.2,0.3,0.3,0.7,0.4,1c0.1,0.3,0.1,0.7,0.1,1c0,1.1-0.3,2-1,2.6c-0.7,0.6-1.6,0.9-2.8,0.9h-2.7V441.3z M237.8,427.9l9.5-4.4v1.1
			l-9.5,4.4V427.9z"/>
		<path fill="#FFFFFF" d="M265.7,443c-1.7,0-2.7-0.7-3-2.2h-0.1c-0.1,0.6-0.4,1.1-0.9,1.4c-0.4,0.3-1,0.5-1.7,0.5h-1.5
			c-0.1,1.8-0.6,3.2-1.6,4c-1,0.9-2.5,1.3-4.6,1.3c-1,0-1.9-0.1-2.8-0.4c-0.8-0.2-1.5-0.6-2.1-1.1c-0.6-0.5-1-1-1.3-1.7
			c-0.3-0.7-0.4-1.5-0.4-2.3c0-0.7,0.1-1.4,0.3-2.1c0.2-0.8,0.4-1.5,0.8-2.3l1.4,0.4c-0.3,0.6-0.5,1.2-0.7,1.8
			c-0.2,0.6-0.3,1.2-0.3,1.8c0,1.2,0.4,2.2,1.2,2.9c0.8,0.7,1.9,1,3.3,1h1.3c1.4,0,2.4-0.3,3.1-0.9c0.7-0.6,1-1.6,1-2.9
			c0-0.4,0-0.8-0.1-1.3c-0.1-0.5-0.2-1.3-0.4-2.3l-0.2-1l1.5-0.3l0.2,1c0.1,0.6,0.2,1.1,0.3,1.5s0.1,0.8,0.2,1.1h2
			c0.7,0,1.2-0.1,1.6-0.4c0.3-0.3,0.5-0.8,0.5-1.4v-1.7h1.5v1.7c0,0.8,0.1,1.3,0.3,1.7s0.6,0.5,1.1,0.5h0.4c0.9,0,1.4-0.5,1.4-1.4
			c0-0.2,0-0.5,0-0.9s-0.1-0.8-0.1-1.2l-0.2-1.2l1.5-0.2l0.2,1.2c0.1,0.5,0.1,0.9,0.1,1.3c0,0.4,0,0.8,0,1.1c0,1-0.3,1.8-0.8,2.4
			C267.5,442.7,266.7,443,265.7,443z"/>
		<path fill="#FFFFFF" d="M268.5,446.1h0.8c0.8,0,1.5-0.1,2-0.4c0.5-0.2,0.9-0.5,1.2-0.9c0.3-0.4,0.5-0.8,0.6-1.4
			c0.1-0.5,0.2-1.1,0.2-1.6c0-0.4,0-0.9-0.1-1.3c0-0.5-0.1-0.9-0.2-1.3l-0.5-2.5l1.5-0.3l0.3,1.7c0.2,1.3,0.4,2.6,0.4,3.8
			c0,0.8-0.1,1.6-0.3,2.3s-0.5,1.4-0.9,2s-1,1-1.7,1.4c-0.7,0.3-1.6,0.5-2.6,0.5h-0.8V446.1z"/>
		<path fill="#FFFFFF" d="M278.1,442.7c-0.5,0-1-0.2-1.3-0.5c-0.3-0.3-0.5-0.8-0.5-1.4v-1.7h1.5v1.7h3.6c0.4,0,0.7,0,1-0.1
			c0.3-0.1,0.5-0.2,0.6-0.4s0.3-0.3,0.3-0.5c0.1-0.2,0.1-0.4,0.1-0.6c0-0.5-0.2-1-0.5-1.5c-0.3-0.5-0.9-1.2-1.6-1.9l-2.3-2.5
			l1.4-1.4l2.2,2.5c0.4,0.5,0.8,1,1.1,1.4c0.3,0.4,0.5,0.8,0.7,1.2c0.2,0.4,0.3,0.8,0.4,1.2c0.1,0.4,0.1,0.8,0.1,1.2
			c0,1.1-0.3,1.9-1,2.5s-1.6,0.9-2.8,0.9H278.1z"/>
		<path fill="#FFFFFF" d="M291.9,446.1h1.5c1.8,0,3.1-0.4,3.9-1.2c0.9-0.8,1.3-1.9,1.3-3.3v-0.5h-0.1c-0.2,0.5-0.5,0.9-1,1.1
			c-0.5,0.3-1,0.4-1.7,0.4c-1.2,0-2.1-0.3-2.7-0.9c-0.6-0.6-1-1.5-1-2.6c0-0.7,0.1-1.3,0.3-1.9s0.5-1.1,0.8-1.5
			c0.4-0.4,0.8-0.8,1.3-1c0.5-0.3,1-0.4,1.6-0.4c1.3,0,2.3,0.5,3,1.6c0.7,1.1,1.1,2.6,1.1,4.6c0,2.3-0.6,4.2-1.7,5.5
			c-1.1,1.3-2.8,2-5.1,2h-1.5V446.1z M296.2,440.8c0.6,0,1.1-0.1,1.5-0.2c0.4-0.1,0.7-0.3,0.9-0.5c0-1.2-0.2-2.1-0.7-2.8
			c-0.5-0.7-1.1-1-1.9-1c-0.7,0-1.3,0.2-1.7,0.7c-0.4,0.5-0.6,1.2-0.6,2c0,0.6,0.2,1.1,0.5,1.4c0.3,0.3,0.9,0.4,1.6,0.4H296.2z"/>
		<path fill="#FFFFFF" d="M308.8,442.7c-0.5,0-1-0.2-1.3-0.5c-0.3-0.3-0.5-0.8-0.5-1.4v-1.7h1.5v1.7h3.6c0.4,0,0.7,0,1-0.1
			c0.3-0.1,0.5-0.2,0.6-0.4s0.3-0.3,0.3-0.5c0.1-0.2,0.1-0.4,0.1-0.6c0-0.5-0.2-1-0.5-1.5c-0.3-0.5-0.9-1.2-1.6-1.9l-2.3-2.5
			l1.4-1.4l2.2,2.5c0.4,0.5,0.8,1,1.1,1.4c0.3,0.4,0.5,0.8,0.7,1.2c0.2,0.4,0.3,0.8,0.4,1.2c0.1,0.4,0.1,0.8,0.1,1.2
			c0,1.1-0.3,1.9-1,2.5s-1.6,0.9-2.8,0.9H308.8z"/>
		<path fill="#FFFFFF" d="M322.1,442.7c-0.7,0-1.3-0.1-1.8-0.2c-0.5-0.1-0.9-0.3-1.2-0.6c-0.3-0.3-0.5-0.6-0.6-1.1
			c-0.1-0.4-0.2-1-0.2-1.6v-12.8h1.6v12.8c0,0.6,0.2,1,0.5,1.2c0.3,0.2,0.8,0.4,1.4,0.4h0.8v1.5L322.1,442.7L322.1,442.7z"/>
		<path fill="#FFFFFF" d="M322.1,441.3l0.4-0.4h0.8c1.2,0,1.9-0.6,1.9-1.9v-3.5h1.5v3.5c0,1.2,0.6,1.9,1.9,1.9h0.8v1.5l-0.4,0.4
			c-2,0-3.2-0.7-3.6-2.2h-0.1c-0.2,0.8-0.5,1.4-0.9,1.7c-0.5,0.3-1.2,0.5-2.2,0.5V441.3z M325.8,432.8c-0.3,0-0.5-0.1-0.7-0.3
			s-0.3-0.4-0.3-0.8c0-0.4,0.1-0.7,0.3-0.8c0.2-0.2,0.4-0.3,0.7-0.3h0.2c0.3,0,0.5,0.1,0.7,0.3c0.2,0.2,0.3,0.4,0.3,0.8
			c0,0.4-0.1,0.7-0.3,0.8c-0.2,0.2-0.4,0.3-0.7,0.3H325.8z"/>
		<path fill="#FFFFFF" d="M329,441.3l0.4-0.4h0.8c0.3,0,0.5,0,0.7-0.1c0.2-0.1,0.4-0.1,0.6-0.3s0.3-0.3,0.5-0.5
			c0.2-0.2,0.3-0.5,0.5-0.9l0.9-1.8l1.3,0.6l-1.2,2.2l0.3,0.2c0.5,0.3,0.9,0.5,1.4,0.6c0.4,0.1,0.9,0.2,1.3,0.2
			c0.7,0,1.2-0.2,1.5-0.5c0.3-0.3,0.5-0.9,0.5-1.6v-1.7h1.5v1.7c0,0.8,0.1,1.3,0.3,1.7s0.6,0.5,1.1,0.5h0.4c0.9,0,1.4-0.5,1.4-1.4
			c0-0.2,0-0.5,0-0.9s-0.1-0.8-0.1-1.2l-0.2-1.2l1.5-0.2l0.2,1.2c0.1,0.5,0.1,0.9,0.1,1.3c0,0.4,0,0.8,0,1.1c0,1-0.3,1.8-0.8,2.4
			c-0.5,0.6-1.3,0.9-2.3,0.9c-1.7,0-2.7-0.7-3-2.2h-0.1c-0.1,0.7-0.4,1.2-0.8,1.6c-0.4,0.4-1,0.6-1.6,0.6c-0.9,0-1.9-0.3-2.9-1
			l-0.7-0.4c-0.4,0.5-0.9,0.8-1.5,1c-0.5,0.2-1.2,0.3-2.1,0.3V441.3z"/>
		<path fill="#FFFFFF" d="M347.5,426.4h1.6v16.3h-1.6V426.4z"/>
		<path fill="#FFFFFF" d="M150.5,474.7c-0.5,0-1-0.2-1.3-0.5c-0.3-0.3-0.5-0.8-0.5-1.4v-1.7h1.5v1.7h3.6c0.4,0,0.7,0,1-0.1
			c0.3-0.1,0.5-0.2,0.6-0.4s0.3-0.3,0.3-0.5c0.1-0.2,0.1-0.4,0.1-0.6c0-0.5-0.2-1-0.5-1.5c-0.3-0.5-0.9-1.2-1.6-1.9l-2.3-2.5
			l1.4-1.4l2.2,2.5c0.4,0.5,0.8,1,1.1,1.4c0.3,0.4,0.5,0.8,0.7,1.2c0.2,0.4,0.3,0.8,0.4,1.2c0.1,0.4,0.1,0.8,0.1,1.2
			c0,1.1-0.3,1.9-1,2.5s-1.6,0.9-2.8,0.9H150.5z"/>
		<path fill="#FFFFFF" d="M160,458.4h1.6v16.3H160V458.4z"/>
		<path fill="#FFFFFF" d="M164,478.1h1.2c1.6,0,2.8-0.3,3.7-0.9c0.9-0.6,1.4-1.4,1.6-2.5h-2.6c-1.2,0-2.1-0.3-2.7-0.9
			c-0.6-0.6-1-1.5-1-2.6c0-0.7,0.1-1.3,0.3-1.9s0.5-1.1,0.8-1.5c0.4-0.4,0.8-0.8,1.3-1c0.5-0.3,1-0.4,1.6-0.4c1.2,0,2.2,0.5,2.9,1.6
			c0.7,1.1,1,2.6,1,4.6v0.2h1v1.5l-0.4,0.4h-0.8c-0.3,1.7-1,3-2.2,3.9c-1.1,0.9-2.7,1.4-4.6,1.4H164V478.1z M165.8,471
			c0,0.6,0.2,1.1,0.5,1.4c0.3,0.3,0.9,0.4,1.6,0.4h2.7v-0.7c0-1.2-0.2-2.1-0.7-2.8c-0.4-0.7-1.1-1-1.8-1c-0.7,0-1.3,0.2-1.7,0.7
			C166,469.5,165.8,470.2,165.8,471z"/>
		<path fill="#FFFFFF" d="M175.6,473.4c-0.3,0.5-0.7,0.8-1.2,1c-0.4,0.2-1,0.3-1.7,0.3v-1.5l0.4-0.4c0.3,0,0.5,0,0.7-0.1
			s0.4-0.2,0.5-0.3c0.2-0.2,0.3-0.4,0.4-0.6c0.1-0.3,0.3-0.6,0.4-0.9l0.6-1.6c0.3-0.9,0.8-1.6,1.3-2s1.3-0.7,2.2-0.7
			c1.1,0,1.9,0.5,2.5,1.5c0.6,1,0.9,2.3,0.9,4.1v1l-1.3,1.9L175.6,473.4z M176.5,471.7l4.8,1.3V472c0-1.1-0.2-2-0.6-2.7
			s-0.9-1-1.6-1c-0.6,0-1,0.2-1.3,0.5c-0.3,0.3-0.6,0.8-0.8,1.3L176.5,471.7z"/>
		<path fill="#FFFFFF" d="M209.8,475c-1.7,0-2.7-0.7-3-2.2h-0.1c-0.1,0.6-0.4,1.1-0.9,1.4c-0.4,0.3-1,0.5-1.7,0.5h-1.5
			c-0.1,1.8-0.6,3.2-1.6,4c-1,0.9-2.5,1.3-4.6,1.3c-1,0-1.9-0.1-2.8-0.4c-0.8-0.2-1.5-0.6-2.1-1.1c-0.6-0.5-1-1-1.3-1.7
			c-0.3-0.7-0.4-1.5-0.4-2.3c0-0.7,0.1-1.4,0.3-2.1c0.2-0.8,0.4-1.5,0.8-2.3l1.4,0.4c-0.3,0.6-0.5,1.2-0.7,1.8
			c-0.2,0.6-0.3,1.2-0.3,1.8c0,1.2,0.4,2.2,1.2,2.9c0.8,0.7,1.9,1,3.3,1h1.3c1.4,0,2.4-0.3,3.1-0.9c0.7-0.6,1-1.6,1-2.9
			c0-0.4,0-0.8-0.1-1.3c-0.1-0.5-0.2-1.3-0.4-2.3l-0.2-1l1.5-0.3l0.2,1c0.1,0.6,0.2,1.1,0.3,1.5s0.1,0.8,0.2,1.1h2
			c0.7,0,1.2-0.1,1.6-0.4c0.3-0.3,0.5-0.8,0.5-1.4v-1.7h1.5v1.7c0,0.8,0.1,1.3,0.3,1.7s0.6,0.5,1.1,0.5h0.4c0.9,0,1.4-0.5,1.4-1.4
			c0-0.2,0-0.5,0-0.9s-0.1-0.8-0.1-1.2l-0.2-1.2l1.5-0.2l0.2,1.2c0.1,0.5,0.1,0.9,0.1,1.3c0,0.4,0,0.8,0,1.1c0,1-0.3,1.8-0.8,2.4
			C211.5,474.7,210.8,475,209.8,475z"/>
		<path fill="#FFFFFF" d="M219.4,474.7c-0.7,0-1.3-0.1-1.8-0.2c-0.5-0.1-0.9-0.3-1.2-0.6c-0.3-0.3-0.5-0.6-0.6-1.1
			c-0.1-0.4-0.2-1-0.2-1.6v-12.8h1.6v12.8c0,0.6,0.2,1,0.5,1.2c0.3,0.2,0.8,0.4,1.4,0.4h0.8v1.5L219.4,474.7L219.4,474.7z"/>
		<path fill="#FFFFFF" d="M219.4,473.3l0.4-0.4h0.8c0.3,0,0.5,0,0.7-0.1c0.2-0.1,0.4-0.1,0.6-0.3s0.3-0.3,0.5-0.5
			c0.2-0.2,0.3-0.5,0.5-0.9l0.9-1.8l1.3,0.6l-1.2,2.2l0.3,0.2c0.5,0.3,0.9,0.5,1.4,0.6c0.4,0.1,0.9,0.2,1.3,0.2
			c0.7,0,1.2-0.2,1.5-0.5c0.3-0.3,0.5-0.9,0.5-1.6v-1.7h1.5v1.7c0,0.8,0.1,1.3,0.3,1.7s0.6,0.5,1.1,0.5h0.4c0.9,0,1.4-0.5,1.4-1.4
			c0-0.2,0-0.5,0-0.9s-0.1-0.8-0.1-1.2l-0.2-1.2l1.5-0.2l0.2,1.2c0.1,0.5,0.1,0.9,0.1,1.3c0,0.4,0,0.8,0,1.1c0,1-0.3,1.8-0.8,2.4
			c-0.5,0.6-1.3,0.9-2.3,0.9c-1.7,0-2.7-0.7-3-2.2H229c-0.1,0.7-0.4,1.2-0.8,1.6c-0.4,0.4-1,0.6-1.6,0.6c-0.9,0-1.9-0.3-2.9-1
			l-0.7-0.4c-0.4,0.5-0.9,0.8-1.5,1c-0.5,0.2-1.2,0.3-2.1,0.3V473.3z"/>
		<path fill="#FFFFFF" d="M238,458.4h1.6v16.3H238V458.4z"/>
		<path fill="#FFFFFF" d="M245.1,478.1h0.8c0.8,0,1.5-0.1,2-0.4c0.5-0.2,0.9-0.5,1.2-0.9c0.3-0.4,0.5-0.8,0.6-1.4
			c0.1-0.5,0.2-1.1,0.2-1.6c0-0.4,0-0.9-0.1-1.3c0-0.5-0.1-0.9-0.2-1.3l-0.5-2.5l1.5-0.3l0.3,1.7c0.1,0.5,0.2,1,0.2,1.5
			c0.1,0.5,0.1,0.9,0.1,1.3h2.1v1.5l-0.4,0.4h-1.7c-0.1,0.7-0.2,1.4-0.4,2c-0.2,0.6-0.5,1.2-0.9,1.7c-0.4,0.5-1,0.9-1.6,1.1
			c-0.7,0.3-1.5,0.4-2.4,0.4h-0.8V478.1z"/>
		<path fill="#FFFFFF" d="M253,473.3l0.4-0.4h0.3c1,0,1.7-0.1,2.1-0.4c0.4-0.2,0.6-0.7,0.6-1.4c0-0.3,0-0.6-0.1-1
			c0-0.4-0.1-1-0.2-1.6l-0.3-1.8l1.5-0.2l0.3,1.8c0.1,0.7,0.2,1.3,0.2,1.8c0,0.5,0.1,0.8,0.1,1.1c0,1.2-0.4,2.1-1.1,2.8
			c-0.7,0.6-1.8,0.9-3.2,0.9H253V473.3z M256.4,479.1c-0.3,0-0.5-0.1-0.7-0.3c-0.2-0.2-0.3-0.4-0.3-0.8c0-0.4,0.1-0.7,0.3-0.8
			c0.2-0.2,0.4-0.3,0.7-0.3h0.2c0.3,0,0.5,0.1,0.7,0.3c0.2,0.2,0.3,0.4,0.3,0.8c0,0.4-0.1,0.7-0.3,0.8c-0.2,0.2-0.4,0.3-0.7,0.3
			H256.4z"/>
		<path fill="#FFFFFF" d="M269.1,474.9c-0.6,0-1.2-0.1-1.7-0.3c-0.5-0.2-0.9-0.5-1.2-0.8s-0.6-0.7-0.8-1.2s-0.3-0.9-0.3-1.5
			c0-0.8,0.2-1.5,0.6-2.3c0.4-0.7,1-1.5,1.7-2.4l0.7-0.9h2l0.6,0.6c0.8,0.9,1.4,1.7,1.7,2.5c0.3,0.7,0.5,1.5,0.5,2.2
			c0,0.6-0.1,1.1-0.3,1.6s-0.4,0.9-0.8,1.2c-0.3,0.4-0.8,0.6-1.2,0.8C270.3,474.8,269.7,474.9,269.1,474.9z M269.4,473
			c0.6,0,1.2-0.2,1.6-0.6c0.4-0.4,0.6-0.9,0.6-1.5c0-0.4-0.1-0.9-0.4-1.3c-0.2-0.4-0.6-0.9-1.1-1.4l-1-1.1H269l-0.9,1.1
			c-0.4,0.5-0.8,1-1,1.4c-0.2,0.4-0.3,0.8-0.3,1.2c0,0.3,0.1,0.6,0.2,0.8c0.1,0.3,0.3,0.5,0.5,0.7c0.2,0.2,0.4,0.3,0.7,0.5
			c0.3,0.1,0.6,0.2,0.9,0.2H269.4z"/>
		<path fill="#FFFFFF" d="M276.5,474.7c-0.5,0-1-0.2-1.3-0.5c-0.3-0.3-0.5-0.8-0.5-1.4v-1.7h1.5v1.7h3c0.5,0,0.9,0,1.2,0
			c0.3,0,0.6-0.1,0.8-0.1c0.2-0.1,0.3-0.2,0.4-0.3c0.1-0.1,0.1-0.3,0.1-0.5c0-0.2,0-0.4-0.1-0.6c-0.1-0.2-0.2-0.6-0.4-1.1l-2.1-5.8
			l1.6-0.6l2.2,6.2c0.2,0.6,0.4,1.1,0.6,1.4c0.2,0.4,0.3,0.7,0.5,0.9c0.2,0.2,0.4,0.4,0.5,0.5c0.2,0.1,0.4,0.1,0.6,0.1h0.5v1.5
			l-0.4,0.4c-0.4,0-0.7,0-1-0.1c-0.3-0.1-0.6-0.2-0.8-0.3c-0.2-0.2-0.4-0.4-0.6-0.6c-0.2-0.2-0.4-0.6-0.6-0.9h-0.1
			c-0.1,0.7-0.4,1.2-0.8,1.5c-0.5,0.3-1.2,0.5-2.1,0.5H276.5z"/>
		<path fill="#FFFFFF" d="M285.3,473.3l0.4-0.4h0.8c0.3,0,0.5,0,0.7-0.1c0.2-0.1,0.4-0.1,0.6-0.3s0.3-0.3,0.5-0.5
			c0.2-0.2,0.3-0.5,0.5-0.9l0.9-1.8l1.3,0.6l-1.2,2.2l0.3,0.2c0.5,0.3,0.9,0.5,1.4,0.6c0.4,0.1,0.9,0.2,1.3,0.2
			c0.7,0,1.2-0.2,1.5-0.5c0.3-0.3,0.5-0.9,0.5-1.6v-1.7h1.5v1.7c0,0.8,0.1,1.3,0.3,1.7s0.6,0.5,1.1,0.5h0.4c0.9,0,1.4-0.5,1.4-1.4
			c0-0.2,0-0.5,0-0.9s-0.1-0.8-0.1-1.2l-0.2-1.2l1.5-0.2l0.2,1.2c0.1,0.5,0.1,0.9,0.1,1.3c0,0.4,0,0.8,0,1.1c0,1-0.3,1.8-0.8,2.4
			c-0.5,0.6-1.3,0.9-2.3,0.9c-1.7,0-2.7-0.7-3-2.2H295c-0.1,0.7-0.4,1.2-0.8,1.6c-0.4,0.4-1,0.6-1.6,0.6c-0.9,0-1.9-0.3-2.9-1
			l-0.7-0.4c-0.4,0.5-0.9,0.8-1.5,1c-0.5,0.2-1.2,0.3-2.1,0.3V473.3z M294.1,466.6c-0.3,0-0.5-0.1-0.7-0.3c-0.2-0.2-0.3-0.4-0.3-0.8
			c0-0.4,0.1-0.7,0.3-0.8c0.2-0.2,0.4-0.3,0.7-0.3h0.2c0.3,0,0.5,0.1,0.7,0.3c0.2,0.2,0.3,0.4,0.3,0.8c0,0.4-0.1,0.7-0.3,0.8
			c-0.2,0.2-0.4,0.3-0.7,0.3H294.1z M295.5,463.9c-0.3,0-0.5-0.1-0.7-0.3c-0.2-0.2-0.3-0.4-0.3-0.8c0-0.4,0.1-0.6,0.3-0.8
			c0.2-0.2,0.4-0.3,0.7-0.3h0.3c0.3,0,0.5,0.1,0.7,0.3c0.2,0.2,0.3,0.4,0.3,0.8c0,0.4-0.1,0.6-0.3,0.8c-0.2,0.2-0.4,0.3-0.7,0.3
			H295.5z M296.9,466.6c-0.3,0-0.5-0.1-0.7-0.3c-0.2-0.2-0.3-0.4-0.3-0.8c0-0.4,0.1-0.7,0.3-0.8c0.2-0.2,0.4-0.3,0.7-0.3h0.2
			c0.3,0,0.5,0.1,0.7,0.3c0.2,0.2,0.3,0.4,0.3,0.8c0,0.4-0.1,0.7-0.3,0.8c-0.2,0.2-0.4,0.3-0.7,0.3H296.9z"/>
		<path fill="#FFFFFF" d="M303.5,474.4c0-0.9,0.1-1.6,0.2-2.2c0.1-0.6,0.3-1.2,0.6-1.6c0.3-0.5,0.7-0.9,1.2-1.3
			c0.5-0.4,1.2-0.8,2-1.2l3.1-1.5h1.7l1.6,4.2c0.1,0.4,0.3,0.7,0.4,1c0.1,0.3,0.3,0.5,0.4,0.6c0.1,0.1,0.3,0.2,0.5,0.3
			c0.2,0.1,0.4,0.1,0.6,0.1h0.4v1.5l-0.4,0.4c-0.7,0-1.2-0.1-1.6-0.3c-0.4-0.2-0.8-0.6-1.1-1.2l-0.1,0v1.4h-2.6
			c-1.2,0-2.1-0.2-2.8-0.7c-0.7-0.5-1-1.1-1-2c0-0.8,0.3-1.4,0.9-1.9l-0.1-0.1l-0.7,0.4c-0.3,0.2-0.6,0.4-0.8,0.6
			c-0.2,0.2-0.4,0.5-0.5,0.7c-0.1,0.3-0.2,0.6-0.3,1.1c-0.1,0.4-0.1,0.9-0.1,1.5v7h-1.6V474.4z M308,471.3c0,0.5,0.2,0.9,0.6,1.2
			c0.4,0.2,1.1,0.4,2,0.4h2.4c-0.2-0.3-0.3-0.8-0.5-1.3l-1.2-3.1l-0.9,0.4c-0.5,0.2-0.9,0.4-1.2,0.6c-0.3,0.2-0.6,0.4-0.7,0.6
			c-0.2,0.2-0.3,0.4-0.4,0.6C308,470.8,308,471,308,471.3z"/>
		<path fill="#FFFFFF" d="M316,473.3l0.4-0.4h0.8c1.2,0,1.9-0.6,1.9-1.9v-3.5h1.5v3.5c0,1.2,0.6,1.9,1.9,1.9h0.8v1.5l-0.4,0.4
			c-2,0-3.2-0.7-3.6-2.2h-0.1c-0.2,0.8-0.5,1.4-0.9,1.7c-0.5,0.3-1.2,0.5-2.2,0.5V473.3z M318.3,479.1c-0.3,0-0.5-0.1-0.7-0.3
			c-0.2-0.2-0.3-0.4-0.3-0.8c0-0.4,0.1-0.7,0.3-0.8c0.2-0.2,0.4-0.3,0.7-0.3h0.2c0.3,0,0.5,0.1,0.7,0.3c0.2,0.2,0.3,0.4,0.3,0.8
			c0,0.4-0.1,0.7-0.3,0.8c-0.2,0.2-0.4,0.3-0.7,0.3H318.3z M321.1,479.1c-0.3,0-0.5-0.1-0.7-0.3c-0.2-0.2-0.3-0.4-0.3-0.8
			c0-0.4,0.1-0.7,0.3-0.8c0.2-0.2,0.4-0.3,0.7-0.3h0.2c0.3,0,0.5,0.1,0.7,0.3c0.2,0.2,0.3,0.4,0.3,0.8c0,0.4-0.1,0.7-0.3,0.8
			c-0.2,0.2-0.4,0.3-0.7,0.3H321.1z"/>
		<path fill="#FFFFFF" d="M338,474.7c-0.6,0-1,0-1.4-0.1c-0.4-0.1-0.7-0.3-1-0.6c-0.8,0.5-1.8,0.7-3.2,0.7h-9.5v-1.5l0.4-0.4h1.1
			l0.8-1.4v-13h1.6v8.1l-0.3,2.6l0.1,0c0.5-0.6,1-1.2,1.5-1.6c0.5-0.4,1-0.8,1.5-1c0.5-0.3,1-0.5,1.5-0.6c0.5-0.1,1.1-0.2,1.6-0.2
			c1.4,0,2.5,0.4,3.3,1.2s1.2,1.9,1.2,3.2c0,1-0.2,1.9-0.5,2.6c0.3,0.1,0.7,0.2,1.2,0.2h0.4v1.5L338,474.7z M332.3,472.8
			c1.1,0,1.9-0.2,2.5-0.6c0.6-0.4,0.9-1,0.9-1.9c0-0.9-0.2-1.6-0.7-2.1c-0.5-0.5-1.1-0.7-1.9-0.7h-0.7c-0.6,0-1.1,0.1-1.6,0.2
			c-0.5,0.1-0.9,0.3-1.4,0.6c-0.4,0.3-0.9,0.6-1.3,1.1s-0.9,1.1-1.3,1.8l-0.9,1.5l0.1,0.1H332.3z M332,463.1c-0.3,0-0.5-0.1-0.7-0.3
			c-0.2-0.2-0.3-0.4-0.3-0.8c0-0.4,0.1-0.7,0.3-0.8c0.2-0.2,0.4-0.3,0.7-0.3h0.2c0.3,0,0.5,0.1,0.7,0.3c0.2,0.2,0.3,0.4,0.3,0.8
			c0,0.4-0.1,0.7-0.3,0.8c-0.2,0.2-0.4,0.3-0.7,0.3H332z"/>
		<path fill="#FFFFFF" d="M338,473.3l0.4-0.4h0.8c1.2,0,1.9-0.6,1.9-1.9v-3.5h1.5v3.5c0,1.2,0.6,1.9,1.9,1.9h0.8v1.5l-0.4,0.4
			c-2,0-3.2-0.7-3.6-2.2h-0.1c-0.2,0.8-0.5,1.4-0.9,1.7c-0.5,0.3-1.2,0.5-2.2,0.5V473.3z M341.7,464.8c-0.3,0-0.5-0.1-0.7-0.3
			s-0.3-0.4-0.3-0.8c0-0.4,0.1-0.7,0.3-0.8c0.2-0.2,0.4-0.3,0.7-0.3h0.2c0.3,0,0.5,0.1,0.7,0.3c0.2,0.2,0.3,0.4,0.3,0.8
			c0,0.4-0.1,0.7-0.3,0.8c-0.2,0.2-0.4,0.3-0.7,0.3H341.7z"/>
		<path fill="#FFFFFF" d="M344.8,473.3l0.4-0.4h0.3c1,0,1.7-0.1,2.1-0.4s0.6-0.7,0.6-1.4c0-0.3,0-0.6-0.1-1c0-0.4-0.1-1-0.2-1.6
			l-0.3-1.8l1.5-0.2l0.3,1.8c0.1,0.7,0.2,1.3,0.2,1.8c0,0.5,0.1,0.8,0.1,1.1c0,1.2-0.4,2.1-1.1,2.8c-0.7,0.6-1.8,0.9-3.2,0.9h-0.8
			V473.3z M346.6,463.7c-0.3,0-0.5-0.1-0.7-0.3c-0.2-0.2-0.3-0.4-0.3-0.8c0-0.4,0.1-0.7,0.3-0.8c0.2-0.2,0.4-0.3,0.7-0.3h0.2
			c0.3,0,0.5,0.1,0.7,0.3c0.2,0.2,0.3,0.4,0.3,0.8c0,0.4-0.1,0.7-0.3,0.8s-0.4,0.3-0.7,0.3H346.6z M349.5,463.7
			c-0.3,0-0.5-0.1-0.7-0.3s-0.3-0.4-0.3-0.8c0-0.4,0.1-0.7,0.3-0.8c0.2-0.2,0.4-0.3,0.7-0.3h0.2c0.3,0,0.5,0.1,0.7,0.3
			c0.2,0.2,0.3,0.4,0.3,0.8c0,0.4-0.1,0.7-0.3,0.8c-0.2,0.2-0.4,0.3-0.7,0.3H349.5z"/>
		<path fill="#FFFFFF" d="M198.1,506.7c-0.5,0-1-0.2-1.3-0.5c-0.3-0.3-0.5-0.8-0.5-1.4v-1.7h1.5v1.7h3c0.5,0,0.9,0,1.2,0
			c0.3,0,0.6-0.1,0.8-0.1c0.2-0.1,0.3-0.2,0.4-0.3c0.1-0.1,0.1-0.3,0.1-0.5c0-0.2,0-0.4-0.1-0.6c-0.1-0.2-0.2-0.6-0.4-1.1l-2.1-5.8
			l1.6-0.6l2.2,6.2c0.2,0.6,0.4,1.1,0.6,1.4c0.2,0.4,0.3,0.7,0.5,0.9c0.2,0.2,0.4,0.4,0.5,0.5c0.2,0.1,0.4,0.1,0.6,0.1h0.5v1.5
			l-0.4,0.4c-0.4,0-0.7,0-1-0.1c-0.3-0.1-0.6-0.2-0.8-0.3c-0.2-0.2-0.4-0.4-0.6-0.6c-0.2-0.2-0.4-0.6-0.6-0.9h-0.1
			c-0.1,0.7-0.4,1.2-0.8,1.5c-0.5,0.3-1.2,0.5-2.1,0.5H198.1z"/>
		<path fill="#FFFFFF" d="M206.9,505.3l0.4-0.4h0.8c1.2,0,1.9-0.6,1.9-1.9v-3.5h1.5v3.5c0,1.2,0.6,1.9,1.9,1.9h0.8v1.5l-0.4,0.4
			c-2,0-3.2-0.7-3.6-2.2H210c-0.2,0.8-0.5,1.4-0.9,1.7c-0.5,0.3-1.2,0.5-2.2,0.5V505.3z M209.2,511.1c-0.3,0-0.5-0.1-0.7-0.3
			c-0.2-0.2-0.3-0.4-0.3-0.8c0-0.4,0.1-0.7,0.3-0.8c0.2-0.2,0.4-0.3,0.7-0.3h0.2c0.3,0,0.5,0.1,0.7,0.3c0.2,0.2,0.3,0.4,0.3,0.8
			c0,0.4-0.1,0.7-0.3,0.8c-0.2,0.2-0.4,0.3-0.7,0.3H209.2z M212,511.1c-0.3,0-0.5-0.1-0.7-0.3c-0.2-0.2-0.3-0.4-0.3-0.8
			c0-0.4,0.1-0.7,0.3-0.8c0.2-0.2,0.4-0.3,0.7-0.3h0.2c0.3,0,0.5,0.1,0.7,0.3c0.2,0.2,0.3,0.4,0.3,0.8c0,0.4-0.1,0.7-0.3,0.8
			c-0.2,0.2-0.4,0.3-0.7,0.3H212z"/>
		<path fill="#FFFFFF" d="M213.7,505.3l0.4-0.4h0.8c1.2,0,1.9-0.6,1.9-1.9v-3.5h1.5v3.5c0,1.2,0.6,1.9,1.9,1.9h0.8v1.5l-0.4,0.4
			c-2,0-3.2-0.7-3.6-2.2h-0.1c-0.2,0.8-0.5,1.4-0.9,1.7c-0.5,0.3-1.2,0.5-2.2,0.5V505.3z M217.4,496.8c-0.3,0-0.5-0.1-0.7-0.3
			s-0.3-0.4-0.3-0.8c0-0.4,0.1-0.7,0.3-0.8c0.2-0.2,0.4-0.3,0.7-0.3h0.2c0.3,0,0.5,0.1,0.7,0.3c0.2,0.2,0.3,0.4,0.3,0.8
			c0,0.4-0.1,0.7-0.3,0.8c-0.2,0.2-0.4,0.3-0.7,0.3H217.4z"/>
		<path fill="#FFFFFF" d="M220.5,505.3l0.4-0.4h2.3c0.7,0,1.3-0.1,1.6-0.4c0.4-0.3,0.6-0.7,0.6-1.2c0-0.3-0.1-0.6-0.2-0.8
			c-0.1-0.2-0.4-0.5-0.7-0.9l-3.4-3.2v-3.7l9.5-4.4v2l-8.7,4v0.1l2.6,2.5c0.5,0.4,0.8,0.8,1.2,1.2c0.3,0.4,0.6,0.7,0.8,1.1
			c0.2,0.3,0.3,0.7,0.4,1c0.1,0.3,0.1,0.7,0.1,1c0,1.1-0.3,2-1,2.6c-0.7,0.6-1.6,0.9-2.8,0.9h-2.7V505.3z"/>
		<path fill="#FFFFFF" d="M243.5,506.7c-0.7,0-1.2-0.1-1.7-0.2c-0.5-0.1-0.8-0.3-1.1-0.5c-0.3-0.3-0.5-0.6-0.6-1
			c-0.1-0.4-0.2-0.9-0.2-1.5v-0.4h-0.1c-0.2,0.7-0.6,1.2-1,1.5c-0.5,0.3-1.1,0.5-1.8,0.5c-1,0-1.7-0.3-2.3-0.8
			c-0.6-0.5-0.8-1.3-0.8-2.2c0-0.4,0.1-0.8,0.2-1.2c0.1-0.4,0.3-0.7,0.6-1.1c0.3-0.3,0.7-0.7,1.2-1c0.5-0.3,1-0.7,1.7-1.1l2.2-1.3
			v-1.1h1.5v7.9c0,0.6,0.2,1,0.5,1.2c0.3,0.2,0.8,0.3,1.4,0.3h0.8v1.5L243.5,506.7z M237.2,503.2c0.9,0,1.5-0.1,1.9-0.4
			c0.4-0.3,0.6-0.7,0.6-1.4v-3.2l-2.2,1.2c-0.8,0.4-1.3,0.8-1.7,1.2c-0.3,0.4-0.5,0.8-0.5,1.2c0,0.5,0.1,0.8,0.4,1
			C236,503.1,236.5,503.2,237.2,503.2z"/>
		<path fill="#FFFFFF" d="M243.5,505.3l0.4-0.4h4.1l0-0.1l-3.1-3.8V499c0.6-0.3,1.3-0.6,2.1-0.8c0.8-0.2,1.5-0.3,2.2-0.3
			c1.3,0,2.4,0.3,3.1,0.8c0.7,0.5,1.1,1.3,1.1,2.3c0,0.4,0,0.7-0.1,1c-0.1,0.3-0.3,0.6-0.5,0.8c-0.2,0.3-0.5,0.6-0.9,0.9
			c-0.4,0.3-0.8,0.6-1.3,1l0,0.1h3.7v1.5l-0.4,0.4h-1.4c-0.6,0-1.2-0.1-1.7-0.3c-0.5-0.2-1.1-0.4-1.5-0.8c-0.5,0.3-1,0.6-1.5,0.8
			s-1.1,0.3-1.7,0.3h-2.6V505.3z M246.4,500.4l3.1,3.7l0.2-0.2c0.4-0.3,0.7-0.5,0.9-0.8c0.3-0.2,0.5-0.4,0.7-0.6
			c0.2-0.2,0.3-0.4,0.4-0.6c0.1-0.2,0.2-0.4,0.2-0.6c0-0.5-0.2-0.8-0.7-1.1c-0.5-0.2-1.2-0.4-2-0.4c-0.4,0-0.9,0-1.3,0.1
			C247.4,500,246.9,500.1,246.4,500.4L246.4,500.4z"/>
		<path fill="#FFFFFF" d="M254,505.3l0.4-0.4h0.6c0.7,0,1.2-0.2,1.5-0.5c0.3-0.3,0.5-0.8,0.5-1.5v-12.4h1.6v12.4
			c0,1.3-0.3,2.3-0.9,3c-0.6,0.6-1.5,0.9-2.8,0.9H254V505.3z"/>
		<path fill="#FFFFFF" d="M265.8,506.7c-0.7,0-1.3-0.1-1.8-0.2c-0.5-0.1-0.9-0.3-1.2-0.6c-0.3-0.3-0.5-0.6-0.6-1.1
			c-0.1-0.4-0.2-1-0.2-1.6v-12.8h1.6v12.8c0,0.6,0.2,1,0.5,1.2c0.3,0.2,0.8,0.4,1.4,0.4h0.8v1.5L265.8,506.7L265.8,506.7z"/>
		<path fill="#FFFFFF" d="M281,506.7c-0.6,0-1,0-1.4-0.1c-0.4-0.1-0.7-0.3-1-0.6c-0.8,0.5-1.8,0.7-3.2,0.7h-9.5v-1.5l0.4-0.4h1.1
			l0.8-1.4v-13h1.6v8.1l-0.3,2.6l0.1,0c0.5-0.6,1-1.2,1.5-1.6c0.5-0.4,1-0.8,1.5-1c0.5-0.3,1-0.5,1.5-0.6c0.5-0.1,1.1-0.2,1.6-0.2
			c1.4,0,2.5,0.4,3.3,1.2s1.2,1.9,1.2,3.2c0,1-0.2,1.9-0.5,2.6c0.3,0.1,0.7,0.2,1.2,0.2h0.4v1.5L281,506.7z M275.4,504.8
			c1.1,0,1.9-0.2,2.5-0.6c0.6-0.4,0.9-1,0.9-1.9c0-0.9-0.2-1.6-0.7-2.1c-0.5-0.5-1.1-0.7-1.9-0.7h-0.7c-0.6,0-1.1,0.1-1.6,0.2
			c-0.5,0.1-0.9,0.3-1.4,0.6c-0.4,0.3-0.9,0.6-1.3,1.1s-0.9,1.1-1.3,1.8l-0.9,1.5l0.1,0.1H275.4z"/>
		<path fill="#FFFFFF" d="M283.9,505.4c-0.3,0.5-0.7,0.8-1.2,1c-0.4,0.2-1,0.3-1.7,0.3v-1.5l0.4-0.4c0.3,0,0.5,0,0.7-0.1
			s0.4-0.2,0.5-0.3c0.2-0.2,0.3-0.4,0.4-0.6c0.1-0.3,0.3-0.6,0.4-0.9l0.6-1.6c0.3-0.9,0.8-1.6,1.3-2s1.3-0.7,2.2-0.7
			c1.1,0,1.9,0.5,2.5,1.5c0.6,1,0.9,2.3,0.9,4.1v1l-1.3,1.9L283.9,505.4z M284.8,503.7l4.8,1.3V504c0-1.1-0.2-2-0.6-2.7
			s-0.9-1-1.6-1c-0.6,0-1,0.2-1.3,0.5c-0.3,0.3-0.6,0.8-0.8,1.3L284.8,503.7z"/>
		<path fill="#FFFFFF" d="M304.9,512c-2.1,0-3.8-0.5-5-1.5s-1.8-2.3-1.8-4c0-0.7,0.1-1.4,0.3-2.1c0.2-0.8,0.4-1.5,0.8-2.3l1.4,0.4
			c-0.3,0.6-0.5,1.2-0.7,1.8c-0.2,0.6-0.3,1.2-0.3,1.8c0,1.2,0.4,2.2,1.2,2.9s2,1,3.4,1h1.3c0.9,0,1.7-0.1,2.4-0.3
			c0.7-0.2,1.3-0.4,1.7-0.7c0.5-0.3,0.8-0.6,1.1-1c0.2-0.4,0.4-0.7,0.4-1.1v0l-4.8-1.1V504h0.9c0.9,0,1.5-0.1,1.9-0.4
			c0.4-0.3,0.6-0.7,0.6-1.5c0-0.3,0-0.6-0.1-1c0-0.4-0.1-1-0.2-1.6l-0.3-1.8l1.5-0.2l0.3,1.8c0.1,0.7,0.2,1.3,0.2,1.8
			c0,0.5,0.1,0.8,0.1,1.1c0,1.2-0.4,2.1-1.3,2.6v0.1l1.2,0.3c0.9,0.2,1.3,0.8,1.3,1.7c0,0.7-0.2,1.3-0.5,2c-0.3,0.6-0.8,1.2-1.5,1.6
			c-0.7,0.5-1.5,0.8-2.4,1.1S306.1,512,304.9,512z M309.6,494.8c-0.3,0-0.5-0.1-0.7-0.3c-0.2-0.2-0.3-0.4-0.3-0.8
			c0-0.4,0.1-0.7,0.3-0.8s0.4-0.3,0.7-0.3h0.2c0.3,0,0.5,0.1,0.7,0.3s0.3,0.4,0.3,0.8c0,0.4-0.1,0.7-0.3,0.8
			c-0.2,0.2-0.4,0.3-0.7,0.3H309.6z"/>
		<path fill="#FFFFFF" d="M314,510.1h1.2c1.6,0,2.8-0.3,3.7-0.9c0.9-0.6,1.4-1.4,1.6-2.5h-2.6c-1.2,0-2.1-0.3-2.7-0.9
			c-0.6-0.6-1-1.5-1-2.6c0-0.7,0.1-1.3,0.3-1.9s0.5-1.1,0.8-1.5c0.4-0.4,0.8-0.8,1.3-1c0.5-0.3,1-0.4,1.6-0.4c1.2,0,2.2,0.5,2.9,1.6
			c0.7,1.1,1,2.6,1,4.6v0.2h1v1.5l-0.4,0.4h-0.8c-0.3,1.7-1,3-2.2,3.9c-1.1,0.9-2.7,1.4-4.6,1.4H314V510.1z M315.7,503
			c0,0.6,0.2,1.1,0.5,1.4c0.3,0.3,0.9,0.4,1.6,0.4h2.7v-0.7c0-1.2-0.2-2.1-0.7-2.8c-0.4-0.7-1.1-1-1.8-1c-0.7,0-1.3,0.2-1.7,0.7
			C315.9,501.5,315.7,502.2,315.7,503z"/>
		<path fill="#FFFFFF" d="M322.7,505.3l0.4-0.4h0.3c1,0,1.7-0.1,2.1-0.4s0.6-0.7,0.6-1.4c0-0.3,0-0.6-0.1-1c0-0.4-0.1-1-0.2-1.6
			l-0.3-1.8l1.5-0.2l0.3,1.8c0.1,0.7,0.2,1.3,0.2,1.8c0,0.5,0.1,0.8,0.1,1.1c0,1.2-0.4,2.1-1.1,2.8c-0.7,0.6-1.8,0.9-3.2,0.9h-0.8
			V505.3z M326,495.7c-0.3,0-0.5-0.1-0.7-0.3s-0.3-0.4-0.3-0.8c0-0.4,0.1-0.7,0.3-0.8c0.2-0.2,0.4-0.3,0.7-0.3h0.2
			c0.3,0,0.5,0.1,0.7,0.3c0.2,0.2,0.3,0.4,0.3,0.8c0,0.4-0.1,0.7-0.3,0.8c-0.2,0.2-0.4,0.3-0.7,0.3H326z"/>
		<path fill="#FFFFFF" d="M334.2,506.7c-0.7,0-1.3-0.1-1.8-0.2c-0.5-0.1-0.9-0.3-1.2-0.6c-0.3-0.3-0.5-0.6-0.6-1.1
			c-0.1-0.4-0.2-1-0.2-1.6v-12.8h1.6v12.8c0,0.6,0.2,1,0.5,1.2c0.3,0.2,0.8,0.4,1.4,0.4h0.8v1.5L334.2,506.7L334.2,506.7z"/>
		<path fill="#FFFFFF" d="M334.2,505.3l0.4-0.4h4.2c0.6,0,1.1-0.1,1.5-0.2c0.4-0.1,0.7-0.3,1-0.5c0.3-0.2,0.4-0.5,0.6-0.9
			c0.1-0.4,0.2-0.8,0.2-1.4v-0.7h-0.1c-0.2,0.5-0.5,0.9-1,1.1c-0.5,0.3-1,0.4-1.7,0.4c-1.2,0-2.1-0.3-2.7-0.9c-0.6-0.6-1-1.5-1-2.6
			c0-0.6,0.1-1.3,0.3-1.8c0.2-0.6,0.5-1.1,0.8-1.5s0.8-0.8,1.3-1c0.5-0.2,1-0.4,1.6-0.4c1.3,0,2.3,0.5,3,1.6
			c0.7,1.1,1.1,2.6,1.1,4.6c0,1.1-0.1,2-0.2,2.8c-0.2,0.8-0.4,1.4-0.8,1.8c-0.4,0.5-0.9,0.8-1.5,1c-0.6,0.2-1.4,0.3-2.3,0.3h-4.6
			V505.3z M337.9,491.9c-0.3,0-0.5-0.1-0.7-0.3c-0.2-0.2-0.3-0.4-0.3-0.8c0-0.4,0.1-0.7,0.3-0.8c0.2-0.2,0.4-0.3,0.7-0.3h0.2
			c0.3,0,0.5,0.1,0.7,0.3c0.2,0.2,0.3,0.4,0.3,0.8c0,0.4-0.1,0.7-0.3,0.8c-0.2,0.2-0.4,0.3-0.7,0.3H337.9z M339.6,500.8
			c0.6,0,1.1-0.1,1.5-0.2s0.7-0.3,0.9-0.5c0-1.1-0.3-2-0.7-2.7c-0.5-0.7-1.1-1-1.9-1c-0.7,0-1.3,0.2-1.7,0.7
			c-0.4,0.5-0.6,1.1-0.6,1.9c0,0.6,0.2,1.1,0.5,1.3c0.3,0.3,0.9,0.4,1.6,0.4H339.6z M340.7,491.9c-0.3,0-0.5-0.1-0.7-0.3
			c-0.2-0.2-0.3-0.4-0.3-0.8c0-0.4,0.1-0.7,0.3-0.8c0.2-0.2,0.4-0.3,0.7-0.3h0.2c0.3,0,0.5,0.1,0.7,0.3c0.2,0.2,0.3,0.4,0.3,0.8
			c0,0.4-0.1,0.7-0.3,0.8c-0.2,0.2-0.4,0.3-0.7,0.3H340.7z"/>
		<path fill="#FFFFFF" d="M347.7,507c-0.5,0-0.8-0.1-1-0.4c-0.2-0.2-0.3-0.5-0.3-0.9v-0.3c0-0.4,0.1-0.7,0.3-0.9
			c0.2-0.2,0.6-0.4,1-0.4c0.5,0,0.8,0.1,1,0.4c0.2,0.2,0.3,0.5,0.3,0.9v0.3c0,0.4-0.1,0.7-0.3,0.9C348.5,506.9,348.1,507,347.7,507z
			 M347.2,502.6l-0.5-6.8v-4.5h1.9v4.5l-0.5,6.8H347.2z"/>
	</g>
	<g>
		<path fill="#FFFFFF" d="M401.9,416c-2.1,0-3.8-0.5-5-1.5s-1.8-2.3-1.8-4c0-0.7,0.1-1.4,0.3-2.1c0.2-0.8,0.4-1.5,0.8-2.3l1.4,0.4
			c-0.3,0.6-0.5,1.2-0.7,1.8c-0.2,0.6-0.3,1.2-0.3,1.8c0,1.2,0.4,2.2,1.2,2.9s2,1,3.4,1h1.3c0.9,0,1.7-0.1,2.4-0.3
			c0.7-0.2,1.3-0.4,1.7-0.7c0.5-0.3,0.8-0.6,1.1-1c0.2-0.4,0.4-0.7,0.4-1.1v0l-4.8-1.1V408h0.9c0.6,0,1.2-0.1,1.6-0.2
			s0.8-0.3,1.1-0.5c0.3-0.2,0.5-0.5,0.6-0.9c0.1-0.4,0.2-0.8,0.2-1.4v-0.7h-0.1c-0.2,0.5-0.5,0.9-1,1.1c-0.5,0.3-1,0.4-1.7,0.4
			c-1.2,0-2.1-0.3-2.7-0.9c-0.6-0.6-1-1.5-1-2.6c0-0.6,0.1-1.3,0.3-1.8c0.2-0.6,0.5-1.1,0.8-1.5s0.8-0.8,1.3-1
			c0.5-0.2,1-0.4,1.6-0.4c1.3,0,2.3,0.5,3,1.6c0.7,1.1,1.1,2.6,1.1,4.6c0,1.3-0.2,2.3-0.5,3.1c-0.3,0.8-0.9,1.4-1.8,1.7v0.1l1.2,0.3
			c0.9,0.2,1.3,0.8,1.3,1.7c0,0.7-0.2,1.3-0.5,2c-0.3,0.6-0.8,1.2-1.5,1.6c-0.7,0.5-1.5,0.8-2.4,1.1S403.1,416,401.9,416z
			 M403.6,395.1c-0.3,0-0.5-0.1-0.7-0.3c-0.2-0.2-0.3-0.4-0.3-0.8c0-0.4,0.1-0.7,0.3-0.8c0.2-0.2,0.4-0.3,0.7-0.3h0.2
			c0.3,0,0.5,0.1,0.7,0.3c0.2,0.2,0.3,0.4,0.3,0.8c0,0.4-0.1,0.7-0.3,0.8c-0.2,0.2-0.4,0.3-0.7,0.3H403.6z M405.4,404
			c0.6,0,1.1-0.1,1.5-0.2s0.7-0.3,0.9-0.5c0-1.1-0.3-2-0.7-2.7c-0.5-0.7-1.1-1-1.9-1c-0.7,0-1.3,0.2-1.7,0.7
			c-0.4,0.5-0.6,1.1-0.6,1.9c0,0.6,0.2,1.1,0.5,1.3c0.3,0.3,0.9,0.4,1.6,0.4H405.4z M406.5,395.1c-0.3,0-0.5-0.1-0.7-0.3
			c-0.2-0.2-0.3-0.4-0.3-0.8c0-0.4,0.1-0.7,0.3-0.8c0.2-0.2,0.4-0.3,0.7-0.3h0.2c0.3,0,0.5,0.1,0.7,0.3c0.2,0.2,0.3,0.4,0.3,0.8
			c0,0.4-0.1,0.7-0.3,0.8c-0.2,0.2-0.4,0.3-0.7,0.3H406.5z"/>
		<path fill="#FFFFFF" d="M411,414.1h1.2c1.6,0,2.8-0.3,3.7-0.9c0.9-0.6,1.4-1.4,1.6-2.5h-2.6c-1.2,0-2.1-0.3-2.7-0.9
			c-0.6-0.6-1-1.5-1-2.6c0-0.7,0.1-1.3,0.3-1.9s0.5-1.1,0.8-1.5c0.4-0.4,0.8-0.8,1.3-1c0.5-0.3,1-0.4,1.6-0.4c1.2,0,2.2,0.5,2.9,1.6
			c0.7,1.1,1,2.6,1,4.6v0.2h1v1.5l-0.4,0.4h-0.8c-0.3,1.7-1,3-2.2,3.9c-1.1,0.9-2.7,1.4-4.6,1.4H411V414.1z M412.8,407
			c0,0.6,0.2,1.1,0.5,1.4c0.3,0.3,0.9,0.4,1.6,0.4h2.7v-0.7c0-1.2-0.2-2.1-0.7-2.8c-0.4-0.7-1.1-1-1.8-1c-0.7,0-1.3,0.2-1.7,0.7
			C413,405.5,412.8,406.2,412.8,407z"/>
		<path fill="#FFFFFF" d="M419.7,409.3l0.4-0.4h3.2l0-0.1c-0.7-0.6-1.3-1.2-1.7-1.9c-0.4-0.7-0.6-1.5-0.6-2.4c0-0.6,0.1-1.1,0.3-1.7
			c0.2-0.5,0.5-1,0.8-1.4c0.4-0.4,0.8-0.7,1.3-0.9c0.5-0.2,1-0.3,1.6-0.3c0.6,0,1.1,0.1,1.6,0.3c0.5,0.2,0.9,0.5,1.3,0.9
			c0.4,0.4,0.6,0.8,0.8,1.4c0.2,0.5,0.3,1.1,0.3,1.7c0,0.9-0.2,1.7-0.6,2.4c-0.4,0.7-1,1.3-1.7,1.9l0,0.1h3.2v1.5l-0.4,0.4h-0.3
			c-0.7,0-1.5-0.1-2.2-0.3c-0.7-0.2-1.3-0.4-2-0.8c-0.6,0.3-1.3,0.6-2,0.8c-0.7,0.2-1.4,0.3-2.2,0.3h-1.2V409.3z M423.4,397.5
			c-0.3,0-0.5-0.1-0.7-0.3c-0.2-0.2-0.3-0.4-0.3-0.8s0.1-0.7,0.3-0.8c0.2-0.2,0.4-0.3,0.7-0.3h0.2c0.3,0,0.5,0.1,0.7,0.3
			c0.2,0.2,0.3,0.4,0.3,0.8s-0.1,0.7-0.3,0.8c-0.2,0.2-0.4,0.3-0.7,0.3H423.4z M425,408.2c0.7-0.4,1.3-0.9,1.8-1.5s0.7-1.2,0.7-2
			s-0.2-1.4-0.6-1.9c-0.4-0.5-1-0.7-1.7-0.7h-0.2c-0.7,0-1.3,0.2-1.7,0.7c-0.4,0.5-0.6,1.1-0.6,1.9s0.2,1.5,0.7,2
			C423.7,407.3,424.3,407.7,425,408.2z M426.3,397.5c-0.3,0-0.5-0.1-0.7-0.3c-0.2-0.2-0.3-0.4-0.3-0.8s0.1-0.7,0.3-0.8
			c0.2-0.2,0.4-0.3,0.7-0.3h0.2c0.3,0,0.5,0.1,0.7,0.3c0.2,0.2,0.3,0.4,0.3,0.8s-0.1,0.7-0.3,0.8c-0.2,0.2-0.4,0.3-0.7,0.3H426.3z"
			/>
		<path fill="#FFFFFF" d="M429.4,409.3l0.4-0.4h0.7c0.6,0,1.2,0,1.8-0.1s1.1-0.1,1.7-0.3c0.6-0.1,1.2-0.3,1.8-0.5
			c0.6-0.2,1.4-0.5,2.2-0.9l2-1V406l-3.3-0.7l-4.6-1.1v1.9h-1.5v-1.7c0-0.6,0.2-1.1,0.5-1.4c0.3-0.3,0.8-0.5,1.3-0.5
			c0.2,0,0.4,0,0.6,0.1c0.2,0,0.6,0.1,1.1,0.2l5.4,1.4c0.8,0.2,1.5,0.3,2,0.4c0.5,0.1,1,0.1,1.4,0.1h0.4v1.9h-1.7l-3,1.8
			c-0.9,0.5-1.7,1-2.4,1.3c-0.7,0.3-1.4,0.5-2,0.7c-0.6,0.2-1.2,0.2-1.8,0.3c-0.6,0-1.2,0.1-1.9,0.1h-1.2V409.3z"/>
		<path fill="#FFFFFF" d="M455.3,417.4c-2,0-3.5-0.4-4.5-1.3c-1.1-0.8-1.6-2-1.6-3.6c0-0.6,0.1-1.1,0.2-1.6c0.1-0.5,0.4-0.9,0.7-1.4
			c0.4-0.4,0.8-0.8,1.4-1.3c0.6-0.4,1.3-0.9,2.2-1.3l0.2-0.1l-3-3.7v-1.9c0.6-0.3,1.3-0.6,2.1-0.8s1.5-0.3,2.2-0.3
			c1.3,0,2.4,0.3,3.1,0.8c0.7,0.5,1.1,1.3,1.1,2.3c0,0.4,0,0.7-0.1,1.1s-0.2,0.7-0.4,1c-0.2,0.3-0.5,0.6-0.9,0.9s-0.9,0.6-1.4,0.9
			l-0.2,0.1c0.3,0.3,0.6,0.6,0.9,0.8c0.3,0.2,0.6,0.4,0.9,0.5c0.3,0.1,0.6,0.2,1,0.3c0.4,0.1,0.8,0.1,1.3,0.1h1.3v1.5l-0.4,0.4h-0.8
			c-0.6,0-1.2,0-1.6-0.1c-0.5-0.1-0.9-0.2-1.3-0.4c-0.4-0.2-0.8-0.5-1.2-0.8s-0.8-0.8-1.3-1.3l-0.4,0.2c-0.7,0.4-1.2,0.7-1.7,1
			c-0.5,0.3-0.9,0.6-1.1,0.9c-0.3,0.3-0.5,0.6-0.6,0.9c-0.1,0.3-0.2,0.7-0.2,1v0.3c0,1,0.4,1.7,1.2,2.2c0.8,0.5,1.9,0.8,3.3,0.8
			c0.9,0,1.7-0.2,2.5-0.5c0.8-0.3,1.5-0.9,2.2-1.7l1.2,1.5c-0.9,1-1.8,1.6-2.7,2.1C457.6,417.2,456.5,417.4,455.3,417.4z
			 M452.4,402.6l3,3.5l0.5-0.3c0.8-0.4,1.3-0.8,1.6-1.2c0.3-0.3,0.5-0.7,0.5-1.1c0-0.5-0.2-0.9-0.7-1.1c-0.5-0.3-1.2-0.4-2-0.4
			c-0.4,0-0.9,0-1.3,0.1C453.4,402.2,452.9,402.3,452.4,402.6L452.4,402.6z"/>
		<path fill="#FFFFFF" d="M461.2,409.3l0.4-0.4h0.3c1,0,1.7-0.1,2.1-0.4s0.6-0.7,0.6-1.4c0-0.3,0-0.6-0.1-1c0-0.4-0.1-1-0.2-1.6
			l-0.3-1.8l1.5-0.2l0.3,1.8c0.1,0.7,0.2,1.3,0.2,1.8c0,0.5,0.1,0.8,0.1,1.1c0,1.2-0.4,2.1-1.1,2.8c-0.7,0.6-1.8,0.9-3.2,0.9h-0.8
			V409.3z M464.5,415.1c-0.3,0-0.5-0.1-0.7-0.3c-0.2-0.2-0.3-0.4-0.3-0.8c0-0.4,0.1-0.7,0.3-0.8c0.2-0.2,0.4-0.3,0.7-0.3h0.2
			c0.3,0,0.5,0.1,0.7,0.3c0.2,0.2,0.3,0.4,0.3,0.8c0,0.4-0.1,0.7-0.3,0.8c-0.2,0.2-0.4,0.3-0.7,0.3H464.5z"/>
		<path fill="#FFFFFF" d="M472.7,410.7c-0.7,0-1.3-0.1-1.8-0.2c-0.5-0.1-0.9-0.3-1.2-0.6c-0.3-0.3-0.5-0.6-0.6-1.1
			c-0.1-0.4-0.2-1-0.2-1.6v-12.8h1.6v12.8c0,0.6,0.2,1,0.5,1.2c0.3,0.2,0.8,0.4,1.4,0.4h0.8v1.5L472.7,410.7L472.7,410.7z"/>
		<path fill="#FFFFFF" d="M472.7,409.3l0.4-0.4h0.8c1.2,0,1.9-0.6,1.9-1.9v-3.5h1.5v3.5c0,1.2,0.6,1.9,1.9,1.9h0.8v1.5l-0.4,0.4
			c-2,0-3.2-0.7-3.6-2.2h-0.1c-0.2,0.8-0.5,1.4-0.9,1.7c-0.5,0.3-1.2,0.5-2.2,0.5V409.3z M476.4,400.8c-0.3,0-0.5-0.1-0.7-0.3
			s-0.3-0.4-0.3-0.8c0-0.4,0.1-0.7,0.3-0.8c0.2-0.2,0.4-0.3,0.7-0.3h0.2c0.3,0,0.5,0.1,0.7,0.3c0.2,0.2,0.3,0.4,0.3,0.8
			c0,0.4-0.1,0.7-0.3,0.8c-0.2,0.2-0.4,0.3-0.7,0.3H476.4z"/>
		<path fill="#FFFFFF" d="M482.4,409.4c-0.3,0.5-0.7,0.8-1.2,1c-0.4,0.2-1,0.3-1.7,0.3v-1.5l0.4-0.4c0.3,0,0.5,0,0.7-0.1
			s0.4-0.2,0.5-0.3c0.2-0.2,0.3-0.4,0.4-0.6c0.1-0.3,0.3-0.6,0.4-0.9l0.6-1.6c0.3-0.9,0.8-1.6,1.3-2s1.3-0.7,2.2-0.7
			c1.1,0,1.9,0.5,2.5,1.5c0.6,1,0.9,2.3,0.9,4.1v1l-1.3,1.9L482.4,409.4z M483.3,407.7l4.8,1.3V408c0-1.1-0.2-2-0.6-2.7
			s-0.9-1-1.6-1c-0.6,0-1,0.2-1.3,0.5c-0.3,0.3-0.6,0.8-0.8,1.3L483.3,407.7z"/>
		<path fill="#FFFFFF" d="M494.4,414.1h0.8c0.8,0,1.5-0.1,2-0.4c0.5-0.2,0.9-0.5,1.2-0.9c0.3-0.4,0.5-0.8,0.6-1.4
			c0.1-0.5,0.2-1.1,0.2-1.6c0-0.4,0-0.9-0.1-1.3c0-0.5-0.1-0.9-0.2-1.3l-0.5-2.5l1.5-0.3l0.3,1.7c0.2,1.3,0.4,2.6,0.4,3.8
			c0,0.8-0.1,1.6-0.3,2.3s-0.5,1.4-0.9,2s-1,1-1.7,1.4c-0.7,0.3-1.6,0.5-2.6,0.5h-0.8V414.1z"/>
		<path fill="#FFFFFF" d="M504.1,410.7c-0.5,0-1-0.2-1.3-0.5c-0.3-0.3-0.5-0.8-0.5-1.4v-1.7h1.5v1.7h3.6c0.4,0,0.7,0,1-0.1
			c0.3-0.1,0.5-0.2,0.6-0.4s0.3-0.3,0.3-0.5c0.1-0.2,0.1-0.4,0.1-0.6c0-0.5-0.2-1-0.5-1.5c-0.3-0.5-0.9-1.2-1.6-1.9l-2.3-2.5
			l1.4-1.4l2.2,2.5c0.4,0.5,0.8,1,1.1,1.4c0.3,0.4,0.5,0.8,0.7,1.2c0.2,0.4,0.3,0.8,0.4,1.2c0.1,0.4,0.1,0.8,0.1,1.2
			c0,1.1-0.3,1.9-1,2.5s-1.6,0.9-2.8,0.9H504.1z"/>
		<path fill="#FFFFFF" d="M522.5,410.7c-0.7,0-1.3-0.1-1.8-0.2c-0.5-0.1-0.9-0.3-1.2-0.6c-0.3-0.3-0.5-0.6-0.6-1.1
			c-0.1-0.4-0.2-1-0.2-1.6v-12.8h1.6v12.8c0,0.6,0.2,1,0.5,1.2c0.3,0.2,0.8,0.4,1.4,0.4h0.8v1.5L522.5,410.7L522.5,410.7z"/>
		<path fill="#FFFFFF" d="M522.6,409.3l0.4-0.4h3.2l0-0.1c-0.7-0.6-1.3-1.2-1.7-1.9c-0.4-0.7-0.6-1.4-0.6-2.2c0-0.5,0.1-1.1,0.3-1.6
			s0.4-0.9,0.7-1.3c0.3-0.4,0.7-0.7,1.1-0.9c0.4-0.2,0.9-0.4,1.4-0.5l0.8-1.3l3.3,2c0.8,0.5,1.4,0.9,1.9,1.4s1,1,1.3,1.6
			c0.3,0.6,0.6,1.2,0.7,1.9c0.2,0.7,0.2,1.5,0.2,2.3v0.4l-1.3,1.9H532c-0.7,0-1.5-0.1-2.2-0.3c-0.7-0.2-1.3-0.4-2-0.8
			c-0.6,0.3-1.3,0.6-2,0.8c-0.7,0.2-1.4,0.3-2.2,0.3h-1.2V409.3z M527.9,408.2c0.7-0.4,1.3-0.9,1.7-1.5c0.4-0.6,0.6-1.3,0.6-1.9
			c0-0.8-0.2-1.4-0.6-1.9c-0.4-0.5-0.9-0.7-1.6-0.7h-0.2c-0.7,0-1.2,0.2-1.6,0.7c-0.4,0.5-0.6,1.1-0.6,1.9c0,0.7,0.2,1.3,0.6,1.9
			C526.6,407.2,527.2,407.8,527.9,408.2z M531.5,403.2c0.2,0.5,0.3,1,0.3,1.5c0,0.7-0.2,1.5-0.6,2.2s-0.9,1.3-1.7,1.9l0,0.1h4.7
			v-0.2c0-0.7-0.1-1.2-0.2-1.8c-0.1-0.5-0.3-1-0.5-1.4s-0.5-0.8-0.8-1.2C532.4,403.8,532,403.5,531.5,403.2L531.5,403.2z"/>
		<path fill="#FFFFFF" d="M543.5,416c-1.8,0-3.3-0.5-4.3-1.5s-1.5-2.3-1.5-4c0-0.7,0.1-1.4,0.3-2.1c0.2-0.8,0.4-1.5,0.8-2.3l1.4,0.4
			c-0.3,0.6-0.5,1.3-0.7,1.9s-0.3,1.3-0.3,1.9c0,1.2,0.3,2.1,1,2.8s1.6,1,2.8,1h1.3c0.7,0,1.3-0.1,1.7-0.2c0.5-0.2,0.9-0.4,1.2-0.8
			c0.3-0.4,0.5-0.8,0.6-1.4c0.1-0.6,0.2-1.3,0.2-2.1v-15h1.6v15c0,2.2-0.5,3.9-1.5,4.9C547.1,415.5,545.6,416,543.5,416z"/>
		<path fill="#FFFFFF" d="M551.9,414.1h1.2c1.6,0,2.8-0.3,3.7-0.9c0.9-0.6,1.4-1.4,1.6-2.5h-2.6c-1.2,0-2.1-0.3-2.7-0.9
			c-0.6-0.6-1-1.5-1-2.6c0-0.7,0.1-1.3,0.3-1.9s0.5-1.1,0.8-1.5c0.4-0.4,0.8-0.8,1.3-1c0.5-0.3,1-0.4,1.6-0.4c1.2,0,2.2,0.5,2.9,1.6
			c0.7,1.1,1,2.6,1,4.6v0.2h1v1.5l-0.4,0.4h-0.8c-0.3,1.7-1,3-2.2,3.9c-1.1,0.9-2.7,1.4-4.6,1.4h-1.2V414.1z M553.7,407
			c0,0.6,0.2,1.1,0.5,1.4c0.3,0.3,0.9,0.4,1.6,0.4h2.7v-0.7c0-1.2-0.2-2.1-0.7-2.8c-0.4-0.7-1.1-1-1.8-1c-0.7,0-1.3,0.2-1.7,0.7
			C553.9,405.5,553.7,406.2,553.7,407z"/>
		<path fill="#FFFFFF" d="M560.7,409.3l0.4-0.4h4.2c0.6,0,1.1-0.1,1.5-0.2c0.4-0.1,0.7-0.3,1-0.5c0.3-0.2,0.4-0.5,0.6-0.9
			c0.1-0.4,0.2-0.8,0.2-1.4v-0.7h-0.1c-0.2,0.5-0.5,0.9-1,1.1c-0.5,0.3-1,0.4-1.7,0.4c-1.2,0-2.1-0.3-2.7-0.9c-0.6-0.6-1-1.5-1-2.6
			c0-0.6,0.1-1.3,0.3-1.8c0.2-0.6,0.5-1.1,0.8-1.5s0.8-0.8,1.3-1c0.5-0.2,1-0.4,1.6-0.4c1.3,0,2.3,0.5,3,1.6
			c0.7,1.1,1.1,2.6,1.1,4.6c0,1.1-0.1,2-0.2,2.8c-0.2,0.8-0.4,1.4-0.8,1.8c-0.4,0.5-0.9,0.8-1.5,1c-0.6,0.2-1.4,0.3-2.3,0.3h-4.6
			V409.3z M564.4,395.9c-0.3,0-0.5-0.1-0.7-0.3c-0.2-0.2-0.3-0.4-0.3-0.8c0-0.4,0.1-0.7,0.3-0.8c0.2-0.2,0.4-0.3,0.7-0.3h0.2
			c0.3,0,0.5,0.1,0.7,0.3c0.2,0.2,0.3,0.4,0.3,0.8c0,0.4-0.1,0.7-0.3,0.8c-0.2,0.2-0.4,0.3-0.7,0.3H564.4z M566.1,404.8
			c0.6,0,1.1-0.1,1.5-0.2s0.7-0.3,0.9-0.5c0-1.1-0.3-2-0.7-2.7c-0.5-0.7-1.1-1-1.9-1c-0.7,0-1.3,0.2-1.7,0.7
			c-0.4,0.5-0.6,1.1-0.6,1.9c0,0.6,0.2,1.1,0.5,1.3c0.3,0.3,0.9,0.4,1.6,0.4H566.1z M567.2,395.9c-0.3,0-0.5-0.1-0.7-0.3
			c-0.2-0.2-0.3-0.4-0.3-0.8c0-0.4,0.1-0.7,0.3-0.8c0.2-0.2,0.4-0.3,0.7-0.3h0.2c0.3,0,0.5,0.1,0.7,0.3c0.2,0.2,0.3,0.4,0.3,0.8
			c0,0.4-0.1,0.7-0.3,0.8c-0.2,0.2-0.4,0.3-0.7,0.3H567.2z"/>
		<path fill="#FFFFFF" d="M577.7,416c-1.8,0-3.3-0.5-4.3-1.5s-1.5-2.3-1.5-4c0-0.7,0.1-1.4,0.3-2.1c0.2-0.8,0.4-1.5,0.8-2.3l1.4,0.4
			c-0.3,0.6-0.5,1.3-0.7,1.9s-0.3,1.3-0.3,1.9c0,1.2,0.3,2.1,1,2.8s1.6,1,2.8,1h1.3c0.7,0,1.3-0.1,1.7-0.2c0.5-0.2,0.9-0.4,1.2-0.8
			c0.3-0.4,0.5-0.8,0.6-1.4c0.1-0.6,0.2-1.3,0.2-2.1v-15h1.6v14.4h2.7v1.5l-0.4,0.4h-2.3c-0.2,1.8-0.7,3.2-1.7,4
			S579.6,416,577.7,416z"/>
		<path fill="#FFFFFF" d="M586,409.3l0.4-0.4h3.2l0-0.1c-0.7-0.6-1.3-1.2-1.7-1.9c-0.4-0.7-0.6-1.5-0.6-2.4c0-0.6,0.1-1.1,0.3-1.7
			c0.2-0.5,0.5-1,0.8-1.4c0.4-0.4,0.8-0.7,1.3-0.9c0.5-0.2,1-0.3,1.6-0.3c0.6,0,1.1,0.1,1.6,0.3c0.5,0.2,0.9,0.5,1.3,0.9
			c0.4,0.4,0.6,0.8,0.8,1.4c0.2,0.5,0.3,1.1,0.3,1.7c0,0.9-0.2,1.7-0.6,2.4c-0.4,0.7-1,1.3-1.7,1.9l0,0.1h3.2v1.5l-0.4,0.4h-0.3
			c-0.7,0-1.5-0.1-2.2-0.3c-0.7-0.2-1.3-0.4-2-0.8c-0.6,0.3-1.3,0.6-2,0.8c-0.7,0.2-1.4,0.3-2.2,0.3H586V409.3z M589.7,397.5
			c-0.3,0-0.5-0.1-0.7-0.3c-0.2-0.2-0.3-0.4-0.3-0.8s0.1-0.7,0.3-0.8c0.2-0.2,0.4-0.3,0.7-0.3h0.2c0.3,0,0.5,0.1,0.7,0.3
			c0.2,0.2,0.3,0.4,0.3,0.8s-0.1,0.7-0.3,0.8c-0.2,0.2-0.4,0.3-0.7,0.3H589.7z M591.3,408.2c0.7-0.4,1.3-0.9,1.8-1.5s0.7-1.2,0.7-2
			s-0.2-1.4-0.6-1.9c-0.4-0.5-1-0.7-1.7-0.7h-0.2c-0.7,0-1.3,0.2-1.7,0.7c-0.4,0.5-0.6,1.1-0.6,1.9s0.2,1.5,0.7,2
			C590,407.3,590.6,407.7,591.3,408.2z M592.6,397.5c-0.3,0-0.5-0.1-0.7-0.3c-0.2-0.2-0.3-0.4-0.3-0.8s0.1-0.7,0.3-0.8
			c0.2-0.2,0.4-0.3,0.7-0.3h0.2c0.3,0,0.5,0.1,0.7,0.3c0.2,0.2,0.3,0.4,0.3,0.8s-0.1,0.7-0.3,0.8c-0.2,0.2-0.4,0.3-0.7,0.3H592.6z"
			/>
		<path fill="#FFFFFF" d="M595.7,409.3l0.4-0.4h0.3c1,0,1.7-0.1,2.1-0.4s0.6-0.7,0.6-1.4c0-0.3,0-0.6-0.1-1c0-0.4-0.1-1-0.2-1.6
			l-0.3-1.8l1.5-0.2l0.3,1.8c0.1,0.7,0.2,1.3,0.2,1.8c0,0.5,0.1,0.8,0.1,1.1c0,1.2-0.4,2.1-1.1,2.8c-0.7,0.6-1.8,0.9-3.2,0.9h-0.8
			V409.3z M599.1,399.7c-0.3,0-0.5-0.1-0.7-0.3s-0.3-0.4-0.3-0.8c0-0.4,0.1-0.7,0.3-0.8c0.2-0.2,0.4-0.3,0.7-0.3h0.2
			c0.3,0,0.5,0.1,0.7,0.3c0.2,0.2,0.3,0.4,0.3,0.8c0,0.4-0.1,0.7-0.3,0.8c-0.2,0.2-0.4,0.3-0.7,0.3H599.1z"/>
		<path fill="#FFFFFF" d="M431.4,443c-1.7,0-2.7-0.7-3-2.2h-0.1c-0.1,0.6-0.4,1.1-0.9,1.4c-0.4,0.3-1,0.5-1.7,0.5h-1.5
			c-0.1,1.8-0.6,3.2-1.6,4c-1,0.9-2.5,1.3-4.6,1.3c-1,0-1.9-0.1-2.8-0.4c-0.8-0.2-1.5-0.6-2.1-1.1c-0.6-0.5-1-1-1.3-1.7
			c-0.3-0.7-0.4-1.5-0.4-2.3c0-0.7,0.1-1.4,0.3-2.1c0.2-0.8,0.4-1.5,0.8-2.3l1.4,0.4c-0.3,0.6-0.5,1.2-0.7,1.8
			c-0.2,0.6-0.3,1.2-0.3,1.8c0,1.2,0.4,2.2,1.2,2.9c0.8,0.7,1.9,1,3.3,1h1.3c1.4,0,2.4-0.3,3.1-0.9c0.7-0.6,1-1.6,1-2.9
			c0-0.4,0-0.8-0.1-1.3c-0.1-0.5-0.2-1.3-0.4-2.3l-0.2-1l1.5-0.3l0.2,1c0.1,0.6,0.2,1.1,0.3,1.5s0.1,0.8,0.2,1.1h2
			c0.7,0,1.2-0.1,1.6-0.4c0.3-0.3,0.5-0.8,0.5-1.4v-1.7h1.5v1.7c0,0.8,0.1,1.3,0.3,1.7s0.6,0.5,1.1,0.5h0.4c0.9,0,1.4-0.5,1.4-1.4
			c0-0.2,0-0.5,0-0.9s-0.1-0.8-0.1-1.2l-0.2-1.2l1.5-0.2l0.2,1.2c0.1,0.5,0.1,0.9,0.1,1.3c0,0.4,0,0.8,0,1.1c0,1-0.3,1.8-0.8,2.4
			C433.2,442.7,432.4,443,431.4,443z M427.4,434.6c-0.3,0-0.5-0.1-0.7-0.3c-0.2-0.2-0.3-0.4-0.3-0.8c0-0.4,0.1-0.7,0.3-0.8
			c0.2-0.2,0.4-0.3,0.7-0.3h0.2c0.3,0,0.5,0.1,0.7,0.3c0.2,0.2,0.3,0.4,0.3,0.8c0,0.4-0.1,0.7-0.3,0.8c-0.2,0.2-0.4,0.3-0.7,0.3
			H427.4z M428.8,431.9c-0.3,0-0.5-0.1-0.7-0.3c-0.2-0.2-0.3-0.4-0.3-0.8c0-0.4,0.1-0.6,0.3-0.8c0.2-0.2,0.4-0.3,0.7-0.3h0.3
			c0.3,0,0.5,0.1,0.7,0.3c0.2,0.2,0.3,0.4,0.3,0.8c0,0.4-0.1,0.6-0.3,0.8c-0.2,0.2-0.4,0.3-0.7,0.3H428.8z M430.2,434.6
			c-0.3,0-0.5-0.1-0.7-0.3c-0.2-0.2-0.3-0.4-0.3-0.8c0-0.4,0.1-0.7,0.3-0.8c0.2-0.2,0.4-0.3,0.7-0.3h0.2c0.3,0,0.5,0.1,0.7,0.3
			c0.2,0.2,0.3,0.4,0.3,0.8c0,0.4-0.1,0.7-0.3,0.8c-0.2,0.2-0.4,0.3-0.7,0.3H430.2z"/>
		<path fill="#FFFFFF" d="M434.2,446.1h0.8c0.8,0,1.5-0.1,2-0.4c0.5-0.2,0.9-0.5,1.2-0.9c0.3-0.4,0.5-0.8,0.6-1.4
			c0.1-0.5,0.2-1.1,0.2-1.6c0-0.4,0-0.9-0.1-1.3c0-0.5-0.1-0.9-0.2-1.3l-0.5-2.5l1.5-0.3l0.3,1.7c0.2,1.3,0.4,2.6,0.4,3.8
			c0,0.8-0.1,1.6-0.3,2.3s-0.5,1.4-0.9,2s-1,1-1.7,1.4c-0.7,0.3-1.6,0.5-2.6,0.5h-0.8V446.1z"/>
		<path fill="#FFFFFF" d="M446.8,442.7c-0.7,0-1.3-0.1-1.8-0.2c-0.5-0.1-0.9-0.3-1.2-0.6c-0.3-0.3-0.5-0.6-0.6-1.1
			c-0.1-0.4-0.2-1-0.2-1.6v-12.8h1.6v12.8c0,0.6,0.2,1,0.5,1.2c0.3,0.2,0.8,0.4,1.4,0.4h0.8v1.5L446.8,442.7L446.8,442.7z"/>
		<path fill="#FFFFFF" d="M446.8,441.3l0.4-0.4h2c0.7,0,1.3-0.1,1.6-0.2c0.3-0.2,0.5-0.4,0.5-0.8c0-0.1,0-0.2-0.1-0.4
			c0-0.1-0.1-0.3-0.2-0.4c-0.1-0.2-0.2-0.3-0.4-0.5c-0.1-0.2-0.3-0.5-0.6-0.7l-2.7-3.3v-3.8l9.5-4.4v2l-8.7,4v0.1l4.9,6.1
			c0.4,0.5,0.7,0.9,1,1.2c0.3,0.3,0.6,0.5,0.9,0.7c0.3,0.2,0.6,0.3,1,0.4c0.3,0.1,0.7,0.1,1.1,0.1v1.5l-0.4,0.4c-0.5,0-1,0-1.4-0.1
			c-0.4-0.1-0.7-0.2-1.1-0.4s-0.6-0.5-1-0.8c-0.3-0.3-0.6-0.8-1-1.3l-0.4-0.5l-0.1,0c0,0.1,0,0.2,0,0.3c0,0.1,0,0.2,0,0.3
			c0,0.8-0.2,1.4-0.7,1.8c-0.5,0.4-1.1,0.7-1.9,0.7h-2.5V441.3z M447.5,427.9l9.5-4.4v1.1l-9.5,4.4V427.9z"/>
		<path fill="#FFFFFF" d="M456.8,441.3l0.4-0.4h0.3c1,0,1.7-0.1,2.1-0.4s0.6-0.7,0.6-1.4c0-0.3,0-0.6-0.1-1c0-0.4-0.1-1-0.2-1.6
			l-0.3-1.8l1.5-0.2l0.3,1.8c0.1,0.7,0.2,1.3,0.2,1.8c0,0.5,0.1,0.8,0.1,1.1c0,1.2-0.4,2.1-1.1,2.8c-0.7,0.6-1.8,0.9-3.2,0.9h-0.8
			V441.3z M460.1,431.7c-0.3,0-0.5-0.1-0.7-0.3s-0.3-0.4-0.3-0.8c0-0.4,0.1-0.7,0.3-0.8c0.2-0.2,0.4-0.3,0.7-0.3h0.2
			c0.3,0,0.5,0.1,0.7,0.3c0.2,0.2,0.3,0.4,0.3,0.8c0,0.4-0.1,0.7-0.3,0.8c-0.2,0.2-0.4,0.3-0.7,0.3H460.1z"/>
		<path fill="#FFFFFF" d="M468.7,446.1h1.5c1.8,0,3.1-0.4,3.9-1.2c0.9-0.8,1.3-1.9,1.3-3.3v-0.5h-0.1c-0.2,0.5-0.5,0.9-1,1.1
			c-0.5,0.3-1,0.4-1.7,0.4c-1.2,0-2.1-0.3-2.7-0.9c-0.6-0.6-1-1.5-1-2.6c0-0.7,0.1-1.3,0.3-1.9s0.5-1.1,0.8-1.5
			c0.4-0.4,0.8-0.8,1.3-1c0.5-0.3,1-0.4,1.6-0.4c1.3,0,2.3,0.5,3,1.6c0.7,1.1,1.1,2.6,1.1,4.6c0,2.3-0.6,4.2-1.7,5.5
			c-1.1,1.3-2.8,2-5.1,2h-1.5V446.1z M473.1,440.8c0.6,0,1.1-0.1,1.5-0.2c0.4-0.1,0.7-0.3,0.9-0.5c0-1.2-0.2-2.1-0.7-2.8
			c-0.5-0.7-1.1-1-1.9-1c-0.7,0-1.3,0.2-1.7,0.7c-0.4,0.5-0.6,1.2-0.6,2c0,0.6,0.2,1.1,0.5,1.4c0.3,0.3,0.9,0.4,1.6,0.4H473.1z"/>
		<path fill="#FFFFFF" d="M489.9,448c-1.8,0-3.3-0.5-4.3-1.5s-1.5-2.3-1.5-4c0-0.7,0.1-1.4,0.3-2.1c0.2-0.8,0.4-1.5,0.8-2.3l1.4,0.4
			c-0.3,0.6-0.5,1.3-0.7,1.9s-0.3,1.3-0.3,1.9c0,1.2,0.3,2.1,1,2.8s1.6,1,2.8,1h1.3c0.7,0,1.3-0.1,1.7-0.2c0.5-0.2,0.9-0.4,1.2-0.8
			c0.3-0.4,0.5-0.8,0.6-1.4c0.1-0.6,0.2-1.3,0.2-2.1v-15h1.6v14.4h2.7v1.5l-0.4,0.4h-2.3c-0.2,1.8-0.7,3.2-1.7,4
			S491.8,448,489.9,448z"/>
		<path fill="#FFFFFF" d="M498.2,441.3l0.4-0.4h0.8c1.2,0,1.9-0.6,1.9-1.9v-3.5h1.5v3.5c0,1.2,0.6,1.9,1.9,1.9h0.8v1.5l-0.4,0.4
			c-2,0-3.2-0.7-3.6-2.2h-0.1c-0.2,0.8-0.5,1.4-0.9,1.7c-0.5,0.3-1.2,0.5-2.2,0.5V441.3z M500.5,447.1c-0.3,0-0.5-0.1-0.7-0.3
			c-0.2-0.2-0.3-0.4-0.3-0.8c0-0.4,0.1-0.7,0.3-0.8c0.2-0.2,0.4-0.3,0.7-0.3h0.2c0.3,0,0.5,0.1,0.7,0.3c0.2,0.2,0.3,0.4,0.3,0.8
			c0,0.4-0.1,0.7-0.3,0.8c-0.2,0.2-0.4,0.3-0.7,0.3H500.5z M503.3,447.1c-0.3,0-0.5-0.1-0.7-0.3c-0.2-0.2-0.3-0.4-0.3-0.8
			c0-0.4,0.1-0.7,0.3-0.8c0.2-0.2,0.4-0.3,0.7-0.3h0.2c0.3,0,0.5,0.1,0.7,0.3c0.2,0.2,0.3,0.4,0.3,0.8c0,0.4-0.1,0.7-0.3,0.8
			c-0.2,0.2-0.4,0.3-0.7,0.3H503.3z"/>
		<path fill="#FFFFFF" d="M505,441.3l0.4-0.4h0.8c1.2,0,1.9-0.6,1.9-1.9v-12.5h1.6v12.5c0,1.2,0.6,1.9,1.9,1.9h0.8v1.5l-0.4,0.4
			c-2.1,0-3.3-0.7-3.7-2.2h-0.1c-0.2,0.8-0.5,1.4-0.9,1.7c-0.5,0.3-1.2,0.5-2.2,0.5V441.3z"/>
		<path fill="#FFFFFF" d="M511.9,441.3l0.4-0.4h0.7c0.6,0,1.2,0,1.8-0.1s1.1-0.1,1.7-0.3c0.6-0.1,1.2-0.3,1.8-0.5
			c0.6-0.2,1.4-0.5,2.2-0.9l2-1V438l-3.3-0.7l-4.6-1.1v1.9h-1.5v-1.7c0-0.6,0.2-1.1,0.5-1.4c0.3-0.3,0.8-0.5,1.3-0.5
			c0.2,0,0.4,0,0.6,0.1c0.2,0,0.6,0.1,1.1,0.2l5.4,1.4c0.8,0.2,1.5,0.3,2,0.4c0.5,0.1,1,0.1,1.4,0.1h0.4v1.9h-1.7v0.3
			c0,0.7,0.2,1.2,0.5,1.5c0.3,0.3,0.8,0.4,1.5,0.4h0.8v1.5l-0.4,0.4c-0.6,0-1.2-0.1-1.6-0.2c-0.5-0.1-0.8-0.3-1.1-0.6
			s-0.5-0.6-0.6-1c-0.1-0.4-0.2-0.9-0.2-1.6l-1.7,1c-0.9,0.5-1.7,1-2.4,1.3c-0.7,0.3-1.4,0.5-2,0.7c-0.6,0.2-1.2,0.2-1.8,0.3
			c-0.6,0-1.2,0.1-1.9,0.1h-1.2V441.3z"/>
		<path fill="#FFFFFF" d="M526.5,441.3l0.4-0.4h0.3c1,0,1.7-0.1,2.1-0.4s0.6-0.7,0.6-1.4c0-0.3,0-0.6-0.1-1c0-0.4-0.1-1-0.2-1.6
			l-0.3-1.8l1.5-0.2l0.3,1.8c0.1,0.7,0.2,1.3,0.2,1.8c0,0.5,0.1,0.8,0.1,1.1c0,1.2-0.4,2.1-1.1,2.8c-0.7,0.6-1.8,0.9-3.2,0.9h-0.8
			V441.3z M528.4,431.7c-0.3,0-0.5-0.1-0.7-0.3c-0.2-0.2-0.3-0.4-0.3-0.8c0-0.4,0.1-0.7,0.3-0.8c0.2-0.2,0.4-0.3,0.7-0.3h0.2
			c0.3,0,0.5,0.1,0.7,0.3c0.2,0.2,0.3,0.4,0.3,0.8c0,0.4-0.1,0.7-0.3,0.8s-0.4,0.3-0.7,0.3H528.4z M531.2,431.7
			c-0.3,0-0.5-0.1-0.7-0.3s-0.3-0.4-0.3-0.8c0-0.4,0.1-0.7,0.3-0.8c0.2-0.2,0.4-0.3,0.7-0.3h0.2c0.3,0,0.5,0.1,0.7,0.3
			c0.2,0.2,0.3,0.4,0.3,0.8c0,0.4-0.1,0.7-0.3,0.8c-0.2,0.2-0.4,0.3-0.7,0.3H531.2z"/>
		<path fill="#FFFFFF" d="M543.2,442.7c-0.7,0-1.3-0.1-1.8-0.2c-0.5-0.1-0.9-0.3-1.2-0.6c-0.3-0.3-0.5-0.6-0.6-1.1
			c-0.1-0.4-0.2-1-0.2-1.6v-12.8h1.6v12.8c0,0.6,0.2,1,0.5,1.2c0.3,0.2,0.8,0.4,1.4,0.4h0.8v1.5L543.2,442.7L543.2,442.7z"/>
		<path fill="#FFFFFF" d="M543.2,441.3l0.4-0.4h0.3c1,0,1.7-0.1,2.1-0.4s0.6-0.7,0.6-1.4c0-0.3,0-0.6-0.1-1c0-0.4-0.1-1-0.2-1.6
			l-0.3-1.8l1.5-0.2l0.3,1.8c0.1,0.7,0.2,1.3,0.2,1.8c0,0.5,0.1,0.8,0.1,1.1c0,1.2-0.4,2.1-1.1,2.8c-0.7,0.6-1.8,0.9-3.2,0.9h-0.8
			V441.3z M546.5,447.1c-0.3,0-0.5-0.1-0.7-0.3c-0.2-0.2-0.3-0.4-0.3-0.8c0-0.4,0.1-0.7,0.3-0.8c0.2-0.2,0.4-0.3,0.7-0.3h0.2
			c0.3,0,0.5,0.1,0.7,0.3c0.2,0.2,0.3,0.4,0.3,0.8c0,0.4-0.1,0.7-0.3,0.8c-0.2,0.2-0.4,0.3-0.7,0.3H546.5z"/>
		<path fill="#FFFFFF" d="M571.3,442.7c-0.6,0-1,0-1.4-0.1c-0.4-0.1-0.7-0.3-1-0.6c-0.8,0.5-1.8,0.7-3.2,0.7h-10.1v-1.9h2.2l0.8-1.4
			v-13h1.6v8.1l-0.3,2.6l0.1,0c0.5-0.6,1-1.2,1.5-1.6c0.5-0.4,1-0.8,1.5-1c0.5-0.3,1-0.5,1.5-0.6c0.5-0.1,1.1-0.2,1.6-0.2
			c1.4,0,2.5,0.4,3.3,1.2s1.2,1.9,1.2,3.2c0,1-0.2,1.9-0.5,2.6c0.3,0.1,0.7,0.2,1.2,0.2h0.4v1.5L571.3,442.7z M565.6,440.8
			c1.1,0,1.9-0.2,2.5-0.6c0.6-0.4,0.9-1,0.9-1.9c0-0.9-0.2-1.6-0.7-2.1c-0.5-0.5-1.1-0.7-1.9-0.7h-0.7c-0.6,0-1.1,0.1-1.6,0.2
			c-0.5,0.1-0.9,0.3-1.4,0.6c-0.4,0.3-0.9,0.6-1.3,1.1s-0.9,1.1-1.3,1.8l-0.9,1.5l0.1,0.1H565.6z"/>
		<path fill="#FFFFFF" d="M571.3,441.3l0.4-0.4h0.8c1.2,0,1.9-0.6,1.9-1.9v-3.5h1.5v3.5c0,1.2,0.6,1.9,1.9,1.9h0.8v1.5l-0.4,0.4
			c-2,0-3.2-0.7-3.6-2.2h-0.1c-0.2,0.8-0.5,1.4-0.9,1.7c-0.5,0.3-1.2,0.5-2.2,0.5V441.3z M575,447.1c-0.3,0-0.5-0.1-0.7-0.3
			c-0.2-0.2-0.3-0.4-0.3-0.8c0-0.4,0.1-0.7,0.3-0.8c0.2-0.2,0.4-0.3,0.7-0.3h0.2c0.3,0,0.5,0.1,0.7,0.3c0.2,0.2,0.3,0.4,0.3,0.8
			c0,0.4-0.1,0.7-0.3,0.8c-0.2,0.2-0.4,0.3-0.7,0.3H575z"/>
		<path fill="#FFFFFF" d="M578.1,441.3l0.4-0.4h0.3c1,0,1.7-0.1,2.1-0.4s0.6-0.7,0.6-1.4c0-0.3,0-0.6-0.1-1c0-0.4-0.1-1-0.2-1.6
			l-0.3-1.8l1.5-0.2l0.3,1.8c0.1,0.7,0.2,1.3,0.2,1.8c0,0.5,0.1,0.8,0.1,1.1c0,1.2-0.4,2.1-1.1,2.8c-0.7,0.6-1.8,0.9-3.2,0.9h-0.8
			V441.3z M579.9,431.7c-0.3,0-0.5-0.1-0.7-0.3c-0.2-0.2-0.3-0.4-0.3-0.8c0-0.4,0.1-0.7,0.3-0.8c0.2-0.2,0.4-0.3,0.7-0.3h0.2
			c0.3,0,0.5,0.1,0.7,0.3c0.2,0.2,0.3,0.4,0.3,0.8c0,0.4-0.1,0.7-0.3,0.8s-0.4,0.3-0.7,0.3H579.9z M582.8,431.7
			c-0.3,0-0.5-0.1-0.7-0.3s-0.3-0.4-0.3-0.8c0-0.4,0.1-0.7,0.3-0.8c0.2-0.2,0.4-0.3,0.7-0.3h0.2c0.3,0,0.5,0.1,0.7,0.3
			c0.2,0.2,0.3,0.4,0.3,0.8c0,0.4-0.1,0.7-0.3,0.8c-0.2,0.2-0.4,0.3-0.7,0.3H582.8z"/>
		<path fill="#FFFFFF" d="M582.8,446.1h0.8c0.8,0,1.5-0.1,2-0.4c0.5-0.2,0.9-0.5,1.2-0.9c0.3-0.4,0.5-0.8,0.6-1.4
			c0.1-0.5,0.2-1.1,0.2-1.6c0-0.4,0-0.9-0.1-1.3c0-0.5-0.1-0.9-0.2-1.3l-0.5-2.5l1.5-0.3l0.3,1.7c0.1,0.5,0.2,1,0.2,1.5
			c0.1,0.5,0.1,0.9,0.1,1.3h2.1v1.5l-0.4,0.4H589c-0.1,0.7-0.2,1.4-0.4,2c-0.2,0.6-0.5,1.2-0.9,1.7c-0.4,0.5-1,0.9-1.6,1.1
			c-0.7,0.3-1.5,0.4-2.4,0.4h-0.8V446.1z"/>
		<path fill="#FFFFFF" d="M593.6,441.4c-0.3,0.5-0.7,0.8-1.2,1c-0.4,0.2-1,0.3-1.7,0.3v-1.5l0.4-0.4c0.3,0,0.5,0,0.7-0.1
			s0.4-0.2,0.5-0.3c0.2-0.2,0.3-0.4,0.4-0.6c0.1-0.3,0.3-0.6,0.4-0.9l0.6-1.6c0.3-0.9,0.8-1.6,1.3-2s1.3-0.7,2.2-0.7
			c1.1,0,1.9,0.5,2.5,1.5c0.6,1,0.9,2.3,0.9,4.1v1l-1.3,1.9L593.6,441.4z M594.4,439.7l4.8,1.3V440c0-1.1-0.2-2-0.6-2.7
			s-0.9-1-1.6-1c-0.6,0-1,0.2-1.3,0.5c-0.3,0.3-0.6,0.8-0.8,1.3L594.4,439.7z"/>
		<path fill="#FFFFFF" d="M458.7,474.7c-0.5,0-1-0.2-1.3-0.5c-0.3-0.3-0.5-0.8-0.5-1.4v-1.7h1.5v1.7h3c0.5,0,0.9,0,1.2,0
			c0.3,0,0.6-0.1,0.8-0.1c0.2-0.1,0.3-0.2,0.4-0.3c0.1-0.1,0.1-0.3,0.1-0.5c0-0.2,0-0.4-0.1-0.6c-0.1-0.2-0.2-0.6-0.4-1.1l-2.1-5.8
			l1.6-0.6l2.2,6.2c0.2,0.6,0.4,1.1,0.6,1.4c0.2,0.4,0.3,0.7,0.5,0.9c0.2,0.2,0.4,0.4,0.5,0.5c0.2,0.1,0.4,0.1,0.6,0.1h0.5v1.5
			l-0.4,0.4c-0.4,0-0.7,0-1-0.1c-0.3-0.1-0.6-0.2-0.8-0.3c-0.2-0.2-0.4-0.4-0.6-0.6c-0.2-0.2-0.4-0.6-0.6-0.9h-0.1
			c-0.1,0.7-0.4,1.2-0.8,1.5c-0.5,0.3-1.2,0.5-2.1,0.5H458.7z"/>
		<path fill="#FFFFFF" d="M467.5,473.3l0.4-0.4h0.8c1.2,0,1.9-0.6,1.9-1.9v-3.5h1.5v3.5c0,1.2,0.6,1.9,1.9,1.9h0.8v1.5l-0.4,0.4
			c-2,0-3.2-0.7-3.6-2.2h-0.1c-0.2,0.8-0.5,1.4-0.9,1.7c-0.5,0.3-1.2,0.5-2.2,0.5V473.3z M469.8,479.1c-0.3,0-0.5-0.1-0.7-0.3
			c-0.2-0.2-0.3-0.4-0.3-0.8c0-0.4,0.1-0.7,0.3-0.8c0.2-0.2,0.4-0.3,0.7-0.3h0.2c0.3,0,0.5,0.1,0.7,0.3c0.2,0.2,0.3,0.4,0.3,0.8
			c0,0.4-0.1,0.7-0.3,0.8c-0.2,0.2-0.4,0.3-0.7,0.3H469.8z M472.7,479.1c-0.3,0-0.5-0.1-0.7-0.3c-0.2-0.2-0.3-0.4-0.3-0.8
			c0-0.4,0.1-0.7,0.3-0.8c0.2-0.2,0.4-0.3,0.7-0.3h0.2c0.3,0,0.5,0.1,0.7,0.3c0.2,0.2,0.3,0.4,0.3,0.8c0,0.4-0.1,0.7-0.3,0.8
			c-0.2,0.2-0.4,0.3-0.7,0.3H472.7z"/>
		<path fill="#FFFFFF" d="M474.3,473.3l0.4-0.4h0.8c1.2,0,1.9-0.6,1.9-1.9v-3.5h1.5v3.5c0,1.2,0.6,1.9,1.9,1.9h0.8v1.5l-0.4,0.4
			c-2,0-3.2-0.7-3.6-2.2h-0.1c-0.2,0.8-0.5,1.4-0.9,1.7c-0.5,0.3-1.2,0.5-2.2,0.5V473.3z M478,464.8c-0.3,0-0.5-0.1-0.7-0.3
			s-0.3-0.4-0.3-0.8c0-0.4,0.1-0.7,0.3-0.8c0.2-0.2,0.4-0.3,0.7-0.3h0.2c0.3,0,0.5,0.1,0.7,0.3c0.2,0.2,0.3,0.4,0.3,0.8
			c0,0.4-0.1,0.7-0.3,0.8c-0.2,0.2-0.4,0.3-0.7,0.3H478z"/>
		<path fill="#FFFFFF" d="M481.1,473.3l0.4-0.4h2.3c0.7,0,1.3-0.1,1.6-0.4c0.4-0.3,0.6-0.7,0.6-1.2c0-0.3-0.1-0.6-0.2-0.8
			c-0.1-0.2-0.4-0.5-0.7-0.9l-3.4-3.2v-3.7l9.5-4.4v2l-8.7,4v0.1l2.6,2.5c0.5,0.4,0.8,0.8,1.2,1.2c0.3,0.4,0.6,0.7,0.8,1.1
			c0.2,0.3,0.3,0.7,0.4,1c0.1,0.3,0.1,0.7,0.1,1c0,1.1-0.3,2-1,2.6c-0.7,0.6-1.6,0.9-2.8,0.9h-2.7V473.3z"/>
		<path fill="#FFFFFF" d="M492.8,478.1h0.8c0.8,0,1.5-0.1,2-0.4c0.5-0.2,0.9-0.5,1.2-0.9c0.3-0.4,0.5-0.8,0.6-1.4
			c0.1-0.5,0.2-1.1,0.2-1.6c0-0.4,0-0.9-0.1-1.3c0-0.5-0.1-0.9-0.2-1.3l-0.5-2.5l1.5-0.3l0.3,1.6l3.9-0.7v-1.8h1.5v3.8
			c0,0.6,0.2,1,0.5,1.2c0.3,0.2,0.8,0.4,1.4,0.4h0.8v1.5l-0.4,0.4h0c-0.7,0-1.2-0.1-1.7-0.2c-0.5-0.1-0.9-0.3-1.2-0.6
			c-0.3-0.3-0.5-0.6-0.6-1.1c-0.1-0.4-0.2-1-0.2-1.6v-0.2l-3.6,0.6c0,0.4,0.1,0.7,0.1,1.1c0,0.4,0,0.7,0,1.1c0,0.8-0.1,1.6-0.3,2.3
			s-0.5,1.4-0.9,2s-1,1-1.7,1.4c-0.7,0.3-1.6,0.5-2.6,0.5h-0.8V478.1z M501.8,479.1c-0.3,0-0.5-0.1-0.7-0.3
			c-0.2-0.2-0.3-0.4-0.3-0.8c0-0.4,0.1-0.7,0.3-0.8c0.2-0.2,0.4-0.3,0.7-0.3h0.2c0.3,0,0.5,0.1,0.7,0.3c0.2,0.2,0.3,0.4,0.3,0.8
			c0,0.4-0.1,0.7-0.3,0.8c-0.2,0.2-0.4,0.3-0.7,0.3H501.8z M504.6,479.1c-0.3,0-0.5-0.1-0.7-0.3c-0.2-0.2-0.3-0.4-0.3-0.8
			c0-0.4,0.1-0.7,0.3-0.8c0.2-0.2,0.4-0.3,0.7-0.3h0.2c0.3,0,0.5,0.1,0.7,0.3c0.2,0.2,0.3,0.4,0.3,0.8c0,0.4-0.1,0.7-0.3,0.8
			c-0.2,0.2-0.4,0.3-0.7,0.3H504.6z"/>
		<path fill="#FFFFFF" d="M506.3,473.3l0.4-0.4h0.8c0.3,0,0.5,0,0.7-0.1c0.2-0.1,0.4-0.1,0.6-0.3s0.3-0.3,0.5-0.5
			c0.2-0.2,0.3-0.5,0.5-0.9l0.9-1.8l1.3,0.6l-1.2,2.2l0.3,0.2c0.5,0.3,0.9,0.5,1.4,0.6c0.4,0.1,0.9,0.2,1.3,0.2
			c0.7,0,1.2-0.2,1.5-0.5c0.3-0.3,0.5-0.9,0.5-1.6v-1.7h1.5v1.7c0,0.8,0.1,1.3,0.3,1.7s0.6,0.5,1.1,0.5h0.5c0.5,0,0.9-0.2,1.1-0.5
			c0.2-0.3,0.3-0.9,0.3-1.7v-2.6h1.5v2.6c0,1.2,0.6,1.9,1.9,1.9h0.8v1.5l-0.4,0.4c-1,0-1.7-0.2-2.3-0.5c-0.6-0.3-0.9-0.8-1.2-1.5
			h-0.1c-0.1,0.8-0.3,1.4-0.7,1.7s-0.9,0.5-1.5,0.5c-1.5,0-2.4-0.7-2.7-2.2h-0.1c-0.1,0.7-0.4,1.2-0.8,1.6c-0.4,0.4-1,0.6-1.7,0.6
			c-0.9,0-1.8-0.3-2.9-1l-0.7-0.4c-0.4,0.5-0.9,0.8-1.5,1c-0.5,0.2-1.2,0.3-2.1,0.3V473.3z"/>
		<path fill="#FFFFFF" d="M524.5,473.3l0.4-0.4h3.2l0-0.1c-0.7-0.6-1.3-1.2-1.7-1.9c-0.4-0.7-0.6-1.5-0.6-2.4c0-0.6,0.1-1.1,0.3-1.7
			c0.2-0.5,0.5-1,0.8-1.4c0.4-0.4,0.8-0.7,1.3-0.9c0.5-0.2,1-0.3,1.6-0.3c0.6,0,1.1,0.1,1.6,0.3c0.5,0.2,0.9,0.5,1.3,0.9
			c0.4,0.4,0.6,0.8,0.8,1.4c0.2,0.5,0.3,1.1,0.3,1.7c0,0.9-0.2,1.7-0.6,2.4c-0.4,0.7-1,1.3-1.7,1.9l0,0.1h3.2v1.5l-0.4,0.4h-0.3
			c-0.7,0-1.5-0.1-2.2-0.3c-0.7-0.2-1.3-0.4-2-0.8c-0.6,0.3-1.3,0.6-2,0.8c-0.7,0.2-1.4,0.3-2.2,0.3h-1.2V473.3z M529.8,472.2
			c0.7-0.4,1.3-0.9,1.8-1.5s0.7-1.2,0.7-2s-0.2-1.4-0.6-1.9c-0.4-0.5-1-0.7-1.7-0.7h-0.2c-0.7,0-1.3,0.2-1.7,0.7
			c-0.4,0.5-0.6,1.1-0.6,1.9s0.2,1.5,0.7,2C528.4,471.3,529,471.7,529.8,472.2z M529.7,461.5c-0.3,0-0.5-0.1-0.7-0.3
			c-0.2-0.2-0.3-0.4-0.3-0.8s0.1-0.7,0.3-0.8c0.2-0.2,0.4-0.3,0.7-0.3h0.2c0.3,0,0.5,0.1,0.7,0.3c0.2,0.2,0.3,0.4,0.3,0.8
			s-0.1,0.7-0.3,0.8c-0.2,0.2-0.4,0.3-0.7,0.3H529.7z"/>
		<path fill="#FFFFFF" d="M534.2,473.3l0.4-0.4h0.3c1,0,1.7-0.1,2.1-0.4s0.6-0.7,0.6-1.4c0-0.3,0-0.6-0.1-1c0-0.4-0.1-1-0.2-1.6
			l-0.3-1.8l1.5-0.2l0.3,1.8c0.1,0.7,0.2,1.3,0.2,1.8c0,0.5,0.1,0.8,0.1,1.1c0,1.2-0.4,2.1-1.1,2.8c-0.7,0.6-1.8,0.9-3.2,0.9h-0.8
			V473.3z M536.1,463.7c-0.3,0-0.5-0.1-0.7-0.3c-0.2-0.2-0.3-0.4-0.3-0.8c0-0.4,0.1-0.7,0.3-0.8c0.2-0.2,0.4-0.3,0.7-0.3h0.2
			c0.3,0,0.5,0.1,0.7,0.3c0.2,0.2,0.3,0.4,0.3,0.8c0,0.4-0.1,0.7-0.3,0.8s-0.4,0.3-0.7,0.3H536.1z M538.9,463.7
			c-0.3,0-0.5-0.1-0.7-0.3s-0.3-0.4-0.3-0.8c0-0.4,0.1-0.7,0.3-0.8c0.2-0.2,0.4-0.3,0.7-0.3h0.2c0.3,0,0.5,0.1,0.7,0.3
			c0.2,0.2,0.3,0.4,0.3,0.8c0,0.4-0.1,0.7-0.3,0.8c-0.2,0.2-0.4,0.3-0.7,0.3H538.9z"/>
		<path fill="#FFFFFF" d="M547.1,458.4h1.6v16.3h-1.6V458.4z"/>
		<path fill="#FFFFFF" d="M549,478.1h0.8c0.8,0,1.5-0.1,2-0.4c0.5-0.2,0.9-0.5,1.2-0.9c0.3-0.4,0.5-0.8,0.6-1.4
			c0.1-0.5,0.2-1.1,0.2-1.6c0-0.4,0-0.9-0.1-1.3c0-0.5-0.1-0.9-0.2-1.3l-0.5-2.5l1.5-0.3l0.3,1.7c0.2,1.3,0.4,2.6,0.4,3.8
			c0,0.8-0.1,1.6-0.3,2.3s-0.5,1.4-0.9,2s-1,1-1.7,1.4c-0.7,0.3-1.6,0.5-2.6,0.5H549V478.1z"/>
		<path fill="#FFFFFF" d="M563.8,474.7c-0.5,0-1-0.2-1.3-0.5c-0.3-0.3-0.5-0.8-0.5-1.4v-1.7h1.5v1.7h3.6c0.4,0,0.7,0,1-0.1
			c0.3-0.1,0.5-0.2,0.6-0.4s0.3-0.3,0.3-0.5c0.1-0.2,0.1-0.4,0.1-0.6c0-0.5-0.2-1-0.5-1.5c-0.3-0.5-0.9-1.2-1.6-1.9l-2.3-2.5
			l1.4-1.4l2.2,2.5c0.4,0.5,0.8,1,1.1,1.4c0.3,0.4,0.5,0.8,0.7,1.2c0.2,0.4,0.3,0.8,0.4,1.2c0.1,0.4,0.1,0.8,0.1,1.2
			c0,1.1-0.3,1.9-1,2.5s-1.6,0.9-2.8,0.9H563.8z"/>
		<path fill="#FFFFFF" d="M572.4,478.1h1.2c1.6,0,2.8-0.3,3.7-0.9c0.9-0.6,1.4-1.4,1.6-2.5h-2.6c-1.2,0-2.1-0.3-2.7-0.9
			c-0.6-0.6-1-1.5-1-2.6c0-0.7,0.1-1.3,0.3-1.9s0.5-1.1,0.8-1.5c0.4-0.4,0.8-0.8,1.3-1c0.5-0.3,1-0.4,1.6-0.4c1.2,0,2.2,0.5,2.9,1.6
			c0.7,1.1,1,2.6,1,4.6v0.2h1v1.5l-0.4,0.4h-0.8c-0.3,1.7-1,3-2.2,3.9c-1.1,0.9-2.7,1.4-4.6,1.4h-1.2V478.1z M574.2,471
			c0,0.6,0.2,1.1,0.5,1.4c0.3,0.3,0.9,0.4,1.6,0.4h2.7v-0.7c0-1.2-0.2-2.1-0.7-2.8c-0.4-0.7-1.1-1-1.8-1c-0.7,0-1.3,0.2-1.7,0.7
			C574.4,469.5,574.2,470.2,574.2,471z"/>
		<path fill="#FFFFFF" d="M581.1,473.3l0.4-0.4h0.7c0.6,0,1.2,0,1.8-0.1s1.1-0.1,1.7-0.3c0.6-0.1,1.2-0.3,1.8-0.5
			c0.6-0.2,1.4-0.5,2.2-0.9l2-1V470l-3.3-0.7l-4.6-1.1v1.9h-1.5v-1.7c0-0.6,0.2-1.1,0.5-1.4c0.3-0.3,0.8-0.5,1.3-0.5
			c0.2,0,0.4,0,0.6,0.1c0.2,0,0.6,0.1,1.1,0.2l5.4,1.4c0.8,0.2,1.5,0.3,2,0.4c0.5,0.1,1,0.1,1.4,0.1h0.4v1.9h-1.7l-3,1.8
			c-0.9,0.5-1.7,1-2.4,1.3c-0.7,0.3-1.4,0.5-2,0.7c-0.6,0.2-1.2,0.2-1.8,0.3c-0.6,0-1.2,0.1-1.9,0.1h-1.2V473.3z M587,464
			c-0.3,0-0.5-0.1-0.7-0.3s-0.3-0.4-0.3-0.8c0-0.4,0.1-0.7,0.3-0.8c0.2-0.2,0.4-0.3,0.7-0.3h0.2c0.3,0,0.5,0.1,0.7,0.3
			c0.2,0.2,0.3,0.4,0.3,0.8c0,0.4-0.1,0.7-0.3,0.8c-0.2,0.2-0.4,0.3-0.7,0.3H587z"/>
		<path fill="#FFFFFF" d="M598.6,475c-0.5,0-0.8-0.1-1-0.4c-0.2-0.2-0.3-0.5-0.3-0.9v-0.3c0-0.4,0.1-0.7,0.3-0.9
			c0.2-0.2,0.6-0.4,1-0.4c0.5,0,0.8,0.1,1,0.4c0.2,0.2,0.3,0.5,0.3,0.9v0.3c0,0.4-0.1,0.7-0.3,0.9C599.4,474.9,599.1,475,598.6,475z
			 M598.2,470.6l-0.5-6.8v-4.5h1.9v4.5l-0.5,6.8H598.2z"/>
	</g>
</g>
</svg>
