<?xml version="1.0" encoding="utf-8"?>
<!-- Generator: Adobe Illustrator 27.0.1, SVG Export Plug-In . SVG Version: 6.00 Build 0)  -->
<svg version="1.1" id="Layer_1" xmlns="http://www.w3.org/2000/svg" xmlns:xlink="http://www.w3.org/1999/xlink" x="0px" y="0px"
	 viewBox="0 0 740.5 740.5" enable-background="new 0 0 740.5 740.5" xml:space="preserve">
<g>
	<g>
		<g>
			<g>
				<g>
					<path fill="#64226E" d="M370.2,370.3l320.6-185.1c102.2,177.1,41.6,403.5-135.5,505.8c-59,34-117,49.6-185.1,49.6V370.3z"/>
				</g>
			</g>
		</g>
		<g>
			<g>
				<g>
					<path fill="#C5C6C8" d="M370.2,370.3L49.6,185.2C151.8,8.1,378.3-52.6,555.4,49.7c59,34,101.5,76.5,135.5,135.5L370.2,370.3z"
						/>
				</g>
			</g>
		</g>
		<g>
			<g>
				<g>
					<path fill="#CC081E" d="M370.2,370.3v370.2C165.8,740.5,0,574.8,0,370.3c0-68.1,15.6-126.2,49.6-185.1L370.2,370.3z"/>
				</g>
			</g>
		</g>
	</g>
	<g>
		<path d="M192.2,118.3l-2.8,2l5.4,7.7l-5.2,3.7l-15.3-21.6l8.5-6c2.6-1.8,5-2.7,7.2-2.5c2.2,0.1,4.1,1.2,5.6,3.3
			c1.1,1.5,1.6,3,1.7,4.4c0.1,1.4-0.3,2.9-1.2,4.4l10.7,5.5l0.2,0.2l-5.6,3.9L192.2,118.3z M186.6,116.2l3.3-2.3
			c1-0.7,1.6-1.5,1.7-2.4c0.1-0.9-0.1-1.8-0.8-2.7s-1.4-1.5-2.3-1.7c-0.9-0.2-1.8,0.1-2.8,0.8l-3.3,2.3L186.6,116.2z"/>
		<path d="M240.1,88.3l-9,4.5l2.8,5.7l10.6-5.3l2.2,4.4l-16.4,8.1l-11.7-23.7l16.4-8.1l2.2,4.4l-10.7,5.3l2.5,5l9-4.5L240.1,88.3z"
			/>
		<path d="M285.2,60.8l-7.6,2.4l6.4,20.6l-6.1,1.9L271.5,65l-7.4,2.3l-1.5-4.7l21.1-6.6L285.2,60.8z"/>
		<path d="M326,64.9l-3.4,0.5l1.3,9.3l-6.3,0.9l-3.7-26.2l10.3-1.5c3.1-0.4,5.6-0.1,7.6,1c1.9,1.1,3.1,3,3.5,5.5
			c0.3,1.8,0.1,3.4-0.5,4.7s-1.6,2.4-3.1,3.4l7,9.8l0,0.3l-6.8,1L326,64.9z M321.9,60.5l4-0.6c1.2-0.2,2.1-0.6,2.6-1.3
			s0.7-1.6,0.5-2.8c-0.2-1.1-0.6-2-1.3-2.5s-1.7-0.8-2.8-0.6l-4,0.6L321.9,60.5z"/>
		<path d="M372.9,71.1l-6.4,0.1l-0.4-26.5l6.4-0.1L372.9,71.1z"/>
		<path d="M419.2,63.6l-10-1.3l-0.8,6.3l11.8,1.6l-0.6,4.9l-18.1-2.4l3.5-26.3l18.1,2.4l-0.6,4.9l-11.8-1.6l-0.7,5.5l10,1.3
			L419.2,63.6z"/>
		<path d="M457.5,76.5l10.5-17l6.8,2l-16.1,22.9l-6.7-2l-0.9-27.9l6.8,2L457.5,76.5z"/>
		<path d="M505.8,97.9l-7.9-3.8l-3.5,3.8l-6.1-3l20.2-19.7l5.4,2.6l-2.7,28.1l-6.2-3L505.8,97.9z M501.5,90.4l5.1,2.5l1.4-9.5
			L501.5,90.4z"/>
		<path d="M541.6,119l9.1,6.3l-2.8,4l-14.4-10l15.1-21.8l5.3,3.6L541.6,119z"/>
	</g>
	<g>
		<path fill="#FFFFFF" d="M50.1,349.2l-0.7,11.1l-4.9-0.3l1.1-17.5l26.4,1.6l-0.4,6.4L50.1,349.2z"/>
		<path fill="#FFFFFF" d="M57.7,406.2l-0.9-10l-6.3,0.6l1,11.8l-4.9,0.4l-1.6-18.2l26.4-2.3l1.6,18.2l-4.9,0.4l-1.1-11.9l-5.6,0.5
			l0.9,10L57.7,406.2z"/>
		<path fill="#FFFFFF" d="M60.2,452.7l-2.1-8.5l-5.2-0.3l-1.7-6.6l28.1,2.9l1.5,5.8l-23.3,16l-1.7-6.7L60.2,452.7z M63.2,444.5
			l1.4,5.5l8.2-5L63.2,444.5z"/>
		<path fill="#FFFFFF" d="M80,495.8l-1.4-3.2l-8.6,3.7l-2.5-5.9L91.7,480l4.2,9.6c1.3,2.9,1.6,5.4,1,7.6c-0.6,2.2-2,3.8-4.4,4.8
			c-1.7,0.7-3.2,1-4.6,0.8c-1.4-0.2-2.8-0.9-4.1-2l-7.6,9.3l-0.3,0.1l-2.7-6.3L80,495.8z M83.1,490.7l1.6,3.7c0.5,1.1,1.1,1.8,2,2.1
			c0.8,0.3,1.8,0.2,2.8-0.2c1-0.5,1.7-1.1,2.1-1.9c0.4-0.8,0.3-1.8-0.2-2.9l-1.6-3.7L83.1,490.7z"/>
		<path fill="#FFFFFF" d="M102.7,556.2l-3.4-5.3l8.8-16.8L94.1,543l-3.5-5.4l22.3-14.3l3.5,5.4l-8.8,16.8l13.9-8.9l3.4,5.4
			L102.7,556.2z"/>
		<path fill="#FFFFFF" d="M126.8,586.6l-4.2-4.8l20-17.4l4.2,4.8L126.8,586.6z"/>
		<path fill="#FFFFFF" d="M166.1,624.3l-4.8-4.1l3.6-18.6l-10.7,12.5l-4.8-4.2l17.3-20.1l4.8,4.2l-3.6,18.6l10.7-12.5l4.8,4.2
			L166.1,624.3z"/>
		<path fill="#FFFFFF" d="M212.6,651.7c-1.4,0.4-3.1,0.4-5.1,0s-3.9-1.2-5.8-2.4c-3-1.8-4.8-4.1-5.5-7c-0.7-2.9-0.1-6,1.7-9.3l1.2-2
			c1.3-2.2,2.9-3.9,4.7-5.1c1.8-1.2,3.7-1.8,5.7-1.8c2,0,4,0.6,5.9,1.7c2.8,1.7,4.6,3.7,5.4,5.9c0.8,2.2,0.5,4.7-0.8,7.4l-5.3-3.2
			c0.6-1.4,0.7-2.5,0.4-3.4c-0.3-0.9-1-1.7-2.2-2.4c-1.4-0.8-2.8-0.9-4.2-0.2c-1.4,0.7-2.8,2.1-4.1,4.3l-0.8,1.4
			c-1.4,2.3-2,4.2-1.9,5.8c0.1,1.6,1,2.9,2.6,3.9c1.4,0.9,2.7,1.2,3.8,1l2.1-3.5l-3.8-2.3l2.3-3.8l9.3,5.6L212.6,651.7z"/>
	</g>
	<g>
		<path fill="#FFFFFF" d="M551.9,634.7l-7.3,4.8l1.5,5l-5.7,3.8l-6.6-27.4l5-3.3l22.8,16.6l-5.7,3.8L551.9,634.7z M543.1,634.6
			l4.7-3.2l-7.5-6.1L543.1,634.6z"/>
		<path fill="#FFFFFF" d="M601.3,600.1l-4.6,4.3l-18.1-5.6l11.3,12l-4.7,4.4L567.1,596l4.7-4.4l18.1,5.6l-11.3-12l4.6-4.4
			L601.3,600.1z"/>
		<path fill="#FFFFFF" d="M628.1,561.1l-5.3,7l3,4.2l-4.1,5.4L606.5,554l3.6-4.8l27,8.2l-4.1,5.5L628.1,561.1z M619.8,563.9l3.4-4.5
			l-9-3.3L619.8,563.9z"/>
		<path fill="#FFFFFF" d="M651.8,523.9l5.3-9.8l4.3,2.3l-8.3,15.4l-23.3-12.6l3-5.6L651.8,523.9z"/>
		<path fill="#FFFFFF" d="M661.3,479l-9.1-8.6l2.4-6.5l12.9,13.9l8.9,3.3l-2.3,6.1l-8.9-3.3l-18.9,2l2.4-6.4L661.3,479z"/>
		<path fill="#FFFFFF" d="M683.4,429.7c-0.9-0.2-1.7,0-2.3,0.5c-0.6,0.5-1.4,1.6-2.3,3.1c-0.9,1.5-1.7,2.7-2.4,3.7
			c-2.3,3-4.9,4.2-7.8,3.7c-1.4-0.3-2.6-1-3.5-2s-1.5-2.4-1.8-4.1c-0.3-1.7-0.3-3.4,0.1-5.4c0.4-1.9,1.1-3.5,2-4.8
			c1-1.3,2.1-2.3,3.5-2.9c1.4-0.6,2.9-0.7,4.5-0.4l-1.3,6.2c-1.1-0.2-1.9-0.1-2.7,0.5c-0.7,0.5-1.2,1.3-1.4,2.5
			c-0.2,1.1-0.2,2,0.2,2.8s0.9,1.2,1.7,1.4c0.7,0.1,1.3-0.1,2-0.7c0.7-0.6,1.5-1.7,2.4-3.4c0.9-1.7,1.9-3,2.8-4
			c2.2-2.5,4.7-3.4,7.5-2.8c2.3,0.5,3.9,1.7,4.8,3.7c0.9,2,1.1,4.5,0.5,7.4c-0.4,2.1-1.2,3.9-2.3,5.5c-1.1,1.6-2.4,2.6-3.9,3.2
			c-1.5,0.6-3.1,0.7-4.8,0.4l1.3-6.3c1.4,0.3,2.5,0.1,3.3-0.5s1.4-1.7,1.7-3.3c0.2-1,0.2-1.9-0.2-2.6S684.2,429.9,683.4,429.7z"/>
		<path fill="#FFFFFF" d="M695.6,387.1l-0.4,6.4l-26.4-1.6l0.4-6.4L695.6,387.1z"/>
		<path fill="#FFFFFF" d="M687.7,341.6c-0.9,0.1-1.6,0.5-2.1,1.2c-0.5,0.7-0.9,1.9-1.3,3.6c-0.4,1.7-0.9,3.1-1.3,4.2
			c-1.4,3.6-3.6,5.4-6.5,5.7c-1.5,0.1-2.8-0.2-4-1c-1.2-0.8-2.2-1.9-2.9-3.4c-0.7-1.5-1.2-3.2-1.3-5.2c-0.1-1.9,0.1-3.6,0.6-5.2
			s1.4-2.8,2.6-3.7c1.2-0.9,2.6-1.5,4.2-1.6l0.5,6.3c-1.1,0.1-1.9,0.5-2.4,1.2c-0.5,0.7-0.8,1.6-0.7,2.7c0.1,1.1,0.4,2,1,2.6
			c0.6,0.6,1.2,0.9,2,0.8c0.7-0.1,1.3-0.5,1.8-1.2c0.5-0.8,1-2.1,1.4-4c0.4-1.9,1-3.4,1.5-4.6c1.4-3,3.6-4.6,6.5-4.8
			c2.3-0.2,4.2,0.5,5.6,2.2s2.3,4,2.5,7c0.2,2.1-0.1,4.1-0.7,5.9c-0.6,1.8-1.6,3.2-2.8,4.2s-2.8,1.5-4.5,1.7l-0.5-6.4
			c1.4-0.1,2.4-0.6,3-1.3c0.6-0.8,0.9-2,0.7-3.6c-0.1-1.1-0.4-1.9-0.9-2.4C689.2,341.8,688.5,341.6,687.7,341.6z"/>
	</g>
	<g>
		<path d="M287.6,208.5h-6.9v7.3h-2.2v-16.5h10.2v1.8h-8.1v5.7h6.9V208.5z"/>
		<path d="M291,200.3c0-0.3,0.1-0.6,0.3-0.9c0.2-0.2,0.5-0.4,0.9-0.4c0.4,0,0.7,0.1,0.9,0.4c0.2,0.2,0.3,0.5,0.3,0.9
			c0,0.3-0.1,0.6-0.3,0.9c-0.2,0.2-0.5,0.3-0.9,0.3c-0.4,0-0.7-0.1-0.9-0.3C291.1,200.9,291,200.6,291,200.3z M293.3,215.8h-2.1
			v-12.3h2.1V215.8z"/>
		<path d="M298.7,203.6l0.1,1.5c0.9-1.2,2.2-1.8,3.7-1.8c2.6,0,3.9,1.5,3.9,4.4v8.1h-2.1v-8.1c0-0.9-0.2-1.5-0.6-2
			c-0.4-0.4-1-0.6-1.9-0.6c-0.7,0-1.3,0.2-1.8,0.5c-0.5,0.4-0.9,0.8-1.2,1.4v8.7h-2.1v-12.3H298.7z"/>
		<path d="M309,209.6c0-1.9,0.4-3.4,1.3-4.5c0.9-1.1,2.1-1.7,3.5-1.7c1.4,0,2.6,0.5,3.4,1.5v-6.4h2.1v17.4h-1.9l-0.1-1.3
			c-0.8,1-2,1.5-3.5,1.5c-1.4,0-2.6-0.6-3.5-1.7c-0.9-1.2-1.3-2.7-1.3-4.6V209.6z M311.1,209.8c0,1.4,0.3,2.5,0.9,3.3
			s1.4,1.2,2.4,1.2c1.3,0,2.3-0.6,2.9-1.8v-5.6c-0.6-1.2-1.6-1.7-2.9-1.7c-1,0-1.8,0.4-2.4,1.2C311.4,207.1,311.1,208.3,311.1,209.8
			z"/>
		<path d="M330.6,215.8h-2.1v-17.4h2.1V215.8z"/>
		<path d="M339.1,216.1c-1.7,0-3-0.5-4.1-1.6s-1.6-2.6-1.6-4.4v-0.4c0-1.2,0.2-2.3,0.7-3.3c0.5-1,1.1-1.7,2-2.2
			c0.8-0.5,1.7-0.8,2.7-0.8c1.6,0,2.8,0.5,3.7,1.6s1.3,2.6,1.3,4.5v0.9h-8.3c0,1.2,0.4,2.2,1.1,2.9c0.7,0.7,1.5,1.1,2.6,1.1
			c0.7,0,1.4-0.2,1.9-0.5c0.5-0.3,1-0.7,1.3-1.2l1.3,1C342.7,215.3,341.1,216.1,339.1,216.1z M338.8,205.1c-0.8,0-1.6,0.3-2.1,0.9
			c-0.6,0.6-0.9,1.5-1.1,2.6h6.1v-0.2c-0.1-1.1-0.3-1.9-0.9-2.5S339.7,205.1,338.8,205.1z"/>
		<path d="M345.8,209.6c0-1.9,0.4-3.4,1.3-4.6s2.1-1.7,3.5-1.7c1.5,0,2.7,0.5,3.5,1.6l0.1-1.4h1.9v12c0,1.6-0.5,2.8-1.4,3.8
			c-0.9,0.9-2.2,1.4-3.8,1.4c-0.9,0-1.8-0.2-2.6-0.6c-0.8-0.4-1.5-0.9-1.9-1.6l1.1-1.3c0.9,1.1,2,1.7,3.3,1.7c1,0,1.8-0.3,2.4-0.9
			c0.6-0.6,0.9-1.4,0.9-2.4v-1.1c-0.8,1-2,1.5-3.4,1.5c-1.4,0-2.6-0.6-3.5-1.7C346.2,213.2,345.8,211.6,345.8,209.6z M347.9,209.8
			c0,1.4,0.3,2.5,0.9,3.3c0.6,0.8,1.4,1.2,2.4,1.2c1.3,0,2.3-0.6,2.9-1.8v-5.6c-0.6-1.2-1.6-1.8-2.9-1.8c-1,0-1.8,0.4-2.4,1.2
			C348.2,207.1,347.9,208.3,347.9,209.8z"/>
		<path d="M366.9,215.8c-0.1-0.2-0.2-0.7-0.3-1.3c-1,1-2.1,1.5-3.5,1.5c-1.2,0-2.2-0.3-3-1c-0.8-0.7-1.2-1.6-1.2-2.6
			c0-1.3,0.5-2.3,1.5-3s2.3-1.1,4.1-1.1h2v-1c0-0.7-0.2-1.3-0.7-1.8c-0.4-0.4-1.1-0.7-1.9-0.7c-0.7,0-1.4,0.2-1.9,0.6
			c-0.5,0.4-0.8,0.8-0.8,1.4h-2.1c0-0.6,0.2-1.2,0.7-1.8c0.4-0.6,1-1,1.8-1.4c0.7-0.3,1.6-0.5,2.5-0.5c1.4,0,2.5,0.4,3.3,1.1
			c0.8,0.7,1.2,1.7,1.2,2.9v5.6c0,1.1,0.1,2,0.4,2.7v0.2H366.9z M363.4,214.2c0.7,0,1.3-0.2,1.9-0.5c0.6-0.3,1-0.8,1.3-1.3v-2.5
			h-1.6c-2.6,0-3.9,0.8-3.9,2.3c0,0.7,0.2,1.2,0.7,1.5C362.2,214,362.7,214.2,363.4,214.2z"/>
		<path d="M374.2,215.8h-2.1v-17.4h2.1V215.8z"/>
		<path d="M390.5,212.6c0-0.6-0.2-1-0.6-1.3c-0.4-0.3-1.2-0.6-2.2-0.8s-1.9-0.5-2.5-0.8c-0.6-0.3-1.1-0.7-1.4-1.1
			c-0.3-0.4-0.4-1-0.4-1.6c0-1,0.4-1.9,1.3-2.6c0.9-0.7,1.9-1,3.3-1c1.4,0,2.5,0.4,3.4,1.1s1.3,1.6,1.3,2.8h-2.1
			c0-0.6-0.2-1.1-0.7-1.5s-1.1-0.6-1.8-0.6c-0.8,0-1.4,0.2-1.8,0.5s-0.6,0.8-0.6,1.3c0,0.5,0.2,0.9,0.6,1.1s1.1,0.5,2.2,0.7
			c1,0.2,1.9,0.5,2.5,0.8c0.6,0.3,1.1,0.7,1.4,1.2c0.3,0.5,0.5,1,0.5,1.7c0,1.1-0.4,2-1.3,2.6c-0.9,0.7-2,1-3.4,1
			c-1,0-1.9-0.2-2.6-0.5c-0.8-0.3-1.3-0.8-1.8-1.5c-0.4-0.6-0.6-1.3-0.6-2h2.1c0,0.7,0.3,1.3,0.8,1.7c0.5,0.4,1.2,0.6,2.1,0.6
			c0.8,0,1.4-0.2,1.9-0.5C390.2,213.5,390.5,213.1,390.5,212.6z"/>
		<path d="M394.8,209.6c0-1.2,0.2-2.3,0.7-3.2c0.5-1,1.1-1.7,2-2.2c0.8-0.5,1.8-0.8,2.9-0.8c1.7,0,3,0.6,4.1,1.7
			c1,1.2,1.5,2.7,1.5,4.6v0.1c0,1.2-0.2,2.3-0.7,3.2c-0.5,0.9-1.1,1.7-2,2.2s-1.8,0.8-2.9,0.8c-1.7,0-3-0.6-4-1.7
			c-1-1.2-1.5-2.7-1.5-4.6V209.6z M396.9,209.8c0,1.4,0.3,2.5,0.9,3.3c0.6,0.8,1.5,1.2,2.5,1.2c1.1,0,1.9-0.4,2.5-1.3
			c0.6-0.8,0.9-2,0.9-3.5c0-1.3-0.3-2.4-1-3.3c-0.6-0.8-1.5-1.3-2.5-1.3c-1,0-1.9,0.4-2.5,1.2S396.9,208.3,396.9,209.8z"/>
		<path d="M416.1,214.6c-0.8,1-2,1.4-3.6,1.4c-1.3,0-2.3-0.4-3-1.1c-0.7-0.8-1-1.9-1-3.4v-8h2.1v7.9c0,1.9,0.8,2.8,2.3,2.8
			c1.6,0,2.7-0.6,3.2-1.8v-8.9h2.1v12.3h-2L416.1,214.6z"/>
		<path d="M427.3,205.4c-0.3-0.1-0.7-0.1-1-0.1c-1.4,0-2.3,0.6-2.8,1.8v8.7h-2.1v-12.3h2l0,1.4c0.7-1.1,1.7-1.6,2.9-1.6
			c0.4,0,0.7,0.1,0.9,0.2V205.4z"/>
		<path d="M433.9,214.3c0.7,0,1.4-0.2,2-0.7c0.6-0.5,0.9-1,0.9-1.7h2c0,0.7-0.3,1.4-0.7,2c-0.4,0.6-1,1.1-1.8,1.5
			c-0.7,0.4-1.5,0.6-2.4,0.6c-1.7,0-3-0.6-4-1.7s-1.5-2.6-1.5-4.6v-0.4c0-1.2,0.2-2.3,0.7-3.2c0.4-0.9,1.1-1.7,1.9-2.2
			c0.8-0.5,1.8-0.8,2.9-0.8c1.4,0,2.5,0.4,3.4,1.2c0.9,0.8,1.4,1.9,1.5,3.2h-2c-0.1-0.8-0.4-1.4-0.9-2c-0.5-0.5-1.2-0.8-2-0.8
			c-1.1,0-1.9,0.4-2.5,1.2s-0.9,1.9-0.9,3.3v0.4c0,1.4,0.3,2.5,0.9,3.3C432,214,432.9,214.3,433.9,214.3z"/>
		<path d="M446.3,216.1c-1.7,0-3-0.5-4.1-1.6s-1.6-2.6-1.6-4.4v-0.4c0-1.2,0.2-2.3,0.7-3.3c0.5-1,1.1-1.7,2-2.2
			c0.8-0.5,1.7-0.8,2.7-0.8c1.6,0,2.8,0.5,3.7,1.6s1.3,2.6,1.3,4.5v0.9h-8.3c0,1.2,0.4,2.2,1.1,2.9c0.7,0.7,1.5,1.1,2.6,1.1
			c0.7,0,1.4-0.2,1.9-0.5c0.5-0.3,1-0.7,1.3-1.2l1.3,1C449.9,215.3,448.3,216.1,446.3,216.1z M446,205.1c-0.8,0-1.6,0.3-2.1,0.9
			c-0.6,0.6-0.9,1.5-1.1,2.6h6.1v-0.2c-0.1-1.1-0.3-1.9-0.9-2.5S446.9,205.1,446,205.1z"/>
		<path d="M460.6,212.6c0-0.6-0.2-1-0.6-1.3c-0.4-0.3-1.2-0.6-2.2-0.8s-1.9-0.5-2.5-0.8c-0.6-0.3-1.1-0.7-1.4-1.1
			c-0.3-0.4-0.4-1-0.4-1.6c0-1,0.4-1.9,1.3-2.6c0.9-0.7,1.9-1,3.3-1c1.4,0,2.5,0.4,3.4,1.1s1.3,1.6,1.3,2.8h-2.1
			c0-0.6-0.2-1.1-0.7-1.5s-1.1-0.6-1.8-0.6c-0.8,0-1.4,0.2-1.8,0.5s-0.6,0.8-0.6,1.3c0,0.5,0.2,0.9,0.6,1.1s1.1,0.5,2.2,0.7
			c1,0.2,1.9,0.5,2.5,0.8c0.6,0.3,1.1,0.7,1.4,1.2c0.3,0.5,0.5,1,0.5,1.7c0,1.1-0.4,2-1.3,2.6c-0.9,0.7-2,1-3.4,1
			c-1,0-1.9-0.2-2.6-0.5c-0.8-0.3-1.3-0.8-1.8-1.5c-0.4-0.6-0.6-1.3-0.6-2h2.1c0,0.7,0.3,1.3,0.8,1.7c0.5,0.4,1.2,0.6,2.1,0.6
			c0.8,0,1.4-0.2,1.9-0.5C460.4,213.5,460.6,213.1,460.6,212.6z"/>
	</g>
	<g>
		<path fill="#FCFCFC" d="M290.2,408.6c-1.9-0.5-3.2-1.2-4.1-2c-0.9-0.8-1.3-1.7-1.3-2.9c0-1.3,0.5-2.4,1.6-3.2
			c1-0.9,2.4-1.3,4.1-1.3c1.1,0,2.1,0.2,3,0.7c0.9,0.4,1.6,1,2.1,1.8c0.5,0.8,0.7,1.6,0.7,2.5h-2.2c0-1-0.3-1.8-1-2.4
			c-0.6-0.6-1.5-0.9-2.7-0.9c-1.1,0-1.9,0.2-2.5,0.7c-0.6,0.5-0.9,1.1-0.9,2c0,0.7,0.3,1.2,0.9,1.7c0.6,0.5,1.5,0.9,2.9,1.3
			c1.4,0.4,2.4,0.8,3.2,1.3c0.8,0.5,1.3,1,1.7,1.6c0.4,0.6,0.6,1.3,0.6,2.2c0,1.3-0.5,2.4-1.6,3.2s-2.4,1.2-4.2,1.2
			c-1.1,0-2.2-0.2-3.2-0.7c-1-0.4-1.7-1-2.3-1.8s-0.8-1.6-0.8-2.6h2.2c0,1,0.4,1.8,1.1,2.4c0.7,0.6,1.7,0.9,3,0.9
			c1.1,0,2-0.2,2.6-0.7c0.6-0.5,0.9-1.1,0.9-1.9s-0.3-1.4-0.9-1.9C292.7,409.5,291.7,409.1,290.2,408.6z"/>
		<path fill="#FCFCFC" d="M301.7,400.8v3h2.3v1.6h-2.3v7.6c0,0.5,0.1,0.9,0.3,1.1s0.6,0.4,1,0.4c0.2,0,0.6,0,1-0.1v1.7
			c-0.6,0.2-1.1,0.2-1.6,0.2c-0.9,0-1.6-0.3-2.1-0.8c-0.5-0.6-0.7-1.4-0.7-2.4v-7.6h-2.2v-1.6h2.2v-3H301.7z"/>
		<path fill="#FCFCFC" d="M314,414.8c-0.8,1-2,1.4-3.6,1.4c-1.3,0-2.3-0.4-3-1.1c-0.7-0.8-1-1.9-1-3.4v-8h2.1v7.9
			c0,1.9,0.8,2.8,2.3,2.8c1.6,0,2.7-0.6,3.2-1.8v-8.9h2.1V416h-2L314,414.8z"/>
		<path fill="#FCFCFC" d="M318.7,409.8c0-1.9,0.4-3.4,1.3-4.5c0.9-1.1,2.1-1.7,3.5-1.7c1.4,0,2.6,0.5,3.4,1.5v-6.4h2.1V416h-1.9
			l-0.1-1.3c-0.8,1-2,1.5-3.5,1.5c-1.4,0-2.6-0.6-3.5-1.7c-0.9-1.2-1.3-2.7-1.3-4.6V409.8z M320.8,410c0,1.4,0.3,2.5,0.9,3.3
			c0.6,0.8,1.4,1.2,2.4,1.2c1.3,0,2.3-0.6,2.9-1.8V407c-0.6-1.2-1.6-1.7-2.9-1.7c-1,0-1.8,0.4-2.4,1.2S320.8,408.4,320.8,410z"/>
		<path fill="#FCFCFC" d="M336.3,412.9l2.9-9.2h2.2l-4.9,14.2c-0.8,2-2,3.1-3.6,3.1l-0.4,0l-0.8-0.1v-1.7l0.6,0
			c0.7,0,1.3-0.1,1.7-0.4c0.4-0.3,0.7-0.8,1-1.6l0.5-1.2l-4.4-12.1h2.3L336.3,412.9z"/>
		<path fill="#FCFCFC" d="M172.6,432.3c0-0.3,0.1-0.6,0.3-0.9s0.5-0.4,0.9-0.4c0.4,0,0.7,0.1,0.9,0.4c0.2,0.2,0.3,0.5,0.3,0.9
			c0,0.3-0.1,0.6-0.3,0.9c-0.2,0.2-0.5,0.3-0.9,0.3c-0.4,0-0.7-0.1-0.9-0.3S172.6,432.7,172.6,432.3z M174.9,447.9h-2.1v-12.3h2.1
			V447.9z"/>
		<path fill="#FCFCFC" d="M180.2,435.6l0.1,1.5c0.9-1.2,2.2-1.8,3.7-1.8c2.6,0,3.9,1.5,3.9,4.4v8.1h-2.1v-8.1c0-0.9-0.2-1.5-0.6-2
			s-1-0.6-1.9-0.6c-0.7,0-1.3,0.2-1.8,0.5c-0.5,0.4-0.9,0.8-1.2,1.4v8.7h-2.1v-12.3H180.2z"/>
		<path fill="#FCFCFC" d="M193.9,432.6v3h2.3v1.6h-2.3v7.6c0,0.5,0.1,0.9,0.3,1.1s0.6,0.4,1,0.4c0.2,0,0.6,0,1-0.1v1.7
			c-0.6,0.2-1.1,0.2-1.6,0.2c-0.9,0-1.6-0.3-2.1-0.9c-0.5-0.6-0.7-1.4-0.7-2.4v-7.6h-2.2v-1.6h2.2v-3H193.9z"/>
		<path fill="#FCFCFC" d="M203.7,448.1c-1.7,0-3-0.5-4.1-1.6c-1-1.1-1.6-2.6-1.6-4.4v-0.4c0-1.2,0.2-2.3,0.7-3.3s1.1-1.7,2-2.2
			c0.8-0.5,1.7-0.8,2.7-0.8c1.6,0,2.8,0.5,3.7,1.6s1.3,2.6,1.3,4.5v0.9h-8.3c0,1.2,0.4,2.2,1.1,2.9s1.5,1.1,2.6,1.1
			c0.7,0,1.4-0.2,1.9-0.5c0.5-0.3,1-0.7,1.3-1.2l1.3,1C207.3,447.3,205.8,448.1,203.7,448.1z M203.5,437.1c-0.8,0-1.6,0.3-2.1,0.9
			s-0.9,1.5-1.1,2.6h6.1v-0.2c-0.1-1.1-0.3-1.9-0.9-2.5S204.3,437.1,203.5,437.1z"/>
		<path fill="#FCFCFC" d="M216.9,437.5c-0.3-0.1-0.7-0.1-1-0.1c-1.4,0-2.3,0.6-2.8,1.8v8.7h-2.1v-12.3h2l0,1.4
			c0.7-1.1,1.7-1.6,2.9-1.6c0.4,0,0.7,0.1,0.9,0.2V437.5z"/>
		<path fill="#FCFCFC" d="M220.8,435.6l0.1,1.5c0.9-1.2,2.2-1.8,3.7-1.8c2.6,0,3.9,1.5,3.9,4.4v8.1h-2.1v-8.1c0-0.9-0.2-1.5-0.6-2
			s-1-0.6-1.9-0.6c-0.7,0-1.3,0.2-1.8,0.5c-0.5,0.4-0.9,0.8-1.2,1.4v8.7h-2.1v-12.3H220.8z"/>
		<path fill="#FCFCFC" d="M239.2,447.9c-0.1-0.2-0.2-0.7-0.3-1.3c-1,1-2.1,1.5-3.5,1.5c-1.2,0-2.2-0.3-3-1c-0.8-0.7-1.2-1.6-1.2-2.6
			c0-1.3,0.5-2.3,1.5-3s2.3-1.1,4.1-1.1h2v-1c0-0.7-0.2-1.3-0.7-1.8c-0.4-0.4-1.1-0.7-1.9-0.7c-0.7,0-1.4,0.2-1.9,0.6
			c-0.5,0.4-0.8,0.8-0.8,1.4h-2.1c0-0.6,0.2-1.2,0.7-1.8c0.4-0.6,1-1,1.8-1.4c0.7-0.3,1.6-0.5,2.5-0.5c1.4,0,2.5,0.4,3.3,1.1
			c0.8,0.7,1.2,1.7,1.2,2.9v5.6c0,1.1,0.1,2,0.4,2.7v0.2H239.2z M235.7,446.3c0.7,0,1.3-0.2,1.9-0.5c0.6-0.3,1-0.8,1.3-1.3v-2.5
			h-1.6c-2.6,0-3.9,0.8-3.9,2.3c0,0.7,0.2,1.2,0.7,1.5C234.5,446.1,235,446.3,235.7,446.3z"/>
		<path fill="#FCFCFC" d="M247.1,432.6v3h2.3v1.6h-2.3v7.6c0,0.5,0.1,0.9,0.3,1.1s0.6,0.4,1,0.4c0.2,0,0.6,0,1-0.1v1.7
			c-0.6,0.2-1.1,0.2-1.6,0.2c-0.9,0-1.6-0.3-2.1-0.9c-0.5-0.6-0.7-1.4-0.7-2.4v-7.6h-2.2v-1.6h2.2v-3H247.1z"/>
		<path fill="#FCFCFC" d="M251.8,432.3c0-0.3,0.1-0.6,0.3-0.9s0.5-0.4,0.9-0.4c0.4,0,0.7,0.1,0.9,0.4c0.2,0.2,0.3,0.5,0.3,0.9
			c0,0.3-0.1,0.6-0.3,0.9c-0.2,0.2-0.5,0.3-0.9,0.3c-0.4,0-0.7-0.1-0.9-0.3S251.8,432.7,251.8,432.3z M254.1,447.9H252v-12.3h2.1
			V447.9z"/>
		<path fill="#FCFCFC" d="M256.9,441.6c0-1.2,0.2-2.3,0.7-3.2c0.5-1,1.1-1.7,2-2.2c0.8-0.5,1.8-0.8,2.9-0.8c1.7,0,3,0.6,4.1,1.7
			c1,1.2,1.5,2.7,1.5,4.6v0.1c0,1.2-0.2,2.3-0.7,3.2s-1.1,1.7-2,2.2s-1.8,0.8-2.9,0.8c-1.7,0-3-0.6-4-1.7c-1-1.2-1.5-2.7-1.5-4.6
			V441.6z M259,441.9c0,1.4,0.3,2.5,0.9,3.3s1.5,1.2,2.5,1.2c1.1,0,1.9-0.4,2.5-1.3c0.6-0.8,0.9-2,0.9-3.5c0-1.3-0.3-2.4-1-3.3
			c-0.6-0.8-1.5-1.3-2.5-1.3c-1,0-1.9,0.4-2.5,1.2S259,440.3,259,441.9z"/>
		<path fill="#FCFCFC" d="M272.7,435.6l0.1,1.5c0.9-1.2,2.2-1.8,3.7-1.8c2.6,0,3.9,1.5,3.9,4.4v8.1h-2.1v-8.1c0-0.9-0.2-1.5-0.6-2
			s-1-0.6-1.9-0.6c-0.7,0-1.3,0.2-1.8,0.5c-0.5,0.4-0.9,0.8-1.2,1.4v8.7h-2.1v-12.3H272.7z"/>
		<path fill="#FCFCFC" d="M291.1,447.9c-0.1-0.2-0.2-0.7-0.3-1.3c-1,1-2.1,1.5-3.5,1.5c-1.2,0-2.2-0.3-3-1c-0.8-0.7-1.2-1.6-1.2-2.6
			c0-1.3,0.5-2.3,1.5-3s2.3-1.1,4.1-1.1h2v-1c0-0.7-0.2-1.3-0.7-1.8c-0.4-0.4-1.1-0.7-1.9-0.7c-0.7,0-1.4,0.2-1.9,0.6
			c-0.5,0.4-0.8,0.8-0.8,1.4h-2.1c0-0.6,0.2-1.2,0.7-1.8c0.4-0.6,1-1,1.8-1.4c0.7-0.3,1.6-0.5,2.5-0.5c1.4,0,2.5,0.4,3.3,1.1
			c0.8,0.7,1.2,1.7,1.2,2.9v5.6c0,1.1,0.1,2,0.4,2.7v0.2H291.1z M287.6,446.3c0.7,0,1.3-0.2,1.9-0.5c0.6-0.3,1-0.8,1.3-1.3v-2.5
			h-1.6c-2.6,0-3.9,0.8-3.9,2.3c0,0.7,0.2,1.2,0.7,1.5C286.4,446.1,286.9,446.3,287.6,446.3z"/>
		<path fill="#FCFCFC" d="M298.5,447.9h-2.1v-17.4h2.1V447.9z"/>
		<path fill="#FCFCFC" d="M309.8,447.9h-2.1v-17.4h2.1V447.9z"/>
		<path fill="#FCFCFC" d="M320.8,447.9c-0.1-0.2-0.2-0.7-0.3-1.3c-1,1-2.1,1.5-3.5,1.5c-1.2,0-2.2-0.3-3-1c-0.8-0.7-1.2-1.6-1.2-2.6
			c0-1.3,0.5-2.3,1.5-3s2.3-1.1,4.1-1.1h2v-1c0-0.7-0.2-1.3-0.7-1.8c-0.4-0.4-1.1-0.7-1.9-0.7c-0.7,0-1.4,0.2-1.9,0.6
			c-0.5,0.4-0.8,0.8-0.8,1.4h-2.1c0-0.6,0.2-1.2,0.7-1.8c0.4-0.6,1-1,1.8-1.4c0.7-0.3,1.6-0.5,2.5-0.5c1.4,0,2.5,0.4,3.3,1.1
			c0.8,0.7,1.2,1.7,1.2,2.9v5.6c0,1.1,0.1,2,0.4,2.7v0.2H320.8z M317.3,446.3c0.7,0,1.3-0.2,1.9-0.5c0.6-0.3,1-0.8,1.3-1.3v-2.5
			h-1.6c-2.6,0-3.9,0.8-3.9,2.3c0,0.7,0.2,1.2,0.7,1.5C316,446.1,316.6,446.3,317.3,446.3z"/>
		<path fill="#FCFCFC" d="M336.7,445l2.4-9.4h2.1l-3.6,12.3h-1.7l-3-9.3l-2.9,9.3h-1.7l-3.6-12.3h2.1l2.4,9.2l2.9-9.2h1.7L336.7,445
			z"/>
		<path fill="#FCFCFC" d="M144.1,464.5v3h2.3v1.6h-2.3v7.6c0,0.5,0.1,0.9,0.3,1.1s0.6,0.4,1,0.4c0.2,0,0.6,0,1-0.1v1.7
			c-0.6,0.2-1.1,0.2-1.6,0.2c-0.9,0-1.6-0.3-2.1-0.9c-0.5-0.6-0.7-1.4-0.7-2.4v-7.6h-2.2v-1.6h2.2v-3H144.1z"/>
		<path fill="#FCFCFC" d="M151,468.9c0.9-1.1,2.1-1.7,3.6-1.7c2.6,0,3.9,1.5,3.9,4.4v8.1h-2.1v-8.1c0-0.9-0.2-1.5-0.6-2
			s-1-0.6-1.9-0.6c-0.7,0-1.3,0.2-1.8,0.5c-0.5,0.4-0.9,0.8-1.2,1.4v8.7h-2.1v-17.4h2.1V468.9z"/>
		<path fill="#FCFCFC" d="M167.6,469.3c-0.3-0.1-0.7-0.1-1-0.1c-1.4,0-2.3,0.6-2.8,1.8v8.7h-2.1v-12.3h2l0,1.4
			c0.7-1.1,1.7-1.6,2.9-1.6c0.4,0,0.7,0.1,0.9,0.2V469.3z"/>
		<path fill="#FCFCFC" d="M168.7,473.5c0-1.2,0.2-2.3,0.7-3.2c0.5-1,1.1-1.7,2-2.2c0.8-0.5,1.8-0.8,2.9-0.8c1.7,0,3,0.6,4.1,1.7
			c1,1.2,1.5,2.7,1.5,4.6v0.1c0,1.2-0.2,2.3-0.7,3.2s-1.1,1.7-2,2.2s-1.8,0.8-2.9,0.8c-1.7,0-3-0.6-4-1.7c-1-1.2-1.5-2.7-1.5-4.6
			V473.5z M170.8,473.7c0,1.4,0.3,2.5,0.9,3.3s1.5,1.2,2.5,1.2c1.1,0,1.9-0.4,2.5-1.3c0.6-0.8,0.9-2,0.9-3.5c0-1.3-0.3-2.4-1-3.3
			c-0.6-0.8-1.5-1.3-2.5-1.3c-1,0-1.9,0.4-2.5,1.2S170.8,472.2,170.8,473.7z"/>
		<path fill="#FCFCFC" d="M190.1,478.5c-0.8,1-2,1.4-3.6,1.4c-1.3,0-2.3-0.4-3-1.1c-0.7-0.8-1-1.9-1-3.4v-8h2.1v7.9
			c0,1.9,0.8,2.8,2.3,2.8c1.6,0,2.7-0.6,3.2-1.8v-8.9h2.1v12.3h-2L190.1,478.5z"/>
		<path fill="#FCFCFC" d="M194.8,473.5c0-1.9,0.4-3.4,1.3-4.6s2.1-1.7,3.5-1.7c1.5,0,2.7,0.5,3.5,1.6l0.1-1.4h1.9v12
			c0,1.6-0.5,2.8-1.4,3.8s-2.2,1.4-3.8,1.4c-0.9,0-1.8-0.2-2.6-0.6c-0.8-0.4-1.5-0.9-1.9-1.6l1.1-1.3c0.9,1.1,2,1.7,3.3,1.7
			c1,0,1.8-0.3,2.4-0.9c0.6-0.6,0.9-1.4,0.9-2.4v-1.1c-0.8,1-2,1.5-3.4,1.5c-1.4,0-2.6-0.6-3.5-1.7
			C195.3,477,194.8,475.5,194.8,473.5z M197,473.7c0,1.4,0.3,2.5,0.9,3.3c0.6,0.8,1.4,1.2,2.4,1.2c1.3,0,2.3-0.6,2.9-1.8v-5.6
			c-0.6-1.2-1.6-1.8-2.9-1.8c-1,0-1.8,0.4-2.4,1.2C197.2,471,197,472.2,197,473.7z"/>
		<path fill="#FCFCFC" d="M210.5,468.9c0.9-1.1,2.1-1.7,3.6-1.7c2.6,0,3.9,1.5,3.9,4.4v8.1h-2.1v-8.1c0-0.9-0.2-1.5-0.6-2
			s-1-0.6-1.9-0.6c-0.7,0-1.3,0.2-1.8,0.5c-0.5,0.4-0.9,0.8-1.2,1.4v8.7h-2.1v-17.4h2.1V468.9z"/>
		<path fill="#FCFCFC" d="M226.4,473.5c0-1.9,0.4-3.4,1.3-4.5c0.9-1.1,2.1-1.7,3.5-1.7c1.4,0,2.6,0.5,3.4,1.5v-6.4h2.1v17.4h-1.9
			l-0.1-1.3c-0.8,1-2,1.5-3.5,1.5c-1.4,0-2.6-0.6-3.5-1.7c-0.9-1.2-1.3-2.7-1.3-4.6V473.5z M228.5,473.7c0,1.4,0.3,2.5,0.9,3.3
			c0.6,0.8,1.4,1.2,2.4,1.2c1.3,0,2.3-0.6,2.9-1.8v-5.6c-0.6-1.2-1.6-1.7-2.9-1.7c-1,0-1.8,0.4-2.4,1.2
			C228.8,471,228.5,472.2,228.5,473.7z"/>
		<path fill="#FCFCFC" d="M239.5,473.5c0-1.2,0.2-2.3,0.7-3.2c0.5-1,1.1-1.7,2-2.2c0.8-0.5,1.8-0.8,2.9-0.8c1.7,0,3,0.6,4.1,1.7
			c1,1.2,1.5,2.7,1.5,4.6v0.1c0,1.2-0.2,2.3-0.7,3.2s-1.1,1.7-2,2.2s-1.8,0.8-2.9,0.8c-1.7,0-3-0.6-4-1.7c-1-1.2-1.5-2.7-1.5-4.6
			V473.5z M241.6,473.7c0,1.4,0.3,2.5,0.9,3.3s1.5,1.2,2.5,1.2c1.1,0,1.9-0.4,2.5-1.3c0.6-0.8,0.9-2,0.9-3.5c0-1.3-0.3-2.4-1-3.3
			c-0.6-0.8-1.5-1.3-2.5-1.3c-1,0-1.9,0.4-2.5,1.2S241.6,472.2,241.6,473.7z"/>
		<path fill="#FCFCFC" d="M258.2,478.2c0.7,0,1.4-0.2,2-0.7c0.6-0.5,0.9-1,0.9-1.7h2c0,0.7-0.3,1.4-0.7,2c-0.4,0.6-1,1.1-1.8,1.5
			c-0.7,0.4-1.5,0.6-2.4,0.6c-1.7,0-3-0.6-4-1.7s-1.5-2.6-1.5-4.6v-0.4c0-1.2,0.2-2.3,0.7-3.2s1.1-1.7,1.9-2.2
			c0.8-0.5,1.8-0.8,2.9-0.8c1.4,0,2.5,0.4,3.4,1.2c0.9,0.8,1.4,1.9,1.5,3.2h-2c-0.1-0.8-0.4-1.4-0.9-2c-0.5-0.5-1.2-0.8-2-0.8
			c-1.1,0-1.9,0.4-2.5,1.2c-0.6,0.8-0.9,1.9-0.9,3.3v0.4c0,1.4,0.3,2.5,0.9,3.3C256.3,477.8,257.1,478.2,258.2,478.2z"/>
		<path fill="#FCFCFC" d="M273,478.5c-0.8,1-2,1.4-3.6,1.4c-1.3,0-2.3-0.4-3-1.1c-0.7-0.8-1-1.9-1-3.4v-8h2.1v7.9
			c0,1.9,0.8,2.8,2.3,2.8c1.6,0,2.7-0.6,3.2-1.8v-8.9h2.1v12.3h-2L273,478.5z"/>
		<path fill="#FCFCFC" d="M280.2,467.4l0.1,1.4c0.9-1.1,2.1-1.6,3.6-1.6c1.7,0,2.9,0.7,3.5,2c0.4-0.6,0.9-1.1,1.6-1.4
			c0.7-0.4,1.4-0.5,2.3-0.5c2.7,0,4.1,1.4,4.1,4.3v8.2h-2.1v-8.1c0-0.9-0.2-1.5-0.6-2c-0.4-0.4-1.1-0.7-2-0.7
			c-0.8,0-1.4,0.2-1.9,0.7c-0.5,0.5-0.8,1.1-0.9,1.9v8.1h-2.1v-8c0-1.8-0.9-2.7-2.6-2.7c-1.4,0-2.3,0.6-2.8,1.8v9h-2.1v-12.3H280.2z
			"/>
		<path fill="#FCFCFC" d="M303.7,479.9c-1.7,0-3-0.5-4.1-1.6c-1-1.1-1.6-2.6-1.6-4.4v-0.4c0-1.2,0.2-2.3,0.7-3.3s1.1-1.7,2-2.2
			c0.8-0.5,1.7-0.8,2.7-0.8c1.6,0,2.8,0.5,3.7,1.6s1.3,2.6,1.3,4.5v0.9h-8.3c0,1.2,0.4,2.2,1.1,2.9s1.5,1.1,2.6,1.1
			c0.7,0,1.4-0.2,1.9-0.5c0.5-0.3,1-0.7,1.3-1.2l1.3,1C307.3,479.2,305.8,479.9,303.7,479.9z M303.4,468.9c-0.8,0-1.6,0.3-2.1,0.9
			s-0.9,1.5-1.1,2.6h6.1v-0.2c-0.1-1.1-0.3-1.9-0.9-2.5S304.3,468.9,303.4,468.9z"/>
		<path fill="#FCFCFC" d="M312.9,467.4l0.1,1.5c0.9-1.2,2.2-1.8,3.7-1.8c2.6,0,3.9,1.5,3.9,4.4v8.1h-2.1v-8.1c0-0.9-0.2-1.5-0.6-2
			s-1-0.6-1.9-0.6c-0.7,0-1.3,0.2-1.8,0.5c-0.5,0.4-0.9,0.8-1.2,1.4v8.7h-2.1v-12.3H312.9z"/>
		<path fill="#FCFCFC" d="M326.6,464.5v3h2.3v1.6h-2.3v7.6c0,0.5,0.1,0.9,0.3,1.1s0.6,0.4,1,0.4c0.2,0,0.6,0,1-0.1v1.7
			c-0.6,0.2-1.1,0.2-1.6,0.2c-0.9,0-1.6-0.3-2.1-0.9c-0.5-0.6-0.7-1.4-0.7-2.4v-7.6h-2.2v-1.6h2.2v-3H326.6z"/>
		<path fill="#FCFCFC" d="M338.5,476.5c0-0.6-0.2-1-0.6-1.3c-0.4-0.3-1.2-0.6-2.2-0.8s-1.9-0.5-2.5-0.8s-1.1-0.7-1.4-1.1
			c-0.3-0.4-0.4-1-0.4-1.6c0-1,0.4-1.9,1.3-2.6c0.9-0.7,1.9-1,3.3-1c1.4,0,2.5,0.4,3.4,1.1s1.3,1.6,1.3,2.8h-2.1
			c0-0.6-0.2-1.1-0.7-1.5s-1.1-0.6-1.8-0.6c-0.8,0-1.4,0.2-1.8,0.5c-0.4,0.3-0.6,0.8-0.6,1.3c0,0.5,0.2,0.9,0.6,1.1
			c0.4,0.3,1.1,0.5,2.2,0.7c1,0.2,1.9,0.5,2.5,0.8c0.6,0.3,1.1,0.7,1.4,1.2c0.3,0.5,0.5,1,0.5,1.7c0,1.1-0.4,2-1.3,2.6
			c-0.9,0.7-2,1-3.4,1c-1,0-1.9-0.2-2.6-0.5c-0.8-0.3-1.3-0.8-1.8-1.5c-0.4-0.6-0.6-1.3-0.6-2h2.1c0,0.7,0.3,1.3,0.8,1.7
			c0.5,0.4,1.2,0.6,2.1,0.6c0.8,0,1.4-0.2,1.9-0.5C338.2,477.4,338.5,477,338.5,476.5z"/>
		<path fill="#FCFCFC" d="M223.9,511.6c-0.1-0.2-0.2-0.7-0.3-1.3c-1,1-2.1,1.5-3.5,1.5c-1.2,0-2.2-0.3-3-1c-0.8-0.7-1.2-1.6-1.2-2.6
			c0-1.3,0.5-2.3,1.5-3s2.3-1.1,4.1-1.1h2v-1c0-0.7-0.2-1.3-0.7-1.8c-0.4-0.4-1.1-0.7-1.9-0.7c-0.7,0-1.4,0.2-1.9,0.6
			c-0.5,0.4-0.8,0.8-0.8,1.4h-2.1c0-0.6,0.2-1.2,0.7-1.8c0.4-0.6,1-1,1.8-1.4c0.7-0.3,1.6-0.5,2.5-0.5c1.4,0,2.5,0.4,3.3,1.1
			c0.8,0.7,1.2,1.7,1.2,2.9v5.6c0,1.1,0.1,2,0.4,2.7v0.2H223.9z M220.4,510c0.7,0,1.3-0.2,1.9-0.5s1-0.8,1.3-1.3v-2.5h-1.6
			c-2.6,0-3.9,0.8-3.9,2.3c0,0.7,0.2,1.2,0.7,1.5S219.8,510,220.4,510z"/>
		<path fill="#FCFCFC" d="M231,499.3l0.1,1.5c0.9-1.2,2.2-1.8,3.7-1.8c2.6,0,3.9,1.5,3.9,4.4v8.1h-2.1v-8.1c0-0.9-0.2-1.5-0.6-2
			c-0.4-0.4-1-0.6-1.9-0.6c-0.7,0-1.3,0.2-1.8,0.5s-0.9,0.8-1.2,1.4v8.7H229v-12.3H231z"/>
		<path fill="#FCFCFC" d="M241.3,505.3c0-1.9,0.4-3.4,1.3-4.5c0.9-1.1,2.1-1.7,3.5-1.7c1.4,0,2.6,0.5,3.4,1.5v-6.4h2.1v17.4h-1.9
			l-0.1-1.3c-0.8,1-2,1.5-3.5,1.5c-1.4,0-2.6-0.6-3.5-1.7c-0.9-1.2-1.3-2.7-1.3-4.6V505.3z M243.4,505.6c0,1.4,0.3,2.5,0.9,3.3
			c0.6,0.8,1.4,1.2,2.4,1.2c1.3,0,2.3-0.6,2.9-1.8v-5.6c-0.6-1.2-1.6-1.7-2.9-1.7c-1,0-1.8,0.4-2.4,1.2S243.4,504,243.4,505.6z"/>
		<path fill="#FCFCFC" d="M262.9,511.6h-2.1v-17.4h2.1V511.6z"/>
		<path fill="#FCFCFC" d="M271.4,511.8c-1.7,0-3-0.5-4.1-1.6c-1-1.1-1.6-2.6-1.6-4.4v-0.4c0-1.2,0.2-2.3,0.7-3.3
			c0.5-1,1.1-1.7,2-2.2c0.8-0.5,1.7-0.8,2.7-0.8c1.6,0,2.8,0.5,3.7,1.6s1.3,2.6,1.3,4.5v0.9h-8.3c0,1.2,0.4,2.2,1.1,2.9
			c0.7,0.7,1.5,1.1,2.6,1.1c0.7,0,1.4-0.2,1.9-0.5c0.5-0.3,1-0.7,1.3-1.2l1.3,1C275,511,273.4,511.8,271.4,511.8z M271.1,500.8
			c-0.8,0-1.6,0.3-2.1,0.9c-0.6,0.6-0.9,1.5-1.1,2.6h6.1v-0.2c-0.1-1.1-0.3-1.9-0.9-2.5S272,500.8,271.1,500.8z"/>
		<path fill="#FCFCFC" d="M283.5,510.1c0.7,0,1.4-0.2,2-0.7c0.6-0.5,0.9-1,0.9-1.7h2c0,0.7-0.3,1.4-0.7,2s-1,1.1-1.8,1.5
			s-1.5,0.6-2.4,0.6c-1.7,0-3-0.6-4-1.7s-1.5-2.6-1.5-4.6v-0.4c0-1.2,0.2-2.3,0.7-3.2c0.4-0.9,1.1-1.7,1.9-2.2
			c0.8-0.5,1.8-0.8,2.9-0.8c1.4,0,2.5,0.4,3.4,1.2c0.9,0.8,1.4,1.9,1.5,3.2h-2c-0.1-0.8-0.4-1.4-0.9-2c-0.5-0.5-1.2-0.8-2-0.8
			c-1.1,0-1.9,0.4-2.5,1.2s-0.9,1.9-0.9,3.3v0.4c0,1.4,0.3,2.5,0.9,3.3C281.6,509.7,282.4,510.1,283.5,510.1z"/>
		<path fill="#FCFCFC" d="M293.6,496.3v3h2.3v1.6h-2.3v7.6c0,0.5,0.1,0.9,0.3,1.1s0.6,0.4,1,0.4c0.2,0,0.6,0,1-0.1v1.7
			c-0.6,0.2-1.1,0.2-1.6,0.2c-0.9,0-1.6-0.3-2.1-0.8c-0.5-0.6-0.7-1.4-0.7-2.4v-7.6h-2.2v-1.6h2.2v-3H293.6z"/>
		<path fill="#FCFCFC" d="M305.9,510.4c-0.8,1-2,1.4-3.6,1.4c-1.3,0-2.3-0.4-3-1.1c-0.7-0.8-1-1.9-1-3.4v-8h2.1v7.9
			c0,1.9,0.8,2.8,2.3,2.8c1.6,0,2.7-0.6,3.2-1.8v-8.9h2.1v12.3h-2L305.9,510.4z"/>
		<path fill="#FCFCFC" d="M317.1,501.2c-0.3-0.1-0.7-0.1-1-0.1c-1.4,0-2.3,0.6-2.8,1.8v8.7h-2.1v-12.3h2l0,1.4
			c0.7-1.1,1.7-1.6,2.9-1.6c0.4,0,0.7,0.1,0.9,0.2V501.2z"/>
		<path fill="#FCFCFC" d="M324.1,511.8c-1.7,0-3-0.5-4.1-1.6c-1-1.1-1.6-2.6-1.6-4.4v-0.4c0-1.2,0.2-2.3,0.7-3.3
			c0.5-1,1.1-1.7,2-2.2c0.8-0.5,1.7-0.8,2.7-0.8c1.6,0,2.8,0.5,3.7,1.6s1.3,2.6,1.3,4.5v0.9h-8.3c0,1.2,0.4,2.2,1.1,2.9
			c0.7,0.7,1.5,1.1,2.6,1.1c0.7,0,1.4-0.2,1.9-0.5c0.5-0.3,1-0.7,1.3-1.2l1.3,1C327.7,511,326.2,511.8,324.1,511.8z M323.8,500.8
			c-0.8,0-1.6,0.3-2.1,0.9c-0.6,0.6-0.9,1.5-1.1,2.6h6.1v-0.2c-0.1-1.1-0.3-1.9-0.9-2.5S324.7,500.8,323.8,500.8z"/>
		<path fill="#FCFCFC" d="M338.5,508.3c0-0.6-0.2-1-0.6-1.3s-1.2-0.6-2.2-0.8s-1.9-0.5-2.5-0.8c-0.6-0.3-1.1-0.7-1.4-1.1
			c-0.3-0.4-0.4-1-0.4-1.6c0-1,0.4-1.9,1.3-2.6c0.9-0.7,1.9-1,3.3-1c1.4,0,2.5,0.4,3.4,1.1s1.3,1.6,1.3,2.8h-2.1
			c0-0.6-0.2-1.1-0.7-1.5s-1.1-0.6-1.8-0.6c-0.8,0-1.4,0.2-1.8,0.5c-0.4,0.3-0.6,0.8-0.6,1.3c0,0.5,0.2,0.9,0.6,1.1
			c0.4,0.3,1.1,0.5,2.2,0.7c1,0.2,1.9,0.5,2.5,0.8c0.6,0.3,1.1,0.7,1.4,1.2c0.3,0.5,0.5,1,0.5,1.7c0,1.1-0.4,2-1.3,2.6
			c-0.9,0.7-2,1-3.4,1c-1,0-1.9-0.2-2.6-0.5c-0.8-0.3-1.3-0.8-1.8-1.5s-0.6-1.3-0.6-2h2.1c0,0.7,0.3,1.3,0.8,1.7
			c0.5,0.4,1.2,0.6,2.1,0.6c0.8,0,1.4-0.2,1.9-0.5C338.2,509.3,338.5,508.9,338.5,508.3z"/>
		<path fill="#FCFCFC" d="M210.3,537.2c0-1.2,0.2-2.3,0.7-3.2c0.5-1,1.1-1.7,2-2.2c0.8-0.5,1.8-0.8,2.9-0.8c1.7,0,3,0.6,4.1,1.7
			s1.5,2.7,1.5,4.6v0.1c0,1.2-0.2,2.3-0.7,3.2c-0.5,0.9-1.1,1.7-2,2.2s-1.8,0.8-2.9,0.8c-1.7,0-3-0.6-4-1.7s-1.5-2.7-1.5-4.6V537.2z
			 M212.5,537.4c0,1.4,0.3,2.5,0.9,3.3c0.6,0.8,1.5,1.2,2.5,1.2c1.1,0,1.9-0.4,2.5-1.3c0.6-0.8,0.9-2,0.9-3.5c0-1.3-0.3-2.4-1-3.3
			c-0.6-0.8-1.5-1.3-2.5-1.3c-1,0-1.9,0.4-2.5,1.2S212.5,535.9,212.5,537.4z"/>
		<path fill="#FCFCFC" d="M230.1,533c-0.3-0.1-0.7-0.1-1-0.1c-1.4,0-2.3,0.6-2.8,1.8v8.7h-2.1v-12.3h2l0,1.4
			c0.7-1.1,1.7-1.6,2.9-1.6c0.4,0,0.7,0.1,0.9,0.2V533z"/>
		<path fill="#FCFCFC" d="M231.5,537.2c0-1.9,0.4-3.4,1.3-4.6s2.1-1.7,3.5-1.7c1.5,0,2.7,0.5,3.5,1.6l0.1-1.4h1.9v12
			c0,1.6-0.5,2.8-1.4,3.8c-0.9,0.9-2.2,1.4-3.8,1.4c-0.9,0-1.8-0.2-2.6-0.6c-0.8-0.4-1.5-0.9-1.9-1.6l1.1-1.3c0.9,1.1,2,1.7,3.3,1.7
			c1,0,1.8-0.3,2.4-0.9c0.6-0.6,0.9-1.4,0.9-2.4v-1.1c-0.8,1-2,1.5-3.4,1.5c-1.4,0-2.6-0.6-3.5-1.7
			C232,540.8,231.5,539.2,231.5,537.2z M233.6,537.4c0,1.4,0.3,2.5,0.9,3.3c0.6,0.8,1.4,1.2,2.4,1.2c1.3,0,2.3-0.6,2.9-1.8v-5.6
			c-0.6-1.2-1.6-1.8-2.9-1.8c-1,0-1.8,0.4-2.4,1.2S233.6,535.9,233.6,537.4z"/>
		<path fill="#FCFCFC" d="M252.6,543.4c-0.1-0.2-0.2-0.7-0.3-1.3c-1,1-2.1,1.5-3.5,1.5c-1.2,0-2.2-0.3-3-1c-0.8-0.7-1.2-1.6-1.2-2.6
			c0-1.3,0.5-2.3,1.5-3s2.3-1.1,4.1-1.1h2v-1c0-0.7-0.2-1.3-0.7-1.8c-0.4-0.4-1.1-0.7-1.9-0.7c-0.7,0-1.4,0.2-1.9,0.6
			c-0.5,0.4-0.8,0.8-0.8,1.4h-2.1c0-0.6,0.2-1.2,0.7-1.8c0.4-0.6,1-1,1.8-1.4c0.7-0.3,1.6-0.5,2.5-0.5c1.4,0,2.5,0.4,3.3,1.1
			c0.8,0.7,1.2,1.7,1.2,2.9v5.6c0,1.1,0.1,2,0.4,2.7v0.2H252.6z M249.1,541.8c0.7,0,1.3-0.2,1.9-0.5s1-0.8,1.3-1.3v-2.5h-1.6
			c-2.6,0-3.9,0.8-3.9,2.3c0,0.7,0.2,1.2,0.7,1.5S248.4,541.8,249.1,541.8z"/>
		<path fill="#FCFCFC" d="M259.7,531.2l0.1,1.5c0.9-1.2,2.2-1.8,3.7-1.8c2.6,0,3.9,1.5,3.9,4.4v8.1h-2.1v-8.1c0-0.9-0.2-1.5-0.6-2
			c-0.4-0.4-1-0.6-1.9-0.6c-0.7,0-1.3,0.2-1.8,0.5s-0.9,0.8-1.2,1.4v8.7h-2.1v-12.3H259.7z"/>
		<path fill="#FCFCFC" d="M270.5,527.9c0-0.3,0.1-0.6,0.3-0.9c0.2-0.2,0.5-0.4,0.9-0.4c0.4,0,0.7,0.1,0.9,0.4
			c0.2,0.2,0.3,0.5,0.3,0.9s-0.1,0.6-0.3,0.8c-0.2,0.2-0.5,0.3-0.9,0.3c-0.4,0-0.7-0.1-0.9-0.3C270.6,528.5,270.5,528.2,270.5,527.9
			z M272.8,543.4h-2.1v-12.3h2.1V543.4z"/>
		<path fill="#FCFCFC" d="M283.3,540.2c0-0.6-0.2-1-0.6-1.3s-1.2-0.6-2.2-0.8s-1.9-0.5-2.5-0.8c-0.6-0.3-1.1-0.7-1.4-1.1
			c-0.3-0.4-0.4-1-0.4-1.6c0-1,0.4-1.9,1.3-2.6c0.9-0.7,1.9-1,3.3-1c1.4,0,2.5,0.4,3.4,1.1s1.3,1.6,1.3,2.8h-2.1
			c0-0.6-0.2-1.1-0.7-1.5s-1.1-0.6-1.8-0.6c-0.8,0-1.4,0.2-1.8,0.5c-0.4,0.3-0.6,0.8-0.6,1.3c0,0.5,0.2,0.9,0.6,1.1
			c0.4,0.3,1.1,0.5,2.2,0.7c1,0.2,1.9,0.5,2.5,0.8c0.6,0.3,1.1,0.7,1.4,1.2c0.3,0.5,0.5,1,0.5,1.7c0,1.1-0.4,2-1.3,2.6
			c-0.9,0.7-2,1-3.4,1c-1,0-1.9-0.2-2.6-0.5c-0.8-0.3-1.3-0.8-1.8-1.5s-0.6-1.3-0.6-2h2.1c0,0.7,0.3,1.3,0.8,1.7
			c0.5,0.4,1.2,0.6,2.1,0.6c0.8,0,1.4-0.2,1.9-0.5C283,541.1,283.3,540.7,283.3,540.2z"/>
		<path fill="#FCFCFC" d="M293.2,543.7c-1.7,0-3-0.5-4.1-1.6c-1-1.1-1.6-2.6-1.6-4.4v-0.4c0-1.2,0.2-2.3,0.7-3.3
			c0.5-1,1.1-1.7,2-2.2c0.8-0.5,1.7-0.8,2.7-0.8c1.6,0,2.8,0.5,3.7,1.6s1.3,2.6,1.3,4.5v0.9h-8.3c0,1.2,0.4,2.2,1.1,2.9
			c0.7,0.7,1.5,1.1,2.6,1.1c0.7,0,1.4-0.2,1.9-0.5c0.5-0.3,1-0.7,1.3-1.2l1.3,1C296.8,542.9,295.3,543.7,293.2,543.7z M292.9,532.7
			c-0.8,0-1.6,0.3-2.1,0.9c-0.6,0.6-0.9,1.5-1.1,2.6h6.1V536c-0.1-1.1-0.3-1.9-0.9-2.5S293.8,532.7,292.9,532.7z"/>
		<path fill="#FCFCFC" d="M299.9,537.2c0-1.9,0.4-3.4,1.3-4.5c0.9-1.1,2.1-1.7,3.5-1.7c1.4,0,2.6,0.5,3.4,1.5V526h2.1v17.4h-1.9
			l-0.1-1.3c-0.8,1-2,1.5-3.5,1.5c-1.4,0-2.6-0.6-3.5-1.7c-0.9-1.2-1.3-2.7-1.3-4.6V537.2z M302,537.4c0,1.4,0.3,2.5,0.9,3.3
			c0.6,0.8,1.4,1.2,2.4,1.2c1.3,0,2.3-0.6,2.9-1.8v-5.6c-0.6-1.2-1.6-1.7-2.9-1.7c-1,0-1.8,0.4-2.4,1.2S302,535.9,302,537.4z"/>
		<path fill="#FCFCFC" d="M329.7,537.4c0,1.9-0.4,3.4-1.3,4.5c-0.9,1.1-2,1.7-3.5,1.7c-1.6,0-2.7-0.5-3.6-1.6l-0.1,1.4h-1.9V526h2.1
			v6.5c0.8-1.1,2-1.6,3.5-1.6c1.5,0,2.7,0.6,3.5,1.7c0.9,1.1,1.3,2.7,1.3,4.6V537.4z M327.6,537.2c0-1.4-0.3-2.5-0.8-3.3
			c-0.6-0.8-1.3-1.2-2.4-1.2c-1.4,0-2.4,0.6-3,1.9v5.3c0.6,1.3,1.6,1.9,3,1.9c1,0,1.8-0.4,2.3-1.2
			C327.3,539.9,327.6,538.8,327.6,537.2z"/>
		<path fill="#FCFCFC" d="M336.3,540.4l2.9-9.2h2.2l-4.9,14.2c-0.8,2-2,3.1-3.6,3.1l-0.4,0l-0.8-0.1v-1.7l0.6,0
			c0.7,0,1.3-0.1,1.7-0.4c0.4-0.3,0.7-0.8,1-1.6l0.5-1.2l-4.4-12.1h2.3L336.3,540.4z"/>
		<path fill="#FCFCFC" d="M259.3,569.3c0,1.9-0.4,3.4-1.3,4.5s-2,1.7-3.5,1.7c-1.5,0-2.7-0.5-3.5-1.4v5.9H249v-17h1.9l0.1,1.4
			c0.9-1.1,2-1.6,3.6-1.6c1.5,0,2.6,0.6,3.5,1.7c0.9,1.1,1.3,2.7,1.3,4.6V569.3z M257.2,569.1c0-1.4-0.3-2.5-0.9-3.3
			c-0.6-0.8-1.4-1.2-2.4-1.2c-1.3,0-2.2,0.6-2.9,1.7v5.9c0.6,1.1,1.6,1.7,2.9,1.7c1,0,1.8-0.4,2.4-1.2
			C256.9,571.8,257.2,570.6,257.2,569.1z"/>
		<path fill="#FCFCFC" d="M267.9,564.9c-0.3-0.1-0.7-0.1-1-0.1c-1.4,0-2.3,0.6-2.8,1.8v8.7H262V563h2l0,1.4c0.7-1.1,1.7-1.6,2.9-1.6
			c0.4,0,0.7,0.1,0.9,0.2V564.9z"/>
		<path fill="#FCFCFC" d="M269.1,569c0-1.2,0.2-2.3,0.7-3.2c0.5-1,1.1-1.7,2-2.2c0.8-0.5,1.8-0.8,2.9-0.8c1.7,0,3,0.6,4.1,1.7
			c1,1.2,1.5,2.7,1.5,4.6v0.1c0,1.2-0.2,2.3-0.7,3.2s-1.1,1.7-2,2.2s-1.8,0.8-2.9,0.8c-1.7,0-3-0.6-4-1.7c-1-1.2-1.5-2.7-1.5-4.6
			V569z M271.2,569.3c0,1.4,0.3,2.5,0.9,3.3s1.5,1.2,2.5,1.2c1.1,0,1.9-0.4,2.5-1.3c0.6-0.8,0.9-2,0.9-3.5c0-1.3-0.3-2.4-1-3.3
			c-0.6-0.8-1.5-1.3-2.5-1.3c-1,0-1.9,0.4-2.5,1.2S271.2,567.8,271.2,569.3z"/>
		<path fill="#FCFCFC" d="M286.8,572.4l3-9.4h2.1l-4.4,12.3H286l-4.4-12.3h2.1L286.8,572.4z"/>
		<path fill="#FCFCFC" d="M294,559.8c0-0.3,0.1-0.6,0.3-0.9s0.5-0.4,0.9-0.4c0.4,0,0.7,0.1,0.9,0.4c0.2,0.2,0.3,0.5,0.3,0.9
			c0,0.3-0.1,0.6-0.3,0.9c-0.2,0.2-0.5,0.3-0.9,0.3c-0.4,0-0.7-0.1-0.9-0.3S294,560.1,294,559.8z M296.3,575.3h-2.1V563h2.1V575.3z"
			/>
		<path fill="#FCFCFC" d="M306.8,572c0-0.6-0.2-1-0.6-1.3c-0.4-0.3-1.2-0.6-2.2-0.8s-1.9-0.5-2.5-0.8s-1.1-0.7-1.4-1.1
			c-0.3-0.4-0.4-1-0.4-1.6c0-1,0.4-1.9,1.3-2.6c0.9-0.7,1.9-1,3.3-1c1.4,0,2.5,0.4,3.4,1.1s1.3,1.6,1.3,2.8h-2.1
			c0-0.6-0.2-1.1-0.7-1.5s-1.1-0.6-1.8-0.6c-0.8,0-1.4,0.2-1.8,0.5c-0.4,0.3-0.6,0.8-0.6,1.3c0,0.5,0.2,0.9,0.6,1.1
			c0.4,0.3,1.1,0.5,2.2,0.7c1,0.2,1.9,0.5,2.5,0.8c0.6,0.3,1.1,0.7,1.4,1.2c0.3,0.5,0.5,1,0.5,1.7c0,1.1-0.4,2-1.3,2.6
			c-0.9,0.7-2,1-3.4,1c-1,0-1.9-0.2-2.6-0.5c-0.8-0.3-1.3-0.8-1.8-1.5c-0.4-0.6-0.6-1.3-0.6-2h2.1c0,0.7,0.3,1.3,0.8,1.7
			c0.5,0.4,1.2,0.6,2.1,0.6c0.8,0,1.4-0.2,1.9-0.5C306.5,573,306.8,572.6,306.8,572z"/>
		<path fill="#FCFCFC" d="M311.6,559.8c0-0.3,0.1-0.6,0.3-0.9s0.5-0.4,0.9-0.4c0.4,0,0.7,0.1,0.9,0.4c0.2,0.2,0.3,0.5,0.3,0.9
			c0,0.3-0.1,0.6-0.3,0.9c-0.2,0.2-0.5,0.3-0.9,0.3c-0.4,0-0.7-0.1-0.9-0.3S311.6,560.1,311.6,559.8z M313.9,575.3h-2.1V563h2.1
			V575.3z"/>
		<path fill="#FCFCFC" d="M316.7,569c0-1.2,0.2-2.3,0.7-3.2c0.5-1,1.1-1.7,2-2.2c0.8-0.5,1.8-0.8,2.9-0.8c1.7,0,3,0.6,4.1,1.7
			c1,1.2,1.5,2.7,1.5,4.6v0.1c0,1.2-0.2,2.3-0.7,3.2s-1.1,1.7-2,2.2s-1.8,0.8-2.9,0.8c-1.7,0-3-0.6-4-1.7c-1-1.2-1.5-2.7-1.5-4.6
			V569z M318.8,569.3c0,1.4,0.3,2.5,0.9,3.3s1.5,1.2,2.5,1.2c1.1,0,1.9-0.4,2.5-1.3c0.6-0.8,0.9-2,0.9-3.5c0-1.3-0.3-2.4-1-3.3
			c-0.6-0.8-1.5-1.3-2.5-1.3c-1,0-1.9,0.4-2.5,1.2S318.8,567.8,318.8,569.3z"/>
		<path fill="#FCFCFC" d="M332.5,563l0.1,1.5c0.9-1.2,2.2-1.8,3.7-1.8c2.6,0,3.9,1.5,3.9,4.4v8.1H338v-8.1c0-0.9-0.2-1.5-0.6-2
			s-1-0.6-1.9-0.6c-0.7,0-1.3,0.2-1.8,0.5c-0.5,0.4-0.9,0.8-1.2,1.4v8.7h-2.1V563H332.5z"/>
	</g>
	<g>
		<path fill="#FCFCFC" d="M400,416h-2.2v-16.5h2.2V416z"/>
		<path fill="#FCFCFC" d="M405.7,403.7l0.1,1.5c0.9-1.2,2.2-1.8,3.7-1.8c2.6,0,3.9,1.5,3.9,4.4v8.1h-2.1v-8.1c0-0.9-0.2-1.5-0.6-2
			c-0.4-0.4-1-0.6-1.9-0.6c-0.7,0-1.3,0.2-1.8,0.5s-0.9,0.8-1.2,1.4v8.7h-2.1v-12.3H405.7z"/>
		<path fill="#FCFCFC" d="M419.3,400.8v3h2.3v1.6h-2.3v7.6c0,0.5,0.1,0.9,0.3,1.1s0.6,0.4,1,0.4c0.2,0,0.6,0,1-0.1v1.7
			c-0.6,0.2-1.1,0.2-1.6,0.2c-0.9,0-1.6-0.3-2.1-0.8c-0.5-0.6-0.7-1.4-0.7-2.4v-7.6H415v-1.6h2.2v-3H419.3z"/>
		<path fill="#FCFCFC" d="M429.2,416.2c-1.7,0-3-0.5-4.1-1.6c-1-1.1-1.6-2.6-1.6-4.4v-0.4c0-1.2,0.2-2.3,0.7-3.3
			c0.5-1,1.1-1.7,2-2.2c0.8-0.5,1.7-0.8,2.7-0.8c1.6,0,2.8,0.5,3.7,1.6s1.3,2.6,1.3,4.5v0.9h-8.3c0,1.2,0.4,2.2,1.1,2.9
			c0.7,0.7,1.5,1.1,2.6,1.1c0.7,0,1.4-0.2,1.9-0.5c0.5-0.3,1-0.7,1.3-1.2l1.3,1C432.8,415.4,431.2,416.2,429.2,416.2z M428.9,405.2
			c-0.8,0-1.6,0.3-2.1,0.9c-0.6,0.6-0.9,1.5-1.1,2.6h6.1v-0.2c-0.1-1.1-0.3-1.9-0.9-2.5S429.8,405.2,428.9,405.2z"/>
		<path fill="#FCFCFC" d="M442.3,405.6c-0.3-0.1-0.7-0.1-1-0.1c-1.4,0-2.3,0.6-2.8,1.8v8.7h-2.1v-12.3h2l0,1.4
			c0.7-1.1,1.7-1.6,2.9-1.6c0.4,0,0.7,0.1,0.9,0.2V405.6z"/>
		<path fill="#FCFCFC" d="M454.6,410c0,1.9-0.4,3.4-1.3,4.5c-0.9,1.1-2,1.7-3.5,1.7c-1.5,0-2.7-0.5-3.5-1.4v5.9h-2.1v-17h1.9
			l0.1,1.4c0.9-1.1,2-1.6,3.6-1.6c1.5,0,2.6,0.6,3.5,1.7c0.9,1.1,1.3,2.7,1.3,4.6V410z M452.5,409.8c0-1.4-0.3-2.5-0.9-3.3
			c-0.6-0.8-1.4-1.2-2.4-1.2c-1.3,0-2.2,0.6-2.9,1.7v5.9c0.6,1.1,1.6,1.7,2.9,1.7c1,0,1.8-0.4,2.4-1.2
			C452.2,412.5,452.5,411.3,452.5,409.8z"/>
		<path fill="#FCFCFC" d="M463.2,405.6c-0.3-0.1-0.7-0.1-1-0.1c-1.4,0-2.3,0.6-2.8,1.8v8.7h-2.1v-12.3h2l0,1.4
			c0.7-1.1,1.7-1.6,2.9-1.6c0.4,0,0.7,0.1,0.9,0.2V405.6z"/>
		<path fill="#FCFCFC" d="M470.2,416.2c-1.7,0-3-0.5-4.1-1.6c-1-1.1-1.6-2.6-1.6-4.4v-0.4c0-1.2,0.2-2.3,0.7-3.3
			c0.5-1,1.1-1.7,2-2.2c0.8-0.5,1.7-0.8,2.7-0.8c1.6,0,2.8,0.5,3.7,1.6s1.3,2.6,1.3,4.5v0.9h-8.3c0,1.2,0.4,2.2,1.1,2.9
			c0.7,0.7,1.5,1.1,2.6,1.1c0.7,0,1.4-0.2,1.9-0.5c0.5-0.3,1-0.7,1.3-1.2l1.3,1C473.8,415.4,472.3,416.2,470.2,416.2z M470,405.2
			c-0.8,0-1.6,0.3-2.1,0.9c-0.6,0.6-0.9,1.5-1.1,2.6h6.1v-0.2c-0.1-1.1-0.3-1.9-0.9-2.5S470.9,405.2,470,405.2z"/>
		<path fill="#FCFCFC" d="M480.3,400.8v3h2.3v1.6h-2.3v7.6c0,0.5,0.1,0.9,0.3,1.1s0.6,0.4,1,0.4c0.2,0,0.6,0,1-0.1v1.7
			c-0.6,0.2-1.1,0.2-1.6,0.2c-0.9,0-1.6-0.3-2.1-0.8c-0.5-0.6-0.7-1.4-0.7-2.4v-7.6H476v-1.6h2.2v-3H480.3z"/>
		<path fill="#FCFCFC" d="M396.9,441.6c0-1.9,0.4-3.5,1.3-4.6s2.1-1.7,3.6-1.7c1.5,0,2.6,0.5,3.4,1.5l0.1-1.2h1.9v17h-2.1v-5.9
			c-0.8,0.9-2,1.4-3.4,1.4c-1.5,0-2.7-0.6-3.5-1.7c-0.9-1.2-1.3-2.7-1.3-4.6V441.6z M398.9,441.9c0,1.4,0.3,2.5,0.9,3.3
			c0.6,0.8,1.4,1.2,2.4,1.2c1.2,0,2.2-0.6,2.9-1.7v-6c-0.7-1.1-1.6-1.6-2.8-1.6c-1,0-1.8,0.4-2.4,1.2
			C399.2,439.1,398.9,440.3,398.9,441.9z"/>
		<path fill="#FCFCFC" d="M418.1,446.6c-0.8,1-2,1.4-3.6,1.4c-1.3,0-2.3-0.4-3-1.1c-0.7-0.8-1-1.9-1-3.4v-8h2.1v7.9
			c0,1.9,0.8,2.8,2.3,2.8c1.6,0,2.7-0.6,3.2-1.8v-8.9h2.1v12.3h-2L418.1,446.6z"/>
		<path fill="#FCFCFC" d="M422.8,441.6c0-1.2,0.2-2.3,0.7-3.2c0.5-1,1.1-1.7,2-2.2c0.8-0.5,1.8-0.8,2.9-0.8c1.7,0,3,0.6,4.1,1.7
			c1,1.2,1.5,2.7,1.5,4.6v0.1c0,1.2-0.2,2.3-0.7,3.2s-1.1,1.7-2,2.2s-1.8,0.8-2.9,0.8c-1.7,0-3-0.6-4-1.7c-1-1.2-1.5-2.7-1.5-4.6
			V441.6z M424.9,441.9c0,1.4,0.3,2.5,0.9,3.3s1.5,1.2,2.5,1.2c1.1,0,1.9-0.4,2.5-1.3c0.6-0.8,0.9-2,0.9-3.5c0-1.3-0.3-2.4-1-3.3
			c-0.6-0.8-1.5-1.3-2.5-1.3c-1,0-1.9,0.4-2.5,1.2S424.9,440.3,424.9,441.9z"/>
		<path fill="#FCFCFC" d="M439.5,432.6v3h2.3v1.6h-2.3v7.6c0,0.5,0.1,0.9,0.3,1.1s0.6,0.4,1,0.4c0.2,0,0.6,0,1-0.1v1.7
			c-0.6,0.2-1.1,0.2-1.6,0.2c-0.9,0-1.6-0.3-2.1-0.9c-0.5-0.6-0.7-1.4-0.7-2.4v-7.6h-2.2v-1.6h2.2v-3H439.5z"/>
		<path fill="#FCFCFC" d="M451.8,447.9c-0.1-0.2-0.2-0.7-0.3-1.3c-1,1-2.1,1.5-3.5,1.5c-1.2,0-2.2-0.3-3-1c-0.8-0.7-1.2-1.6-1.2-2.6
			c0-1.3,0.5-2.3,1.5-3s2.3-1.1,4.1-1.1h2v-1c0-0.7-0.2-1.3-0.7-1.8c-0.4-0.4-1.1-0.7-1.9-0.7c-0.7,0-1.4,0.2-1.9,0.6
			c-0.5,0.4-0.8,0.8-0.8,1.4h-2.1c0-0.6,0.2-1.2,0.7-1.8c0.4-0.6,1-1,1.8-1.4c0.7-0.3,1.6-0.5,2.5-0.5c1.4,0,2.5,0.4,3.3,1.1
			c0.8,0.7,1.2,1.7,1.2,2.9v5.6c0,1.1,0.1,2,0.4,2.7v0.2H451.8z M448.3,446.3c0.7,0,1.3-0.2,1.9-0.5c0.6-0.3,1-0.8,1.3-1.3v-2.5
			h-1.6c-2.6,0-3.9,0.8-3.9,2.3c0,0.7,0.2,1.2,0.7,1.5C447.1,446.1,447.6,446.3,448.3,446.3z"/>
		<path fill="#FCFCFC" d="M459.7,432.6v3h2.3v1.6h-2.3v7.6c0,0.5,0.1,0.9,0.3,1.1s0.6,0.4,1,0.4c0.2,0,0.6,0,1-0.1v1.7
			c-0.6,0.2-1.1,0.2-1.6,0.2c-0.9,0-1.6-0.3-2.1-0.9c-0.5-0.6-0.7-1.4-0.7-2.4v-7.6h-2.2v-1.6h2.2v-3H459.7z"/>
		<path fill="#FCFCFC" d="M464.4,432.3c0-0.3,0.1-0.6,0.3-0.9s0.5-0.4,0.9-0.4c0.4,0,0.7,0.1,0.9,0.4c0.2,0.2,0.3,0.5,0.3,0.9
			c0,0.3-0.1,0.6-0.3,0.9c-0.2,0.2-0.5,0.3-0.9,0.3c-0.4,0-0.7-0.1-0.9-0.3S464.4,432.7,464.4,432.3z M466.7,447.9h-2.1v-12.3h2.1
			V447.9z"/>
		<path fill="#FCFCFC" d="M469.5,441.6c0-1.2,0.2-2.3,0.7-3.2c0.5-1,1.1-1.7,2-2.2c0.8-0.5,1.8-0.8,2.9-0.8c1.7,0,3,0.6,4.1,1.7
			c1,1.2,1.5,2.7,1.5,4.6v0.1c0,1.2-0.2,2.3-0.7,3.2s-1.1,1.7-2,2.2s-1.8,0.8-2.9,0.8c-1.7,0-3-0.6-4-1.7c-1-1.2-1.5-2.7-1.5-4.6
			V441.6z M471.6,441.9c0,1.4,0.3,2.5,0.9,3.3s1.5,1.2,2.5,1.2c1.1,0,1.9-0.4,2.5-1.3c0.6-0.8,0.9-2,0.9-3.5c0-1.3-0.3-2.4-1-3.3
			c-0.6-0.8-1.5-1.3-2.5-1.3c-1,0-1.9,0.4-2.5,1.2S471.6,440.3,471.6,441.9z"/>
		<path fill="#FCFCFC" d="M485.3,435.6l0.1,1.5c0.9-1.2,2.2-1.8,3.7-1.8c2.6,0,3.9,1.5,3.9,4.4v8.1h-2.1v-8.1c0-0.9-0.2-1.5-0.6-2
			s-1-0.6-1.9-0.6c-0.7,0-1.3,0.2-1.8,0.5c-0.5,0.4-0.9,0.8-1.2,1.4v8.7h-2.1v-12.3H485.3z"/>
		<path fill="#FCFCFC" d="M503.3,444.6c0-0.6-0.2-1-0.6-1.3c-0.4-0.3-1.2-0.6-2.2-0.8s-1.9-0.5-2.5-0.8s-1.1-0.7-1.4-1.1
			c-0.3-0.4-0.4-1-0.4-1.6c0-1,0.4-1.9,1.3-2.6c0.9-0.7,1.9-1,3.3-1c1.4,0,2.5,0.4,3.4,1.1s1.3,1.6,1.3,2.8h-2.1
			c0-0.6-0.2-1.1-0.7-1.5s-1.1-0.6-1.8-0.6c-0.8,0-1.4,0.2-1.8,0.5c-0.4,0.3-0.6,0.8-0.6,1.3c0,0.5,0.2,0.9,0.6,1.1
			c0.4,0.3,1.1,0.5,2.2,0.7c1,0.2,1.9,0.5,2.5,0.8c0.6,0.3,1.1,0.7,1.4,1.2c0.3,0.5,0.5,1,0.5,1.7c0,1.1-0.4,2-1.3,2.6
			c-0.9,0.7-2,1-3.4,1c-1,0-1.9-0.2-2.6-0.5c-0.8-0.3-1.3-0.8-1.8-1.5c-0.4-0.6-0.6-1.3-0.6-2h2.1c0,0.7,0.3,1.3,0.8,1.7
			c0.5,0.4,1.2,0.6,2.1,0.6c0.8,0,1.4-0.2,1.9-0.5C503,445.6,503.3,445.1,503.3,444.6z"/>
		<path fill="#FCFCFC" d="M513.9,432.3c0-0.3,0.1-0.6,0.3-0.9s0.5-0.4,0.9-0.4c0.4,0,0.7,0.1,0.9,0.4c0.2,0.2,0.3,0.5,0.3,0.9
			c0,0.3-0.1,0.6-0.3,0.9c-0.2,0.2-0.5,0.3-0.9,0.3c-0.4,0-0.7-0.1-0.9-0.3S513.9,432.7,513.9,432.3z M516.1,447.9H514v-12.3h2.1
			V447.9z"/>
		<path fill="#FCFCFC" d="M521.5,435.6l0.1,1.5c0.9-1.2,2.2-1.8,3.7-1.8c2.6,0,3.9,1.5,3.9,4.4v8.1h-2.1v-8.1c0-0.9-0.2-1.5-0.6-2
			s-1-0.6-1.9-0.6c-0.7,0-1.3,0.2-1.8,0.5c-0.5,0.4-0.9,0.8-1.2,1.4v8.7h-2.1v-12.3H521.5z"/>
		<path fill="#FCFCFC" d="M540.3,447.9h-2.1v-17.4h2.1V447.9z"/>
		<path fill="#FCFCFC" d="M548.8,448.1c-1.7,0-3-0.5-4.1-1.6c-1-1.1-1.6-2.6-1.6-4.4v-0.4c0-1.2,0.2-2.3,0.7-3.3s1.1-1.7,2-2.2
			c0.8-0.5,1.7-0.8,2.7-0.8c1.6,0,2.8,0.5,3.7,1.6s1.3,2.6,1.3,4.5v0.9h-8.3c0,1.2,0.4,2.2,1.1,2.9s1.5,1.1,2.6,1.1
			c0.7,0,1.4-0.2,1.9-0.5c0.5-0.3,1-0.7,1.3-1.2l1.3,1C552.4,447.3,550.9,448.1,548.8,448.1z M548.5,437.1c-0.8,0-1.6,0.3-2.1,0.9
			s-0.9,1.5-1.1,2.6h6.1v-0.2c-0.1-1.1-0.3-1.9-0.9-2.5S549.4,437.1,548.5,437.1z"/>
		<path fill="#FCFCFC" d="M555.5,441.6c0-1.9,0.4-3.4,1.3-4.6s2.1-1.7,3.5-1.7c1.5,0,2.7,0.5,3.5,1.6l0.1-1.4h1.9v12
			c0,1.6-0.5,2.8-1.4,3.8s-2.2,1.4-3.8,1.4c-0.9,0-1.8-0.2-2.6-0.6c-0.8-0.4-1.5-0.9-1.9-1.6l1.1-1.3c0.9,1.1,2,1.7,3.3,1.7
			c1,0,1.8-0.3,2.4-0.9c0.6-0.6,0.9-1.4,0.9-2.4v-1.1c-0.8,1-2,1.5-3.4,1.5c-1.4,0-2.6-0.6-3.5-1.7
			C556,445.2,555.5,443.6,555.5,441.6z M557.6,441.9c0,1.4,0.3,2.5,0.9,3.3c0.6,0.8,1.4,1.2,2.4,1.2c1.3,0,2.3-0.6,2.9-1.8v-5.6
			c-0.6-1.2-1.6-1.8-2.9-1.8c-1,0-1.8,0.4-2.4,1.2C557.9,439.1,557.6,440.3,557.6,441.9z"/>
		<path fill="#FCFCFC" d="M576.6,447.9c-0.1-0.2-0.2-0.7-0.3-1.3c-1,1-2.1,1.5-3.5,1.5c-1.2,0-2.2-0.3-3-1c-0.8-0.7-1.2-1.6-1.2-2.6
			c0-1.3,0.5-2.3,1.5-3s2.3-1.1,4.1-1.1h2v-1c0-0.7-0.2-1.3-0.7-1.8c-0.4-0.4-1.1-0.7-1.9-0.7c-0.7,0-1.4,0.2-1.9,0.6
			c-0.5,0.4-0.8,0.8-0.8,1.4h-2.1c0-0.6,0.2-1.2,0.7-1.8c0.4-0.6,1-1,1.8-1.4c0.7-0.3,1.6-0.5,2.5-0.5c1.4,0,2.5,0.4,3.3,1.1
			c0.8,0.7,1.2,1.7,1.2,2.9v5.6c0,1.1,0.1,2,0.4,2.7v0.2H576.6z M573.1,446.3c0.7,0,1.3-0.2,1.9-0.5c0.6-0.3,1-0.8,1.3-1.3v-2.5
			h-1.6c-2.6,0-3.9,0.8-3.9,2.3c0,0.7,0.2,1.2,0.7,1.5C571.9,446.1,572.5,446.3,573.1,446.3z"/>
		<path fill="#FCFCFC" d="M584,447.9h-2.1v-17.4h2.1V447.9z"/>
		<path fill="#FCFCFC" d="M404.5,476.5c0-0.6-0.2-1-0.6-1.3c-0.4-0.3-1.2-0.6-2.2-0.8s-1.9-0.5-2.5-0.8s-1.1-0.7-1.4-1.1
			c-0.3-0.4-0.4-1-0.4-1.6c0-1,0.4-1.9,1.3-2.6c0.9-0.7,1.9-1,3.3-1c1.4,0,2.5,0.4,3.4,1.1s1.3,1.6,1.3,2.8h-2.1
			c0-0.6-0.2-1.1-0.7-1.5s-1.1-0.6-1.8-0.6c-0.8,0-1.4,0.2-1.8,0.5c-0.4,0.3-0.6,0.8-0.6,1.3c0,0.5,0.2,0.9,0.6,1.1
			c0.4,0.3,1.1,0.5,2.2,0.7c1,0.2,1.9,0.5,2.5,0.8c0.6,0.3,1.1,0.7,1.4,1.2c0.3,0.5,0.5,1,0.5,1.7c0,1.1-0.4,2-1.3,2.6
			c-0.9,0.7-2,1-3.4,1c-1,0-1.9-0.2-2.6-0.5c-0.8-0.3-1.3-0.8-1.8-1.5c-0.4-0.6-0.6-1.3-0.6-2h2.1c0,0.7,0.3,1.3,0.8,1.7
			c0.5,0.4,1.2,0.6,2.1,0.6c0.8,0,1.4-0.2,1.9-0.5C404.3,477.4,404.5,477,404.5,476.5z"/>
		<path fill="#FCFCFC" d="M408.8,473.5c0-1.2,0.2-2.3,0.7-3.2c0.5-1,1.1-1.7,2-2.2c0.8-0.5,1.8-0.8,2.9-0.8c1.7,0,3,0.6,4.1,1.7
			c1,1.2,1.5,2.7,1.5,4.6v0.1c0,1.2-0.2,2.3-0.7,3.2s-1.1,1.7-2,2.2s-1.8,0.8-2.9,0.8c-1.7,0-3-0.6-4-1.7c-1-1.2-1.5-2.7-1.5-4.6
			V473.5z M410.9,473.7c0,1.4,0.3,2.5,0.9,3.3s1.5,1.2,2.5,1.2c1.1,0,1.9-0.4,2.5-1.3c0.6-0.8,0.9-2,0.9-3.5c0-1.3-0.3-2.4-1-3.3
			c-0.6-0.8-1.5-1.3-2.5-1.3c-1,0-1.9,0.4-2.5,1.2S410.9,472.2,410.9,473.7z"/>
		<path fill="#FCFCFC" d="M430.2,478.5c-0.8,1-2,1.4-3.6,1.4c-1.3,0-2.3-0.4-3-1.1c-0.7-0.8-1-1.9-1-3.4v-8h2.1v7.9
			c0,1.9,0.8,2.8,2.3,2.8c1.6,0,2.7-0.6,3.2-1.8v-8.9h2.1v12.3h-2L430.2,478.5z"/>
		<path fill="#FCFCFC" d="M441.3,469.3c-0.3-0.1-0.7-0.1-1-0.1c-1.4,0-2.3,0.6-2.8,1.8v8.7h-2.1v-12.3h2l0,1.4
			c0.7-1.1,1.7-1.6,2.9-1.6c0.4,0,0.7,0.1,0.9,0.2V469.3z"/>
		<path fill="#FCFCFC" d="M448,478.2c0.7,0,1.4-0.2,2-0.7c0.6-0.5,0.9-1,0.9-1.7h2c0,0.7-0.3,1.4-0.7,2c-0.4,0.6-1,1.1-1.8,1.5
			c-0.7,0.4-1.5,0.6-2.4,0.6c-1.7,0-3-0.6-4-1.7s-1.5-2.6-1.5-4.6v-0.4c0-1.2,0.2-2.3,0.7-3.2s1.1-1.7,1.9-2.2s1.8-0.8,2.9-0.8
			c1.4,0,2.5,0.4,3.4,1.2c0.9,0.8,1.4,1.9,1.5,3.2h-2c-0.1-0.8-0.4-1.4-0.9-2c-0.5-0.5-1.2-0.8-2-0.8c-1.1,0-1.9,0.4-2.5,1.2
			s-0.9,1.9-0.9,3.3v0.4c0,1.4,0.3,2.5,0.9,3.3C446,477.8,446.9,478.2,448,478.2z"/>
		<path fill="#FCFCFC" d="M460.3,479.9c-1.7,0-3-0.5-4.1-1.6c-1-1.1-1.6-2.6-1.6-4.4v-0.4c0-1.2,0.2-2.3,0.7-3.3s1.1-1.7,2-2.2
			c0.8-0.5,1.7-0.8,2.7-0.8c1.6,0,2.8,0.5,3.7,1.6s1.3,2.6,1.3,4.5v0.9h-8.3c0,1.2,0.4,2.2,1.1,2.9s1.5,1.1,2.6,1.1
			c0.7,0,1.4-0.2,1.9-0.5c0.5-0.3,1-0.7,1.3-1.2l1.3,1C463.9,479.2,462.3,479.9,460.3,479.9z M460,468.9c-0.8,0-1.6,0.3-2.1,0.9
			s-0.9,1.5-1.1,2.6h6.1v-0.2c-0.1-1.1-0.3-1.9-0.9-2.5S460.9,468.9,460,468.9z"/>
		<path fill="#FCFCFC" d="M474.7,476.5c0-0.6-0.2-1-0.6-1.3c-0.4-0.3-1.2-0.6-2.2-0.8s-1.9-0.5-2.5-0.8s-1.1-0.7-1.4-1.1
			c-0.3-0.4-0.4-1-0.4-1.6c0-1,0.4-1.9,1.3-2.6c0.9-0.7,1.9-1,3.3-1c1.4,0,2.5,0.4,3.4,1.1s1.3,1.6,1.3,2.8h-2.1
			c0-0.6-0.2-1.1-0.7-1.5s-1.1-0.6-1.8-0.6c-0.8,0-1.4,0.2-1.8,0.5c-0.4,0.3-0.6,0.8-0.6,1.3c0,0.5,0.2,0.9,0.6,1.1
			c0.4,0.3,1.1,0.5,2.2,0.7c1,0.2,1.9,0.5,2.5,0.8c0.6,0.3,1.1,0.7,1.4,1.2c0.3,0.5,0.5,1,0.5,1.7c0,1.1-0.4,2-1.3,2.6
			c-0.9,0.7-2,1-3.4,1c-1,0-1.9-0.2-2.6-0.5c-0.8-0.3-1.3-0.8-1.8-1.5c-0.4-0.6-0.6-1.3-0.6-2h2.1c0,0.7,0.3,1.3,0.8,1.7
			c0.5,0.4,1.2,0.6,2.1,0.6c0.8,0,1.4-0.2,1.9-0.5C474.4,477.4,474.7,477,474.7,476.5z"/>
		<path fill="#FCFCFC" d="M491.2,469.3c-0.3-0.1-0.7-0.1-1-0.1c-1.4,0-2.3,0.6-2.8,1.8v8.7h-2.1v-12.3h2l0,1.4
			c0.7-1.1,1.7-1.6,2.9-1.6c0.4,0,0.7,0.1,0.9,0.2V469.3z"/>
		<path fill="#FCFCFC" d="M498.2,479.9c-1.7,0-3-0.5-4.1-1.6c-1-1.1-1.6-2.6-1.6-4.4v-0.4c0-1.2,0.2-2.3,0.7-3.3s1.1-1.7,2-2.2
			c0.8-0.5,1.7-0.8,2.7-0.8c1.6,0,2.8,0.5,3.7,1.6s1.3,2.6,1.3,4.5v0.9h-8.3c0,1.2,0.4,2.2,1.1,2.9s1.5,1.1,2.6,1.1
			c0.7,0,1.4-0.2,1.9-0.5c0.5-0.3,1-0.7,1.3-1.2l1.3,1C501.8,479.2,500.2,479.9,498.2,479.9z M497.9,468.9c-0.8,0-1.6,0.3-2.1,0.9
			s-0.9,1.5-1.1,2.6h6.1v-0.2c-0.1-1.1-0.3-1.9-0.9-2.5S498.8,468.9,497.9,468.9z"/>
		<path fill="#FCFCFC" d="M507.7,479.7h-2.1v-17.4h2.1V479.7z"/>
		<path fill="#FCFCFC" d="M516.1,479.9c-1.7,0-3-0.5-4.1-1.6c-1-1.1-1.6-2.6-1.6-4.4v-0.4c0-1.2,0.2-2.3,0.7-3.3s1.1-1.7,2-2.2
			c0.8-0.5,1.7-0.8,2.7-0.8c1.6,0,2.8,0.5,3.7,1.6s1.3,2.6,1.3,4.5v0.9h-8.3c0,1.2,0.4,2.2,1.1,2.9s1.5,1.1,2.6,1.1
			c0.7,0,1.4-0.2,1.9-0.5c0.5-0.3,1-0.7,1.3-1.2l1.3,1C519.7,479.2,518.2,479.9,516.1,479.9z M515.9,468.9c-0.8,0-1.6,0.3-2.1,0.9
			s-0.9,1.5-1.1,2.6h6.1v-0.2c-0.1-1.1-0.3-1.9-0.9-2.5S516.7,468.9,515.9,468.9z"/>
		<path fill="#FCFCFC" d="M527.2,476.9l3-9.4h2.1l-4.4,12.3h-1.6l-4.4-12.3h2.1L527.2,476.9z"/>
		<path fill="#FCFCFC" d="M541.9,479.7c-0.1-0.2-0.2-0.7-0.3-1.3c-1,1-2.1,1.5-3.5,1.5c-1.2,0-2.2-0.3-3-1c-0.8-0.7-1.2-1.6-1.2-2.6
			c0-1.3,0.5-2.3,1.5-3s2.3-1.1,4.1-1.1h2v-1c0-0.7-0.2-1.3-0.7-1.8c-0.4-0.4-1.1-0.7-1.9-0.7c-0.7,0-1.4,0.2-1.9,0.6
			c-0.5,0.4-0.8,0.8-0.8,1.4h-2.1c0-0.6,0.2-1.2,0.7-1.8c0.4-0.6,1-1,1.8-1.4c0.7-0.3,1.6-0.5,2.5-0.5c1.4,0,2.5,0.4,3.3,1.1
			c0.8,0.7,1.2,1.7,1.2,2.9v5.6c0,1.1,0.1,2,0.4,2.7v0.2H541.9z M538.4,478.1c0.7,0,1.3-0.2,1.9-0.5c0.6-0.3,1-0.8,1.3-1.3v-2.5
			h-1.6c-2.6,0-3.9,0.8-3.9,2.3c0,0.7,0.2,1.2,0.7,1.5C537.1,477.9,537.7,478.1,538.4,478.1z"/>
		<path fill="#FCFCFC" d="M548.9,467.4l0.1,1.5c0.9-1.2,2.2-1.8,3.7-1.8c2.6,0,3.9,1.5,3.9,4.4v8.1h-2.1v-8.1c0-0.9-0.2-1.5-0.6-2
			s-1-0.6-1.9-0.6c-0.7,0-1.3,0.2-1.8,0.5c-0.5,0.4-0.9,0.8-1.2,1.4v8.7h-2.1v-12.3H548.9z"/>
		<path fill="#FCFCFC" d="M562.6,464.5v3h2.3v1.6h-2.3v7.6c0,0.5,0.1,0.9,0.3,1.1s0.6,0.4,1,0.4c0.2,0,0.6,0,1-0.1v1.7
			c-0.6,0.2-1.1,0.2-1.6,0.2c-0.9,0-1.6-0.3-2.1-0.9c-0.5-0.6-0.7-1.4-0.7-2.4v-7.6h-2.2v-1.6h2.2v-3H562.6z"/>
		<path fill="#FCFCFC" d="M575.9,464.5v3h2.3v1.6h-2.3v7.6c0,0.5,0.1,0.9,0.3,1.1s0.6,0.4,1,0.4c0.2,0,0.6,0,1-0.1v1.7
			c-0.6,0.2-1.1,0.2-1.6,0.2c-0.9,0-1.6-0.3-2.1-0.9c-0.5-0.6-0.7-1.4-0.7-2.4v-7.6h-2.2v-1.6h2.2v-3H575.9z"/>
		<path fill="#FCFCFC" d="M579.9,473.5c0-1.2,0.2-2.3,0.7-3.2c0.5-1,1.1-1.7,2-2.2c0.8-0.5,1.8-0.8,2.9-0.8c1.7,0,3,0.6,4.1,1.7
			c1,1.2,1.5,2.7,1.5,4.6v0.1c0,1.2-0.2,2.3-0.7,3.2s-1.1,1.7-2,2.2s-1.8,0.8-2.9,0.8c-1.7,0-3-0.6-4-1.7c-1-1.2-1.5-2.7-1.5-4.6
			V473.5z M582,473.7c0,1.4,0.3,2.5,0.9,3.3s1.5,1.2,2.5,1.2c1.1,0,1.9-0.4,2.5-1.3c0.6-0.8,0.9-2,0.9-3.5c0-1.3-0.3-2.4-1-3.3
			c-0.6-0.8-1.5-1.3-2.5-1.3c-1,0-1.9,0.4-2.5,1.2S582,472.2,582,473.7z"/>
		<path fill="#FCFCFC" d="M401.4,508.5l2.9-9.2h2.2l-4.9,14.2c-0.8,2-2,3.1-3.6,3.1l-0.4,0l-0.8-0.1v-1.7l0.6,0
			c0.7,0,1.3-0.1,1.7-0.4c0.4-0.3,0.7-0.8,1-1.6l0.5-1.2l-4.4-12.1h2.3L401.4,508.5z"/>
		<path fill="#FCFCFC" d="M407.8,505.3c0-1.2,0.2-2.3,0.7-3.2c0.5-1,1.1-1.7,2-2.2c0.8-0.5,1.8-0.8,2.9-0.8c1.7,0,3,0.6,4.1,1.7
			s1.5,2.7,1.5,4.6v0.1c0,1.2-0.2,2.3-0.7,3.2c-0.5,0.9-1.1,1.7-2,2.2s-1.8,0.8-2.9,0.8c-1.7,0-3-0.6-4-1.7s-1.5-2.7-1.5-4.6V505.3z
			 M409.9,505.6c0,1.4,0.3,2.5,0.9,3.3c0.6,0.8,1.5,1.2,2.5,1.2c1.1,0,1.9-0.4,2.5-1.3c0.6-0.8,0.9-2,0.9-3.5c0-1.3-0.3-2.4-1-3.3
			c-0.6-0.8-1.5-1.3-2.5-1.3c-1,0-1.9,0.4-2.5,1.2S409.9,504,409.9,505.6z"/>
		<path fill="#FCFCFC" d="M429.2,510.4c-0.8,1-2,1.4-3.6,1.4c-1.3,0-2.3-0.4-3-1.1c-0.7-0.8-1-1.9-1-3.4v-8h2.1v7.9
			c0,1.9,0.8,2.8,2.3,2.8c1.6,0,2.7-0.6,3.2-1.8v-8.9h2.1v12.3h-2L429.2,510.4z"/>
		<path fill="#FCFCFC" d="M440.3,501.2c-0.3-0.1-0.7-0.1-1-0.1c-1.4,0-2.3,0.6-2.8,1.8v8.7h-2.1v-12.3h2l0,1.4
			c0.7-1.1,1.7-1.6,2.9-1.6c0.4,0,0.7,0.1,0.9,0.2V501.2z"/>
		<path fill="#FCFCFC" d="M455.6,511.6c-0.1-0.2-0.2-0.7-0.3-1.3c-1,1-2.1,1.5-3.5,1.5c-1.2,0-2.2-0.3-3-1c-0.8-0.7-1.2-1.6-1.2-2.6
			c0-1.3,0.5-2.3,1.5-3s2.3-1.1,4.1-1.1h2v-1c0-0.7-0.2-1.3-0.7-1.8c-0.4-0.4-1.1-0.7-1.9-0.7c-0.7,0-1.4,0.2-1.9,0.6
			c-0.5,0.4-0.8,0.8-0.8,1.4h-2.1c0-0.6,0.2-1.2,0.7-1.8c0.4-0.6,1-1,1.8-1.4c0.7-0.3,1.6-0.5,2.5-0.5c1.4,0,2.5,0.4,3.3,1.1
			c0.8,0.7,1.2,1.7,1.2,2.9v5.6c0,1.1,0.1,2,0.4,2.7v0.2H455.6z M452.1,510c0.7,0,1.3-0.2,1.9-0.5s1-0.8,1.3-1.3v-2.5h-1.6
			c-2.6,0-3.9,0.8-3.9,2.3c0,0.7,0.2,1.2,0.7,1.5S451.4,510,452.1,510z"/>
		<path fill="#FCFCFC" d="M462.6,499.3l0.1,1.5c0.9-1.2,2.2-1.8,3.7-1.8c2.6,0,3.9,1.5,3.9,4.4v8.1h-2.1v-8.1c0-0.9-0.2-1.5-0.6-2
			c-0.4-0.4-1-0.6-1.9-0.6c-0.7,0-1.3,0.2-1.8,0.5s-0.9,0.8-1.2,1.4v8.7h-2.1v-12.3H462.6z"/>
		<path fill="#FCFCFC" d="M481,511.6c-0.1-0.2-0.2-0.7-0.3-1.3c-1,1-2.1,1.5-3.5,1.5c-1.2,0-2.2-0.3-3-1c-0.8-0.7-1.2-1.6-1.2-2.6
			c0-1.3,0.5-2.3,1.5-3s2.3-1.1,4.1-1.1h2v-1c0-0.7-0.2-1.3-0.7-1.8c-0.4-0.4-1.1-0.7-1.9-0.7c-0.7,0-1.4,0.2-1.9,0.6
			c-0.5,0.4-0.8,0.8-0.8,1.4h-2.1c0-0.6,0.2-1.2,0.7-1.8c0.4-0.6,1-1,1.8-1.4c0.7-0.3,1.6-0.5,2.5-0.5c1.4,0,2.5,0.4,3.3,1.1
			c0.8,0.7,1.2,1.7,1.2,2.9v5.6c0,1.1,0.1,2,0.4,2.7v0.2H481z M477.6,510c0.7,0,1.3-0.2,1.9-0.5s1-0.8,1.3-1.3v-2.5h-1.6
			c-2.6,0-3.9,0.8-3.9,2.3c0,0.7,0.2,1.2,0.7,1.5S476.9,510,477.6,510z"/>
		<path fill="#FCFCFC" d="M488.4,511.6h-2.1v-17.4h2.1V511.6z"/>
		<path fill="#FCFCFC" d="M495.8,508.5l2.9-9.2h2.2l-4.9,14.2c-0.8,2-2,3.1-3.6,3.1l-0.4,0l-0.8-0.1v-1.7l0.6,0
			c0.7,0,1.3-0.1,1.7-0.4c0.4-0.3,0.7-0.8,1-1.6l0.5-1.2l-4.4-12.1h2.3L495.8,508.5z"/>
		<path fill="#FCFCFC" d="M509.9,508.3c0-0.6-0.2-1-0.6-1.3s-1.2-0.6-2.2-0.8s-1.9-0.5-2.5-0.8c-0.6-0.3-1.1-0.7-1.4-1.1
			c-0.3-0.4-0.4-1-0.4-1.6c0-1,0.4-1.9,1.3-2.6c0.9-0.7,1.9-1,3.3-1c1.4,0,2.5,0.4,3.4,1.1s1.3,1.6,1.3,2.8h-2.1
			c0-0.6-0.2-1.1-0.7-1.5s-1.1-0.6-1.8-0.6c-0.8,0-1.4,0.2-1.8,0.5c-0.4,0.3-0.6,0.8-0.6,1.3c0,0.5,0.2,0.9,0.6,1.1
			c0.4,0.3,1.1,0.5,2.2,0.7c1,0.2,1.9,0.5,2.5,0.8c0.6,0.3,1.1,0.7,1.4,1.2c0.3,0.5,0.5,1,0.5,1.7c0,1.1-0.4,2-1.3,2.6
			c-0.9,0.7-2,1-3.4,1c-1,0-1.9-0.2-2.6-0.5c-0.8-0.3-1.3-0.8-1.8-1.5s-0.6-1.3-0.6-2h2.1c0,0.7,0.3,1.3,0.8,1.7
			c0.5,0.4,1.2,0.6,2.1,0.6c0.8,0,1.4-0.2,1.9-0.5C509.6,509.3,509.9,508.9,509.9,508.3z"/>
		<path fill="#FCFCFC" d="M514.7,496c0-0.3,0.1-0.6,0.3-0.9c0.2-0.2,0.5-0.4,0.9-0.4c0.4,0,0.7,0.1,0.9,0.4c0.2,0.2,0.3,0.5,0.3,0.9
			s-0.1,0.6-0.3,0.8c-0.2,0.2-0.5,0.3-0.9,0.3c-0.4,0-0.7-0.1-0.9-0.3C514.8,496.7,514.7,496.4,514.7,496z M517,511.6h-2.1v-12.3
			h2.1V511.6z"/>
		<path fill="#FCFCFC" d="M527.5,508.3c0-0.6-0.2-1-0.6-1.3s-1.2-0.6-2.2-0.8s-1.9-0.5-2.5-0.8c-0.6-0.3-1.1-0.7-1.4-1.1
			c-0.3-0.4-0.4-1-0.4-1.6c0-1,0.4-1.9,1.3-2.6c0.9-0.7,1.9-1,3.3-1c1.4,0,2.5,0.4,3.4,1.1s1.3,1.6,1.3,2.8h-2.1
			c0-0.6-0.2-1.1-0.7-1.5s-1.1-0.6-1.8-0.6c-0.8,0-1.4,0.2-1.8,0.5c-0.4,0.3-0.6,0.8-0.6,1.3c0,0.5,0.2,0.9,0.6,1.1
			c0.4,0.3,1.1,0.5,2.2,0.7c1,0.2,1.9,0.5,2.5,0.8c0.6,0.3,1.1,0.7,1.4,1.2c0.3,0.5,0.5,1,0.5,1.7c0,1.1-0.4,2-1.3,2.6
			c-0.9,0.7-2,1-3.4,1c-1,0-1.9-0.2-2.6-0.5c-0.8-0.3-1.3-0.8-1.8-1.5s-0.6-1.3-0.6-2h2.1c0,0.7,0.3,1.3,0.8,1.7
			c0.5,0.4,1.2,0.6,2.1,0.6c0.8,0,1.4-0.2,1.9-0.5C527.3,509.3,527.5,508.9,527.5,508.3z"/>
		<path fill="#FCFCFC" d="M545.7,511.6c-0.1-0.2-0.2-0.7-0.3-1.3c-1,1-2.1,1.5-3.5,1.5c-1.2,0-2.2-0.3-3-1c-0.8-0.7-1.2-1.6-1.2-2.6
			c0-1.3,0.5-2.3,1.5-3s2.3-1.1,4.1-1.1h2v-1c0-0.7-0.2-1.3-0.7-1.8c-0.4-0.4-1.1-0.7-1.9-0.7c-0.7,0-1.4,0.2-1.9,0.6
			c-0.5,0.4-0.8,0.8-0.8,1.4H538c0-0.6,0.2-1.2,0.7-1.8c0.4-0.6,1-1,1.8-1.4c0.7-0.3,1.6-0.5,2.5-0.5c1.4,0,2.5,0.4,3.3,1.1
			c0.8,0.7,1.2,1.7,1.2,2.9v5.6c0,1.1,0.1,2,0.4,2.7v0.2H545.7z M542.2,510c0.7,0,1.3-0.2,1.9-0.5s1-0.8,1.3-1.3v-2.5h-1.6
			c-2.6,0-3.9,0.8-3.9,2.3c0,0.7,0.2,1.2,0.7,1.5S541.5,510,542.2,510z"/>
		<path fill="#FCFCFC" d="M552.7,499.3l0.1,1.5c0.9-1.2,2.2-1.8,3.7-1.8c2.6,0,3.9,1.5,3.9,4.4v8.1h-2.1v-8.1c0-0.9-0.2-1.5-0.6-2
			c-0.4-0.4-1-0.6-1.9-0.6c-0.7,0-1.3,0.2-1.8,0.5s-0.9,0.8-1.2,1.4v8.7h-2.1v-12.3H552.7z"/>
		<path fill="#FCFCFC" d="M563,505.3c0-1.9,0.4-3.4,1.3-4.5c0.9-1.1,2.1-1.7,3.5-1.7c1.4,0,2.6,0.5,3.4,1.5v-6.4h2.1v17.4h-1.9
			l-0.1-1.3c-0.8,1-2,1.5-3.5,1.5c-1.4,0-2.6-0.6-3.5-1.7c-0.9-1.2-1.3-2.7-1.3-4.6V505.3z M565.1,505.6c0,1.4,0.3,2.5,0.9,3.3
			c0.6,0.8,1.4,1.2,2.4,1.2c1.3,0,2.3-0.6,2.9-1.8v-5.6c-0.6-1.2-1.6-1.7-2.9-1.7c-1,0-1.8,0.4-2.4,1.2S565.1,504,565.1,505.6z"/>
		<path fill="#FCFCFC" d="M396.9,537.2c0-1.9,0.4-3.4,1.3-4.5c0.9-1.1,2.1-1.7,3.5-1.7c1.4,0,2.6,0.5,3.4,1.5V526h2.1v17.4h-1.9
			l-0.1-1.3c-0.8,1-2,1.5-3.5,1.5c-1.4,0-2.6-0.6-3.5-1.7c-0.9-1.2-1.3-2.7-1.3-4.6V537.2z M398.9,537.4c0,1.4,0.3,2.5,0.9,3.3
			c0.6,0.8,1.4,1.2,2.4,1.2c1.3,0,2.3-0.6,2.9-1.8v-5.6c-0.6-1.2-1.6-1.7-2.9-1.7c-1,0-1.8,0.4-2.4,1.2S398.9,535.9,398.9,537.4z"/>
		<path fill="#FCFCFC" d="M416.4,533c-0.3-0.1-0.7-0.1-1-0.1c-1.4,0-2.3,0.6-2.8,1.8v8.7h-2.1v-12.3h2l0,1.4
			c0.7-1.1,1.7-1.6,2.9-1.6c0.4,0,0.7,0.1,0.9,0.2V533z"/>
		<path fill="#FCFCFC" d="M425.4,543.4c-0.1-0.2-0.2-0.7-0.3-1.3c-1,1-2.1,1.5-3.5,1.5c-1.2,0-2.2-0.3-3-1c-0.8-0.7-1.2-1.6-1.2-2.6
			c0-1.3,0.5-2.3,1.5-3s2.3-1.1,4.1-1.1h2v-1c0-0.7-0.2-1.3-0.7-1.8c-0.4-0.4-1.1-0.7-1.9-0.7c-0.7,0-1.4,0.2-1.9,0.6
			c-0.5,0.4-0.8,0.8-0.8,1.4h-2.1c0-0.6,0.2-1.2,0.7-1.8c0.4-0.6,1-1,1.8-1.4c0.7-0.3,1.6-0.5,2.5-0.5c1.4,0,2.5,0.4,3.3,1.1
			c0.8,0.7,1.2,1.7,1.2,2.9v5.6c0,1.1,0.1,2,0.4,2.7v0.2H425.4z M422,541.8c0.7,0,1.3-0.2,1.9-0.5s1-0.8,1.3-1.3v-2.5h-1.6
			c-2.6,0-3.9,0.8-3.9,2.3c0,0.7,0.2,1.2,0.7,1.5S421.3,541.8,422,541.8z"/>
		<path fill="#FCFCFC" d="M431.5,543.4v-10.7h-1.9v-1.6h1.9v-1.3c0-1.3,0.4-2.3,1.1-3.1c0.7-0.7,1.7-1.1,3-1.1c0.5,0,1,0.1,1.4,0.2
			l-0.1,1.7c-0.4-0.1-0.7-0.1-1.1-0.1c-0.7,0-1.2,0.2-1.6,0.6c-0.4,0.4-0.6,1-0.6,1.7v1.3h2.6v1.6h-2.6v10.7H431.5z"/>
		<path fill="#FCFCFC" d="M441.4,528.2v3h2.3v1.6h-2.3v7.6c0,0.5,0.1,0.9,0.3,1.1s0.6,0.4,1,0.4c0.2,0,0.6,0,1-0.1v1.7
			c-0.6,0.2-1.1,0.2-1.6,0.2c-0.9,0-1.6-0.3-2.1-0.8c-0.5-0.6-0.7-1.4-0.7-2.4v-7.6h-2.2v-1.6h2.2v-3H441.4z"/>
		<path fill="#FCFCFC" d="M446.2,527.9c0-0.3,0.1-0.6,0.3-0.9c0.2-0.2,0.5-0.4,0.9-0.4c0.4,0,0.7,0.1,0.9,0.4
			c0.2,0.2,0.3,0.5,0.3,0.9s-0.1,0.6-0.3,0.8c-0.2,0.2-0.5,0.3-0.9,0.3c-0.4,0-0.7-0.1-0.9-0.3C446.3,528.5,446.2,528.2,446.2,527.9
			z M448.4,543.4h-2.1v-12.3h2.1V543.4z"/>
		<path fill="#FCFCFC" d="M453.8,531.2l0.1,1.5c0.9-1.2,2.2-1.8,3.7-1.8c2.6,0,3.9,1.5,3.9,4.4v8.1h-2.1v-8.1c0-0.9-0.2-1.5-0.6-2
			c-0.4-0.4-1-0.6-1.9-0.6c-0.7,0-1.3,0.2-1.8,0.5s-0.9,0.8-1.2,1.4v8.7h-2.1v-12.3H453.8z"/>
		<path fill="#FCFCFC" d="M464.1,537.2c0-1.9,0.4-3.4,1.3-4.6s2.1-1.7,3.5-1.7c1.5,0,2.7,0.5,3.5,1.6l0.1-1.4h1.9v12
			c0,1.6-0.5,2.8-1.4,3.8c-0.9,0.9-2.2,1.4-3.8,1.4c-0.9,0-1.8-0.2-2.6-0.6c-0.8-0.4-1.5-0.9-1.9-1.6l1.1-1.3c0.9,1.1,2,1.7,3.3,1.7
			c1,0,1.8-0.3,2.4-0.9c0.6-0.6,0.9-1.4,0.9-2.4v-1.1c-0.8,1-2,1.5-3.4,1.5c-1.4,0-2.6-0.6-3.5-1.7
			C464.6,540.8,464.1,539.2,464.1,537.2z M466.2,537.4c0,1.4,0.3,2.5,0.9,3.3c0.6,0.8,1.4,1.2,2.4,1.2c1.3,0,2.3-0.6,2.9-1.8v-5.6
			c-0.6-1.2-1.6-1.8-2.9-1.8c-1,0-1.8,0.4-2.4,1.2S466.2,535.9,466.2,537.4z"/>
	</g>
</g>
</svg>
