<?xml version="1.0" encoding="utf-8"?>
<!-- Generator: Adobe Illustrator 27.0.1, SVG Export Plug-In . SVG Version: 6.00 Build 0)  -->
<svg version="1.1" id="Layer_1" xmlns="http://www.w3.org/2000/svg" xmlns:xlink="http://www.w3.org/1999/xlink" x="0px" y="0px"
	 viewBox="0 0 740.5 740.5" enable-background="new 0 0 740.5 740.5" xml:space="preserve">
<g>
	<g>
		<g>
			<g>
				<g>
					<path fill="#64226E" d="M370.2,370.3l320.6-185.1c102.2,177.1,41.6,403.5-135.5,505.8c-59,34-117,49.6-185.1,49.6V370.3z"/>
				</g>
			</g>
		</g>
		<g>
			<g>
				<g>
					<path fill="#C5C6C8" d="M370.2,370.3L49.6,185.2C151.8,8.1,378.3-52.6,555.4,49.7c59,34,101.5,76.5,135.5,135.5L370.2,370.3z"
						/>
				</g>
			</g>
		</g>
		<g>
			<g>
				<g>
					<path fill="#CC081E" d="M370.2,370.3v370.2C165.8,740.5,0,574.8,0,370.3c0-68.1,15.6-126.2,49.6-185.1L370.2,370.3z"/>
				</g>
			</g>
		</g>
	</g>
	<g>
		<path d="M312.9,89.7c-3.8,0.8-7,0.5-9.4-0.8c-2.5-1.3-4-3.6-4.7-6.9c-0.4-2.1-0.2-4,0.6-5.9s2.5-3.7,4.8-5.5l0-0.2
			c-1.8-0.7-3.2-1.5-4.2-2.6s-1.6-2.4-2-3.9c-0.2-1.2-0.3-2.4-0.1-3.6c0.2-1.2,0.6-2.4,1.2-3.4c0.6-1,1.4-1.9,2.5-2.7
			s2.3-1.3,3.7-1.6c1.9-0.4,3.7-0.3,5.2,0.3c1.5,0.6,2.9,1.5,4,2.8l-3.4,4.6c-0.8-0.8-1.6-1.3-2.4-1.6c-0.8-0.3-1.8-0.3-3-0.1
			c-1.4,0.3-2.5,0.8-3.1,1.6c-0.7,0.8-0.9,1.7-0.6,2.9c0.5,2.4,2.7,3.2,6.6,2.4c0.7-0.2,1.5-0.4,2.3-0.6c0.8-0.2,1.7-0.6,2.7-1
			l3-1.2l2,5.2l-5,1.9c-4.1,1.6-7,3.2-8.7,4.8c-1.7,1.6-2.4,3.4-1.9,5.4l0.1,0.5c0.3,1.6,1.3,2.7,2.8,3.2c1.5,0.5,3.5,0.5,5.9,0
			c1.9-0.4,3.7-1.1,5.4-2.1s3.1-2.3,4.2-3.8l3.9,4c-1.3,1.9-3,3.6-5.2,5C317.8,88.2,315.5,89.2,312.9,89.7z"/>
		<path d="M332,74.2c-2.7,0.4-4.7,0-6.2-1c-1.5-1.1-2.4-3-2.8-5.9L320,46l4.8-0.7l2.9,20.4c0.2,1.2,0.5,1.9,1.1,2.3
			c0.5,0.3,1.4,0.4,2.5,0.2l1.2-0.2l0.7,4.8L332,74.2L332,74.2z"/>
		<path d="M330.8,69.2l1.1-1.3l2.8-0.2c1.5-0.1,2.8-0.3,4-0.4c1.2-0.1,2.3-0.3,3.3-0.6c1-0.2,2.1-0.6,3.1-1s2-0.9,3.1-1.6l1.4-0.8
			l0-0.2l-6.5-0.8l-6.1-1l0.2,3l-4.6,0.4l-0.3-3.1c-0.2-1.9,0.1-3.3,0.9-4.2c0.7-0.9,1.9-1.5,3.6-1.6c0.2,0,0.4,0,0.7,0
			c0.2,0,0.5,0,0.8,0.1c0.3,0,0.7,0.1,1.1,0.1c0.4,0.1,1,0.2,1.6,0.3l7.9,1.4c1.1,0.2,2.2,0.3,3.5,0.4c1.2,0.1,2.5,0,3.6-0.1
			l0.8-0.1l0.5,6l-3.1,0.3l-3.5,2.9c-1.7,1.3-3.2,2.4-4.5,3.2c-1.3,0.8-2.6,1.5-3.8,2s-2.4,0.8-3.6,1.1c-1.2,0.2-2.4,0.4-3.7,0.5
			l-3.9,0.3L330.8,69.2z M345.7,81.5c-0.7,0.1-1.3-0.1-1.7-0.5c-0.5-0.4-0.7-1-0.8-2c-0.1-0.9,0.1-1.6,0.5-2.1s1-0.7,1.6-0.8L346,76
			c0.7-0.1,1.3,0.1,1.7,0.5c0.5,0.4,0.7,1,0.8,2c0.1,0.9-0.1,1.6-0.5,2.1s-1,0.7-1.6,0.8L345.7,81.5z"/>
		<path d="M354,75.7l1.6,0c2.4,0,4.2-0.6,5.3-1.6c1.1-1,1.6-2.7,1.6-4.9c0-0.6-0.1-1.3-0.2-1.9c-0.1-0.7-0.2-1.4-0.4-2.2l-0.9-5.3
			l4.3-0.8l0.5,2.9l6.6-1.2l-0.1-3.4l4.4-0.1l0.1,5.6c0,1.2,0.3,2,0.8,2.4s1.3,0.6,2.5,0.5l1.2,0l0.1,4.8l-1.2,1.2l-0.4,0
			c-2,0-3.6-0.3-4.7-1.1c-1.1-0.8-1.9-2.1-2.3-3.9l-6,1.1c0,0.2,0,0.4,0.1,0.6s0,0.4,0,0.6c0,1.9-0.2,3.7-0.6,5.2
			c-0.5,1.6-1.2,2.9-2.1,4s-2.1,2-3.5,2.6c-1.4,0.6-3,0.9-4.9,1l-1.6,0L354,75.7z M371,54.1c-0.7,0-1.3-0.2-1.7-0.6
			c-0.4-0.4-0.7-1.1-0.7-2s0.2-1.6,0.6-2.1s1-0.7,1.7-0.7l0.8,0c0.7,0,1.3,0.2,1.7,0.6c0.4,0.4,0.7,1.1,0.7,2c0,0.9-0.2,1.6-0.6,2.1
			s-1,0.7-1.7,0.7L371,54.1z M377.3,54c-0.7,0-1.3-0.2-1.7-0.6c-0.4-0.4-0.7-1.1-0.7-2s0.2-1.6,0.6-2.1c0.4-0.4,1-0.7,1.7-0.7l0.8,0
			c0.7,0,1.3,0.2,1.7,0.6c0.4,0.4,0.7,1.1,0.7,2c0,0.9-0.2,1.6-0.6,2.1c-0.4,0.4-1,0.7-1.7,0.7L377.3,54z"/>
		<path d="M379.3,66.7l1.3-1.1l0,0c1.3,0.1,2.2,0,2.9-0.2c0.6-0.3,1.2-0.8,1.6-1.5l1.8-3.1l3.8,2.2l-1.6,2.8
			c0.6,0.3,1.2,0.6,1.9,0.9s1.3,0.4,2,0.5c1.1,0.1,2-0.1,2.5-0.5c0.5-0.4,0.9-1.3,1-2.5l0.2-2.5l4.4,0.4l-0.2,2.5
			c-0.1,1.1,0,1.9,0.4,2.5c0.3,0.5,0.8,0.8,1.5,0.9l0.4,0c0.6,0,1-0.1,1.4-0.5c0.4-0.4,0.6-1,0.7-1.9c0-0.4,0-0.8,0-1.4
			c0-0.6-0.1-1.3-0.1-2.1l-0.2-2.1l4.4-0.4l0.2,2.1c0.1,0.8,0.1,1.5,0.1,2.2c0,0.7,0,1.4-0.1,2.1c-0.2,3-0.9,5.1-2.1,6.4
			c-1.1,1.3-2.8,1.9-4.9,1.7c-1.9-0.2-3.3-0.7-4.2-1.7c-0.9-1-1.4-2.4-1.6-4.3l-0.2,0c-0.4,1.9-1,3.3-1.8,4.1s-1.8,1.2-3,1.1
			c-0.8-0.1-1.5-0.3-2.3-0.6c-0.7-0.3-1.7-0.9-2.8-1.7l-0.8-0.5c-0.9,0.7-1.9,1.2-2.9,1.3c-1.1,0.2-2.4,0.2-4,0L379.3,66.7z"/>
		<path d="M411.4,68.5l7.8-5l-7.7-10.1l4-3.1l8,10.5c0.5-0.4,0.9-0.9,1.2-1.5c0.3-0.6,0.5-1.3,0.7-2.3l1.6-9.8l4.7,0.8l-1.6,9.8
			c-0.1,0.7-0.3,1.3-0.5,1.9s-0.5,1.1-0.8,1.6c-0.3,0.5-0.8,0.9-1.3,1.4c-0.5,0.4-1.1,0.8-1.8,1.3l1.2,1.5c0.5,0.6,0.9,1.2,1.2,1.7
			c0.3,0.5,0.6,1.1,0.7,1.6s0.2,1,0.3,1.6c0,0.5,0,1.1-0.1,1.7c-0.1,0.8-0.4,1.5-0.8,2.1c-0.4,0.6-0.9,1.1-1.4,1.6
			c-0.6,0.4-1.2,0.7-1.9,0.9c-0.7,0.2-1.4,0.2-2.2,0.1l-12.3-2L411.4,68.5z M421.5,66.3l-4.8,2.8l0,0.2l8.1,1.3L421.5,66.3z"/>
		<path d="M437.5,49.1l4.7,1l-6.2,28.9l-4.7-1L437.5,49.1z"/>
	</g>
	<g>
		<path fill="#FFFFFF" d="M67.2,488.5c1.6-0.7,2.9-1.2,4.1-1.5s2.2-0.4,3.2-0.3c1,0.1,1.9,0.4,2.8,0.9c0.9,0.5,1.8,1.2,2.9,2.1
			l6.7,5.8l2.1,4.8l-6.5,6.3c-0.6,0.6-1,1.2-1.1,1.7c-0.1,0.5,0.1,1.2,0.4,2l0.5,1.1l-4.4,1.9l-1.6-0.6c-0.7-1.6-1-3-0.9-4.1
			c0.1-1.1,0.5-2.3,1.4-3.3l-0.1-0.2l-3.1,1.3l-2.7-6.2c-0.7-1.5-0.8-2.9-0.5-4.1c0.3-1.2,1.1-2.1,2.3-2.6c0.9-0.4,1.8-0.4,2.8-0.2
			l0.1-0.2l-0.7-0.7c-0.3-0.3-0.6-0.4-0.9-0.5c-0.3-0.1-0.7-0.1-1.1-0.1c-0.4,0.1-0.9,0.2-1.5,0.4c-0.6,0.2-1.3,0.5-2.2,0.9
			l-12.4,5.4l-1.9-4.4L67.2,488.5z M76.8,494.8c-0.5,0.2-0.8,0.6-0.9,1.1c-0.1,0.5,0,1.1,0.3,1.7l2.4,5.4l4-3.9l-3.2-3.2
			C78.4,494.9,77.5,494.5,76.8,494.8z"/>
		<path fill="#FFFFFF" d="M107.7,502.4c-0.3-0.7-0.3-1.4,0-2s1-1.2,2-1.7l2.8-1.4l1.2,2.4l-2,1c-0.5,0.2-0.6,0.6-0.4,1
			c0.3,0.6,0.8,0.7,1.7,0.2l2.5-1.3l1.2,2.4l-1.6,0.8c-0.6,0.3-0.7,0.7-0.5,1.2c0.3,0.5,0.7,0.7,1.3,0.4c0.3-0.2,0.7-0.4,1.1-0.7
			c0.4-0.3,0.8-0.7,1.2-1.1l1.9,2.1c-0.5,0.5-0.9,0.9-1.5,1.3c-0.5,0.4-1,0.7-1.5,0.9c-1.2,0.6-2.4,0.8-3.3,0.6
			c-1-0.2-1.7-0.9-2.2-1.9c-0.3-0.6-0.4-1.2-0.3-1.8c0.1-0.6,0.4-1,1-1.5l-0.1-0.2c-1.2,0.4-2.1,0.6-2.8,0.5
			C108.6,503.6,108.1,503.1,107.7,502.4z M116.7,495.3l4,3.3l0.2-0.1c0.1-0.6,0.3-1.2,0.6-1.7c0.3-0.5,0.8-0.9,1.4-1.2
			c1-0.5,2.1-0.6,3.1-0.3c1,0.3,1.8,1,2.3,2.1c0.5,1,0.6,2,0.3,3.1c-0.3,1-1,1.8-2,2.3c-2.2,1.1-4.4,0.6-6.8-1.3l-4.9-4L116.7,495.3
			z M124.2,497.8c-0.5,0.3-0.8,0.9-0.8,1.9l0,0.8c0.3,0.2,0.6,0.3,0.9,0.3c0.3,0,0.6-0.1,0.9-0.2c0.4-0.2,0.6-0.5,0.8-0.8
			c0.1-0.4,0.1-0.8-0.1-1.2c-0.2-0.3-0.4-0.6-0.7-0.7C124.8,497.7,124.5,497.7,124.2,497.8z"/>
		<path fill="#FFFFFF" d="M81.1,511.2l1.6,0.5l0.5,0.9c1,1.9,2.3,2.4,4,1.6l18.5-9.6l2.2,4.3l-18.5,9.6c-1.7,0.9-2.1,2.1-1.2,3.8
			l0.6,1.2l-4.3,2.2l-1.6-0.5c-1-1.9-1.4-3.6-1.1-5c0.2-1.4,1.1-2.7,2.6-3.9l-0.1-0.2c-1.8,0.6-3.3,0.6-4.5,0.3
			c-1.2-0.4-2.1-1.3-2.9-2.8L81.1,511.2z"/>
		<path fill="#FFFFFF" d="M87.2,523.4l1.6,0.4l2.6,4.5l0.2,0l2.1-5.8l5.3-3.1c1.2,0.8,2.3,1.8,3.4,2.9c1,1.1,1.9,2.3,2.6,3.5
			c1.6,2.7,2.2,4.9,2,6.7c-0.2,1.8-1.3,3.3-3.4,4.5c-0.6,0.4-1.2,0.6-1.7,0.8c-0.5,0.2-1.1,0.2-1.6,0.2c-0.5,0-1.1-0.1-1.7-0.3
			c-0.6-0.2-1.3-0.4-2-0.7l-0.1,0.1l2.5,4.2l-4.1,2.4l-1.6-0.4l-0.2-0.3c-0.7-1.2-1.3-2.6-1.8-4.1c-0.5-1.5-0.7-3-0.7-4.4
			c-1.3-0.7-2.4-1.5-3.4-2.5c-1-1-1.8-2.1-2.6-3.4l-1.6-2.8L87.2,523.4z M97,525.1l-2.6,7.6l3,1.1c0.5,0.2,0.9,0.3,1.2,0.4
			c0.3,0.1,0.6,0.2,0.9,0.2c0.3,0,0.5,0,0.7,0c0.2,0,0.4-0.1,0.7-0.3c0.7-0.4,1-1,0.9-1.8s-0.6-2-1.5-3.6c-0.4-0.7-0.9-1.4-1.4-2.1
			s-1-1.3-1.4-1.7L97,525.1z"/>
		<path fill="#FFFFFF" d="M97.8,541.3l1.7,0.3l0.7,1c1.2,1.8,2.5,2.2,4.1,1.1l4.8-3.2l2.4,3.7l-4.8,3.2c-1.6,1-1.8,2.3-0.8,3.9
			l0.9,1.3l-4,2.6l-1.7-0.3c-1.2-1.8-1.7-3.4-1.6-4.8c0.1-1.4,0.8-2.8,2.2-4.1l-0.1-0.2c-1.8,0.7-3.3,0.9-4.5,0.7
			c-1.2-0.3-2.3-1.1-3.3-2.6L97.8,541.3z M110.9,537.7c-0.4-0.6-0.5-1.2-0.4-1.8c0.1-0.6,0.6-1.2,1.3-1.7c0.8-0.5,1.5-0.7,2.1-0.6
			c0.6,0.1,1.1,0.5,1.5,1.1l0.4,0.7c0.4,0.6,0.5,1.2,0.4,1.8c-0.1,0.6-0.6,1.2-1.3,1.7c-0.8,0.5-1.5,0.7-2.1,0.6
			c-0.6-0.1-1.1-0.5-1.5-1.1L110.9,537.7z M114.4,543c-0.4-0.6-0.5-1.2-0.4-1.8c0.1-0.6,0.6-1.2,1.3-1.7c0.8-0.5,1.5-0.7,2.1-0.6
			c0.6,0.1,1.1,0.5,1.5,1.1l0.4,0.7c0.4,0.6,0.5,1.2,0.4,1.8c-0.1,0.6-0.6,1.2-1.3,1.7c-0.8,0.5-1.5,0.7-2.1,0.6
			c-0.6-0.1-1.1-0.5-1.5-1.1L114.4,543z"/>
		<path fill="#FFFFFF" d="M105.2,552.6l1.7,0.3l1,1.4c0.6,0.8,1.1,1.3,1.6,1.3c0.5,0,1.1-0.2,1.8-0.7l17.2-12.4l2.8,3.9l-17.2,12.4
			c-2.3,1.7-4.4,2.4-6.1,2.3c-1.7-0.1-3.4-1.2-5-3.4l-1.7-2.4L105.2,552.6z"/>
		<path fill="#FFFFFF" d="M134,549.9l2.9,3.8l-23.4,18.1l-2.9-3.8L134,549.9z"/>
	</g>
	<g>
		<path fill="#FFFFFF" d="M641.5,568.5c-2.2,3-4.6,4.7-7.2,5.1c-2.7,0.4-5.4-0.4-8.2-2.4c-1-0.7-2-1.6-3-2.8c-1-1.1-1.9-2.4-2.7-3.7
			l3.2-2.5c0.6,1.1,1.3,2.1,2.1,3.1s1.5,1.7,2.2,2.1c1.4,1,2.7,1.3,4,1.1c1.3-0.3,2.5-1.1,3.5-2.6l1.9-2.6c0.6-0.8,1-1.6,1.2-2.4
			c0.2-0.7,0.2-1.4,0-2.1s-0.6-1.4-1.3-2.1c-0.6-0.7-1.5-1.4-2.6-2.2l-20.7-14.9l2.8-3.9l19.1,13.8l2.6-3.6l3.9,2.8l0.3,1.7
			l-2.1,2.9c2.3,2.3,3.6,4.7,3.8,7.2C644.5,563.1,643.5,565.7,641.5,568.5z"/>
		<path fill="#FFFFFF" d="M638.9,547.1l-0.4-1.7l0.6-1c1.1-1.8,0.9-3.2-0.7-4.2l-4.9-3l2.3-3.7l4.9,3c1.6,1,2.9,0.7,3.9-0.9l0.8-1.4
			l4.1,2.5l0.4,1.7c-1.1,1.8-2.4,3-3.7,3.4c-1.3,0.5-2.9,0.4-4.7-0.3l-0.1,0.2c1.4,1.3,2.2,2.6,2.5,3.8c0.3,1.2-0.1,2.6-1,4
			L638.9,547.1z M652.5,550.6c-0.4,0.6-0.8,1-1.4,1.1c-0.6,0.1-1.3,0-2.1-0.5c-0.8-0.5-1.3-1-1.4-1.6c-0.1-0.6,0-1.2,0.4-1.8
			l0.4-0.7c0.4-0.6,0.8-1,1.4-1.1c0.6-0.1,1.3,0,2.1,0.5c0.8,0.5,1.3,1,1.4,1.6c0.1,0.6,0,1.2-0.4,1.8L652.5,550.6z M655.9,545.2
			c-0.4,0.6-0.8,1-1.4,1.1c-0.6,0.1-1.3,0-2.1-0.5c-0.8-0.5-1.3-1-1.4-1.6c-0.1-0.6,0-1.2,0.4-1.8l0.4-0.7c0.4-0.6,0.8-1,1.4-1.1
			s1.3,0,2.1,0.5s1.3,1,1.4,1.6c0.1,0.6,0,1.2-0.4,1.8L655.9,545.2z"/>
		<path fill="#FFFFFF" d="M646.1,535.6l-0.5-1.6l0.5-0.9c1.1-1.9,0.8-3.2-0.9-4.2l-18.1-10.2l2.4-4.2l18.1,10.2
			c1.6,0.9,2.9,0.6,3.8-1.1l0.7-1.2l4.2,2.4l0.5,1.6c-1.1,1.9-2.3,3.1-3.6,3.7c-1.3,0.6-2.9,0.6-4.7,0l-0.1,0.2
			c1.5,1.2,2.3,2.4,2.7,3.6s0.1,2.5-0.8,4L646.1,535.6z"/>
		<path fill="#FFFFFF" d="M653.2,523.7l-0.6-1.6l1.2-2.5c0.7-1.3,1.2-2.6,1.7-3.6c0.5-1.1,0.9-2.1,1.2-3.2s0.6-2.1,0.7-3.1
			c0.2-1.1,0.2-2.2,0.2-3.5v-1.6l-0.2-0.1l-4,5.2l-4,4.8l2.7,1.3l-2,4.1l-2.8-1.3c-1.7-0.8-2.8-1.8-3.2-2.9
			c-0.4-1.1-0.3-2.4,0.4-3.9c0.1-0.2,0.2-0.4,0.3-0.6c0.1-0.2,0.3-0.4,0.5-0.7c0.2-0.3,0.4-0.5,0.7-0.9s0.6-0.8,1.1-1.3l5.2-6.1
			c0.7-0.8,1.4-1.8,2.1-2.8c0.7-1,1.3-2.1,1.8-3.2l0.3-0.7l5.4,2.6l-1.2,2.5c0.7,0.3,1.2,0.3,1.7,0.1c0.4-0.2,0.9-0.8,1.3-1.7
			l0.5-1.1l4.3,2.1l0.6,1.6c-0.9,1.8-2,3-3.3,3.6c-1.3,0.6-2.8,0.6-4.7,0l0,0.2c0.3,2.1,0.5,3.9,0.5,5.5c0,1.6-0.1,3-0.3,4.3
			c-0.2,1.3-0.5,2.5-0.9,3.6s-0.9,2.2-1.4,3.4l-1.7,3.6L653.2,523.7z"/>
		<path fill="#FFFFFF" d="M654.7,490.1c-0.3,0.6-0.7,1.1-1.2,1.3c-0.6,0.2-1.3,0.2-2.1-0.2s-1.4-0.8-1.6-1.4
			c-0.2-0.6-0.2-1.2,0.1-1.8l0.3-0.7c0.3-0.6,0.7-1.1,1.2-1.3c0.6-0.2,1.3-0.2,2.1,0.2c0.9,0.4,1.4,0.8,1.6,1.4
			c0.2,0.6,0.2,1.2-0.1,1.8L654.7,490.1z M657.1,484.3c-0.3,0.6-0.7,1.1-1.2,1.3c-0.6,0.2-1.3,0.2-2.1-0.2c-0.9-0.4-1.4-0.8-1.6-1.4
			c-0.2-0.6-0.2-1.2,0.1-1.8l0.3-0.7c0.3-0.6,0.7-1.1,1.2-1.3c0.6-0.2,1.3-0.2,2.1,0.2c0.9,0.4,1.4,0.8,1.6,1.4
			c0.2,0.6,0.2,1.2-0.1,1.8L657.1,484.3z M665,499l-0.7-1.6l0.5-1.1c0.8-2,0.3-3.3-1.4-4l-5.3-2.2l1.7-4.1l5.3,2.2
			c1.7,0.7,2.9,0.2,3.7-1.5l0.6-1.5l4.4,1.8l0.7,1.6c-0.8,2-1.8,3.3-3,4c-1.2,0.7-2.8,0.9-4.6,0.5l-0.1,0.2c1.6,1.1,2.6,2.2,3.1,3.3
			c0.5,1.2,0.4,2.6-0.3,4.2L665,499z"/>
		<path fill="#FFFFFF" d="M670.2,486.4l-0.7-1.5l0.6-1.7c0.3-1,0.4-1.7,0.1-2.1c-0.2-0.4-0.8-0.8-1.5-1.1l-19.9-7.3l1.6-4.5
			l19.9,7.2c2.7,1,4.5,2.2,5.4,3.7c0.9,1.5,0.9,3.5,0,6l-1,2.8L670.2,486.4z"/>
		<path fill="#FFFFFF" d="M651.8,464.2l1.5-4.6l28.1,9.2l-1.5,4.6L651.8,464.2z"/>
	</g>
	<g>
		<path d="M289.6,214.8c-1.2,0-2.1-0.4-2.1-1.3c0-0.3,0.1-0.7,0.4-1.3c0.5-1,1.7-2,3.6-3.1l-0.1-0.9c0.3-0.3,0.6-0.7,0.9-0.9h0.1
			c0,1.8,0,3.5,0.1,5.3c0,0.8,0.1,1.3,0.4,1.6c0.3,0.2,0.7,0.3,1.2,0.3h0.3v1.5h-0.2c-1.1,0-1.9-0.3-2.3-1.6
			C291.2,214.5,290.4,214.8,289.6,214.8z M291.6,210.2c-2,1-3.1,1.9-3.1,2.5c0,0.4,0.7,0.6,1.5,0.6c0.5,0,1-0.1,1.7-0.3L291.6,210.2
			z M290.2,206.2c-0.5-0.4-0.9-0.8-1.3-1.2c0.3-0.4,0.6-0.8,0.9-1.1c0.5,0.4,0.9,0.7,1.3,1.2C290.8,205.6,290.5,205.9,290.2,206.2z
			 M292.4,206.1c-0.5-0.4-0.9-0.8-1.3-1.2c0.3-0.4,0.6-0.8,0.9-1.1c0.5,0.4,0.9,0.7,1.3,1.2C293,205.5,292.7,205.8,292.4,206.1z"/>
		<path d="M294.6,214.4c0.9,0,1.8-0.4,1.9-1l0.3-1.2l0.8-0.6l0.1,0.1c-0.2,0.6-0.2,1.1-0.2,1.3c0,0.4,0.1,0.7,0.4,0.9
			c0.4,0.3,0.8,0.5,1.4,0.5h0.2v1.5h-0.3c-1.1,0-2-0.3-2.3-1.2h0c-0.4,0.8-1.3,1.2-2.3,1.2h-0.2c-0.6,0-0.8-0.5-0.8-0.8
			c0-0.3,0.2-0.7,0.8-0.7H294.6z M295.9,220.4c-0.5-0.4-0.9-0.8-1.3-1.2c0.3-0.4,0.6-0.8,0.9-1.1c0.5,0.4,0.9,0.7,1.3,1.2
			C296.5,219.8,296.2,220.1,295.9,220.4z M298.1,220.2c-0.5-0.4-0.9-0.8-1.3-1.2c0.3-0.4,0.6-0.8,0.9-1.1c0.5,0.4,0.9,0.7,1.3,1.2
			C298.7,219.6,298.4,219.9,298.1,220.2z"/>
		<path d="M299.7,214.4c1,0,1.7,0,2.2-0.2c0.4-0.1,0.6-0.3,0.6-0.5c0-0.5-0.5-1.6-1.1-2.8c0.3-0.5,0.6-0.9,0.9-1.3h0.1
			c0.5,0.9,1.1,2.3,1.1,3.5c0,0.9-0.3,1.5-0.8,2.1c-0.5,0.5-1.3,0.7-3,0.7h-0.1c-0.6,0-0.8-0.5-0.8-0.8c0-0.3,0.2-0.7,0.8-0.7H299.7
			z M301.3,205.9c0.5,0.3,0.9,0.7,1.4,1.2c-0.2,0.4-0.6,0.8-0.9,1.1c-0.4-0.4-0.9-0.8-1.3-1.2C300.7,206.7,301,206.3,301.3,205.9z"
			/>
		<path d="M311.6,214.4v1.5h-0.9c-0.1,0.7-0.4,1.6-0.9,2.3c-0.9,1.3-2.1,1.9-2.7,1.9c-1,0-2.2-0.5-3.3-1.1l0.2-0.4
			c0.4,0.2,1,0.4,1.7,0.4c1.1,0,2.2-0.6,3.2-1.6c0.5-0.6,0.9-1,1.1-1.6h-0.6c-2.3,0-3.5-0.7-3.5-2.3c0-0.8,0.2-1.4,0.6-1.8
			c0.4-0.6,1-1.1,1.7-1.1c1,0,2.1,1.5,2.4,3.8H311.6z M309,212.7c-0.4-0.4-0.8-0.6-1.2-0.6c-0.6,0-1.3,0.5-1.3,1
			c0,0.6,0.5,0.9,1.2,1.1c0.6,0.2,1.3,0.2,2,0.2C309.7,213.7,309.4,213.1,309,212.7z"/>
		<path d="M311.8,214.4c1,0,1.7,0,2.2-0.2c0.4-0.1,0.6-0.3,0.6-0.5c0-0.5-0.5-1.6-1.1-2.8c0.3-0.5,0.6-0.9,0.9-1.3h0.1
			c0.5,0.9,1.1,2.3,1.1,3.5c0,0.9-0.3,1.5-0.8,2.1c-0.5,0.5-1.3,0.7-3,0.7h-0.1c-0.6,0-0.8-0.5-0.8-0.8c0-0.3,0.2-0.7,0.8-0.7H311.8
			z M313.3,205.9c0.5,0.3,0.9,0.7,1.4,1.2c-0.2,0.4-0.6,0.8-0.9,1.1c-0.4-0.4-0.9-0.8-1.3-1.2C312.7,206.7,313,206.3,313.3,205.9z"
			/>
		<path d="M320.5,215.8h-0.1c-0.9,0-1.5-0.2-1.9-0.6c-0.7-0.7-0.7-1.5-0.7-3.2c0-2.2-0.1-4.4-0.3-6.8c0.4-0.4,0.7-0.8,1.1-1.1l0.1,0
			c0.2,2.5,0.2,5.4,0.2,8.2v0.6c0,0.7,0.4,1.1,0.9,1.2c0.3,0.1,0.6,0.1,0.7,0.1h0.2V215.8z"/>
		<path d="M320.7,214.4c0.6,0,1.3-0.2,1.8-0.3c-0.4-0.6-0.4-1.2-0.4-1.7c0-0.9,0.3-1.9,1-2.7c0.6-0.6,1.3-1.1,1.7-1.1
			s0.9,0.5,1.3,1.3c0.3,0.5,0.4,1.1,0.4,1.6c0,1-0.3,1.9-0.8,2.6c0.4,0.1,1,0.2,1.8,0.2h0.4v1.5h-0.3c-1.1,0-2.3-0.2-3.7-0.7
			c-1.4,0.5-2.5,0.7-3.2,0.7h-0.2c-0.6,0-0.8-0.5-0.8-0.8c0-0.3,0.2-0.7,0.8-0.7H320.7z M323.4,207.4c-0.5-0.4-0.9-0.8-1.3-1.2
			c0.3-0.4,0.6-0.8,0.9-1.1c0.5,0.4,0.9,0.7,1.3,1.2C323.9,206.8,323.7,207.1,323.4,207.4z M326,212.4c0-0.4-0.2-0.8-0.3-1
			c-0.3-0.6-0.7-1-1.1-1c-0.9,0-1.7,1.1-2,1.9c0.2,0.7,0.6,1.2,1.6,1.5C325,213.6,326,212.9,326,212.4z M325.6,207.2
			c-0.5-0.4-0.9-0.8-1.3-1.2c0.3-0.4,0.6-0.8,0.9-1.1c0.5,0.4,0.9,0.7,1.3,1.2C326.1,206.6,325.9,206.9,325.6,207.2z"/>
		<path d="M328.3,214.4c0.4,0,0.8,0,1.3-0.3c0.4-0.2,0.6-0.6,0.6-1.2c0-1.8-0.1-3.8-0.3-5.9c0-0.5-0.1-1-0.1-1.4
			c0-0.2,0.1-0.5,0.3-0.8c0.2-0.2,0.4-0.4,0.6-0.6l0.1,0.1c0,0.7,0.3,1.6,0.9,2.6c-0.2,0.2-0.4,0.4-0.7,0.6c0,1.3,0.1,2.7,0.1,3.9
			c0,1.2-0.1,2.2-0.5,2.8c-0.2,0.6-0.5,1.1-1,1.3c-0.4,0.2-1,0.3-1.4,0.3H328c-0.6,0-0.8-0.5-0.8-0.8c0-0.3,0.2-0.7,0.8-0.7H328.3z"
			/>
		<path d="M333.6,216c0.1-0.7,0.1-1.5,0.1-2.3v-1.1c0-2.1-0.2-5.1-0.4-7.1c0.3-0.4,0.8-0.9,1.1-1.2l0.1,0c0.2,2.5,0.3,5.3,0.3,8
			c0,0.7,0,1.4-0.1,1.9c0,0.6-0.3,1.1-1,1.8L333.6,216z"/>
		<path d="M346.6,210l0.8,1.5c0.3,0.6,0.6,1.2,0.6,2.2v1.2c0,1-0.5,2.1-1.4,3.2c-0.7,0.7-1.3,1-1.9,1c-0.8,0-1.8-0.3-2.9-0.9
			l0.1-0.4c0.4,0.1,0.8,0.2,1.3,0.2c1.6,0,3.2-1.4,4-3.1c0.1-0.2,0.1-0.4,0.1-0.5c0-0.2-0.1-0.4-0.2-0.6c-0.4-0.9-0.9-1.7-1.4-2.5
			C346,210.9,346.2,210.4,346.6,210L346.6,210z"/>
		<path d="M350.5,212.7c0,1,0.4,1.7,1.9,1.7c0.9,0,1.6-0.3,2.5-0.7c0.1-0.1,0.2-0.2,0.2-0.3c0-0.6-0.4-1.4-1.1-2.2
			c-0.6-0.7-1.5-1.3-2.3-1.7c-0.3-0.1-0.4-0.3-0.4-0.4c0-0.3,0.3-0.9,0.6-1.3l0.1,0c0.9,0.6,1.9,1.4,2.7,2.3
			c0.7,0.9,1.1,1.7,1.1,2.7c0,0.7-0.2,1.4-0.5,2c-1,0.6-2.1,1.1-3.2,1.1c-1.3,0-2.2-0.7-2.2-2.4c0-0.2,0-0.5,0.1-0.8H350.5z"/>
		<path d="M360.8,215.8h-0.1c-0.9,0-1.5-0.2-1.9-0.6c-0.7-0.7-0.7-1.5-0.7-3.2c0-2.2-0.1-4.4-0.3-6.8c0.4-0.4,0.7-0.8,1.1-1.1l0.1,0
			c0.2,2.5,0.2,5.4,0.2,8.2v0.6c0,0.7,0.4,1.1,0.9,1.2c0.3,0.1,0.6,0.1,0.7,0.1h0.2V215.8z"/>
		<path d="M361,214.4c1,0,1.7-0.3,1.9-1c0.1-0.4,0.2-0.9,0.3-1.3c0.2-0.2,0.5-0.4,0.7-0.6l0.1,0.1c-0.1,0.4-0.2,0.7-0.2,1.1
			c0,0.6,0.1,0.9,0.6,1.3c0.6-1,1.3-2,2.3-2.9c0.7-0.6,1.5-1.2,2.5-1.2c1.6,0,2.6,1.2,2.6,2.5c0,0.6-0.2,1.3-0.6,2h1.5v1.5h-0.3
			c-1.1,0-2.2-0.1-3.4-0.4c-0.7,0.2-1.5,0.4-2.6,0.4c-1.5,0-2.6-0.4-3.2-1.2h0c-0.6,1-1.6,1.2-2.3,1.2h-0.1c-0.6,0-0.8-0.5-0.8-0.8
			c0-0.3,0.2-0.7,0.8-0.7H361z M367.2,214.4c1.1,0,2.3-0.3,2.9-0.5c0.6-0.2,0.9-0.5,0.9-0.9c-0.1-1-1.1-1.7-2.1-1.7
			c-1.3,0-2.6,1.1-3.8,2.8C365.5,214.3,366.2,214.4,367.2,214.4z"/>
		<path d="M375.6,214.9c-0.8,0.7-1.5,1-2.6,1h-0.2c-0.6,0-0.8-0.5-0.8-0.8c0-0.3,0.2-0.7,0.8-0.7h0.1c1.1,0,1.9-0.3,2.6-0.8
			c-0.2-2.2-0.2-4.5-0.2-6.2c0-0.5-0.1-1.2-0.1-1.7c0-0.4,0.1-0.7,0.4-1c0.2-0.2,0.4-0.4,0.6-0.6l0.1,0.1c0,0.2,0,0.3,0,0.5
			c0,0.8,0.4,1.6,0.9,2.3l-0.8,0.6c0,3.6,0,4.5,0.2,5.5l0,0c0.5-0.3,0.9-0.4,1.5-0.4c0.5,0,1,0.2,1.3,0.6c0.3,0.4,0.5,1,0.5,1.6
			c0,1.4-1,2.2-1.8,2.2C377,217,376.1,216.1,375.6,214.9L375.6,214.9z M378.5,215.7c0.2,0,0.4-0.1,0.6-0.2c0-0.4-0.2-0.7-0.4-1.1
			c-0.2-0.3-0.6-0.5-1.1-0.5c-0.3,0-0.7,0.1-0.9,0.2C377,215.1,377.8,215.7,378.5,215.7z"/>
		<path d="M381.9,216c0.1-0.7,0.1-1.5,0.1-2.3v-1.1c0-2.1-0.2-5.1-0.4-7.1c0.3-0.4,0.8-0.9,1.1-1.2l0.1,0c0.2,2.5,0.3,5.3,0.3,8
			c0,0.7,0,1.4-0.1,1.9c0,0.6-0.3,1.1-1,1.8L381.9,216z"/>
		<path d="M401.8,204.1c0.1,2.4,0.1,4.9,0.1,7.3c0,1,0.2,1.8,0.7,2.5c0.4,0.4,0.8,0.5,1.3,0.5h0.2v1.5h-0.2c-2,0-2.8-1.5-2.8-3.1
			H401c-0.3,1-0.9,1.6-1.7,2v0c0.8,0.2,1.1,0.6,1.1,1.5c0,0.4-0.1,0.9-0.5,1.5c-1.8,1.7-3.6,2.3-5.1,2.3c-1.1,0-2.1-0.5-2.7-1.1
			c-0.8-0.8-1.2-1.8-1.2-3c0-1.4,0.4-2.5,0.9-3.6l0.4,0.2c-0.3,0.8-0.5,1.6-0.5,2.4c0,0.8,0.2,1.6,0.7,2.2c0.7,0.8,1.5,1.3,2.6,1.3
			c1.1,0,2.2-0.2,3.3-0.8c0.6-0.4,1.2-0.8,1.4-1.1c0-0.4-1.9-0.8-3.5-0.9l-0.1-0.1l0.6-1.2c1.3-0.2,2.3-0.5,3-1
			c1-0.7,1.1-1.1,1.1-3.2c0-1.5-0.1-3.2-0.2-4.9c0.3-0.4,0.6-0.7,1-1.1L401.8,204.1z"/>
		<path d="M404.8,214.4c0.4,0,1-0.1,1.7-0.2v-0.1c-0.8-0.5-1.3-1.2-1.3-2.2c0-0.5,0.2-1,0.5-1.5c0.5-0.9,1.3-1.5,2.3-1.5
			c1.1,0,1.9,0.7,2.5,1.8l-0.2,0.2c-0.6-0.5-1.2-0.7-2-0.7c-1.2,0-2.1,0.6-2.1,1c0,0.5,0.3,1.1,1,1.6c0.4,0.3,1,0.6,1.4,0.6
			c0.9,0,1.9-0.4,3.2-0.8l0.1,0.1l-0.6,1.4c-1.8,0.6-2.6,0.7-4,1.2c-1,0.3-1.9,0.6-2.8,0.6h-0.4c-0.6,0-0.8-0.5-0.8-0.8
			c0-0.3,0.2-0.7,0.8-0.7H404.8z"/>
		<path d="M423,210l0.8,1.5c0.3,0.6,0.6,1.2,0.6,2.2v1.2c0,1-0.5,2.1-1.4,3.2c-0.7,0.7-1.3,1-1.9,1c-0.8,0-1.8-0.3-2.9-0.9l0.1-0.4
			c0.4,0.1,0.8,0.2,1.3,0.2c1.6,0,3.2-1.4,4-3.1c0.1-0.2,0.1-0.4,0.1-0.5c0-0.2-0.1-0.4-0.2-0.6c-0.4-0.9-0.9-1.7-1.4-2.5
			C422.4,210.9,422.6,210.4,423,210L423,210z"/>
		<path d="M432.4,214.4v1.5h-0.9c-0.1,0.7-0.4,1.6-0.9,2.3c-0.9,1.3-2.1,1.9-2.7,1.9c-1,0-2.2-0.5-3.3-1.1l0.2-0.4
			c0.4,0.2,1,0.4,1.7,0.4c1.1,0,2.2-0.6,3.2-1.6c0.5-0.6,0.9-1,1.1-1.6h-0.6c-2.3,0-3.5-0.7-3.5-2.3c0-0.8,0.2-1.4,0.6-1.8
			c0.4-0.6,1-1.1,1.7-1.1c1,0,2.1,1.5,2.4,3.8H432.4z M429.9,212.7c-0.4-0.4-0.8-0.6-1.2-0.6c-0.6,0-1.3,0.5-1.3,1
			c0,0.6,0.5,0.9,1.2,1.1c0.6,0.2,1.3,0.2,2,0.2C430.5,213.7,430.2,213.1,429.9,212.7z"/>
		<path d="M432.7,214.4c0.9,0,1.8-0.4,1.9-1l0.3-1.2l0.8-0.6l0.1,0.1c-0.2,0.6-0.2,1.1-0.2,1.3c0,0.4,0.1,0.7,0.4,0.9
			c0.4,0.3,0.8,0.5,1.4,0.5h0.2v1.5h-0.3c-1.1,0-2-0.3-2.3-1.2h0c-0.4,0.8-1.3,1.2-2.3,1.2h-0.2c-0.6,0-0.8-0.5-0.8-0.8
			c0-0.3,0.2-0.7,0.8-0.7H432.7z M433.9,210.1c-0.5-0.4-0.9-0.8-1.3-1.2c0.3-0.4,0.6-0.8,0.9-1.1c0.5,0.4,0.9,0.7,1.3,1.2
			C434.5,209.5,434.3,209.8,433.9,210.1z M434.5,207.7c-0.5-0.4-0.9-0.8-1.3-1.2c0.3-0.4,0.6-0.8,0.9-1.1c0.5,0.4,0.9,0.7,1.3,1.2
			C435.1,207.1,434.9,207.4,434.5,207.7z M436.1,209.9c-0.5-0.4-0.9-0.8-1.3-1.2c0.3-0.4,0.6-0.8,0.9-1.1c0.5,0.4,0.9,0.7,1.3,1.2
			C436.7,209.3,436.4,209.6,436.1,209.9z"/>
		<path d="M438,214.4c1,0,1.8,0,3-0.6v0c-0.5-0.4-1.1-1-1.6-1.5c-0.3-0.3-0.6-0.5-0.8-0.5h-0.4l0,0l0.4-1.3l0.4,0
			c0.9-0.2,1.9-0.4,3-0.4c1.3,0,2.4,0.2,3.3,0.6l-0.4,1.2l-2,1.8v0c0.8,0.4,1.6,0.6,2.6,0.6h0.5v1.5h-0.3c-1.3,0-2.7-0.5-3.8-1.3h0
			c-1.4,1-2.6,1.3-4,1.3h-0.4c-0.6,0-0.8-0.5-0.8-0.8c0-0.3,0.2-0.7,0.8-0.7H438z M442.1,213.3c0.7-0.5,1.4-1,2.1-1.7v0
			c-0.6-0.1-1.3-0.3-2.1-0.3c-0.7,0-1.4,0.1-2.1,0.2v0c0.2,0.2,0.4,0.4,0.7,0.6C441.1,212.5,441.6,212.9,442.1,213.3L442.1,213.3z"
			/>
		<path d="M446.3,214.4c0.4,0,0.8,0,1.3-0.3c0.4-0.2,0.6-0.6,0.6-1.2c0-1.8-0.1-3.8-0.3-5.9c0-0.5-0.1-1-0.1-1.4
			c0-0.2,0.1-0.5,0.3-0.8c0.2-0.2,0.4-0.4,0.6-0.6l0.1,0.1c0,0.7,0.3,1.6,0.9,2.6c-0.2,0.2-0.4,0.4-0.7,0.6c0,1.3,0.1,2.7,0.1,3.9
			c0,1.2-0.1,2.2-0.5,2.8c-0.2,0.6-0.5,1.1-1,1.3c-0.4,0.2-1,0.3-1.4,0.3H446c-0.6,0-0.8-0.5-0.8-0.8c0-0.3,0.2-0.7,0.8-0.7H446.3z"
			/>
		<path d="M451.6,216c0.1-0.7,0.1-1.5,0.1-2.3v-1.1c0-2.1-0.2-5.1-0.4-7.1c0.3-0.4,0.8-0.9,1.1-1.2l0.1,0c0.2,2.5,0.3,5.3,0.3,8
			c0,0.7,0,1.4-0.1,1.9c0,0.6-0.3,1.1-1,1.8L451.6,216z"/>
	</g>
	<g>
		<path fill="#FFFFFF" d="M162.9,416c-1.9,0-3.4-0.5-4.5-1.5c-1.1-1-1.6-2.3-1.6-4c0-0.7,0.1-1.4,0.3-2.1c0.2-0.8,0.4-1.5,0.8-2.3
			l1.4,0.4c-0.3,0.6-0.5,1.2-0.7,1.8c-0.2,0.6-0.3,1.2-0.3,1.8c0,1.2,0.4,2.2,1.1,2.9c0.7,0.7,1.7,1,2.9,1h1.3
			c1.6,0,2.7-0.3,3.4-0.9c0.7-0.6,1.1-1.6,1.1-2.9c0-0.2,0-0.5,0-0.7c0-0.2,0-0.5-0.1-0.8c0-0.3-0.1-0.6-0.2-1
			c-0.1-0.4-0.1-0.7-0.2-1.2l-0.4-1.8l1.5-0.3l0.3,1.8c0.1,0.6,0.2,1.1,0.3,1.5c0.1,0.4,0.1,0.8,0.1,1.1h2.2v1.5l-0.4,0.4h-1.7
			c-0.1,1.8-0.7,3.2-1.8,4C166.7,415.6,165.1,416,162.9,416z M163.2,403.8c-0.3,0-0.5-0.1-0.7-0.3c-0.2-0.2-0.3-0.4-0.3-0.8
			c0-0.4,0.1-0.7,0.3-0.8c0.2-0.2,0.4-0.3,0.7-0.3h0.2c0.3,0,0.5,0.1,0.7,0.3c0.2,0.2,0.3,0.4,0.3,0.8c0,0.4-0.1,0.7-0.3,0.8
			c-0.2,0.2-0.4,0.3-0.7,0.3H163.2z"/>
		<path fill="#FFFFFF" d="M174.1,409.4c-0.3,0.5-0.7,0.8-1.2,1c-0.4,0.2-1,0.3-1.7,0.3v-1.5l0.4-0.4c0.3,0,0.5,0,0.7-0.1
			s0.4-0.2,0.5-0.3c0.2-0.2,0.3-0.4,0.4-0.6c0.1-0.3,0.3-0.6,0.4-0.9l0.6-1.6c0.3-0.9,0.8-1.6,1.3-2s1.3-0.7,2.2-0.7
			c1.1,0,1.9,0.5,2.5,1.5c0.6,1,0.9,2.3,0.9,4.1v1L180,411L174.1,409.4z M175,407.7l4.8,1.3V408c0-1.1-0.2-2-0.6-2.7s-0.9-1-1.6-1
			c-0.6,0-1,0.2-1.3,0.5c-0.3,0.3-0.6,0.8-0.8,1.3L175,407.7z"/>
		<path fill="#FFFFFF" d="M195.1,416c-2.1,0-3.8-0.5-5-1.5s-1.8-2.3-1.8-4c0-0.7,0.1-1.4,0.3-2.1c0.2-0.8,0.4-1.5,0.8-2.3l1.4,0.4
			c-0.3,0.6-0.5,1.2-0.7,1.8c-0.2,0.6-0.3,1.2-0.3,1.8c0,1.2,0.4,2.2,1.2,2.9s2,1,3.4,1h1.3c0.9,0,1.7-0.1,2.4-0.3
			c0.7-0.2,1.3-0.4,1.7-0.7c0.5-0.3,0.8-0.6,1.1-1c0.2-0.4,0.4-0.7,0.4-1.1v0l-4.8-1.1V408h0.9c0.9,0,1.5-0.1,1.9-0.4
			c0.4-0.3,0.6-0.7,0.6-1.5v-11.7h1.5v11.7c0,0.6-0.1,1.1-0.3,1.6c-0.2,0.4-0.6,0.8-1,1.1v0.1l1.2,0.3c0.9,0.2,1.3,0.8,1.3,1.7
			c0,0.7-0.2,1.3-0.5,2c-0.3,0.6-0.8,1.2-1.5,1.6c-0.7,0.5-1.5,0.8-2.4,1.1S196.3,416,195.1,416z M193.6,420.4
			c-0.3,0-0.5-0.1-0.7-0.3c-0.2-0.2-0.3-0.4-0.3-0.8c0-0.4,0.1-0.7,0.3-0.8c0.2-0.2,0.4-0.3,0.7-0.3h0.2c0.3,0,0.5,0.1,0.7,0.3
			c0.2,0.2,0.3,0.4,0.3,0.8c0,0.4-0.1,0.7-0.3,0.8s-0.4,0.3-0.7,0.3H193.6z M196.4,420.4c-0.3,0-0.5-0.1-0.7-0.3s-0.3-0.4-0.3-0.8
			c0-0.4,0.1-0.7,0.3-0.8c0.2-0.2,0.4-0.3,0.7-0.3h0.2c0.3,0,0.5,0.1,0.7,0.3c0.2,0.2,0.3,0.4,0.3,0.8c0,0.4-0.1,0.7-0.3,0.8
			s-0.4,0.3-0.7,0.3H196.4z"/>
		<path fill="#FFFFFF" d="M204.2,414.1h1.5c1.8,0,3.1-0.4,3.9-1.2c0.9-0.8,1.3-1.9,1.3-3.3v-0.5h-0.1c-0.2,0.5-0.5,0.9-1,1.1
			c-0.5,0.3-1,0.4-1.7,0.4c-1.2,0-2.1-0.3-2.7-0.9c-0.6-0.6-1-1.5-1-2.6c0-0.7,0.1-1.3,0.3-1.9s0.5-1.1,0.8-1.5
			c0.4-0.4,0.8-0.8,1.3-1c0.5-0.3,1-0.4,1.6-0.4c1.3,0,2.3,0.5,3,1.6c0.7,1.1,1.1,2.6,1.1,4.6c0,2.3-0.6,4.2-1.7,5.5
			c-1.1,1.3-2.8,2-5.1,2h-1.5V414.1z M208.5,408.8c0.6,0,1.1-0.1,1.5-0.2c0.4-0.1,0.7-0.3,0.9-0.5c0-1.2-0.2-2.1-0.7-2.8
			c-0.5-0.7-1.1-1-1.9-1c-0.7,0-1.3,0.2-1.7,0.7c-0.4,0.5-0.6,1.2-0.6,2c0,0.6,0.2,1.1,0.5,1.4c0.3,0.3,0.9,0.4,1.6,0.4H208.5z"/>
		<path fill="#FFFFFF" d="M215.9,410.7c-0.5,0-1-0.2-1.3-0.5c-0.3-0.3-0.5-0.8-0.5-1.4v-1.7h1.5v1.7h3c0.5,0,0.9,0,1.2,0
			c0.3,0,0.6-0.1,0.8-0.1c0.2-0.1,0.3-0.2,0.4-0.3c0.1-0.1,0.1-0.3,0.1-0.5c0-0.2,0-0.4-0.1-0.6c-0.1-0.2-0.2-0.6-0.4-1.1l-2.1-5.8
			l1.6-0.6l2.2,6.2c0.2,0.6,0.4,1.1,0.6,1.4c0.2,0.4,0.3,0.7,0.5,0.9c0.2,0.2,0.4,0.4,0.5,0.5c0.2,0.1,0.4,0.1,0.6,0.1h0.5v1.5
			l-0.4,0.4c-0.4,0-0.7,0-1-0.1c-0.3-0.1-0.6-0.2-0.8-0.3c-0.2-0.2-0.4-0.4-0.6-0.6c-0.2-0.2-0.4-0.6-0.6-0.9h-0.1
			c-0.1,0.7-0.4,1.2-0.8,1.5c-0.5,0.3-1.2,0.5-2.1,0.5H215.9z"/>
		<path fill="#FFFFFF" d="M224.7,409.3l0.4-0.4h0.6c0.7,0,1.2-0.2,1.5-0.5c0.3-0.3,0.5-0.8,0.5-1.5v-12.4h1.6v12.4
			c0,1.3-0.3,2.3-0.9,3c-0.6,0.6-1.5,0.9-2.8,0.9h-1.1V409.3z"/>
		<path fill="#FFFFFF" d="M232.7,394.4h1.6v16.3h-1.6V394.4z"/>
		<path fill="#FFFFFF" d="M248.1,414.2c-1.9,0-3.4-0.5-4.5-1.5c-1.1-1-1.6-2.3-1.6-4c0-0.7,0.1-1.4,0.3-2.1c0.2-0.8,0.4-1.5,0.8-2.3
			l1.4,0.4c-0.3,0.6-0.5,1.2-0.7,1.8s-0.3,1.2-0.3,1.8c0,1.2,0.4,2.2,1.1,2.9c0.7,0.7,1.7,1,2.9,1h1.3c1.6,0,2.7-0.3,3.4-0.9
			c0.7-0.6,1.1-1.6,1.1-2.9c0-0.2,0-0.5,0-0.7c0-0.2,0-0.5-0.1-0.8c0-0.3-0.1-0.6-0.2-1c-0.1-0.4-0.1-0.7-0.2-1.2l-0.4-1.8l1.5-0.3
			l0.3,1.8c0.1,0.5,0.2,0.9,0.2,1.3c0.1,0.4,0.1,0.7,0.2,1c0,0.3,0.1,0.6,0.1,0.9c0,0.3,0,0.5,0,0.7c0,2-0.5,3.5-1.6,4.4
			C252.1,413.8,250.4,414.2,248.1,414.2z M248.5,402.1c-0.3,0-0.5-0.1-0.7-0.3c-0.2-0.2-0.3-0.4-0.3-0.8c0-0.4,0.1-0.7,0.3-0.8
			c0.2-0.2,0.4-0.3,0.7-0.3h0.2c0.3,0,0.5,0.1,0.7,0.3s0.3,0.4,0.3,0.8c0,0.4-0.1,0.7-0.3,0.8c-0.2,0.2-0.4,0.3-0.7,0.3H248.5z"/>
		<path fill="#FFFFFF" d="M256.4,414.1h1.2c1.6,0,2.8-0.3,3.7-0.9c0.9-0.6,1.4-1.4,1.6-2.5h-2.6c-1.2,0-2.1-0.3-2.7-0.9
			c-0.6-0.6-1-1.5-1-2.6c0-0.7,0.1-1.3,0.3-1.9s0.5-1.1,0.8-1.5c0.4-0.4,0.8-0.8,1.3-1c0.5-0.3,1-0.4,1.6-0.4c1.2,0,2.2,0.5,2.9,1.6
			c0.7,1.1,1,2.6,1,4.6v0.2h1v1.5l-0.4,0.4h-0.8c-0.3,1.7-1,3-2.2,3.9c-1.1,0.9-2.7,1.4-4.6,1.4h-1.2V414.1z M258.1,407
			c0,0.6,0.2,1.1,0.5,1.4c0.3,0.3,0.9,0.4,1.6,0.4h2.7v-0.7c0-1.2-0.2-2.1-0.7-2.8c-0.4-0.7-1.1-1-1.8-1c-0.7,0-1.3,0.2-1.7,0.7
			C258.3,405.5,258.1,406.2,258.1,407z"/>
		<path fill="#FFFFFF" d="M265.1,409.3l0.4-0.4h0.3c1,0,1.7-0.1,2.1-0.4s0.6-0.7,0.6-1.4c0-0.3,0-0.6-0.1-1c0-0.4-0.1-1-0.2-1.6
			l-0.3-1.8l1.5-0.2l0.3,1.8c0.1,0.7,0.2,1.3,0.2,1.8c0,0.5,0.1,0.8,0.1,1.1c0,1.2-0.4,2.1-1.1,2.8c-0.7,0.6-1.8,0.9-3.2,0.9h-0.8
			V409.3z M268.4,399.7c-0.3,0-0.5-0.1-0.7-0.3s-0.3-0.4-0.3-0.8c0-0.4,0.1-0.7,0.3-0.8c0.2-0.2,0.4-0.3,0.7-0.3h0.2
			c0.3,0,0.5,0.1,0.7,0.3c0.2,0.2,0.3,0.4,0.3,0.8c0,0.4-0.1,0.7-0.3,0.8c-0.2,0.2-0.4,0.3-0.7,0.3H268.4z"/>
		<path fill="#FFFFFF" d="M276.6,410.7c-0.7,0-1.3-0.1-1.8-0.2c-0.5-0.1-0.9-0.3-1.2-0.6c-0.3-0.3-0.5-0.6-0.6-1.1
			c-0.1-0.4-0.2-1-0.2-1.6v-12.8h1.6v12.8c0,0.6,0.2,1,0.5,1.2c0.3,0.2,0.8,0.4,1.4,0.4h0.8v1.5L276.6,410.7L276.6,410.7z"/>
		<path fill="#FFFFFF" d="M276.6,409.3l0.4-0.4h3.2l0-0.1c-0.7-0.6-1.3-1.2-1.7-1.9c-0.4-0.7-0.6-1.5-0.6-2.4c0-0.6,0.1-1.1,0.3-1.7
			c0.2-0.5,0.5-1,0.8-1.4c0.4-0.4,0.8-0.7,1.3-0.9c0.5-0.2,1-0.3,1.6-0.3c0.6,0,1.1,0.1,1.6,0.3c0.5,0.2,0.9,0.5,1.3,0.9
			c0.4,0.4,0.6,0.8,0.8,1.4c0.2,0.5,0.3,1.1,0.3,1.7c0,0.9-0.2,1.7-0.6,2.4c-0.4,0.7-1,1.3-1.7,1.9l0,0.1h3.2v1.5l-0.4,0.4H286
			c-0.7,0-1.5-0.1-2.2-0.3c-0.7-0.2-1.3-0.4-2-0.8c-0.6,0.3-1.3,0.6-2,0.8c-0.7,0.2-1.4,0.3-2.2,0.3h-1.2V409.3z M280.3,397.5
			c-0.3,0-0.5-0.1-0.7-0.3c-0.2-0.2-0.3-0.4-0.3-0.8s0.1-0.7,0.3-0.8c0.2-0.2,0.4-0.3,0.7-0.3h0.2c0.3,0,0.5,0.1,0.7,0.3
			c0.2,0.2,0.3,0.4,0.3,0.8s-0.1,0.7-0.3,0.8c-0.2,0.2-0.4,0.3-0.7,0.3H280.3z M281.9,408.2c0.7-0.4,1.3-0.9,1.8-1.5s0.7-1.2,0.7-2
			s-0.2-1.4-0.6-1.9c-0.4-0.5-1-0.7-1.7-0.7h-0.2c-0.7,0-1.3,0.2-1.7,0.7c-0.4,0.5-0.6,1.1-0.6,1.9s0.2,1.5,0.7,2
			C280.6,407.3,281.1,407.7,281.9,408.2z M283.1,397.5c-0.3,0-0.5-0.1-0.7-0.3c-0.2-0.2-0.3-0.4-0.3-0.8s0.1-0.7,0.3-0.8
			c0.2-0.2,0.4-0.3,0.7-0.3h0.2c0.3,0,0.5,0.1,0.7,0.3c0.2,0.2,0.3,0.4,0.3,0.8s-0.1,0.7-0.3,0.8c-0.2,0.2-0.4,0.3-0.7,0.3H283.1z"
			/>
		<path fill="#FFFFFF" d="M286.3,409.3l0.4-0.4h0.6c0.7,0,1.2-0.2,1.5-0.5c0.3-0.3,0.5-0.8,0.5-1.5v-12.4h1.6v12.4
			c0,1.3-0.3,2.3-0.9,3c-0.6,0.6-1.5,0.9-2.8,0.9h-1.1V409.3z"/>
		<path fill="#FFFFFF" d="M294.3,394.4h1.6v16.3h-1.6V394.4z"/>
		<path fill="#FFFFFF" d="M312.8,410.7c-0.7,0-1.2-0.1-1.7-0.2c-0.5-0.1-0.8-0.3-1.1-0.5c-0.3-0.3-0.5-0.6-0.6-1
			c-0.1-0.4-0.2-0.9-0.2-1.5v-0.4h-0.1c-0.2,0.7-0.6,1.2-1,1.5c-0.5,0.3-1.1,0.5-1.8,0.5c-1,0-1.7-0.3-2.3-0.8
			c-0.6-0.5-0.8-1.3-0.8-2.2c0-0.4,0.1-0.8,0.2-1.2c0.1-0.4,0.3-0.7,0.6-1.1c0.3-0.3,0.7-0.7,1.2-1c0.5-0.3,1-0.7,1.7-1.1l2.2-1.3
			v-1.1h1.5v7.9c0,0.6,0.2,1,0.5,1.2c0.3,0.2,0.8,0.3,1.4,0.3h0.8v1.5L312.8,410.7z M306.6,407.2c0.9,0,1.5-0.1,1.9-0.4
			c0.4-0.3,0.6-0.7,0.6-1.4v-3.2l-2.2,1.2c-0.8,0.4-1.3,0.8-1.7,1.2c-0.3,0.4-0.5,0.8-0.5,1.2c0,0.5,0.1,0.8,0.4,1
			C305.4,407.1,305.9,407.2,306.6,407.2z M306.9,397.5c-0.3,0-0.5-0.1-0.7-0.3c-0.2-0.2-0.3-0.4-0.3-0.8s0.1-0.7,0.3-0.8
			c0.2-0.2,0.4-0.3,0.7-0.3h0.2c0.3,0,0.5,0.1,0.7,0.3c0.2,0.2,0.3,0.4,0.3,0.8s-0.1,0.7-0.3,0.8c-0.2,0.2-0.4,0.3-0.7,0.3H306.9z
			 M309.8,397.5c-0.3,0-0.5-0.1-0.7-0.3c-0.2-0.2-0.3-0.4-0.3-0.8s0.1-0.7,0.3-0.8c0.2-0.2,0.4-0.3,0.7-0.3h0.2
			c0.3,0,0.5,0.1,0.7,0.3c0.2,0.2,0.3,0.4,0.3,0.8s-0.1,0.7-0.3,0.8c-0.2,0.2-0.4,0.3-0.7,0.3H309.8z"/>
		<path fill="#FFFFFF" d="M312.8,409.3l0.4-0.4h0.8c0.3,0,0.5,0,0.7-0.1c0.2-0.1,0.4-0.1,0.6-0.3s0.3-0.3,0.5-0.5
			c0.2-0.2,0.3-0.5,0.5-0.9l0.9-1.8l1.3,0.6l-1.2,2.2l0.3,0.2c0.5,0.3,0.9,0.5,1.4,0.6c0.4,0.1,0.9,0.2,1.3,0.2
			c0.7,0,1.2-0.2,1.5-0.5c0.3-0.3,0.5-0.9,0.5-1.6v-1.7h1.5v1.7c0,0.8,0.1,1.3,0.3,1.7s0.6,0.5,1.1,0.5h0.4c0.9,0,1.4-0.5,1.4-1.4
			c0-0.2,0-0.5,0-0.9s-0.1-0.8-0.1-1.2l-0.2-1.2l1.5-0.2l0.2,1.2c0.1,0.5,0.1,0.9,0.1,1.3c0,0.4,0,0.8,0,1.1c0,1-0.3,1.8-0.8,2.4
			c-0.5,0.6-1.3,0.9-2.3,0.9c-1.7,0-2.7-0.7-3-2.2h-0.1c-0.1,0.7-0.4,1.2-0.8,1.6c-0.4,0.4-1,0.6-1.6,0.6c-0.9,0-1.9-0.3-2.9-1
			l-0.7-0.4c-0.4,0.5-0.9,0.8-1.5,1c-0.5,0.2-1.2,0.3-2.1,0.3V409.3z"/>
		<path fill="#FFFFFF" d="M331.4,394.4h1.6v16.3h-1.6V394.4z"/>
		<path fill="#FFFFFF" d="M333.4,414.1h0.8c0.8,0,1.5-0.1,2-0.4c0.5-0.2,0.9-0.5,1.2-0.9c0.3-0.4,0.5-0.8,0.6-1.4
			c0.1-0.5,0.2-1.1,0.2-1.6c0-0.4,0-0.9-0.1-1.3c0-0.5-0.1-0.9-0.2-1.3l-0.5-2.5l1.5-0.3l0.3,1.7c0.2,1.3,0.4,2.6,0.4,3.8
			c0,0.8-0.1,1.6-0.3,2.3s-0.5,1.4-0.9,2s-1,1-1.7,1.4c-0.7,0.3-1.6,0.5-2.6,0.5h-0.8V414.1z"/>
		<path fill="#FFFFFF" d="M343,410.7c-0.5,0-1-0.2-1.3-0.5c-0.3-0.3-0.5-0.8-0.5-1.4v-1.7h1.5v1.7h3.6c0.4,0,0.7,0,1-0.1
			c0.3-0.1,0.5-0.2,0.6-0.4s0.3-0.3,0.3-0.5c0.1-0.2,0.1-0.4,0.1-0.6c0-0.5-0.2-1-0.5-1.5c-0.3-0.5-0.9-1.2-1.6-1.9l-2.3-2.5
			l1.4-1.4l2.2,2.5c0.4,0.5,0.8,1,1.1,1.4c0.3,0.4,0.5,0.8,0.7,1.2c0.2,0.4,0.3,0.8,0.4,1.2c0.1,0.4,0.1,0.8,0.1,1.2
			c0,1.1-0.3,1.9-1,2.5s-1.6,0.9-2.8,0.9H343z"/>
		<path fill="#FFFFFF" d="M258.7,448c-2,0-3.6-0.5-4.7-1.5c-1.1-1-1.7-2.3-1.7-4c0-0.7,0.1-1.4,0.3-2.1c0.2-0.8,0.4-1.5,0.8-2.3
			l1.4,0.4c-0.3,0.6-0.5,1.2-0.7,1.8c-0.2,0.6-0.3,1.2-0.3,1.8c0,1.2,0.4,2.2,1.1,2.9c0.8,0.7,1.8,1,3.2,1h1.3
			c1.7,0,2.9-0.3,3.8-0.8c0.8-0.5,1.3-1.4,1.4-2.5h-2.7c-1.2,0-2.1-0.3-2.7-0.9c-0.6-0.6-1-1.5-1-2.6c0-0.7,0.1-1.3,0.3-1.9
			s0.5-1.1,0.8-1.5s0.8-0.8,1.3-1c0.5-0.3,1-0.4,1.6-0.4c1.2,0,2.1,0.6,2.8,1.7c0.7,1.1,1,2.7,1.1,4.8h1v1.5l-0.4,0.4h-0.7
			c-0.2,1.8-0.9,3.1-2.1,4C262.7,447.6,260.9,448,258.7,448z M260.5,431.7c-0.3,0-0.5-0.1-0.7-0.3c-0.2-0.2-0.3-0.4-0.3-0.8
			c0-0.4,0.1-0.7,0.3-0.8s0.4-0.3,0.7-0.3h0.2c0.3,0,0.5,0.1,0.7,0.3s0.3,0.4,0.3,0.8c0,0.4-0.1,0.7-0.3,0.8
			c-0.2,0.2-0.4,0.3-0.7,0.3H260.5z M259.6,439c0,0.6,0.2,1.1,0.5,1.4c0.3,0.3,0.9,0.4,1.6,0.4h2.7v-0.7c0-1.2-0.2-2.1-0.7-2.8
			c-0.4-0.7-1.1-1-1.9-1c-0.7,0-1.3,0.2-1.7,0.7C259.8,437.5,259.6,438.2,259.6,439z M263.3,431.7c-0.3,0-0.5-0.1-0.7-0.3
			c-0.2-0.2-0.3-0.4-0.3-0.8c0-0.4,0.1-0.7,0.3-0.8s0.4-0.3,0.7-0.3h0.2c0.3,0,0.5,0.1,0.7,0.3s0.3,0.4,0.3,0.8
			c0,0.4-0.1,0.7-0.3,0.8c-0.2,0.2-0.4,0.3-0.7,0.3H263.3z"/>
		<path fill="#FFFFFF" d="M266.6,441.3l0.4-0.4h0.3c1,0,1.7-0.1,2.1-0.4s0.6-0.7,0.6-1.4c0-0.3,0-0.6-0.1-1c0-0.4-0.1-1-0.2-1.6
			l-0.3-1.8l1.5-0.2l0.3,1.8c0.1,0.7,0.2,1.3,0.2,1.8c0,0.5,0.1,0.8,0.1,1.1c0,1.2-0.4,2.1-1.1,2.8c-0.7,0.6-1.8,0.9-3.2,0.9h-0.8
			V441.3z M267.8,431.3h0.8l0-0.1c-0.1-0.1-0.2-0.3-0.3-0.5c-0.1-0.2-0.1-0.4-0.1-0.6c0-0.6,0.2-1,0.6-1.4c0.4-0.4,0.9-0.6,1.5-0.6
			c0.3,0,0.7,0.1,1,0.3c0.4,0.2,0.6,0.4,0.8,0.7l-0.8,1c-0.3-0.3-0.6-0.5-1-0.5c-0.3,0-0.5,0.1-0.7,0.2c-0.2,0.1-0.3,0.3-0.3,0.5
			c0,0.3,0.1,0.5,0.4,0.7c0.3,0.2,0.7,0.3,1.2,0.3h1.4v1.4h-4.5V431.3z"/>
		<path fill="#FFFFFF" d="M278.1,442.7c-0.7,0-1.3-0.1-1.8-0.2c-0.5-0.1-0.9-0.3-1.2-0.6c-0.3-0.3-0.5-0.6-0.6-1.1
			c-0.1-0.4-0.2-1-0.2-1.6v-12.8h1.6v12.8c0,0.6,0.2,1,0.5,1.2c0.3,0.2,0.8,0.4,1.4,0.4h0.8v1.5L278.1,442.7L278.1,442.7z"/>
		<path fill="#FFFFFF" d="M278.1,441.3l0.4-0.4h0.3c1,0,1.7-0.1,2.1-0.4s0.6-0.7,0.6-1.4c0-0.3,0-0.6-0.1-1c0-0.4-0.1-1-0.2-1.6
			l-0.3-1.8l1.5-0.2l0.3,1.8c0.1,0.7,0.2,1.3,0.2,1.8c0,0.5,0.1,0.8,0.1,1.1c0,1.2-0.4,2.1-1.1,2.8c-0.7,0.6-1.8,0.9-3.2,0.9h-0.8
			V441.3z M280,431.7c-0.3,0-0.5-0.1-0.7-0.3s-0.3-0.4-0.3-0.8c0-0.4,0.1-0.7,0.3-0.8c0.2-0.2,0.4-0.3,0.7-0.3h0.2
			c0.3,0,0.5,0.1,0.7,0.3c0.2,0.2,0.3,0.4,0.3,0.8c0,0.4-0.1,0.7-0.3,0.8s-0.4,0.3-0.7,0.3H280z M281.4,429c-0.3,0-0.5-0.1-0.7-0.3
			c-0.2-0.2-0.3-0.4-0.3-0.8c0-0.4,0.1-0.6,0.3-0.8c0.2-0.2,0.4-0.3,0.7-0.3h0.3c0.3,0,0.5,0.1,0.7,0.3c0.2,0.2,0.3,0.4,0.3,0.8
			c0,0.4-0.1,0.6-0.3,0.8c-0.2,0.2-0.4,0.3-0.7,0.3H281.4z M282.8,431.7c-0.3,0-0.5-0.1-0.7-0.3s-0.3-0.4-0.3-0.8
			c0-0.4,0.1-0.7,0.3-0.8c0.2-0.2,0.4-0.3,0.7-0.3h0.2c0.3,0,0.5,0.1,0.7,0.3c0.2,0.2,0.3,0.4,0.3,0.8c0,0.4-0.1,0.7-0.3,0.8
			s-0.4,0.3-0.7,0.3H282.8z"/>
		<path fill="#FFFFFF" d="M284.8,446.1h1.2c1.6,0,2.8-0.3,3.7-0.9c0.9-0.6,1.4-1.4,1.6-2.5h-2.6c-1.2,0-2.1-0.3-2.7-0.9
			c-0.6-0.6-1-1.5-1-2.6c0-0.7,0.1-1.3,0.3-1.9s0.5-1.1,0.8-1.5c0.4-0.4,0.8-0.8,1.3-1c0.5-0.3,1-0.4,1.6-0.4c1.2,0,2.2,0.5,2.9,1.6
			c0.7,1.1,1,2.6,1,4.6v0.2h1v1.5l-0.4,0.4h-0.8c-0.3,1.7-1,3-2.2,3.9c-1.1,0.9-2.7,1.4-4.6,1.4h-1.2V446.1z M286.6,439
			c0,0.6,0.2,1.1,0.5,1.4c0.3,0.3,0.9,0.4,1.6,0.4h2.7v-0.7c0-1.2-0.2-2.1-0.7-2.8c-0.4-0.7-1.1-1-1.8-1c-0.7,0-1.3,0.2-1.7,0.7
			C286.8,437.5,286.6,438.2,286.6,439z"/>
		<path fill="#FFFFFF" d="M293.6,441.3l0.4-0.4h0.6c0.7,0,1.2-0.2,1.5-0.5c0.3-0.3,0.5-0.8,0.5-1.5v-12.4h1.6v12.4
			c0,1.3-0.3,2.3-0.9,3c-0.6,0.6-1.5,0.9-2.8,0.9h-1.1V441.3z"/>
		<path fill="#FFFFFF" d="M301.6,426.4h1.6v16.3h-1.6V426.4z"/>
		<path fill="#FFFFFF" d="M316.8,448c-1.8,0-3.3-0.5-4.3-1.5s-1.5-2.3-1.5-4c0-0.7,0.1-1.4,0.3-2.1c0.2-0.8,0.4-1.5,0.8-2.3l1.4,0.4
			c-0.3,0.6-0.5,1.3-0.7,1.9s-0.3,1.3-0.3,1.9c0,1.2,0.3,2.1,1,2.8s1.6,1,2.8,1h1.3c0.7,0,1.3-0.1,1.7-0.2c0.5-0.2,0.9-0.4,1.2-0.8
			c0.3-0.4,0.5-0.8,0.6-1.4c0.1-0.6,0.2-1.3,0.2-2.1v-15h1.6v15c0,2.2-0.5,3.9-1.5,4.9C320.4,447.5,318.8,448,316.8,448z"/>
		<path fill="#FFFFFF" d="M324.7,441.5l3.7-1l-1.9-10.6l1.6-0.3l1.9,10.5c0.5-0.2,1-0.4,1.3-0.6s0.6-0.5,0.8-0.9
			c0.2-0.4,0.3-0.8,0.4-1.3c0.1-0.5,0.1-1.1,0.1-1.8v-9h1.6v12.5c0,1.2,0.6,1.9,1.9,1.9h0.7v1.5l-0.4,0.4c-1.2,0-2.1-0.3-2.7-0.8
			s-0.9-1.4-0.9-2.6v-0.8h-0.1c-0.1,0.6-0.2,1-0.4,1.5c-0.2,0.4-0.4,0.8-0.6,1.1s-0.5,0.5-0.9,0.7c-0.3,0.2-0.7,0.4-1.2,0.5
			l-4.5,1.2L324.7,441.5z"/>
		<path fill="#FFFFFF" d="M336.4,441.3l0.4-0.4h0.7c0.6,0,1.2,0,1.8-0.1s1.1-0.1,1.7-0.3c0.6-0.1,1.2-0.3,1.8-0.5
			c0.6-0.2,1.4-0.5,2.2-0.9l2-1V438l-3.3-0.7l-4.6-1.1v1.9h-1.5v-1.7c0-0.6,0.2-1.1,0.5-1.4c0.3-0.3,0.8-0.5,1.3-0.5
			c0.2,0,0.4,0,0.6,0.1c0.2,0,0.6,0.1,1.1,0.2l5.4,1.4c0.8,0.2,1.5,0.3,2,0.4c0.5,0.1,1,0.1,1.4,0.1h0.4v1.9h-1.7l-3,1.8
			c-0.9,0.5-1.7,1-2.4,1.3c-0.7,0.3-1.4,0.5-2,0.7c-0.6,0.2-1.2,0.2-1.8,0.3c-0.6,0-1.2,0.1-1.9,0.1h-1.2V441.3z M342.3,432
			c-0.3,0-0.5-0.1-0.7-0.3s-0.3-0.4-0.3-0.8c0-0.4,0.1-0.7,0.3-0.8c0.2-0.2,0.4-0.3,0.7-0.3h0.2c0.3,0,0.5,0.1,0.7,0.3
			c0.2,0.2,0.3,0.4,0.3,0.8c0,0.4-0.1,0.7-0.3,0.8c-0.2,0.2-0.4,0.3-0.7,0.3H342.3z"/>
		<path fill="#FFFFFF" d="M148.5,475c-1.5,0-2.8-0.1-3.9-0.2c-1-0.2-1.9-0.4-2.5-0.8c-0.6-0.4-1.1-0.8-1.4-1.4
			c-0.3-0.6-0.4-1.3-0.4-2.1c0-0.6,0.1-1.2,0.2-1.8s0.4-1.3,0.7-2l1.4,0.4c-0.6,1.2-0.9,2.3-0.9,3.2c0,1,0.4,1.7,1.3,2.1
			s2.2,0.7,4,0.7h3.1c1.1,0,1.9,0,2.6-0.1c0.7-0.1,1.2-0.2,1.6-0.3s0.7-0.4,0.8-0.6c0.2-0.3,0.2-0.6,0.2-1v-3.5h1.5v3.5
			c0,1.2,0.6,1.9,1.9,1.9h0.8v1.5l-0.4,0.4c-2,0-3.2-0.7-3.6-2.2h-0.1c-0.1,0.5-0.3,0.9-0.5,1.2c-0.2,0.3-0.6,0.6-1.2,0.8
			c-0.5,0.2-1.2,0.3-2,0.4C150.8,474.9,149.8,475,148.5,475z M148.4,479.1c-0.3,0-0.5-0.1-0.7-0.3c-0.2-0.2-0.3-0.4-0.3-0.8
			c0-0.4,0.1-0.7,0.3-0.8c0.2-0.2,0.4-0.3,0.7-0.3h0.2c0.3,0,0.5,0.1,0.7,0.3c0.2,0.2,0.3,0.4,0.3,0.8c0,0.4-0.1,0.7-0.3,0.8
			c-0.2,0.2-0.4,0.3-0.7,0.3H148.4z"/>
		<path fill="#FFFFFF" d="M159.1,473.3l0.4-0.4h0.8c0.3,0,0.5,0,0.7-0.1c0.2-0.1,0.4-0.1,0.6-0.3s0.3-0.3,0.5-0.5
			c0.2-0.2,0.3-0.5,0.5-0.9l0.9-1.8l1.3,0.6l-1.2,2.2l0.3,0.2c0.5,0.3,0.9,0.5,1.4,0.6c0.4,0.1,0.9,0.2,1.3,0.2
			c0.7,0,1.2-0.2,1.5-0.5c0.3-0.3,0.5-0.9,0.5-1.6v-1.7h1.5v1.7c0,0.8,0.1,1.3,0.3,1.7s0.6,0.5,1.1,0.5h0.5c0.5,0,0.9-0.2,1.1-0.5
			c0.2-0.3,0.3-0.9,0.3-1.7v-2.6h1.5v2.6c0,1.2,0.6,1.9,1.9,1.9h0.8v1.5l-0.4,0.4c-1,0-1.7-0.2-2.3-0.5c-0.6-0.3-0.9-0.8-1.2-1.5
			h-0.1c-0.1,0.8-0.3,1.4-0.7,1.7s-0.9,0.5-1.5,0.5c-1.5,0-2.4-0.7-2.7-2.2h-0.1c-0.1,0.7-0.4,1.2-0.8,1.6c-0.4,0.4-1,0.6-1.7,0.6
			c-0.9,0-1.8-0.3-2.9-1l-0.7-0.4c-0.4,0.5-0.9,0.8-1.5,1c-0.5,0.2-1.2,0.3-2.1,0.3V473.3z"/>
		<path fill="#FFFFFF" d="M177.3,473.3l0.4-0.4h0.7c0.6,0,1.2,0,1.8-0.1s1.1-0.1,1.7-0.3c0.6-0.1,1.2-0.3,1.8-0.5
			c0.6-0.2,1.4-0.5,2.2-0.9l2-1V470l-3.3-0.7l-4.6-1.1v1.9h-1.5v-1.7c0-0.6,0.2-1.1,0.5-1.4c0.3-0.3,0.8-0.5,1.3-0.5
			c0.2,0,0.4,0,0.6,0.1c0.2,0,0.6,0.1,1.1,0.2l5.4,1.4c0.8,0.2,1.5,0.3,2,0.4c0.5,0.1,1,0.1,1.4,0.1h0.4v1.9h-1.7l-3,1.8
			c-0.9,0.5-1.7,1-2.4,1.3c-0.7,0.3-1.4,0.5-2,0.7c-0.6,0.2-1.2,0.2-1.8,0.3c-0.6,0-1.2,0.1-1.9,0.1h-1.2V473.3z"/>
		<path fill="#FFFFFF" d="M206.9,474.7c-0.7,0-1.2-0.1-1.7-0.2c-0.5-0.1-0.8-0.3-1.1-0.5c-0.3-0.3-0.5-0.6-0.6-1
			c-0.1-0.4-0.2-0.9-0.2-1.5v-0.4h-0.1c-0.2,0.7-0.6,1.2-1,1.5c-0.5,0.3-1.1,0.5-1.8,0.5c-1,0-1.7-0.3-2.3-0.8
			c-0.6-0.5-0.8-1.3-0.8-2.2c0-0.4,0.1-0.8,0.2-1.2c0.1-0.4,0.3-0.7,0.6-1.1c0.3-0.3,0.7-0.7,1.2-1c0.5-0.3,1-0.7,1.7-1.1l2.2-1.3
			v-1.1h1.5v7.9c0,0.6,0.2,1,0.5,1.2c0.3,0.2,0.8,0.3,1.4,0.3h0.8v1.5L206.9,474.7z M200.6,471.2c0.9,0,1.5-0.1,1.9-0.4
			c0.4-0.3,0.6-0.7,0.6-1.4v-3.2l-2.2,1.2c-0.8,0.4-1.3,0.8-1.7,1.2c-0.3,0.4-0.5,0.8-0.5,1.2c0,0.5,0.1,0.8,0.4,1
			C199.4,471.1,199.9,471.2,200.6,471.2z M201,461.5c-0.3,0-0.5-0.1-0.7-0.3c-0.2-0.2-0.3-0.4-0.3-0.8s0.1-0.7,0.3-0.8
			c0.2-0.2,0.4-0.3,0.7-0.3h0.2c0.3,0,0.5,0.1,0.7,0.3c0.2,0.2,0.3,0.4,0.3,0.8s-0.1,0.7-0.3,0.8c-0.2,0.2-0.4,0.3-0.7,0.3H201z
			 M203.8,461.5c-0.3,0-0.5-0.1-0.7-0.3c-0.2-0.2-0.3-0.4-0.3-0.8s0.1-0.7,0.3-0.8c0.2-0.2,0.4-0.3,0.7-0.3h0.2
			c0.3,0,0.5,0.1,0.7,0.3c0.2,0.2,0.3,0.4,0.3,0.8s-0.1,0.7-0.3,0.8c-0.2,0.2-0.4,0.3-0.7,0.3H203.8z"/>
		<path fill="#FFFFFF" d="M206.9,473.3l0.4-0.4c0.5,0,0.9,0,1.1-0.1c0.3,0,0.5-0.1,0.6-0.3c0-0.2-0.1-0.3-0.1-0.5s0-0.3,0-0.5
			c0-0.8,0.3-1.5,0.8-2.2c0.5-0.7,1.3-1.3,2.4-2l1.1-0.7h1.7l1.6,4.2c0.1,0.4,0.3,0.7,0.4,1c0.1,0.3,0.3,0.5,0.4,0.6
			c0.2,0.1,0.3,0.2,0.5,0.3c0.2,0.1,0.4,0.1,0.6,0.1h0.4v1.5l-0.4,0.4c-0.7,0-1.2-0.1-1.6-0.3c-0.4-0.2-0.8-0.6-1.1-1.2l-0.1,0v1.4
			h-2.6c-1.9,0-3.1-0.5-3.7-1.7h-0.1c-0.2,0.6-0.5,1-0.8,1.2c-0.3,0.3-0.8,0.4-1.5,0.4V473.3z M210.4,471.3c0,0.5,0.2,0.9,0.6,1.2
			c0.4,0.2,1.1,0.4,2,0.4h2.4c-0.2-0.3-0.3-0.8-0.5-1.3l-1.2-3.3l-0.8,0.5c-0.7,0.4-1.2,0.8-1.7,1.2
			C210.6,470.4,210.4,470.8,210.4,471.3z"/>
		<path fill="#FFFFFF" d="M218.4,473.3l0.4-0.4h0.8c0.3,0,0.5,0,0.7-0.1c0.2-0.1,0.4-0.1,0.6-0.3s0.3-0.3,0.5-0.5
			c0.2-0.2,0.3-0.5,0.5-0.9l0.9-1.8l1.3,0.6l-1.2,2.2l0.3,0.2c0.5,0.3,0.9,0.5,1.4,0.6c0.4,0.1,0.9,0.2,1.3,0.2
			c0.7,0,1.2-0.2,1.5-0.5c0.3-0.3,0.5-0.9,0.5-1.6v-1.7h1.5v1.7c0,0.8,0.1,1.3,0.3,1.7s0.6,0.5,1.1,0.5h0.5c0.5,0,0.9-0.2,1.1-0.5
			c0.2-0.3,0.3-0.9,0.3-1.7v-2.6h1.5v2.6c0,1.2,0.6,1.9,1.9,1.9h0.8v1.5l-0.4,0.4c-1,0-1.7-0.2-2.3-0.5c-0.6-0.3-0.9-0.8-1.2-1.5
			H233c-0.1,0.8-0.3,1.4-0.7,1.7s-0.9,0.5-1.5,0.5c-1.5,0-2.4-0.7-2.7-2.2h-0.1c-0.1,0.7-0.4,1.2-0.8,1.6c-0.4,0.4-1,0.6-1.7,0.6
			c-0.9,0-1.8-0.3-2.9-1l-0.7-0.4c-0.4,0.5-0.9,0.8-1.5,1c-0.5,0.2-1.2,0.3-2.1,0.3V473.3z"/>
		<path fill="#FFFFFF" d="M236.6,473.3l0.4-0.4h3.2l0-0.1c-0.7-0.6-1.3-1.2-1.7-1.9c-0.4-0.7-0.6-1.5-0.6-2.4c0-0.6,0.1-1.1,0.3-1.7
			c0.2-0.5,0.5-1,0.8-1.4c0.4-0.4,0.8-0.7,1.3-0.9c0.5-0.2,1-0.3,1.6-0.3c0.6,0,1.1,0.1,1.6,0.3c0.5,0.2,0.9,0.5,1.3,0.9
			c0.4,0.4,0.6,0.8,0.8,1.4c0.2,0.5,0.3,1.1,0.3,1.7c0,0.9-0.2,1.7-0.6,2.4c-0.4,0.7-1,1.3-1.7,1.9l0,0.1h3.2v1.5l-0.4,0.4H246
			c-0.7,0-1.5-0.1-2.2-0.3c-0.7-0.2-1.3-0.4-2-0.8c-0.6,0.3-1.3,0.6-2,0.8c-0.7,0.2-1.4,0.3-2.2,0.3h-1.2V473.3z M240.3,461.5
			c-0.3,0-0.5-0.1-0.7-0.3c-0.2-0.2-0.3-0.4-0.3-0.8s0.1-0.7,0.3-0.8c0.2-0.2,0.4-0.3,0.7-0.3h0.2c0.3,0,0.5,0.1,0.7,0.3
			c0.2,0.2,0.3,0.4,0.3,0.8s-0.1,0.7-0.3,0.8c-0.2,0.2-0.4,0.3-0.7,0.3H240.3z M241.9,472.2c0.7-0.4,1.3-0.9,1.8-1.5s0.7-1.2,0.7-2
			s-0.2-1.4-0.6-1.9c-0.4-0.5-1-0.7-1.7-0.7h-0.2c-0.7,0-1.3,0.2-1.7,0.7c-0.4,0.5-0.6,1.1-0.6,1.9s0.2,1.5,0.7,2
			C240.6,471.3,241.1,471.7,241.9,472.2z M243.1,461.5c-0.3,0-0.5-0.1-0.7-0.3c-0.2-0.2-0.3-0.4-0.3-0.8s0.1-0.7,0.3-0.8
			c0.2-0.2,0.4-0.3,0.7-0.3h0.2c0.3,0,0.5,0.1,0.7,0.3c0.2,0.2,0.3,0.4,0.3,0.8s-0.1,0.7-0.3,0.8c-0.2,0.2-0.4,0.3-0.7,0.3H243.1z"
			/>
		<path fill="#FFFFFF" d="M251,475.5c-0.5-0.3-0.9-0.5-1.3-0.6c-0.4-0.1-0.9-0.2-1.4-0.2h-2v-1.5l0.4-0.4h1.6v-14.4h1.6V473
			c0.3,0.1,0.6,0.2,0.9,0.3c0.3,0.1,0.6,0.3,1,0.5l1.1,0.6l-0.9,1.6L251,475.5z"/>
		<path fill="#FFFFFF" d="M253.9,458.4h1.6v16.3h-1.6V458.4z"/>
		<path fill="#FFFFFF" d="M271.6,475c-1.5,0-2.8-0.1-3.9-0.2c-1-0.2-1.9-0.4-2.5-0.8c-0.6-0.4-1.1-0.8-1.4-1.4
			c-0.3-0.6-0.4-1.3-0.4-2.1c0-0.6,0.1-1.2,0.2-1.8s0.4-1.3,0.7-2l1.4,0.4c-0.6,1.2-0.9,2.3-0.9,3.2c0,0.9,0.4,1.6,1.3,2
			s2.2,0.6,4,0.6h3.1c1,0,1.9,0,2.6-0.1c0.7-0.1,1.2-0.2,1.6-0.3s0.7-0.3,0.8-0.6s0.2-0.6,0.2-1c0-0.2,0-0.6,0-0.9
			c0-0.4-0.1-0.9-0.2-1.5l-0.3-1.8l1.5-0.2l0.3,1.8c0.1,0.7,0.2,1.2,0.2,1.6c0,0.4,0.1,0.8,0.1,1c0,0.8-0.1,1.4-0.4,1.9
			c-0.3,0.5-0.8,1-1.4,1.3c-0.7,0.3-1.5,0.6-2.6,0.7C274.4,474.9,273.1,475,271.6,475z M270,466.6c-0.3,0-0.5-0.1-0.7-0.3
			c-0.2-0.2-0.3-0.4-0.3-0.8c0-0.4,0.1-0.7,0.3-0.8c0.2-0.2,0.4-0.3,0.7-0.3h0.2c0.3,0,0.5,0.1,0.7,0.3c0.2,0.2,0.3,0.4,0.3,0.8
			c0,0.4-0.1,0.7-0.3,0.8c-0.2,0.2-0.4,0.3-0.7,0.3H270z M272.8,466.6c-0.3,0-0.5-0.1-0.7-0.3c-0.2-0.2-0.3-0.4-0.3-0.8
			c0-0.4,0.1-0.7,0.3-0.8c0.2-0.2,0.4-0.3,0.7-0.3h0.2c0.3,0,0.5,0.1,0.7,0.3c0.2,0.2,0.3,0.4,0.3,0.8c0,0.4-0.1,0.7-0.3,0.8
			c-0.2,0.2-0.4,0.3-0.7,0.3H272.8z"/>
		<path fill="#FFFFFF" d="M282.5,458.4h1.6v16.3h-1.6V458.4z"/>
		<path fill="#FFFFFF" d="M284.4,478.1h0.8c0.8,0,1.5-0.1,2-0.4c0.5-0.2,0.9-0.5,1.2-0.9c0.3-0.4,0.5-0.8,0.6-1.4
			c0.1-0.5,0.2-1.1,0.2-1.6c0-0.4,0-0.9-0.1-1.3c0-0.5-0.1-0.9-0.2-1.3l-0.4-1.9l6.6-0.9v2.6c0,0.9,0.3,1.4,0.9,1.7l1.2-2
			c0.6-1,1.1-1.8,1.7-2.4c0.6-0.6,1.2-1.1,1.7-1.5c0.6-0.4,1.2-0.7,1.8-0.8c0.6-0.2,1.2-0.2,1.9-0.2c1.4,0,2.5,0.4,3.3,1.2
			s1.2,1.9,1.2,3.2c0,1.7-0.4,2.8-1.3,3.5s-2.1,1.1-3.7,1.1h-6.8c-1.2,0-2-0.3-2.6-0.9c-0.5-0.6-0.8-1.6-0.8-2.8v-0.6l-3.2,0.4
			c0.1,0.6,0.1,1.1,0.2,1.6s0.1,1,0.1,1.4c0,0.8-0.1,1.6-0.3,2.3s-0.5,1.4-0.9,2s-1,1-1.7,1.4c-0.7,0.3-1.6,0.5-2.6,0.5h-0.8V478.1z
			 M297.5,472.7l0.1,0.1h6.3c1.1,0,1.9-0.2,2.5-0.6c0.6-0.4,0.9-1,0.9-1.9c0-0.9-0.2-1.6-0.7-2.1c-0.5-0.5-1.1-0.7-1.9-0.7H304
			c-0.6,0-1.1,0.1-1.6,0.2c-0.5,0.1-0.9,0.3-1.4,0.6c-0.4,0.3-0.9,0.6-1.3,1.1c-0.4,0.5-0.9,1.1-1.3,1.8L297.5,472.7z M303.6,463.1
			c-0.3,0-0.5-0.1-0.7-0.3c-0.2-0.2-0.3-0.4-0.3-0.8c0-0.4,0.1-0.7,0.3-0.8c0.2-0.2,0.4-0.3,0.7-0.3h0.2c0.3,0,0.5,0.1,0.7,0.3
			c0.2,0.2,0.3,0.4,0.3,0.8c0,0.4-0.1,0.7-0.3,0.8c-0.2,0.2-0.4,0.3-0.7,0.3H303.6z"/>
		<path fill="#FFFFFF" d="M315.3,474.7c-0.7,0-1.3-0.1-1.8-0.2c-0.5-0.1-0.9-0.3-1.2-0.6c-0.3-0.3-0.5-0.6-0.6-1.1
			c-0.1-0.4-0.2-1-0.2-1.6v-12.8h1.6v12.8c0,0.6,0.2,1,0.5,1.2c0.3,0.2,0.8,0.4,1.4,0.4h0.8v1.5L315.3,474.7L315.3,474.7z"/>
		<path fill="#FFFFFF" d="M315.3,473.3l0.4-0.4h0.7c0.6,0,1.2,0,1.8-0.1s1.1-0.1,1.7-0.3c0.6-0.1,1.2-0.3,1.8-0.5
			c0.6-0.2,1.4-0.5,2.2-0.9l2-1V470l-3.3-0.7l-4.6-1.1v1.9h-1.5v-1.7c0-0.6,0.2-1.1,0.5-1.4c0.3-0.3,0.8-0.5,1.3-0.5
			c0.2,0,0.4,0,0.6,0.1c0.2,0,0.6,0.1,1.1,0.2l5.4,1.4c0.8,0.2,1.5,0.3,2,0.4c0.5,0.1,1,0.1,1.4,0.1h0.4v1.9h-1.7v0.3
			c0,0.7,0.2,1.2,0.5,1.5c0.3,0.3,0.8,0.4,1.5,0.4h0.8v1.5l-0.4,0.4c-0.6,0-1.2-0.1-1.6-0.2c-0.5-0.1-0.8-0.3-1.1-0.6
			s-0.5-0.6-0.6-1c-0.1-0.4-0.2-0.9-0.2-1.6l-1.7,1c-0.9,0.5-1.7,1-2.4,1.3c-0.7,0.3-1.4,0.5-2,0.7c-0.6,0.2-1.2,0.2-1.8,0.3
			c-0.6,0-1.2,0.1-1.9,0.1h-1.2V473.3z"/>
		<path fill="#FFFFFF" d="M334.6,475.5c-0.5-0.3-0.9-0.5-1.3-0.6c-0.4-0.1-0.9-0.2-1.4-0.2h-2v-1.5l0.4-0.4h1.6v-14.4h1.6V473
			c0.3,0.1,0.6,0.2,0.9,0.3c0.3,0.1,0.6,0.3,1,0.5l1.1,0.6l-0.9,1.6L334.6,475.5z"/>
		<path fill="#FFFFFF" d="M337.5,458.4h1.6v16.3h-1.6V458.4z"/>
		<path fill="#FFFFFF" d="M341.5,478.1h1.5c1.8,0,3.1-0.4,3.9-1.2c0.9-0.8,1.3-1.9,1.3-3.3v-0.5h-0.1c-0.2,0.5-0.5,0.9-1,1.1
			c-0.5,0.3-1,0.4-1.7,0.4c-1.2,0-2.1-0.3-2.7-0.9c-0.6-0.6-1-1.5-1-2.6c0-0.7,0.1-1.3,0.3-1.9s0.5-1.1,0.8-1.5
			c0.4-0.4,0.8-0.8,1.3-1c0.5-0.3,1-0.4,1.6-0.4c1.3,0,2.3,0.5,3,1.6c0.7,1.1,1.1,2.6,1.1,4.6c0,2.3-0.6,4.2-1.7,5.5
			c-1.1,1.3-2.8,2-5.1,2h-1.5V478.1z M345.9,472.8c0.6,0,1.1-0.1,1.5-0.2c0.4-0.1,0.7-0.3,0.9-0.5c0-1.2-0.2-2.1-0.7-2.8
			c-0.5-0.7-1.1-1-1.9-1c-0.7,0-1.3,0.2-1.7,0.7c-0.4,0.5-0.6,1.2-0.6,2c0,0.6,0.2,1.1,0.5,1.4c0.3,0.3,0.9,0.4,1.6,0.4H345.9z"/>
		<path fill="#FFFFFF" d="M302.5,506.4c0-0.9,0.1-1.6,0.2-2.2c0.1-0.6,0.3-1.2,0.6-1.6c0.3-0.5,0.7-0.9,1.2-1.3
			c0.5-0.4,1.2-0.8,2-1.2l3.1-1.5h1.7l1.6,4.2c0.1,0.4,0.3,0.7,0.4,1c0.1,0.3,0.3,0.5,0.4,0.6c0.1,0.1,0.3,0.2,0.5,0.3
			c0.2,0.1,0.4,0.1,0.6,0.1h0.4v1.5l-0.4,0.4c-0.7,0-1.2-0.1-1.6-0.3c-0.4-0.2-0.8-0.6-1.1-1.2l-0.1,0v1.4h-2.6
			c-1.2,0-2.1-0.2-2.8-0.7c-0.7-0.5-1-1.1-1-2c0-0.8,0.3-1.4,0.9-1.9l-0.1-0.1l-0.7,0.4c-0.3,0.2-0.6,0.4-0.8,0.6
			c-0.2,0.2-0.4,0.5-0.5,0.7c-0.1,0.3-0.2,0.6-0.3,1.1c-0.1,0.4-0.1,0.9-0.1,1.5v7h-1.6V506.4z M307,503.3c0,0.5,0.2,0.9,0.6,1.2
			c0.4,0.2,1.1,0.4,2,0.4h2.4c-0.2-0.3-0.3-0.8-0.5-1.3l-1.2-3.1l-0.9,0.4c-0.5,0.2-0.9,0.4-1.2,0.6c-0.3,0.2-0.6,0.4-0.7,0.6
			c-0.2,0.2-0.3,0.4-0.4,0.6C307,502.8,307,503,307,503.3z"/>
		<path fill="#FFFFFF" d="M315,505.3l0.4-0.4h2c0.7,0,1.3-0.1,1.6-0.2c0.3-0.2,0.5-0.4,0.5-0.8c0-0.1,0-0.2-0.1-0.4
			c0-0.1-0.1-0.3-0.2-0.4c-0.1-0.2-0.2-0.3-0.4-0.5c-0.1-0.2-0.3-0.5-0.6-0.7l-2.7-3.3v-3.8l9.5-4.4v2l-8.7,4v0.1l4.9,6.1
			c0.4,0.5,0.7,0.9,1,1.2c0.3,0.3,0.6,0.5,0.9,0.7c0.3,0.2,0.6,0.3,1,0.4c0.3,0.1,0.7,0.1,1.1,0.1v1.5l-0.4,0.4c-0.5,0-1,0-1.4-0.1
			c-0.4-0.1-0.7-0.2-1.1-0.4s-0.6-0.5-1-0.8c-0.3-0.3-0.6-0.8-1-1.3l-0.4-0.5l-0.1,0c0,0.1,0,0.2,0,0.3c0,0.1,0,0.2,0,0.3
			c0,0.8-0.2,1.4-0.7,1.8c-0.5,0.4-1.1,0.7-1.9,0.7H315V505.3z"/>
		<path fill="#FFFFFF" d="M324.9,505.3l0.4-0.4h0.7c0.6,0,1.2,0,1.8-0.1s1.1-0.1,1.7-0.3c0.6-0.1,1.2-0.3,1.8-0.5
			c0.6-0.2,1.4-0.5,2.2-0.9l2-1V502l-3.3-0.7l-4.6-1.1v1.9h-1.5v-1.7c0-0.6,0.2-1.1,0.5-1.4c0.3-0.3,0.8-0.5,1.3-0.5
			c0.2,0,0.4,0,0.6,0.1c0.2,0,0.6,0.1,1.1,0.2l5.4,1.4c0.8,0.2,1.5,0.3,2,0.4c0.5,0.1,1,0.1,1.4,0.1h0.4v1.9h-1.7v0.3
			c0,0.7,0.2,1.2,0.5,1.5c0.3,0.3,0.8,0.4,1.5,0.4h0.8v1.5l-0.4,0.4c-0.6,0-1.2-0.1-1.6-0.2c-0.5-0.1-0.8-0.3-1.1-0.6
			s-0.5-0.6-0.6-1c-0.1-0.4-0.2-0.9-0.2-1.6l-1.7,1c-0.9,0.5-1.7,1-2.4,1.3c-0.7,0.3-1.4,0.5-2,0.7c-0.6,0.2-1.2,0.2-1.8,0.3
			c-0.6,0-1.2,0.1-1.9,0.1h-1.2V505.3z"/>
		<path fill="#FFFFFF" d="M339.5,505.3l0.4-0.4h0.6c0.7,0,1.2-0.2,1.5-0.5c0.3-0.3,0.5-0.8,0.5-1.5v-12.4h1.6v12.4
			c0,1.3-0.3,2.3-0.9,3c-0.6,0.6-1.5,0.9-2.8,0.9h-1.1V505.3z"/>
		<path fill="#FFFFFF" d="M347.5,490.4h1.6v16.3h-1.6V490.4z"/>
		<path fill="#FFFFFF" d="M300.5,544c-2.1,0-3.8-0.5-5-1.5s-1.8-2.3-1.8-4c0-0.7,0.1-1.4,0.3-2.1c0.2-0.8,0.4-1.5,0.8-2.3l1.4,0.4
			c-0.3,0.6-0.5,1.2-0.7,1.8c-0.2,0.6-0.3,1.2-0.3,1.8c0,1.2,0.4,2.2,1.2,2.9s2,1,3.4,1h1.3c0.9,0,1.7-0.1,2.4-0.3
			c0.7-0.2,1.3-0.4,1.7-0.7c0.5-0.3,0.8-0.6,1.1-1c0.2-0.4,0.4-0.7,0.4-1.1v0l-4.8-1.1V536h0.9c0.9,0,1.5-0.1,1.9-0.4
			c0.4-0.3,0.6-0.7,0.6-1.5c0-0.3,0-0.6-0.1-1c0-0.4-0.1-1-0.2-1.6l-0.3-1.8l1.5-0.2l0.3,1.8c0.1,0.7,0.2,1.3,0.2,1.8
			c0,0.5,0.1,0.8,0.1,1.1c0,1.2-0.4,2.1-1.3,2.6v0.1l1.2,0.3c0.9,0.2,1.3,0.8,1.3,1.7c0,0.7-0.2,1.3-0.5,2c-0.3,0.6-0.8,1.2-1.5,1.6
			c-0.7,0.5-1.5,0.8-2.4,1.1S301.7,544,300.5,544z M298.9,548.4c-0.3,0-0.5-0.1-0.7-0.3c-0.2-0.2-0.3-0.4-0.3-0.8
			c0-0.4,0.1-0.7,0.3-0.8c0.2-0.2,0.4-0.3,0.7-0.3h0.2c0.3,0,0.5,0.1,0.7,0.3c0.2,0.2,0.3,0.4,0.3,0.8c0,0.4-0.1,0.7-0.3,0.8
			s-0.4,0.3-0.7,0.3H298.9z M301.8,548.4c-0.3,0-0.5-0.1-0.7-0.3s-0.3-0.4-0.3-0.8c0-0.4,0.1-0.7,0.3-0.8c0.2-0.2,0.4-0.3,0.7-0.3
			h0.2c0.3,0,0.5,0.1,0.7,0.3c0.2,0.2,0.3,0.4,0.3,0.8c0,0.4-0.1,0.7-0.3,0.8s-0.4,0.3-0.7,0.3H301.8z M305.2,526.8
			c-0.3,0-0.5-0.1-0.7-0.3c-0.2-0.2-0.3-0.4-0.3-0.8c0-0.4,0.1-0.7,0.3-0.8s0.4-0.3,0.7-0.3h0.2c0.3,0,0.5,0.1,0.7,0.3
			s0.3,0.4,0.3,0.8c0,0.4-0.1,0.7-0.3,0.8c-0.2,0.2-0.4,0.3-0.7,0.3H305.2z"/>
		<path fill="#FFFFFF" d="M309.6,542.1h1.2c1.6,0,2.8-0.3,3.7-0.9c0.9-0.6,1.4-1.4,1.6-2.5h-2.6c-1.2,0-2.1-0.3-2.7-0.9
			c-0.6-0.6-1-1.5-1-2.6c0-0.7,0.1-1.3,0.3-1.9s0.5-1.1,0.8-1.5c0.4-0.4,0.8-0.8,1.3-1c0.5-0.3,1-0.4,1.6-0.4c1.2,0,2.2,0.5,2.9,1.6
			c0.7,1.1,1,2.6,1,4.6v0.2h1v1.5l-0.4,0.4h-0.8c-0.3,1.7-1,3-2.2,3.9c-1.1,0.9-2.7,1.4-4.6,1.4h-1.2V542.1z M311.3,535
			c0,0.6,0.2,1.1,0.5,1.4c0.3,0.3,0.9,0.4,1.6,0.4h2.7v-0.7c0-1.2-0.2-2.1-0.7-2.8c-0.4-0.7-1.1-1-1.8-1c-0.7,0-1.3,0.2-1.7,0.7
			C311.5,533.5,311.3,534.2,311.3,535z"/>
		<path fill="#FFFFFF" d="M318.3,537.3l0.4-0.4h0.3c1,0,1.7-0.1,2.1-0.4s0.6-0.7,0.6-1.4c0-0.3,0-0.6-0.1-1c0-0.4-0.1-1-0.2-1.6
			l-0.3-1.8l1.5-0.2l0.3,1.8c0.1,0.7,0.2,1.3,0.2,1.8c0,0.5,0.1,0.8,0.1,1.1c0,1.2-0.4,2.1-1.1,2.8c-0.7,0.6-1.8,0.9-3.2,0.9h-0.8
			V537.3z M321.6,527.7c-0.3,0-0.5-0.1-0.7-0.3s-0.3-0.4-0.3-0.8c0-0.4,0.1-0.7,0.3-0.8c0.2-0.2,0.4-0.3,0.7-0.3h0.2
			c0.3,0,0.5,0.1,0.7,0.3c0.2,0.2,0.3,0.4,0.3,0.8c0,0.4-0.1,0.7-0.3,0.8c-0.2,0.2-0.4,0.3-0.7,0.3H321.6z"/>
		<path fill="#FFFFFF" d="M329.8,538.7c-0.7,0-1.3-0.1-1.8-0.2c-0.5-0.1-0.9-0.3-1.2-0.6c-0.3-0.3-0.5-0.6-0.6-1.1
			c-0.1-0.4-0.2-1-0.2-1.6v-12.8h1.6v12.8c0,0.6,0.2,1,0.5,1.2c0.3,0.2,0.8,0.4,1.4,0.4h0.8v1.5L329.8,538.7L329.8,538.7z"/>
		<path fill="#FFFFFF" d="M329.8,537.3l0.4-0.4h3.2l0-0.1c-0.7-0.6-1.3-1.2-1.7-1.9c-0.4-0.7-0.6-1.5-0.6-2.4c0-0.6,0.1-1.1,0.3-1.7
			c0.2-0.5,0.5-1,0.8-1.4c0.4-0.4,0.8-0.7,1.3-0.9c0.5-0.2,1-0.3,1.6-0.3c0.6,0,1.1,0.1,1.6,0.3c0.5,0.2,0.9,0.5,1.3,0.9
			c0.4,0.4,0.6,0.8,0.8,1.4c0.2,0.5,0.3,1.1,0.3,1.7c0,0.9-0.2,1.7-0.6,2.4c-0.4,0.7-1,1.3-1.7,1.9l0,0.1h3.2v1.5l-0.4,0.4h-0.3
			c-0.7,0-1.5-0.1-2.2-0.3c-0.7-0.2-1.3-0.4-2-0.8c-0.6,0.3-1.3,0.6-2,0.8c-0.7,0.2-1.4,0.3-2.2,0.3h-1.2V537.3z M333.5,525.5
			c-0.3,0-0.5-0.1-0.7-0.3c-0.2-0.2-0.3-0.4-0.3-0.8s0.1-0.7,0.3-0.8c0.2-0.2,0.4-0.3,0.7-0.3h0.2c0.3,0,0.5,0.1,0.7,0.3
			c0.2,0.2,0.3,0.4,0.3,0.8s-0.1,0.7-0.3,0.8c-0.2,0.2-0.4,0.3-0.7,0.3H333.5z M335.1,536.2c0.7-0.4,1.3-0.9,1.8-1.5s0.7-1.2,0.7-2
			s-0.2-1.4-0.6-1.9c-0.4-0.5-1-0.7-1.7-0.7H335c-0.7,0-1.3,0.2-1.7,0.7c-0.4,0.5-0.6,1.1-0.6,1.9s0.2,1.5,0.7,2
			C333.7,535.3,334.3,535.7,335.1,536.2z M336.3,525.5c-0.3,0-0.5-0.1-0.7-0.3c-0.2-0.2-0.3-0.4-0.3-0.8s0.1-0.7,0.3-0.8
			c0.2-0.2,0.4-0.3,0.7-0.3h0.2c0.3,0,0.5,0.1,0.7,0.3c0.2,0.2,0.3,0.4,0.3,0.8s-0.1,0.7-0.3,0.8c-0.2,0.2-0.4,0.3-0.7,0.3H336.3z"
			/>
		<path fill="#FFFFFF" d="M339.5,537.3l0.4-0.4h0.6c0.7,0,1.2-0.2,1.5-0.5c0.3-0.3,0.5-0.8,0.5-1.5v-12.4h1.6v12.4
			c0,1.3-0.3,2.3-0.9,3c-0.6,0.6-1.5,0.9-2.8,0.9h-1.1V537.3z"/>
		<path fill="#FFFFFF" d="M347.5,522.4h1.6v16.3h-1.6V522.4z"/>
	</g>
	<g>
		<path fill="#FFFFFF" d="M384.6,414.1h0.8c0.8,0,1.5-0.1,2-0.4c0.5-0.2,0.9-0.5,1.2-0.9c0.3-0.4,0.5-0.8,0.6-1.4
			c0.1-0.5,0.2-1.1,0.2-1.6c0-0.4,0-0.9-0.1-1.3c0-0.5-0.1-0.9-0.2-1.3l-0.5-2.5l1.5-0.3l0.3,1.7c0.2,1.3,0.4,2.6,0.4,3.8
			c0,0.8-0.1,1.6-0.3,2.3s-0.5,1.4-0.9,2s-1,1-1.7,1.4c-0.7,0.3-1.6,0.5-2.6,0.5h-0.8V414.1z"/>
		<path fill="#FFFFFF" d="M394.2,410.7c-0.5,0-1-0.2-1.3-0.5c-0.3-0.3-0.5-0.8-0.5-1.4v-1.7h1.5v1.7h3.6c0.4,0,0.7,0,1-0.1
			c0.3-0.1,0.5-0.2,0.6-0.4s0.3-0.3,0.3-0.5c0.1-0.2,0.1-0.4,0.1-0.6c0-0.5-0.2-1-0.5-1.5c-0.3-0.5-0.9-1.2-1.6-1.9l-2.3-2.5
			l1.4-1.4l2.2,2.5c0.4,0.5,0.8,1,1.1,1.4c0.3,0.4,0.5,0.8,0.7,1.2c0.2,0.4,0.3,0.8,0.4,1.2c0.1,0.4,0.1,0.8,0.1,1.2
			c0,1.1-0.3,1.9-1,2.5s-1.6,0.9-2.8,0.9H394.2z"/>
		<path fill="#FFFFFF" d="M407.5,410.7c-0.7,0-1.3-0.1-1.8-0.2c-0.5-0.1-0.9-0.3-1.2-0.6c-0.3-0.3-0.5-0.6-0.6-1.1
			c-0.1-0.4-0.2-1-0.2-1.6v-12.8h1.6v12.8c0,0.6,0.2,1,0.5,1.2c0.3,0.2,0.8,0.4,1.4,0.4h0.8v1.5L407.5,410.7L407.5,410.7z"/>
		<path fill="#FFFFFF" d="M426.5,410.7c-0.6,0-1,0-1.4-0.1c-0.4-0.1-0.7-0.3-1-0.6c-0.8,0.5-1.8,0.7-3.2,0.7h-6.5
			c-2,0-3.2-0.7-3.6-2.2h-0.1c-0.2,0.8-0.5,1.4-0.9,1.7c-0.5,0.3-1.2,0.5-2.2,0.5v-1.5l0.4-0.4h0.8c1.2,0,1.9-0.6,1.9-1.9v-1.7h1.5
			v1.7c0,0.9,0.3,1.4,0.9,1.7l1.2-2c0.6-1,1.1-1.8,1.7-2.4c0.6-0.6,1.2-1.1,1.7-1.5c0.6-0.4,1.2-0.7,1.8-0.8
			c0.6-0.2,1.2-0.2,1.9-0.2c1.4,0,2.5,0.4,3.3,1.2s1.2,1.9,1.2,3.2c0,1-0.2,1.9-0.5,2.6c0.3,0.1,0.7,0.2,1.2,0.2h0.4v1.5
			L426.5,410.7z M420.9,408.8c1.1,0,1.9-0.2,2.5-0.6c0.6-0.4,0.9-1,0.9-1.9c0-0.9-0.2-1.6-0.7-2.1c-0.5-0.5-1.1-0.7-1.9-0.7H421
			c-0.6,0-1.1,0.1-1.6,0.2c-0.5,0.1-0.9,0.3-1.4,0.6c-0.4,0.3-0.9,0.6-1.3,1.1s-0.9,1.1-1.3,1.8l-0.9,1.5l0.1,0.1H420.9z"/>
		<path fill="#FFFFFF" d="M431.2,411.5c-0.5-0.3-0.9-0.5-1.3-0.6c-0.4-0.1-0.9-0.2-1.4-0.2h-2v-1.5l0.4-0.4h1.6v-14.4h1.6V409
			c0.3,0.1,0.6,0.2,0.9,0.3c0.3,0.1,0.6,0.3,1,0.5l1.1,0.6l-0.9,1.6L431.2,411.5z"/>
		<path fill="#FFFFFF" d="M434.1,394.4h1.6v16.3h-1.6V394.4z"/>
		<path fill="#FFFFFF" d="M450.2,416c-2.1,0-3.8-0.5-5-1.5s-1.8-2.3-1.8-4c0-0.7,0.1-1.4,0.3-2.1c0.2-0.8,0.4-1.5,0.8-2.3l1.4,0.4
			c-0.3,0.6-0.5,1.2-0.7,1.8c-0.2,0.6-0.3,1.2-0.3,1.8c0,1.2,0.4,2.2,1.2,2.9s2,1,3.4,1h1.3c0.9,0,1.7-0.1,2.4-0.3
			c0.7-0.2,1.3-0.4,1.7-0.7c0.5-0.3,0.8-0.6,1.1-1c0.2-0.4,0.4-0.7,0.4-1.1v0l-4.8-1.1V408h0.9c0.6,0,1.2-0.1,1.6-0.2
			s0.8-0.3,1.1-0.5c0.3-0.2,0.5-0.5,0.6-0.9c0.1-0.4,0.2-0.8,0.2-1.4v-0.7h-0.1c-0.2,0.5-0.5,0.9-1,1.1c-0.5,0.3-1,0.4-1.7,0.4
			c-1.2,0-2.1-0.3-2.7-0.9c-0.6-0.6-1-1.5-1-2.6c0-0.6,0.1-1.3,0.3-1.8c0.2-0.6,0.5-1.1,0.8-1.5s0.8-0.8,1.3-1
			c0.5-0.2,1-0.4,1.6-0.4c1.3,0,2.3,0.5,3,1.6c0.7,1.1,1.1,2.6,1.1,4.6c0,1.3-0.2,2.3-0.5,3.1c-0.3,0.8-0.9,1.4-1.8,1.7v0.1l1.2,0.3
			c0.9,0.2,1.3,0.8,1.3,1.7c0,0.7-0.2,1.3-0.5,2c-0.3,0.6-0.8,1.2-1.5,1.6c-0.7,0.5-1.5,0.8-2.4,1.1S451.4,416,450.2,416z
			 M448.6,420.4c-0.3,0-0.5-0.1-0.7-0.3c-0.2-0.2-0.3-0.4-0.3-0.8c0-0.4,0.1-0.7,0.3-0.8c0.2-0.2,0.4-0.3,0.7-0.3h0.2
			c0.3,0,0.5,0.1,0.7,0.3c0.2,0.2,0.3,0.4,0.3,0.8c0,0.4-0.1,0.7-0.3,0.8s-0.4,0.3-0.7,0.3H448.6z M451.5,420.4
			c-0.3,0-0.5-0.1-0.7-0.3s-0.3-0.4-0.3-0.8c0-0.4,0.1-0.7,0.3-0.8c0.2-0.2,0.4-0.3,0.7-0.3h0.2c0.3,0,0.5,0.1,0.7,0.3
			c0.2,0.2,0.3,0.4,0.3,0.8c0,0.4-0.1,0.7-0.3,0.8s-0.4,0.3-0.7,0.3H451.5z M453.6,404c0.6,0,1.1-0.1,1.5-0.2s0.7-0.3,0.9-0.5
			c0-1.1-0.3-2-0.7-2.7c-0.5-0.7-1.1-1-1.9-1c-0.7,0-1.3,0.2-1.7,0.7c-0.4,0.5-0.6,1.1-0.6,1.9c0,0.6,0.2,1.1,0.5,1.3
			c0.3,0.3,0.9,0.4,1.6,0.4H453.6z M453.4,395.1c-0.3,0-0.5-0.1-0.7-0.3c-0.2-0.2-0.3-0.4-0.3-0.8c0-0.4,0.1-0.7,0.3-0.8
			c0.2-0.2,0.4-0.3,0.7-0.3h0.2c0.3,0,0.5,0.1,0.7,0.3c0.2,0.2,0.3,0.4,0.3,0.8c0,0.4-0.1,0.7-0.3,0.8c-0.2,0.2-0.4,0.3-0.7,0.3
			H453.4z"/>
		<path fill="#FFFFFF" d="M472.9,411c-1.5,0-2.8-0.1-3.9-0.2c-1-0.2-1.9-0.4-2.5-0.8c-0.6-0.4-1.1-0.8-1.4-1.4
			c-0.3-0.6-0.4-1.3-0.4-2.1c0-0.6,0.1-1.2,0.2-1.8s0.4-1.3,0.7-2l1.4,0.4c-0.6,1.2-0.9,2.3-0.9,3.2c0,0.9,0.4,1.6,1.3,2
			s2.2,0.6,4,0.6h3.1c1,0,1.9,0,2.6-0.1c0.7-0.1,1.2-0.2,1.6-0.3s0.7-0.3,0.8-0.6s0.2-0.6,0.2-1c0-0.2,0-0.6,0-0.9
			c0-0.4-0.1-0.9-0.2-1.5l-0.3-1.8l1.5-0.2l0.3,1.8c0.1,0.7,0.2,1.2,0.2,1.6c0,0.4,0.1,0.8,0.1,1c0,0.8-0.1,1.4-0.4,1.9
			c-0.3,0.5-0.8,1-1.4,1.3c-0.7,0.3-1.5,0.6-2.6,0.7C475.7,410.9,474.5,411,472.9,411z M471.3,402.6c-0.3,0-0.5-0.1-0.7-0.3
			c-0.2-0.2-0.3-0.4-0.3-0.8c0-0.4,0.1-0.7,0.3-0.8c0.2-0.2,0.4-0.3,0.7-0.3h0.2c0.3,0,0.5,0.1,0.7,0.3c0.2,0.2,0.3,0.4,0.3,0.8
			c0,0.4-0.1,0.7-0.3,0.8c-0.2,0.2-0.4,0.3-0.7,0.3H471.3z M474.1,402.6c-0.3,0-0.5-0.1-0.7-0.3c-0.2-0.2-0.3-0.4-0.3-0.8
			c0-0.4,0.1-0.7,0.3-0.8c0.2-0.2,0.4-0.3,0.7-0.3h0.2c0.3,0,0.5,0.1,0.7,0.3c0.2,0.2,0.3,0.4,0.3,0.8c0,0.4-0.1,0.7-0.3,0.8
			c-0.2,0.2-0.4,0.3-0.7,0.3H474.1z"/>
		<path fill="#FFFFFF" d="M487.7,410.7c-0.7,0-1.3-0.1-1.8-0.2c-0.5-0.1-0.9-0.3-1.2-0.6c-0.3-0.3-0.5-0.6-0.6-1.1
			c-0.1-0.4-0.2-1-0.2-1.6v-12.8h1.6v12.8c0,0.6,0.2,1,0.5,1.2c0.3,0.2,0.8,0.4,1.4,0.4h0.8v1.5L487.7,410.7L487.7,410.7z"/>
		<path fill="#FFFFFF" d="M487.7,409.3l0.4-0.4h0.8c0.3,0,0.5,0,0.7-0.1c0.2-0.1,0.4-0.1,0.6-0.3s0.3-0.3,0.5-0.5
			c0.2-0.2,0.3-0.5,0.5-0.9l0.9-1.8l1.3,0.6l-1.2,2.2l0.3,0.2c0.5,0.3,0.9,0.5,1.4,0.6c0.4,0.1,0.9,0.2,1.3,0.2
			c0.7,0,1.2-0.2,1.5-0.5c0.3-0.3,0.5-0.9,0.5-1.6v-1.7h1.5v1.7c0,0.8,0.1,1.3,0.3,1.7s0.6,0.5,1.1,0.5h0.4c0.9,0,1.4-0.5,1.4-1.4
			c0-0.2,0-0.5,0-0.9s-0.1-0.8-0.1-1.2l-0.2-1.2l1.5-0.2l0.2,1.2c0.1,0.5,0.1,0.9,0.1,1.3c0,0.4,0,0.8,0,1.1c0,1-0.3,1.8-0.8,2.4
			c-0.5,0.6-1.3,0.9-2.3,0.9c-1.7,0-2.7-0.7-3-2.2h-0.1c-0.1,0.7-0.4,1.2-0.8,1.6c-0.4,0.4-1,0.6-1.6,0.6c-0.9,0-1.9-0.3-2.9-1
			l-0.7-0.4c-0.4,0.5-0.9,0.8-1.5,1c-0.5,0.2-1.2,0.3-2.1,0.3V409.3z"/>
		<path fill="#FFFFFF" d="M510.1,410.7c-0.7,0-1.3-0.1-1.8-0.2c-0.5-0.1-0.9-0.3-1.2-0.6c-0.3-0.3-0.5-0.6-0.6-1.1
			c-0.1-0.4-0.2-1-0.2-1.6v-12.8h1.6v12.8c0,0.6,0.2,1,0.5,1.2c0.3,0.2,0.8,0.4,1.4,0.4h0.8v1.5L510.1,410.7L510.1,410.7z"/>
		<path fill="#FFFFFF" d="M510.1,409.3l0.4-0.4h0.8c1.2,0,1.9-0.6,1.9-1.9v-3.5h1.5v3.5c0,1.2,0.6,1.9,1.9,1.9h0.8v1.5l-0.4,0.4
			c-2,0-3.2-0.7-3.6-2.2h-0.1c-0.2,0.8-0.5,1.4-0.9,1.7c-0.5,0.3-1.2,0.5-2.2,0.5V409.3z M513.8,415.1c-0.3,0-0.5-0.1-0.7-0.3
			c-0.2-0.2-0.3-0.4-0.3-0.8c0-0.4,0.1-0.7,0.3-0.8c0.2-0.2,0.4-0.3,0.7-0.3h0.2c0.3,0,0.5,0.1,0.7,0.3c0.2,0.2,0.3,0.4,0.3,0.8
			c0,0.4-0.1,0.7-0.3,0.8c-0.2,0.2-0.4,0.3-0.7,0.3H513.8z"/>
		<path fill="#FFFFFF" d="M516.9,409.3l0.4-0.4h0.8c1.2,0,1.9-0.6,1.9-1.9v-3.5h1.5v3.5c0,1.2,0.6,1.9,1.9,1.9h0.8v1.5l-0.4,0.4
			c-2,0-3.2-0.7-3.6-2.2h-0.1c-0.2,0.8-0.5,1.4-0.9,1.7c-0.5,0.3-1.2,0.5-2.2,0.5V409.3z M519.2,400.8c-0.3,0-0.5-0.1-0.7-0.3
			c-0.2-0.2-0.3-0.4-0.3-0.8c0-0.4,0.1-0.7,0.3-0.8c0.2-0.2,0.4-0.3,0.7-0.3h0.2c0.3,0,0.5,0.1,0.7,0.3c0.2,0.2,0.3,0.4,0.3,0.8
			c0,0.4-0.1,0.7-0.3,0.8s-0.4,0.3-0.7,0.3H519.2z M522,400.8c-0.3,0-0.5-0.1-0.7-0.3s-0.3-0.4-0.3-0.8c0-0.4,0.1-0.7,0.3-0.8
			c0.2-0.2,0.4-0.3,0.7-0.3h0.2c0.3,0,0.5,0.1,0.7,0.3c0.2,0.2,0.3,0.4,0.3,0.8c0,0.4-0.1,0.7-0.3,0.8c-0.2,0.2-0.4,0.3-0.7,0.3H522
			z"/>
		<path fill="#FFFFFF" d="M523.7,409.3l0.4-0.4h4.2c0.6,0,1.1-0.1,1.5-0.2c0.4-0.1,0.7-0.3,1-0.5c0.3-0.2,0.4-0.5,0.6-0.9
			c0.1-0.4,0.2-0.8,0.2-1.4v-0.7h-0.1c-0.2,0.5-0.5,0.9-1,1.1c-0.5,0.3-1,0.4-1.7,0.4c-1.2,0-2.1-0.3-2.7-0.9c-0.6-0.6-1-1.5-1-2.6
			c0-0.6,0.1-1.3,0.3-1.8c0.2-0.6,0.5-1.1,0.8-1.5s0.8-0.8,1.3-1c0.5-0.2,1-0.4,1.6-0.4c1.3,0,2.3,0.5,3,1.6
			c0.7,1.1,1.1,2.6,1.1,4.6c0,1.1-0.1,2-0.2,2.8c-0.2,0.8-0.4,1.4-0.8,1.8c-0.4,0.5-0.9,0.8-1.5,1c-0.6,0.2-1.4,0.3-2.3,0.3h-4.6
			V409.3z M527.5,395.9c-0.3,0-0.5-0.1-0.7-0.3c-0.2-0.2-0.3-0.4-0.3-0.8c0-0.4,0.1-0.7,0.3-0.8c0.2-0.2,0.4-0.3,0.7-0.3h0.2
			c0.3,0,0.5,0.1,0.7,0.3c0.2,0.2,0.3,0.4,0.3,0.8c0,0.4-0.1,0.7-0.3,0.8c-0.2,0.2-0.4,0.3-0.7,0.3H527.5z M529.2,404.8
			c0.6,0,1.1-0.1,1.5-0.2s0.7-0.3,0.9-0.5c0-1.1-0.3-2-0.7-2.7c-0.5-0.7-1.1-1-1.9-1c-0.7,0-1.3,0.2-1.7,0.7
			c-0.4,0.5-0.6,1.1-0.6,1.9c0,0.6,0.2,1.1,0.5,1.3c0.3,0.3,0.9,0.4,1.6,0.4H529.2z M530.3,395.9c-0.3,0-0.5-0.1-0.7-0.3
			c-0.2-0.2-0.3-0.4-0.3-0.8c0-0.4,0.1-0.7,0.3-0.8c0.2-0.2,0.4-0.3,0.7-0.3h0.2c0.3,0,0.5,0.1,0.7,0.3c0.2,0.2,0.3,0.4,0.3,0.8
			c0,0.4-0.1,0.7-0.3,0.8c-0.2,0.2-0.4,0.3-0.7,0.3H530.3z"/>
		<path fill="#FFFFFF" d="M535.6,408.9l4.1-4l-5.7-6.4l1.2-1l5.6,6.4l0.1-0.1c0.3-0.3,0.5-0.5,0.7-0.8c0.2-0.2,0.3-0.5,0.5-0.8
			c0.1-0.3,0.2-0.6,0.2-0.9s0.1-0.7,0.1-1.1v-5.7h1.6v5.7c0,0.5,0,1-0.1,1.4c-0.1,0.4-0.2,0.8-0.3,1.1c-0.1,0.3-0.3,0.7-0.6,1
			c-0.3,0.3-0.6,0.7-1,1.1l-0.2,0.2l1.3,1.5c0.5,0.6,0.8,1,1,1.4c0.2,0.4,0.3,0.7,0.3,1c0,0.5-0.2,0.9-0.5,1.3
			c-0.3,0.4-0.9,0.6-1.6,0.6h-6.8V408.9z M540.7,406l-2.9,2.7l0,0.1h5.3L540.7,406z"/>
		<path fill="#FFFFFF" d="M547.1,394.4h1.6v16.3h-1.6V394.4z"/>
		<path fill="#FFFFFF" d="M554.3,414.1h0.8c0.8,0,1.5-0.1,2-0.4c0.5-0.2,0.9-0.5,1.2-0.9c0.3-0.4,0.5-0.8,0.6-1.4
			c0.1-0.5,0.2-1.1,0.2-1.6c0-0.4,0-0.9-0.1-1.3c0-0.5-0.1-0.9-0.2-1.3l-0.5-2.5l1.5-0.3l0.3,1.6l3.9-0.7v-1.8h1.5v3.8
			c0,0.6,0.2,1,0.5,1.2c0.3,0.2,0.8,0.4,1.4,0.4h0.8v1.5l-0.4,0.4h0c-0.7,0-1.2-0.1-1.7-0.2c-0.5-0.1-0.9-0.3-1.2-0.6
			c-0.3-0.3-0.5-0.6-0.6-1.1c-0.1-0.4-0.2-1-0.2-1.6v-0.2l-3.6,0.6c0,0.4,0.1,0.7,0.1,1.1c0,0.4,0,0.7,0,1.1c0,0.8-0.1,1.6-0.3,2.3
			s-0.5,1.4-0.9,2s-1,1-1.7,1.4c-0.7,0.3-1.6,0.5-2.6,0.5h-0.8V414.1z M563.3,415.1c-0.3,0-0.5-0.1-0.7-0.3
			c-0.2-0.2-0.3-0.4-0.3-0.8c0-0.4,0.1-0.7,0.3-0.8c0.2-0.2,0.4-0.3,0.7-0.3h0.2c0.3,0,0.5,0.1,0.7,0.3c0.2,0.2,0.3,0.4,0.3,0.8
			c0,0.4-0.1,0.7-0.3,0.8c-0.2,0.2-0.4,0.3-0.7,0.3H563.3z M566.1,415.1c-0.3,0-0.5-0.1-0.7-0.3c-0.2-0.2-0.3-0.4-0.3-0.8
			c0-0.4,0.1-0.7,0.3-0.8c0.2-0.2,0.4-0.3,0.7-0.3h0.2c0.3,0,0.5,0.1,0.7,0.3c0.2,0.2,0.3,0.4,0.3,0.8c0,0.4-0.1,0.7-0.3,0.8
			c-0.2,0.2-0.4,0.3-0.7,0.3H566.1z"/>
		<path fill="#FFFFFF" d="M567.8,409.3l0.4-0.4h0.8c0.3,0,0.5,0,0.7-0.1c0.2-0.1,0.4-0.1,0.6-0.3s0.3-0.3,0.5-0.5
			c0.2-0.2,0.3-0.5,0.5-0.9l0.9-1.8l1.3,0.6l-1.2,2.2l0.3,0.2c0.5,0.3,0.9,0.5,1.4,0.6c0.4,0.1,0.9,0.2,1.3,0.2
			c0.7,0,1.2-0.2,1.5-0.5c0.3-0.3,0.5-0.9,0.5-1.6v-1.7h1.5v1.7c0,0.8,0.1,1.3,0.3,1.7s0.6,0.5,1.1,0.5h0.5c0.5,0,0.9-0.2,1.1-0.5
			c0.2-0.3,0.3-0.9,0.3-1.7v-2.6h1.5v2.6c0,1.2,0.6,1.9,1.9,1.9h0.8v1.5l-0.4,0.4c-1,0-1.7-0.2-2.3-0.5c-0.6-0.3-0.9-0.8-1.2-1.5
			h-0.1c-0.1,0.8-0.3,1.4-0.7,1.7s-0.9,0.5-1.5,0.5c-1.5,0-2.4-0.7-2.7-2.2h-0.1c-0.1,0.7-0.4,1.2-0.8,1.6c-0.4,0.4-1,0.6-1.7,0.6
			c-0.9,0-1.8-0.3-2.9-1l-0.7-0.4c-0.4,0.5-0.9,0.8-1.5,1c-0.5,0.2-1.2,0.3-2.1,0.3V409.3z"/>
		<path fill="#FFFFFF" d="M586,409.3l0.4-0.4h3.2l0-0.1c-0.7-0.6-1.3-1.2-1.7-1.9c-0.4-0.7-0.6-1.5-0.6-2.4c0-0.6,0.1-1.1,0.3-1.7
			c0.2-0.5,0.5-1,0.8-1.4c0.4-0.4,0.8-0.7,1.3-0.9c0.5-0.2,1-0.3,1.6-0.3c0.6,0,1.1,0.1,1.6,0.3c0.5,0.2,0.9,0.5,1.3,0.9
			c0.4,0.4,0.6,0.8,0.8,1.4c0.2,0.5,0.3,1.1,0.3,1.7c0,0.9-0.2,1.7-0.6,2.4c-0.4,0.7-1,1.3-1.7,1.9l0,0.1h3.2v1.5l-0.4,0.4h-0.3
			c-0.7,0-1.5-0.1-2.2-0.3c-0.7-0.2-1.3-0.4-2-0.8c-0.6,0.3-1.3,0.6-2,0.8c-0.7,0.2-1.4,0.3-2.2,0.3H586V409.3z M591.3,408.2
			c0.7-0.4,1.3-0.9,1.8-1.5s0.7-1.2,0.7-2s-0.2-1.4-0.6-1.9c-0.4-0.5-1-0.7-1.7-0.7h-0.2c-0.7,0-1.3,0.2-1.7,0.7
			c-0.4,0.5-0.6,1.1-0.6,1.9s0.2,1.5,0.7,2C590,407.3,590.6,407.7,591.3,408.2z M591.2,397.5c-0.3,0-0.5-0.1-0.7-0.3
			c-0.2-0.2-0.3-0.4-0.3-0.8s0.1-0.7,0.3-0.8c0.2-0.2,0.4-0.3,0.7-0.3h0.2c0.3,0,0.5,0.1,0.7,0.3c0.2,0.2,0.3,0.4,0.3,0.8
			s-0.1,0.7-0.3,0.8c-0.2,0.2-0.4,0.3-0.7,0.3H591.2z"/>
		<path fill="#FFFFFF" d="M595.7,409.3l0.4-0.4h0.3c1,0,1.7-0.1,2.1-0.4s0.6-0.7,0.6-1.4c0-0.3,0-0.6-0.1-1c0-0.4-0.1-1-0.2-1.6
			l-0.3-1.8l1.5-0.2l0.3,1.8c0.1,0.7,0.2,1.3,0.2,1.8c0,0.5,0.1,0.8,0.1,1.1c0,1.2-0.4,2.1-1.1,2.8c-0.7,0.6-1.8,0.9-3.2,0.9h-0.8
			V409.3z M597.6,399.7c-0.3,0-0.5-0.1-0.7-0.3c-0.2-0.2-0.3-0.4-0.3-0.8c0-0.4,0.1-0.7,0.3-0.8c0.2-0.2,0.4-0.3,0.7-0.3h0.2
			c0.3,0,0.5,0.1,0.7,0.3c0.2,0.2,0.3,0.4,0.3,0.8c0,0.4-0.1,0.7-0.3,0.8s-0.4,0.3-0.7,0.3H597.6z M600.4,399.7
			c-0.3,0-0.5-0.1-0.7-0.3s-0.3-0.4-0.3-0.8c0-0.4,0.1-0.7,0.3-0.8c0.2-0.2,0.4-0.3,0.7-0.3h0.2c0.3,0,0.5,0.1,0.7,0.3
			c0.2,0.2,0.3,0.4,0.3,0.8c0,0.4-0.1,0.7-0.3,0.8c-0.2,0.2-0.4,0.3-0.7,0.3H600.4z"/>
		<path fill="#FFFFFF" d="M546.9,442.7c-0.7,0-1.2-0.1-1.7-0.2c-0.5-0.1-0.8-0.3-1.1-0.5c-0.3-0.3-0.5-0.6-0.6-1
			c-0.1-0.4-0.2-0.9-0.2-1.5v-0.4h-0.1c-0.2,0.7-0.6,1.2-1,1.5c-0.5,0.3-1.1,0.5-1.8,0.5c-1,0-1.7-0.3-2.3-0.8
			c-0.6-0.5-0.8-1.3-0.8-2.2c0-0.4,0.1-0.8,0.2-1.2c0.1-0.4,0.3-0.7,0.6-1.1c0.3-0.3,0.7-0.7,1.2-1c0.5-0.3,1-0.7,1.7-1.1l2.2-1.3
			v-1.1h1.5v7.9c0,0.6,0.2,1,0.5,1.2c0.3,0.2,0.8,0.3,1.4,0.3h0.8v1.5L546.9,442.7z M540.7,439.2c0.9,0,1.5-0.1,1.9-0.4
			c0.4-0.3,0.6-0.7,0.6-1.4v-3.2l-2.2,1.2c-0.8,0.4-1.3,0.8-1.7,1.2c-0.3,0.4-0.5,0.8-0.5,1.2c0,0.5,0.1,0.8,0.4,1
			C539.5,439.1,540,439.2,540.7,439.2z M541,429.5c-0.3,0-0.5-0.1-0.7-0.3c-0.2-0.2-0.3-0.4-0.3-0.8s0.1-0.7,0.3-0.8
			c0.2-0.2,0.4-0.3,0.7-0.3h0.2c0.3,0,0.5,0.1,0.7,0.3c0.2,0.2,0.3,0.4,0.3,0.8s-0.1,0.7-0.3,0.8c-0.2,0.2-0.4,0.3-0.7,0.3H541z
			 M543.9,429.5c-0.3,0-0.5-0.1-0.7-0.3c-0.2-0.2-0.3-0.4-0.3-0.8s0.1-0.7,0.3-0.8c0.2-0.2,0.4-0.3,0.7-0.3h0.2
			c0.3,0,0.5,0.1,0.7,0.3c0.2,0.2,0.3,0.4,0.3,0.8s-0.1,0.7-0.3,0.8c-0.2,0.2-0.4,0.3-0.7,0.3H543.9z"/>
		<path fill="#FFFFFF" d="M546.9,441.3l0.4-0.4h0.8c1.2,0,1.9-0.6,1.9-1.9v-3.5h1.5v3.5c0,1.2,0.6,1.9,1.9,1.9h0.8v1.5l-0.4,0.4
			c-2,0-3.2-0.7-3.6-2.2h-0.1c-0.2,0.8-0.5,1.4-0.9,1.7c-0.5,0.3-1.2,0.5-2.2,0.5V441.3z M549.3,447.1c-0.3,0-0.5-0.1-0.7-0.3
			c-0.2-0.2-0.3-0.4-0.3-0.8c0-0.4,0.1-0.7,0.3-0.8c0.2-0.2,0.4-0.3,0.7-0.3h0.2c0.3,0,0.5,0.1,0.7,0.3c0.2,0.2,0.3,0.4,0.3,0.8
			c0,0.4-0.1,0.7-0.3,0.8c-0.2,0.2-0.4,0.3-0.7,0.3H549.3z M552.1,447.1c-0.3,0-0.5-0.1-0.7-0.3c-0.2-0.2-0.3-0.4-0.3-0.8
			c0-0.4,0.1-0.7,0.3-0.8c0.2-0.2,0.4-0.3,0.7-0.3h0.2c0.3,0,0.5,0.1,0.7,0.3c0.2,0.2,0.3,0.4,0.3,0.8c0,0.4-0.1,0.7-0.3,0.8
			c-0.2,0.2-0.4,0.3-0.7,0.3H552.1z"/>
		<path fill="#FFFFFF" d="M553.8,441.3l0.4-0.4h0.3c1,0,1.7-0.1,2.1-0.4s0.6-0.7,0.6-1.4c0-0.3,0-0.6-0.1-1c0-0.4-0.1-1-0.2-1.6
			l-0.3-1.8l1.5-0.2l0.3,1.8c0.1,0.7,0.2,1.3,0.2,1.8c0,0.5,0.1,0.8,0.1,1.1c0,1.2-0.4,2.1-1.1,2.8c-0.7,0.6-1.8,0.9-3.2,0.9h-0.8
			V441.3z M557.1,431.7c-0.3,0-0.5-0.1-0.7-0.3s-0.3-0.4-0.3-0.8c0-0.4,0.1-0.7,0.3-0.8c0.2-0.2,0.4-0.3,0.7-0.3h0.2
			c0.3,0,0.5,0.1,0.7,0.3c0.2,0.2,0.3,0.4,0.3,0.8c0,0.4-0.1,0.7-0.3,0.8c-0.2,0.2-0.4,0.3-0.7,0.3H557.1z"/>
		<path fill="#FFFFFF" d="M560.5,446.1h1.2c1.6,0,2.8-0.3,3.7-0.9c0.9-0.6,1.4-1.4,1.6-2.5h-2.6c-1.2,0-2.1-0.3-2.7-0.9
			c-0.6-0.6-1-1.5-1-2.6c0-0.7,0.1-1.3,0.3-1.9s0.5-1.1,0.8-1.5c0.4-0.4,0.8-0.8,1.3-1c0.5-0.3,1-0.4,1.6-0.4c1.2,0,2.2,0.5,2.9,1.6
			c0.7,1.1,1,2.6,1,4.6v0.2h1v1.5l-0.4,0.4h-0.8c-0.3,1.7-1,3-2.2,3.9c-1.1,0.9-2.7,1.4-4.6,1.4h-1.2V446.1z M562.3,439
			c0,0.6,0.2,1.1,0.5,1.4c0.3,0.3,0.9,0.4,1.6,0.4h2.7v-0.7c0-1.2-0.2-2.1-0.7-2.8c-0.4-0.7-1.1-1-1.8-1c-0.7,0-1.3,0.2-1.7,0.7
			C562.5,437.5,562.3,438.2,562.3,439z"/>
		<path fill="#FFFFFF" d="M569.2,441.3l0.4-0.4h0.3c1,0,1.7-0.1,2.1-0.4s0.6-0.7,0.6-1.4c0-0.3,0-0.6-0.1-1c0-0.4-0.1-1-0.2-1.6
			l-0.3-1.8l1.5-0.2l0.3,1.8c0.1,0.7,0.2,1.3,0.2,1.8c0,0.5,0.1,0.8,0.1,1.1c0,1.2-0.4,2.1-1.1,2.8c-0.7,0.6-1.8,0.9-3.2,0.9h-0.8
			V441.3z M572.6,431.7c-0.3,0-0.5-0.1-0.7-0.3s-0.3-0.4-0.3-0.8c0-0.4,0.1-0.7,0.3-0.8c0.2-0.2,0.4-0.3,0.7-0.3h0.2
			c0.3,0,0.5,0.1,0.7,0.3c0.2,0.2,0.3,0.4,0.3,0.8c0,0.4-0.1,0.7-0.3,0.8c-0.2,0.2-0.4,0.3-0.7,0.3H572.6z"/>
		<path fill="#FFFFFF" d="M580.7,442.7c-0.7,0-1.3-0.1-1.8-0.2c-0.5-0.1-0.9-0.3-1.2-0.6c-0.3-0.3-0.5-0.6-0.6-1.1
			c-0.1-0.4-0.2-1-0.2-1.6v-12.8h1.6v12.8c0,0.6,0.2,1,0.5,1.2c0.3,0.2,0.8,0.4,1.4,0.4h0.8v1.5L580.7,442.7L580.7,442.7z"/>
		<path fill="#FFFFFF" d="M580.7,441.3l0.4-0.4h3.2l0-0.1c-0.7-0.6-1.3-1.2-1.7-1.9c-0.4-0.7-0.6-1.5-0.6-2.4c0-0.6,0.1-1.1,0.3-1.7
			c0.2-0.5,0.5-1,0.8-1.4c0.4-0.4,0.8-0.7,1.3-0.9c0.5-0.2,1-0.3,1.6-0.3c0.6,0,1.1,0.1,1.6,0.3c0.5,0.2,0.9,0.5,1.3,0.9
			c0.4,0.4,0.6,0.8,0.8,1.4c0.2,0.5,0.3,1.1,0.3,1.7c0,0.9-0.2,1.7-0.6,2.4c-0.4,0.7-1,1.3-1.7,1.9l0,0.1h3.2v1.5l-0.4,0.4h-0.3
			c-0.7,0-1.5-0.1-2.2-0.3c-0.7-0.2-1.3-0.4-2-0.8c-0.6,0.3-1.3,0.6-2,0.8c-0.7,0.2-1.4,0.3-2.2,0.3h-1.2V441.3z M584.4,429.5
			c-0.3,0-0.5-0.1-0.7-0.3c-0.2-0.2-0.3-0.4-0.3-0.8s0.1-0.7,0.3-0.8c0.2-0.2,0.4-0.3,0.7-0.3h0.2c0.3,0,0.5,0.1,0.7,0.3
			c0.2,0.2,0.3,0.4,0.3,0.8s-0.1,0.7-0.3,0.8c-0.2,0.2-0.4,0.3-0.7,0.3H584.4z M586,440.2c0.7-0.4,1.3-0.9,1.8-1.5s0.7-1.2,0.7-2
			s-0.2-1.4-0.6-1.9c-0.4-0.5-1-0.7-1.7-0.7h-0.2c-0.7,0-1.3,0.2-1.7,0.7c-0.4,0.5-0.6,1.1-0.6,1.9s0.2,1.5,0.7,2
			C584.7,439.3,585.3,439.7,586,440.2z M587.3,429.5c-0.3,0-0.5-0.1-0.7-0.3c-0.2-0.2-0.3-0.4-0.3-0.8s0.1-0.7,0.3-0.8
			c0.2-0.2,0.4-0.3,0.7-0.3h0.2c0.3,0,0.5,0.1,0.7,0.3c0.2,0.2,0.3,0.4,0.3,0.8s-0.1,0.7-0.3,0.8c-0.2,0.2-0.4,0.3-0.7,0.3H587.3z"
			/>
		<path fill="#FFFFFF" d="M590.5,441.3l0.4-0.4h0.6c0.7,0,1.2-0.2,1.5-0.5c0.3-0.3,0.5-0.8,0.5-1.5v-12.4h1.6v12.4
			c0,1.3-0.3,2.3-0.9,3c-0.6,0.6-1.5,0.9-2.8,0.9h-1.1V441.3z"/>
		<path fill="#FFFFFF" d="M598.5,426.4h1.6v16.3h-1.6V426.4z"/>
		<path fill="#FFFFFF" d="M412.5,480c-1.9,0-3.4-0.5-4.5-1.5c-1.1-1-1.6-2.3-1.6-4c0-0.7,0.1-1.4,0.3-2.1c0.2-0.8,0.4-1.5,0.8-2.3
			l1.4,0.4c-0.3,0.6-0.5,1.2-0.7,1.8c-0.2,0.6-0.3,1.2-0.3,1.8c0,1.2,0.4,2.2,1.1,2.9c0.7,0.7,1.7,1,2.9,1h1.3
			c1.6,0,2.7-0.3,3.4-0.9c0.7-0.6,1.1-1.6,1.1-2.9c0-0.2,0-0.5,0-0.7c0-0.2,0-0.5-0.1-0.8c0-0.3-0.1-0.6-0.2-1
			c-0.1-0.4-0.1-0.7-0.2-1.2l-0.4-1.8l1.5-0.3l0.3,1.8c0.1,0.6,0.2,1.1,0.3,1.5c0.1,0.4,0.1,0.8,0.1,1.1h2.2v1.5l-0.4,0.4h-1.7
			c-0.1,1.8-0.7,3.2-1.8,4C416.3,479.6,414.7,480,412.5,480z M412.8,467.8c-0.3,0-0.5-0.1-0.7-0.3c-0.2-0.2-0.3-0.4-0.3-0.8
			c0-0.4,0.1-0.7,0.3-0.8c0.2-0.2,0.4-0.3,0.7-0.3h0.2c0.3,0,0.5,0.1,0.7,0.3c0.2,0.2,0.3,0.4,0.3,0.8c0,0.4-0.1,0.7-0.3,0.8
			c-0.2,0.2-0.4,0.3-0.7,0.3H412.8z"/>
		<path fill="#FFFFFF" d="M423.7,473.4c-0.3,0.5-0.7,0.8-1.2,1c-0.4,0.2-1,0.3-1.7,0.3v-1.5l0.4-0.4c0.3,0,0.5,0,0.7-0.1
			s0.4-0.2,0.5-0.3c0.2-0.2,0.3-0.4,0.4-0.6c0.1-0.3,0.3-0.6,0.4-0.9l0.6-1.6c0.3-0.9,0.8-1.6,1.3-2s1.3-0.7,2.2-0.7
			c1.1,0,1.9,0.5,2.5,1.5c0.6,1,0.9,2.3,0.9,4.1v1l-1.3,1.9L423.7,473.4z M424.6,471.7l4.8,1.3V472c0-1.1-0.2-2-0.6-2.7
			s-0.9-1-1.6-1c-0.6,0-1,0.2-1.3,0.5c-0.3,0.3-0.6,0.8-0.8,1.3L424.6,471.7z"/>
		<path fill="#FFFFFF" d="M447.1,474.7c-0.7,0-1.2-0.1-1.7-0.2c-0.5-0.1-0.8-0.3-1.1-0.5c-0.3-0.3-0.5-0.6-0.6-1
			c-0.1-0.4-0.2-0.9-0.2-1.5v-0.4h-0.1c-0.2,0.7-0.6,1.2-1,1.5c-0.5,0.3-1.1,0.5-1.8,0.5c-1,0-1.7-0.3-2.3-0.8
			c-0.6-0.5-0.8-1.3-0.8-2.2c0-0.4,0.1-0.8,0.2-1.2c0.1-0.4,0.3-0.7,0.6-1.1c0.3-0.3,0.7-0.7,1.2-1c0.5-0.3,1-0.7,1.7-1.1l2.2-1.3
			v-1.1h1.5v7.9c0,0.6,0.2,1,0.5,1.2c0.3,0.2,0.8,0.3,1.4,0.3h0.8v1.5L447.1,474.7z M440.9,471.2c0.9,0,1.5-0.1,1.9-0.4
			c0.4-0.3,0.6-0.7,0.6-1.4v-3.2l-2.2,1.2c-0.8,0.4-1.3,0.8-1.7,1.2c-0.3,0.4-0.5,0.8-0.5,1.2c0,0.5,0.1,0.8,0.4,1
			C439.7,471.1,440.2,471.2,440.9,471.2z"/>
		<path fill="#FFFFFF" d="M447.1,473.3l0.4-0.4h0.3c1,0,1.7-0.1,2.1-0.4s0.6-0.7,0.6-1.4c0-0.3,0-0.6-0.1-1c0-0.4-0.1-1-0.2-1.6
			l-0.3-1.8l1.5-0.2l0.3,1.8c0.1,0.7,0.2,1.3,0.2,1.8c0,0.5,0.1,0.8,0.1,1.1c0,1.2-0.4,2.1-1.1,2.8c-0.7,0.6-1.8,0.9-3.2,0.9h-0.8
			V473.3z M449,479.1c-0.3,0-0.5-0.1-0.7-0.3c-0.2-0.2-0.3-0.4-0.3-0.8c0-0.4,0.1-0.7,0.3-0.8c0.2-0.2,0.4-0.3,0.7-0.3h0.2
			c0.3,0,0.5,0.1,0.7,0.3c0.2,0.2,0.3,0.4,0.3,0.8c0,0.4-0.1,0.7-0.3,0.8c-0.2,0.2-0.4,0.3-0.7,0.3H449z M451.9,479.1
			c-0.3,0-0.5-0.1-0.7-0.3c-0.2-0.2-0.3-0.4-0.3-0.8c0-0.4,0.1-0.7,0.3-0.8c0.2-0.2,0.4-0.3,0.7-0.3h0.2c0.3,0,0.5,0.1,0.7,0.3
			c0.2,0.2,0.3,0.4,0.3,0.8c0,0.4-0.1,0.7-0.3,0.8c-0.2,0.2-0.4,0.3-0.7,0.3H451.9z"/>
		<path fill="#FFFFFF" d="M453.8,478.1h0.8c0.8,0,1.5-0.1,2-0.4c0.5-0.2,0.9-0.5,1.2-0.9c0.3-0.4,0.5-0.8,0.6-1.4
			c0.1-0.5,0.2-1.1,0.2-1.6c0-0.4,0-0.9-0.1-1.3c0-0.5-0.1-0.9-0.2-1.3l-0.5-2.5l1.5-0.3l0.3,1.7c0.1,0.5,0.2,1,0.2,1.5
			c0.1,0.5,0.1,0.9,0.1,1.3h2.1v1.5l-0.4,0.4H460c-0.1,0.7-0.2,1.4-0.4,2c-0.2,0.6-0.5,1.2-0.9,1.7c-0.4,0.5-1,0.9-1.6,1.1
			c-0.7,0.3-1.5,0.4-2.4,0.4h-0.8V478.1z"/>
		<path fill="#FFFFFF" d="M461.7,473.3l0.4-0.4h0.7c0.6,0,1.2,0,1.8-0.1s1.1-0.1,1.7-0.3c0.6-0.1,1.2-0.3,1.8-0.5
			c0.6-0.2,1.4-0.5,2.2-0.9l2-1V470l-3.3-0.7l-4.6-1.1v1.9H463v-1.7c0-0.6,0.2-1.1,0.5-1.4c0.3-0.3,0.8-0.5,1.3-0.5
			c0.2,0,0.4,0,0.6,0.1c0.2,0,0.6,0.1,1.1,0.2l5.4,1.4c0.8,0.2,1.5,0.3,2,0.4c0.5,0.1,1,0.1,1.4,0.1h0.4v1.9h-1.7v0.3
			c0,0.7,0.2,1.2,0.5,1.5c0.3,0.3,0.8,0.4,1.5,0.4h0.8v1.5l-0.4,0.4c-0.6,0-1.2-0.1-1.6-0.2c-0.5-0.1-0.8-0.3-1.1-0.6
			s-0.5-0.6-0.6-1c-0.1-0.4-0.2-0.9-0.2-1.6l-1.7,1c-0.9,0.5-1.7,1-2.4,1.3c-0.7,0.3-1.4,0.5-2,0.7c-0.6,0.2-1.2,0.2-1.8,0.3
			c-0.6,0-1.2,0.1-1.9,0.1h-1.2V473.3z M468.7,479.1c-0.3,0-0.5-0.1-0.7-0.3c-0.2-0.2-0.3-0.4-0.3-0.8c0-0.4,0.1-0.7,0.3-0.8
			c0.2-0.2,0.4-0.3,0.7-0.3h0.2c0.3,0,0.5,0.1,0.7,0.3c0.2,0.2,0.3,0.4,0.3,0.8c0,0.4-0.1,0.7-0.3,0.8c-0.2,0.2-0.4,0.3-0.7,0.3
			H468.7z"/>
		<path fill="#FFFFFF" d="M476.3,473.3l0.4-0.4h0.3c1,0,1.7-0.1,2.1-0.4s0.6-0.7,0.6-1.4c0-0.3,0-0.6-0.1-1c0-0.4-0.1-1-0.2-1.6
			l-0.3-1.8l1.5-0.2l0.3,1.8c0.1,0.7,0.2,1.3,0.2,1.8c0,0.5,0.1,0.8,0.1,1.1c0,1.2-0.4,2.1-1.1,2.8c-0.7,0.6-1.8,0.9-3.2,0.9h-0.8
			V473.3z M478.1,463.7c-0.3,0-0.5-0.1-0.7-0.3c-0.2-0.2-0.3-0.4-0.3-0.8c0-0.4,0.1-0.7,0.3-0.8c0.2-0.2,0.4-0.3,0.7-0.3h0.2
			c0.3,0,0.5,0.1,0.7,0.3c0.2,0.2,0.3,0.4,0.3,0.8c0,0.4-0.1,0.7-0.3,0.8s-0.4,0.3-0.7,0.3H478.1z M480.9,463.7
			c-0.3,0-0.5-0.1-0.7-0.3s-0.3-0.4-0.3-0.8c0-0.4,0.1-0.7,0.3-0.8c0.2-0.2,0.4-0.3,0.7-0.3h0.2c0.3,0,0.5,0.1,0.7,0.3
			c0.2,0.2,0.3,0.4,0.3,0.8c0,0.4-0.1,0.7-0.3,0.8c-0.2,0.2-0.4,0.3-0.7,0.3H480.9z"/>
		<path fill="#FFFFFF" d="M492.9,474.7c-0.7,0-1.3-0.1-1.8-0.2c-0.5-0.1-0.9-0.3-1.2-0.6c-0.3-0.3-0.5-0.6-0.6-1.1
			c-0.1-0.4-0.2-1-0.2-1.6v-12.8h1.6v12.8c0,0.6,0.2,1,0.5,1.2c0.3,0.2,0.8,0.4,1.4,0.4h0.8v1.5L492.9,474.7L492.9,474.7z"/>
		<path fill="#FFFFFF" d="M493,473.3l0.4-0.4c0.5,0,0.9,0,1.1-0.1c0.3,0,0.5-0.1,0.6-0.3c0-0.2-0.1-0.3-0.1-0.5s0-0.3,0-0.5
			c0-0.8,0.3-1.5,0.8-2.2c0.5-0.7,1.3-1.3,2.4-2l1.1-0.7h1.7l1.6,4.2c0.1,0.4,0.3,0.7,0.4,1c0.1,0.3,0.3,0.5,0.4,0.6
			c0.2,0.1,0.3,0.2,0.5,0.3c0.2,0.1,0.4,0.1,0.6,0.1h0.4v1.5l-0.4,0.4c-0.7,0-1.2-0.1-1.6-0.3c-0.4-0.2-0.8-0.6-1.1-1.2l-0.1,0v1.4
			H499c-1.9,0-3.1-0.5-3.7-1.7h-0.1c-0.2,0.6-0.5,1-0.8,1.2c-0.3,0.3-0.8,0.4-1.5,0.4V473.3z M496.5,471.3c0,0.5,0.2,0.9,0.6,1.2
			c0.4,0.2,1.1,0.4,2,0.4h2.4c-0.2-0.3-0.3-0.8-0.5-1.3l-1.2-3.3l-0.8,0.5c-0.7,0.4-1.2,0.8-1.7,1.2
			C496.7,470.4,496.5,470.8,496.5,471.3z"/>
		<path fill="#FFFFFF" d="M504.5,473.3l0.4-0.4h0.3c1,0,1.7-0.1,2.1-0.4s0.6-0.7,0.6-1.4c0-0.3,0-0.6-0.1-1c0-0.4-0.1-1-0.2-1.6
			l-0.3-1.8l1.5-0.2l0.3,1.8c0.1,0.7,0.2,1.3,0.2,1.8c0,0.5,0.1,0.8,0.1,1.1c0,1.2-0.4,2.1-1.1,2.8c-0.7,0.6-1.8,0.9-3.2,0.9h-0.8
			V473.3z M507.8,479.1c-0.3,0-0.5-0.1-0.7-0.3c-0.2-0.2-0.3-0.4-0.3-0.8c0-0.4,0.1-0.7,0.3-0.8c0.2-0.2,0.4-0.3,0.7-0.3h0.2
			c0.3,0,0.5,0.1,0.7,0.3c0.2,0.2,0.3,0.4,0.3,0.8c0,0.4-0.1,0.7-0.3,0.8c-0.2,0.2-0.4,0.3-0.7,0.3H507.8z"/>
		<path fill="#FFFFFF" d="M525.7,474.7c-0.7,0-1.2-0.1-1.7-0.2c-0.5-0.1-0.8-0.3-1.1-0.5c-0.3-0.3-0.5-0.6-0.6-1
			c-0.1-0.4-0.2-0.9-0.2-1.5v-0.4H522c-0.2,0.7-0.6,1.2-1,1.5c-0.5,0.3-1.1,0.5-1.8,0.5c-1,0-1.7-0.3-2.3-0.8
			c-0.6-0.5-0.8-1.3-0.8-2.2c0-0.4,0.1-0.8,0.2-1.2c0.1-0.4,0.3-0.7,0.6-1.1c0.3-0.3,0.7-0.7,1.2-1c0.5-0.3,1-0.7,1.7-1.1l2.2-1.3
			v-1.1h1.5v7.9c0,0.6,0.2,1,0.5,1.2c0.3,0.2,0.8,0.3,1.4,0.3h0.8v1.5L525.7,474.7z M519.5,471.2c0.9,0,1.5-0.1,1.9-0.4
			c0.4-0.3,0.6-0.7,0.6-1.4v-3.2l-2.2,1.2c-0.8,0.4-1.3,0.8-1.7,1.2c-0.3,0.4-0.5,0.8-0.5,1.2c0,0.5,0.1,0.8,0.4,1
			C518.3,471.1,518.8,471.2,519.5,471.2z M519.8,461.5c-0.3,0-0.5-0.1-0.7-0.3c-0.2-0.2-0.3-0.4-0.3-0.8s0.1-0.7,0.3-0.8
			c0.2-0.2,0.4-0.3,0.7-0.3h0.2c0.3,0,0.5,0.1,0.7,0.3c0.2,0.2,0.3,0.4,0.3,0.8s-0.1,0.7-0.3,0.8c-0.2,0.2-0.4,0.3-0.7,0.3H519.8z
			 M522.7,461.5c-0.3,0-0.5-0.1-0.7-0.3c-0.2-0.2-0.3-0.4-0.3-0.8s0.1-0.7,0.3-0.8c0.2-0.2,0.4-0.3,0.7-0.3h0.2
			c0.3,0,0.5,0.1,0.7,0.3c0.2,0.2,0.3,0.4,0.3,0.8s-0.1,0.7-0.3,0.8c-0.2,0.2-0.4,0.3-0.7,0.3H522.7z"/>
		<path fill="#FFFFFF" d="M525.7,473.3l0.4-0.4h0.8c1.2,0,1.9-0.6,1.9-1.9v-12.5h1.6v12.5c0,1.2,0.6,1.9,1.9,1.9h0.8v1.5l-0.4,0.4
			c-2.1,0-3.3-0.7-3.7-2.2h-0.1c-0.2,0.8-0.5,1.4-0.9,1.7c-0.5,0.3-1.2,0.5-2.2,0.5V473.3z"/>
		<path fill="#FFFFFF" d="M551.6,474.7c-0.6,0-1,0-1.4-0.1c-0.4-0.1-0.7-0.3-1-0.6c-0.8,0.5-1.8,0.7-3.2,0.7h-6.5
			c-2,0-3.2-0.7-3.6-2.2h-0.1c-0.2,0.8-0.5,1.4-0.9,1.7c-0.5,0.3-1.2,0.5-2.2,0.5v-1.5l0.4-0.4h0.8c1.2,0,1.9-0.6,1.9-1.9v-1.7h1.5
			v1.7c0,0.9,0.3,1.4,0.9,1.7l1.2-2c0.6-1,1.1-1.8,1.7-2.4c0.6-0.6,1.2-1.1,1.7-1.5c0.6-0.4,1.2-0.7,1.8-0.8
			c0.6-0.2,1.2-0.2,1.9-0.2c1.4,0,2.5,0.4,3.3,1.2s1.2,1.9,1.2,3.2c0,1-0.2,1.9-0.5,2.6c0.3,0.1,0.7,0.2,1.2,0.2h0.4v1.5
			L551.6,474.7z M546,472.8c1.1,0,1.9-0.2,2.5-0.6c0.6-0.4,0.9-1,0.9-1.9c0-0.9-0.2-1.6-0.7-2.1c-0.5-0.5-1.1-0.7-1.9-0.7h-0.7
			c-0.6,0-1.1,0.1-1.6,0.2c-0.5,0.1-0.9,0.3-1.4,0.6c-0.4,0.3-0.9,0.6-1.3,1.1s-0.9,1.1-1.3,1.8l-0.9,1.5l0.1,0.1H546z"/>
		<path fill="#FFFFFF" d="M551.6,473.3l0.4-0.4h0.6c0.7,0,1.2-0.2,1.5-0.5c0.3-0.3,0.5-0.8,0.5-1.5v-12.4h1.6v12.4
			c0,1.3-0.3,2.3-0.9,3c-0.6,0.6-1.5,0.9-2.8,0.9h-1.1V473.3z"/>
		<path fill="#FFFFFF" d="M559.6,458.4h1.6v16.3h-1.6V458.4z"/>
		<path fill="#FFFFFF" d="M577.3,475c-1.5,0-2.8-0.1-3.9-0.2c-1-0.2-1.9-0.4-2.5-0.8c-0.6-0.4-1.1-0.8-1.4-1.4
			c-0.3-0.6-0.4-1.3-0.4-2.1c0-0.6,0.1-1.2,0.2-1.8s0.4-1.3,0.7-2l1.4,0.4c-0.6,1.2-0.9,2.3-0.9,3.2c0,0.9,0.4,1.6,1.3,2
			s2.2,0.6,4,0.6h3.1c1,0,1.9,0,2.6-0.1c0.7-0.1,1.2-0.2,1.6-0.3s0.7-0.3,0.8-0.6s0.2-0.6,0.2-1c0-0.2,0-0.6,0-0.9
			c0-0.4-0.1-0.9-0.2-1.5l-0.3-1.8l1.5-0.2l0.3,1.8c0.1,0.7,0.2,1.2,0.2,1.6c0,0.4,0.1,0.8,0.1,1c0,0.8-0.1,1.4-0.4,1.9
			c-0.3,0.5-0.8,1-1.4,1.3c-0.7,0.3-1.5,0.6-2.6,0.7C580.1,474.9,578.8,475,577.3,475z M575.7,466.6c-0.3,0-0.5-0.1-0.7-0.3
			c-0.2-0.2-0.3-0.4-0.3-0.8c0-0.4,0.1-0.7,0.3-0.8c0.2-0.2,0.4-0.3,0.7-0.3h0.2c0.3,0,0.5,0.1,0.7,0.3c0.2,0.2,0.3,0.4,0.3,0.8
			c0,0.4-0.1,0.7-0.3,0.8c-0.2,0.2-0.4,0.3-0.7,0.3H575.7z M578.5,466.6c-0.3,0-0.5-0.1-0.7-0.3c-0.2-0.2-0.3-0.4-0.3-0.8
			c0-0.4,0.1-0.7,0.3-0.8c0.2-0.2,0.4-0.3,0.7-0.3h0.2c0.3,0,0.5,0.1,0.7,0.3c0.2,0.2,0.3,0.4,0.3,0.8c0,0.4-0.1,0.7-0.3,0.8
			c-0.2,0.2-0.4,0.3-0.7,0.3H578.5z"/>
		<path fill="#FFFFFF" d="M588.2,458.4h1.6v16.3h-1.6V458.4z"/>
		<path fill="#FFFFFF" d="M593.9,474.7c-0.5,0-1-0.2-1.3-0.5c-0.3-0.3-0.5-0.8-0.5-1.4v-1.7h1.5v1.7h3.6c0.4,0,0.7,0,1-0.1
			c0.3-0.1,0.5-0.2,0.6-0.4s0.3-0.3,0.3-0.5c0.1-0.2,0.1-0.4,0.1-0.6c0-0.5-0.2-1-0.5-1.5c-0.3-0.5-0.9-1.2-1.6-1.9l-2.3-2.5
			l1.4-1.4l2.2,2.5c0.4,0.5,0.8,1,1.1,1.4c0.3,0.4,0.5,0.8,0.7,1.2c0.2,0.4,0.3,0.8,0.4,1.2c0.1,0.4,0.1,0.8,0.1,1.2
			c0,1.1-0.3,1.9-1,2.5s-1.6,0.9-2.8,0.9H593.9z M595.9,461.3c-0.3,0-0.5-0.1-0.7-0.3c-0.2-0.2-0.3-0.4-0.3-0.8
			c0-0.4,0.1-0.7,0.3-0.8s0.4-0.3,0.7-0.3h0.2c0.3,0,0.5,0.1,0.7,0.3s0.3,0.4,0.3,0.8c0,0.4-0.1,0.7-0.3,0.8
			c-0.2,0.2-0.4,0.3-0.7,0.3H595.9z"/>
		<path fill="#FFFFFF" d="M559.2,512c-1.8,0-3.3-0.5-4.3-1.5s-1.5-2.3-1.5-4c0-0.7,0.1-1.4,0.3-2.1c0.2-0.8,0.4-1.5,0.8-2.3l1.4,0.4
			c-0.3,0.6-0.5,1.3-0.7,1.9s-0.3,1.3-0.3,1.9c0,1.2,0.3,2.1,1,2.8s1.6,1,2.8,1h1.3c0.7,0,1.3-0.1,1.7-0.2c0.5-0.2,0.9-0.4,1.2-0.8
			c0.3-0.4,0.5-0.8,0.6-1.4c0.1-0.6,0.2-1.3,0.2-2.1v-15h1.6v14.4h2.7v1.5l-0.4,0.4h-2.3c-0.2,1.8-0.7,3.2-1.7,4S561,512,559.2,512z
			"/>
		<path fill="#FFFFFF" d="M567.4,505.3l0.4-0.4h0.8c1.2,0,1.9-0.6,1.9-1.9v-3.5h1.5v3.5c0,1.2,0.6,1.9,1.9,1.9h0.8v1.5l-0.4,0.4
			c-2,0-3.2-0.7-3.6-2.2h-0.1c-0.2,0.8-0.5,1.4-0.9,1.7c-0.5,0.3-1.2,0.5-2.2,0.5V505.3z M569.7,511.1c-0.3,0-0.5-0.1-0.7-0.3
			c-0.2-0.2-0.3-0.4-0.3-0.8c0-0.4,0.1-0.7,0.3-0.8c0.2-0.2,0.4-0.3,0.7-0.3h0.2c0.3,0,0.5,0.1,0.7,0.3c0.2,0.2,0.3,0.4,0.3,0.8
			c0,0.4-0.1,0.7-0.3,0.8c-0.2,0.2-0.4,0.3-0.7,0.3H569.7z M572.6,511.1c-0.3,0-0.5-0.1-0.7-0.3c-0.2-0.2-0.3-0.4-0.3-0.8
			c0-0.4,0.1-0.7,0.3-0.8c0.2-0.2,0.4-0.3,0.7-0.3h0.2c0.3,0,0.5,0.1,0.7,0.3c0.2,0.2,0.3,0.4,0.3,0.8c0,0.4-0.1,0.7-0.3,0.8
			c-0.2,0.2-0.4,0.3-0.7,0.3H572.6z"/>
		<path fill="#FFFFFF" d="M574.2,505.3l0.4-0.4h0.8c1.2,0,1.9-0.6,1.9-1.9v-12.5h1.6v12.5c0,1.2,0.6,1.9,1.9,1.9h0.8v1.5l-0.4,0.4
			c-2.1,0-3.3-0.7-3.7-2.2h-0.1c-0.2,0.8-0.5,1.4-0.9,1.7c-0.5,0.3-1.2,0.5-2.2,0.5V505.3z"/>
		<path fill="#FFFFFF" d="M581.2,505.3l0.4-0.4h0.7c0.6,0,1.2,0,1.8-0.1s1.1-0.1,1.7-0.3c0.6-0.1,1.2-0.3,1.8-0.5
			c0.6-0.2,1.4-0.5,2.2-0.9l2-1V502l-3.3-0.7l-4.6-1.1v1.9h-1.5v-1.7c0-0.6,0.2-1.1,0.5-1.4c0.3-0.3,0.8-0.5,1.3-0.5
			c0.2,0,0.4,0,0.6,0.1c0.2,0,0.6,0.1,1.1,0.2l5.4,1.4c0.8,0.2,1.5,0.3,2,0.4c0.5,0.1,1,0.1,1.4,0.1h0.4v1.9h-1.7v0.3
			c0,0.7,0.2,1.2,0.5,1.5c0.3,0.3,0.8,0.4,1.5,0.4h0.8v1.5l-0.4,0.4c-0.6,0-1.2-0.1-1.6-0.2c-0.5-0.1-0.8-0.3-1.1-0.6
			s-0.5-0.6-0.6-1c-0.1-0.4-0.2-0.9-0.2-1.6l-1.7,1c-0.9,0.5-1.7,1-2.4,1.3c-0.7,0.3-1.4,0.5-2,0.7c-0.6,0.2-1.2,0.2-1.8,0.3
			c-0.6,0-1.2,0.1-1.9,0.1h-1.2V505.3z"/>
		<path fill="#FFFFFF" d="M595.7,505.3l0.4-0.4h0.3c1,0,1.7-0.1,2.1-0.4s0.6-0.7,0.6-1.4c0-0.3,0-0.6-0.1-1c0-0.4-0.1-1-0.2-1.6
			l-0.3-1.8l1.5-0.2l0.3,1.8c0.1,0.7,0.2,1.3,0.2,1.8c0,0.5,0.1,0.8,0.1,1.1c0,1.2-0.4,2.1-1.1,2.8c-0.7,0.6-1.8,0.9-3.2,0.9h-0.8
			V505.3z M597.6,495.7c-0.3,0-0.5-0.1-0.7-0.3c-0.2-0.2-0.3-0.4-0.3-0.8c0-0.4,0.1-0.7,0.3-0.8c0.2-0.2,0.4-0.3,0.7-0.3h0.2
			c0.3,0,0.5,0.1,0.7,0.3c0.2,0.2,0.3,0.4,0.3,0.8c0,0.4-0.1,0.7-0.3,0.8s-0.4,0.3-0.7,0.3H597.6z M600.4,495.7
			c-0.3,0-0.5-0.1-0.7-0.3s-0.3-0.4-0.3-0.8c0-0.4,0.1-0.7,0.3-0.8c0.2-0.2,0.4-0.3,0.7-0.3h0.2c0.3,0,0.5,0.1,0.7,0.3
			c0.2,0.2,0.3,0.4,0.3,0.8c0,0.4-0.1,0.7-0.3,0.8c-0.2,0.2-0.4,0.3-0.7,0.3H600.4z"/>
		<path fill="#FFFFFF" d="M549.2,538.7c-0.7,0-1.2-0.1-1.7-0.2c-0.5-0.1-0.8-0.3-1.1-0.5c-0.3-0.3-0.5-0.6-0.6-1
			c-0.1-0.4-0.2-0.9-0.2-1.5v-0.4h-0.1c-0.2,0.7-0.6,1.2-1,1.5c-0.5,0.3-1.1,0.5-1.8,0.5c-1,0-1.7-0.3-2.3-0.8
			c-0.6-0.5-0.8-1.3-0.8-2.2c0-0.4,0.1-0.8,0.2-1.2c0.1-0.4,0.3-0.7,0.6-1.1c0.3-0.3,0.7-0.7,1.2-1c0.5-0.3,1-0.7,1.7-1.1l2.2-1.3
			v-1.1h1.5v7.9c0,0.6,0.2,1,0.5,1.2c0.3,0.2,0.8,0.3,1.4,0.3h0.8v1.5L549.2,538.7z M542.9,535.2c0.9,0,1.5-0.1,1.9-0.4
			c0.4-0.3,0.6-0.7,0.6-1.4v-3.2l-2.2,1.2c-0.8,0.4-1.3,0.8-1.7,1.2c-0.3,0.4-0.5,0.8-0.5,1.2c0,0.5,0.1,0.8,0.4,1
			C541.7,535.1,542.2,535.2,542.9,535.2z M543.3,525.5c-0.3,0-0.5-0.1-0.7-0.3c-0.2-0.2-0.3-0.4-0.3-0.8s0.1-0.7,0.3-0.8
			c0.2-0.2,0.4-0.3,0.7-0.3h0.2c0.3,0,0.5,0.1,0.7,0.3c0.2,0.2,0.3,0.4,0.3,0.8s-0.1,0.7-0.3,0.8c-0.2,0.2-0.4,0.3-0.7,0.3H543.3z
			 M546.1,525.5c-0.3,0-0.5-0.1-0.7-0.3c-0.2-0.2-0.3-0.4-0.3-0.8s0.1-0.7,0.3-0.8c0.2-0.2,0.4-0.3,0.7-0.3h0.2
			c0.3,0,0.5,0.1,0.7,0.3c0.2,0.2,0.3,0.4,0.3,0.8s-0.1,0.7-0.3,0.8c-0.2,0.2-0.4,0.3-0.7,0.3H546.1z"/>
		<path fill="#FFFFFF" d="M549.2,537.3l0.4-0.4h2.8v-0.1c-0.5-0.4-1-0.9-1.4-1.5c-0.4-0.7-0.5-1.4-0.5-2.2c0-0.7,0.1-1.3,0.3-1.8
			c0.2-0.5,0.5-1,0.9-1.4s0.8-0.7,1.3-0.9c0.5-0.2,1.1-0.3,1.6-0.3c0.8,0,1.6,0.2,2.2,0.5s1.1,0.8,1.5,1.5l-1.1,1.3
			c-0.4-0.5-0.8-0.8-1.2-1c-0.4-0.2-0.9-0.3-1.5-0.3c-0.8,0-1.5,0.2-1.9,0.7c-0.4,0.5-0.6,1.1-0.6,1.8c0,0.4,0.1,0.8,0.3,1.1
			c0.2,0.4,0.4,0.7,0.7,0.9c0.3,0.3,0.7,0.5,1.1,0.6c0.4,0.1,0.9,0.2,1.4,0.2c0.7,0,1.3-0.1,2-0.3l1.8-0.4l0.4,1.7l-2.9,0.8
			c-0.7,0.2-1.4,0.4-2,0.5c-0.6,0.1-1.2,0.2-1.8,0.3c-0.6,0.1-1.2,0.1-1.8,0.2c-0.6,0-1.3,0-2.1,0V537.3z M554.6,526
			c-0.3,0-0.5-0.1-0.7-0.3c-0.2-0.2-0.3-0.4-0.3-0.8c0-0.4,0.1-0.7,0.3-0.8c0.2-0.2,0.4-0.3,0.7-0.3h0.2c0.3,0,0.5,0.1,0.7,0.3
			c0.2,0.2,0.3,0.4,0.3,0.8c0,0.4-0.1,0.7-0.3,0.8c-0.2,0.2-0.4,0.3-0.7,0.3H554.6z"/>
		<path fill="#FFFFFF" d="M565.6,538.7c-0.7,0-1.3-0.1-1.8-0.2c-0.5-0.1-0.9-0.3-1.2-0.6c-0.3-0.3-0.5-0.6-0.6-1.1
			c-0.1-0.4-0.2-1-0.2-1.6v-12.8h1.6v12.8c0,0.6,0.2,1,0.5,1.2c0.3,0.2,0.8,0.4,1.4,0.4h0.8v1.5L565.6,538.7L565.6,538.7z"/>
		<path fill="#FFFFFF" d="M565.7,537.3l0.4-0.4h0.8c1.2,0,1.9-0.6,1.9-1.9v-3.5h1.5v3.5c0,1.2,0.6,1.9,1.9,1.9h0.8v1.5l-0.4,0.4
			c-2,0-3.2-0.7-3.6-2.2h-0.1c-0.2,0.8-0.5,1.4-0.9,1.7c-0.5,0.3-1.2,0.5-2.2,0.5V537.3z M568,543.1c-0.3,0-0.5-0.1-0.7-0.3
			c-0.2-0.2-0.3-0.4-0.3-0.8c0-0.4,0.1-0.7,0.3-0.8c0.2-0.2,0.4-0.3,0.7-0.3h0.2c0.3,0,0.5,0.1,0.7,0.3c0.2,0.2,0.3,0.4,0.3,0.8
			c0,0.4-0.1,0.7-0.3,0.8c-0.2,0.2-0.4,0.3-0.7,0.3H568z M570.8,543.1c-0.3,0-0.5-0.1-0.7-0.3c-0.2-0.2-0.3-0.4-0.3-0.8
			c0-0.4,0.1-0.7,0.3-0.8c0.2-0.2,0.4-0.3,0.7-0.3h0.2c0.3,0,0.5,0.1,0.7,0.3c0.2,0.2,0.3,0.4,0.3,0.8c0,0.4-0.1,0.7-0.3,0.8
			c-0.2,0.2-0.4,0.3-0.7,0.3H570.8z"/>
		<path fill="#FFFFFF" d="M577.1,534.9c0,0.9,0.3,1.4,0.9,1.7l1.2-2c0.6-1,1.1-1.8,1.7-2.4c0.6-0.6,1.2-1.1,1.7-1.5
			c0.6-0.4,1.2-0.7,1.8-0.8c0.6-0.2,1.2-0.2,1.9-0.2c1.4,0,2.5,0.4,3.3,1.2s1.2,1.9,1.2,3.2c0,1.7-0.4,2.8-1.3,3.5
			c-0.8,0.7-2.1,1.1-3.7,1.1h-6.5c-2,0-3.2-0.7-3.6-2.2h-0.1c-0.2,0.8-0.5,1.4-0.9,1.7c-0.5,0.3-1.2,0.5-2.2,0.5v-1.5l0.4-0.4h0.8
			c1.2,0,1.9-0.6,1.9-1.9v-1.7h1.5V534.9z M585.8,536.8c1.1,0,1.9-0.2,2.5-0.6c0.6-0.4,0.9-1,0.9-1.9c0-0.9-0.2-1.6-0.7-2.1
			c-0.5-0.5-1.1-0.7-1.9-0.7h-0.7c-0.6,0-1.1,0.1-1.6,0.2c-0.5,0.1-0.9,0.3-1.4,0.6c-0.4,0.3-0.9,0.6-1.3,1.1s-0.9,1.1-1.3,1.8
			l-0.9,1.5l0.1,0.1H585.8z"/>
		<path fill="#FFFFFF" d="M592.5,542.1h1.5c1.8,0,3.1-0.4,3.9-1.2c0.9-0.8,1.3-1.9,1.3-3.3v-0.5h-0.1c-0.2,0.5-0.5,0.9-1,1.1
			c-0.5,0.3-1,0.4-1.7,0.4c-1.2,0-2.1-0.3-2.7-0.9c-0.6-0.6-1-1.5-1-2.6c0-0.7,0.1-1.3,0.3-1.9s0.5-1.1,0.8-1.5
			c0.4-0.4,0.8-0.8,1.3-1c0.5-0.3,1-0.4,1.6-0.4c1.3,0,2.3,0.5,3,1.6c0.7,1.1,1.1,2.6,1.1,4.6c0,2.3-0.6,4.2-1.7,5.5
			c-1.1,1.3-2.8,2-5.1,2h-1.5V542.1z M596.8,536.8c0.6,0,1.1-0.1,1.5-0.2c0.4-0.1,0.7-0.3,0.9-0.5c0-1.2-0.2-2.1-0.7-2.8
			c-0.5-0.7-1.1-1-1.9-1c-0.7,0-1.3,0.2-1.7,0.7c-0.4,0.5-0.6,1.2-0.6,2c0,0.6,0.2,1.1,0.5,1.4c0.3,0.3,0.9,0.4,1.6,0.4H596.8z"/>
	</g>
</g>
</svg>
