<?xml version="1.0" encoding="utf-8"?>
<!-- Generator: Adobe Illustrator 27.0.1, SVG Export Plug-In . SVG Version: 6.00 Build 0)  -->
<svg version="1.1" id="Layer_1" xmlns="http://www.w3.org/2000/svg" xmlns:xlink="http://www.w3.org/1999/xlink" x="0px" y="0px"
	 viewBox="0 0 740.5 740.5" enable-background="new 0 0 740.5 740.5" xml:space="preserve">
<g>
	<g>
		<g>
			<g>
				<path fill="#64226E" d="M370.2,370.3l320.6-185.1c102.2,177.1,41.6,403.5-135.5,505.8c-59,34-117,49.6-185.1,49.6V370.3z"/>
			</g>
		</g>
		<g>
			<g>
				<path fill="#C5C6C8" d="M370.2,370.3L49.6,185.2C151.8,8.1,378.3-52.6,555.4,49.7c59,34,101.5,76.5,135.5,135.5L370.2,370.3z"/>
			</g>
		</g>
		<g>
			<g>
				<path fill="#CC081E" d="M370.2,370.3v370.2C165.8,740.5,0,574.8,0,370.3c0-68.1,15.6-126.2,49.6-185.1L370.2,370.3z"/>
			</g>
		</g>
	</g>
	<g>
		<path d="M172.6,130.8l-7.6,6.6l4.2,4.8l8.9-7.8l3.2,3.7l-13.8,12l-17.4-20l13.8-12l3.2,3.7l-9,7.8l3.7,4.2l7.6-6.6L172.6,130.8z"
			/>
		<path d="M201.7,102l-1-9.8l6.2-3.9l0.7,15.1l13.5,7.2l-6.2,3.9l-8.6-5.2l1,10l-6.2,3.9l-0.7-15.3l-13.2-7.2l6.2-3.9L201.7,102z"/>
		<path d="M255,70.7l-7.3,3.1l8.4,19.8l-5.9,2.5l-8.4-19.8l-7.2,3.1l-1.9-4.5l20.4-8.7L255,70.7z"/>
		<path d="M296,70.7l-3.4,0.8l2.2,9.1l-6.2,1.5l-6.3-25.7l10.1-2.5c3.1-0.8,5.6-0.7,7.7,0.3c2.1,0.9,3.4,2.6,4,5.1
			c0.4,1.8,0.4,3.4,0,4.7c-0.4,1.4-1.3,2.6-2.7,3.7l7.9,9.1l0.1,0.3l-6.6,1.6L296,70.7z M291.5,66.8l3.9-1c1.2-0.3,2-0.8,2.4-1.6
			c0.4-0.8,0.5-1.7,0.3-2.8c-0.3-1.1-0.8-1.9-1.5-2.4c-0.8-0.5-1.7-0.6-2.9-0.3l-3.9,1L291.5,66.8z"/>
		<path d="M350.6,66.8l-8.7,0.7l-1.1,5.1l-6.8,0.5l7.6-27.2l6-0.5L359.4,71l-6.8,0.5L350.6,66.8z M343,62.4l5.7-0.4l-3.6-8.9
			L343,62.4z"/>
		<path d="M407.3,64.1c-0.2,1.8-0.9,3.4-1.9,4.7c-1,1.3-2.4,2.3-4.1,3c-1.7,0.6-3.6,0.9-5.7,0.7c-3.5-0.3-6.1-1.6-7.9-4.1
			c-1.8-2.4-2.5-5.7-2.2-9.8l0.1-1.3c0.2-2.6,0.9-4.8,1.9-6.7c1.1-1.9,2.5-3.3,4.3-4.2s3.8-1.3,6-1.1c3.2,0.3,5.7,1.3,7.5,3.2
			c1.8,1.8,2.7,4.3,2.7,7.2l-6.3-0.5c0.1-1.6-0.2-2.8-0.9-3.6s-1.8-1.2-3.4-1.3c-1.6-0.1-2.8,0.4-3.6,1.5c-0.8,1.1-1.4,3-1.6,5.6
			l-0.2,1.9c-0.2,2.8,0,4.9,0.6,6.1s1.8,2,3.5,2.1c1.5,0.1,2.6-0.1,3.4-0.8c0.8-0.6,1.3-1.7,1.5-3.2L407.3,64.1z"/>
		<path d="M458.1,61.5l-7.7-1.9l-5.2,20.9L439,79l5.2-20.9l-7.6-1.9l1.2-4.8l21.5,5.3L458.1,61.5z"/>
		<path d="M484.7,93.7l-5.9-2.4l9.9-24.6l5.9,2.4L484.7,93.7z"/>
		<path d="M536.4,106.1c-1.3,2.2-2.9,4-4.7,5.2s-3.8,1.9-5.8,1.9c-2.1,0-4.1-0.5-6-1.6c-2-1.1-3.4-2.6-4.4-4.4s-1.4-3.7-1.3-5.9
			c0.1-2.2,0.8-4.3,2-6.5l0.7-1.3c1.3-2.2,2.9-4,4.7-5.2s3.8-1.9,5.8-1.9c2.1,0,4.1,0.5,6.1,1.6c1.9,1.1,3.4,2.6,4.4,4.4
			c1,1.8,1.4,3.8,1.3,6c-0.1,2.2-0.8,4.4-2.1,6.6L536.4,106.1z M531.4,101.8c1.3-2.3,1.9-4.2,1.9-5.8s-0.8-2.8-2.2-3.7
			c-2.8-1.6-5.4-0.4-8,3.7l-1,1.7c-1.3,2.2-1.9,4.2-1.9,5.8s0.8,2.9,2.3,3.7c1.4,0.8,2.8,0.8,4.3,0.1c1.4-0.7,2.8-2.2,4.1-4.4
			L531.4,101.8z"/>
		<path d="M569.4,146.7l-4.9-4l3.3-18.7l-10.5,12.7l-4.9-4.1l16.9-20.4l4.9,4.1l-3.3,18.7l10.5-12.7l4.9,4.1L569.4,146.7z"/>
	</g>
	<g>
		<path fill="#FFFFFF" d="M63.2,277.5l2.6-8.3l-4.3-3l2.1-6.5L86,276.9l-1.8,5.7L56,284l2.1-6.5L63.2,277.5z M70.1,272.1l-1.7,5.4
			l9.6,0.1L70.1,272.1z"/>
		<path fill="#FFFFFF" d="M58.7,313.6l-8.9-1.5l1.1-6.3l26.1,4.5l-1.8,10.4c-0.3,2-1,3.7-2,5.1c-1,1.4-2.2,2.4-3.7,3
			c-1.5,0.6-3.1,0.8-4.8,0.5c-2.5-0.4-4.4-1.7-5.6-3.8s-1.5-4.7-1-7.9L58.7,313.6z M63.5,314.4l-0.7,4.1c-0.2,1.2-0.1,2.2,0.4,2.9
			c0.5,0.7,1.3,1.2,2.4,1.4c1.2,0.2,2.2,0,3.1-0.5c0.8-0.5,1.4-1.4,1.6-2.5l0.7-4.2L63.5,314.4z"/>
		<path fill="#FFFFFF" d="M53.8,356.7l-9-0.3l0.2-6.4l26.5,0.8l-0.3,10.6c-0.1,2-0.5,3.8-1.3,5.3c-0.8,1.5-1.9,2.7-3.3,3.5
			c-1.4,0.8-3,1.2-4.7,1.1c-2.6-0.1-4.6-1.1-6.1-3c-1.5-1.9-2.2-4.5-2.1-7.7L53.8,356.7z M58.7,356.9l-0.1,4.2
			c0,1.2,0.2,2.2,0.8,2.9c0.6,0.7,1.5,1,2.6,1.1c1.2,0,2.2-0.3,3-0.9c0.8-0.6,1.2-1.5,1.2-2.7l0.1-4.3L58.7,356.9z"/>
		<path fill="#FFFFFF" d="M55.6,403.5l-0.4-3.4l-9.3,1l-0.7-6.3l26.3-2.8l1.1,10.4c0.3,3.1-0.1,5.6-1.3,7.5c-1.2,1.9-3.1,3-5.6,3.3
			c-1.8,0.2-3.4,0-4.7-0.6c-1.3-0.6-2.4-1.7-3.3-3.2l-10,6.6l-0.3,0l-0.7-6.8L55.6,403.5z M60.2,399.6l0.4,4
			c0.1,1.2,0.5,2.1,1.2,2.6c0.7,0.5,1.6,0.8,2.8,0.6c1.1-0.1,2-0.5,2.6-1.2c0.6-0.7,0.8-1.6,0.7-2.8l-0.4-4L60.2,399.6z"/>
		<path fill="#FFFFFF" d="M66.6,452.3l-2.4-9.8L58,444l2.8,11.5l-4.8,1.2L51.7,439l25.7-6.3l4.3,17.8l-4.8,1.2l-2.8-11.6l-5.4,1.3
			l2.4,9.8L66.6,452.3z"/>
		<path fill="#FFFFFF" d="M71,499.3l-2.3-5.9l11.9-14.8l-15.3,6l-2.3-5.9l24.7-9.7l2.3,5.9L78,489.7l15.3-6l2.3,5.9L71,499.3z"/>
		<path fill="#FFFFFF" d="M110.6,528.9l-3.9-6.9l-18.8,10.6l-3.1-5.6l18.8-10.6l-3.8-6.8l4.3-2.4l10.8,19.3L110.6,528.9z"/>
		<path fill="#FFFFFF" d="M108.4,564l-3.7-5.2l21.5-15.5l3.7,5.2L108.4,564z"/>
		<path fill="#FFFFFF" d="M138.1,588.6c0.7-0.6,1-1.4,0.9-2.2c-0.1-0.8-0.4-2.1-1.2-3.7c-0.7-1.6-1.2-3-1.6-4.1
			c-1.1-3.7-0.5-6.5,1.6-8.5c1.1-1,2.3-1.6,3.7-1.7c1.4-0.1,2.9,0.2,4.4,0.9c1.5,0.7,2.9,1.8,4.3,3.3c1.3,1.4,2.2,2.9,2.7,4.5
			c0.5,1.6,0.6,3.1,0.2,4.6c-0.4,1.5-1.1,2.7-2.3,3.8l-4.3-4.7c0.8-0.7,1.2-1.5,1.2-2.4c0-0.9-0.4-1.7-1.2-2.6
			c-0.8-0.8-1.6-1.3-2.4-1.5c-0.8-0.1-1.5,0-2.1,0.6c-0.5,0.5-0.7,1.1-0.6,2.1c0.1,0.9,0.5,2.2,1.3,4c0.8,1.7,1.4,3.3,1.6,4.6
			c0.7,3.2,0,5.8-2.1,7.8c-1.7,1.6-3.6,2.2-5.8,1.8c-2.2-0.4-4.3-1.7-6.3-4c-1.5-1.6-2.5-3.3-3.1-5.1c-0.6-1.8-0.7-3.5-0.3-5
			c0.4-1.6,1.2-2.9,2.5-4.1l4.3,4.7c-1,1-1.6,1.9-1.6,2.9c0,1,0.6,2.1,1.7,3.3c0.7,0.8,1.4,1.2,2.2,1.4
			C136.8,589.4,137.5,589.2,138.1,588.6z"/>
		<path fill="#FFFFFF" d="M169.4,617.7c0.6-0.7,0.8-1.5,0.6-2.3c-0.2-0.8-0.7-2-1.6-3.5c-0.9-1.5-1.6-2.8-2.1-3.9
			c-1.6-3.5-1.4-6.4,0.5-8.6c0.9-1.1,2.1-1.8,3.5-2.2c1.4-0.3,2.9-0.2,4.5,0.3c1.6,0.5,3.2,1.4,4.7,2.7c1.5,1.2,2.6,2.6,3.3,4.1
			c0.7,1.5,1,3,0.9,4.5c-0.2,1.5-0.8,2.9-1.8,4.1l-4.9-4.1c0.7-0.8,1-1.7,0.8-2.6c-0.1-0.9-0.6-1.7-1.5-2.4
			c-0.9-0.7-1.7-1.1-2.6-1.1c-0.8,0-1.5,0.2-2,0.8c-0.4,0.5-0.5,1.2-0.3,2.1c0.2,0.9,0.8,2.1,1.9,3.8c1,1.6,1.8,3.1,2.3,4.3
			c1.1,3.1,0.8,5.8-1.1,8c-1.5,1.8-3.3,2.6-5.5,2.5c-2.2-0.1-4.5-1.1-6.8-3.1c-1.7-1.4-2.9-2.9-3.7-4.6c-0.8-1.7-1.2-3.4-1-4.9
			c0.2-1.6,0.8-3.1,1.9-4.4l4.9,4.1c-0.9,1.1-1.3,2.1-1.2,3.1c0.1,1,0.8,2,2.1,3.1c0.8,0.7,1.6,1,2.4,1.1
			C168.3,618.7,168.9,618.4,169.4,617.7z"/>
		<path fill="#FFFFFF" d="M204.5,644.9l-7.4-4.6l-3.9,3.4l-5.8-3.6l22.2-17.4l5.1,3.2l-5.7,27.7l-5.8-3.6L204.5,644.9z M200.9,636.9
			l4.8,3l2.4-9.3L200.9,636.9z"/>
		<path fill="#FFFFFF" d="M250.1,669.6c-1.3,0.6-3,0.8-5,0.7c-2-0.2-4-0.7-6.1-1.6c-3.2-1.4-5.3-3.5-6.3-6.3s-0.9-5.9,0.5-9.4
			l0.9-2.1c1.1-2.4,2.4-4.3,4-5.7c1.6-1.4,3.4-2.2,5.4-2.5c2-0.3,4,0.1,6.1,1c3,1.3,5.1,3.1,6.1,5.2c1.1,2.1,1.1,4.6,0.2,7.5
			l-5.6-2.5c0.4-1.4,0.4-2.6,0-3.5s-1.2-1.6-2.4-2.1c-1.5-0.6-2.9-0.5-4.2,0.4c-1.3,0.9-2.5,2.5-3.6,4.8l-0.6,1.5
			c-1.1,2.4-1.5,4.4-1.2,6c0.3,1.6,1.3,2.8,3.1,3.5c1.5,0.7,2.8,0.8,3.8,0.5l1.7-3.8l-4.1-1.8l1.8-4l9.9,4.4L250.1,669.6z"/>
		<path fill="#FFFFFF" d="M290.4,674.4l-9.6-2.8l-1.8,6.1l11.4,3.3l-1.4,4.7l-17.5-5.1l7.4-25.4l17.6,5.1l-1.4,4.7l-11.4-3.3
			l-1.6,5.4l9.6,2.8L290.4,674.4z"/>
	</g>
	<g>
		<path fill="#FFFFFF" d="M568.3,622.6l-7,5.3l1.8,4.9l-5.4,4.1l-8.3-27l4.8-3.6l23.8,15.1l-5.5,4.2L568.3,622.6z M559.6,623.1
			l4.5-3.5l-7.8-5.6L559.6,623.1z"/>
		<path fill="#FFFFFF" d="M615.5,584.9l-4.3,4.6l-18.4-4.4l12,11.3l-4.4,4.7L581.1,583l4.4-4.7l18.4,4.4l-12-11.3l4.4-4.6
			L615.5,584.9z"/>
		<path fill="#FFFFFF" d="M639.7,544.3l-4.8,7.3l3.3,4l-3.8,5.7l-16.7-22.7l3.3-5l27.5,6.5l-3.8,5.7L639.7,544.3z M631.6,547.6
			l3.1-4.7l-9.2-2.7L631.6,547.6z"/>
		<path fill="#FFFFFF" d="M661,505.7l4.6-10.1l4.5,2.1l-7.3,15.9l-24.1-11.1l2.7-5.8L661,505.7z"/>
		<path fill="#FFFFFF" d="M667.7,460.2l-9.6-8l2-6.6l13.8,13.1l9.1,2.8l-1.9,6.2l-9.1-2.8l-18.7,3.2l2-6.6L667.7,460.2z"/>
		<path fill="#FFFFFF" d="M686.6,409.6c-0.9-0.1-1.7,0.1-2.3,0.7s-1.3,1.7-2.1,3.2s-1.5,2.8-2.2,3.8c-2.1,3.2-4.7,4.6-7.6,4.2
			c-1.5-0.2-2.7-0.8-3.7-1.8c-1-1-1.7-2.3-2.1-4c-0.4-1.6-0.5-3.4-0.2-5.4c0.3-1.9,0.8-3.5,1.7-4.9s2-2.4,3.4-3.1
			c1.4-0.7,2.8-0.9,4.4-0.7l-0.9,6.3c-1.1-0.1-1.9,0.1-2.6,0.6c-0.7,0.6-1.1,1.4-1.2,2.5c-0.2,1.1,0,2.1,0.4,2.8
			c0.4,0.7,1,1.1,1.8,1.2c0.7,0.1,1.3-0.2,2-0.8c0.6-0.6,1.4-1.8,2.2-3.6s1.7-3.1,2.5-4.2c2-2.6,4.5-3.7,7.3-3.3
			c2.3,0.3,4,1.4,5,3.3c1.1,1.9,1.4,4.4,1,7.4c-0.3,2.1-0.9,4-1.9,5.6c-1,1.6-2.2,2.8-3.7,3.5c-1.4,0.7-3,0.9-4.8,0.7l0.9-6.3
			c1.4,0.2,2.5,0,3.3-0.7c0.8-0.6,1.3-1.8,1.5-3.4c0.1-1,0-1.9-0.3-2.6C688,410.1,687.4,409.7,686.6,409.6z"/>
		<path fill="#FFFFFF" d="M684.6,356.7l0.2,10l6.3-0.1l-0.2-11.9l4.9-0.1l0.3,18.2l-26.5,0.5l-0.3-18.3l4.9-0.1l0.2,11.9l5.6-0.1
			l-0.2-10L684.6,356.7z"/>
	</g>
	<g>
		<path d="M229.4,201.1h-5.3v14.7h-2.2v-14.7h-5.3v-1.8h12.8V201.1z"/>
		<path d="M236.6,205.4c-0.3-0.1-0.7-0.1-1-0.1c-1.4,0-2.3,0.6-2.8,1.8v8.7h-2.1v-12.3h2l0,1.4c0.7-1.1,1.7-1.6,2.9-1.6
			c0.4,0,0.7,0.1,0.9,0.2V205.4z"/>
		<path d="M237.8,209.6c0-1.2,0.2-2.3,0.7-3.2c0.5-1,1.1-1.7,2-2.2c0.8-0.5,1.8-0.8,2.9-0.8c1.7,0,3,0.6,4.1,1.7
			c1,1.2,1.5,2.7,1.5,4.6v0.1c0,1.2-0.2,2.3-0.7,3.2c-0.5,0.9-1.1,1.7-2,2.2s-1.8,0.8-2.9,0.8c-1.7,0-3-0.6-4-1.7
			c-1-1.2-1.5-2.7-1.5-4.6V209.6z M239.9,209.8c0,1.4,0.3,2.5,0.9,3.3c0.6,0.8,1.5,1.2,2.5,1.2c1.1,0,1.9-0.4,2.5-1.3
			c0.6-0.8,0.9-2,0.9-3.5c0-1.3-0.3-2.4-1-3.3c-0.6-0.8-1.5-1.3-2.5-1.3c-1,0-1.9,0.4-2.5,1.2S239.9,208.3,239.9,209.8z"/>
		<path d="M259.1,214.6c-0.8,1-2,1.4-3.6,1.4c-1.3,0-2.3-0.4-3-1.1c-0.7-0.8-1-1.9-1-3.4v-8h2.1v7.9c0,1.9,0.8,2.8,2.3,2.8
			c1.6,0,2.7-0.6,3.2-1.8v-8.9h2.1v12.3h-2L259.1,214.6z"/>
		<path d="M268.4,213l3-9.4h2.1l-4.4,12.3h-1.6l-4.4-12.3h2.1L268.4,213z"/>
		<path d="M280.7,216.1c-1.7,0-3-0.5-4.1-1.6s-1.6-2.6-1.6-4.4v-0.4c0-1.2,0.2-2.3,0.7-3.3c0.5-1,1.1-1.7,2-2.2
			c0.8-0.5,1.7-0.8,2.7-0.8c1.6,0,2.8,0.5,3.7,1.6s1.3,2.6,1.3,4.5v0.9h-8.3c0,1.2,0.4,2.2,1.1,2.9c0.7,0.7,1.5,1.1,2.6,1.1
			c0.7,0,1.4-0.2,1.9-0.5c0.5-0.3,1-0.7,1.3-1.2l1.3,1C284.3,215.3,282.8,216.1,280.7,216.1z M280.5,205.1c-0.8,0-1.6,0.3-2.1,0.9
			c-0.6,0.6-0.9,1.5-1.1,2.6h6.1v-0.2c-0.1-1.1-0.3-1.9-0.9-2.5S281.3,205.1,280.5,205.1z"/>
		<path d="M293.9,205.4c-0.3-0.1-0.7-0.1-1-0.1c-1.4,0-2.3,0.6-2.8,1.8v8.7h-2.1v-12.3h2l0,1.4c0.7-1.1,1.7-1.6,2.9-1.6
			c0.4,0,0.7,0.1,0.9,0.2V205.4z"/>
		<path d="M303.8,215.8h-2.1v-17.4h2.1V215.8z"/>
		<path d="M312.3,216.1c-1.7,0-3-0.5-4.1-1.6s-1.6-2.6-1.6-4.4v-0.4c0-1.2,0.2-2.3,0.7-3.3c0.5-1,1.1-1.7,2-2.2
			c0.8-0.5,1.7-0.8,2.7-0.8c1.6,0,2.8,0.5,3.7,1.6s1.3,2.6,1.3,4.5v0.9h-8.3c0,1.2,0.4,2.2,1.1,2.9c0.7,0.7,1.5,1.1,2.6,1.1
			c0.7,0,1.4-0.2,1.9-0.5c0.5-0.3,1-0.7,1.3-1.2l1.3,1C315.9,215.3,314.3,216.1,312.3,216.1z M312,205.1c-0.8,0-1.6,0.3-2.1,0.9
			c-0.6,0.6-0.9,1.5-1.1,2.6h6.1v-0.2c-0.1-1.1-0.3-1.9-0.9-2.5S312.9,205.1,312,205.1z"/>
		<path d="M326.6,212.6c0-0.6-0.2-1-0.6-1.3c-0.4-0.3-1.2-0.6-2.2-0.8s-1.9-0.5-2.5-0.8c-0.6-0.3-1.1-0.7-1.4-1.1
			c-0.3-0.4-0.4-1-0.4-1.6c0-1,0.4-1.9,1.3-2.6c0.9-0.7,1.9-1,3.3-1c1.4,0,2.5,0.4,3.4,1.1s1.3,1.6,1.3,2.8h-2.1
			c0-0.6-0.2-1.1-0.7-1.5s-1.1-0.6-1.8-0.6c-0.8,0-1.4,0.2-1.8,0.5s-0.6,0.8-0.6,1.3c0,0.5,0.2,0.9,0.6,1.1s1.1,0.5,2.2,0.7
			c1,0.2,1.9,0.5,2.5,0.8c0.6,0.3,1.1,0.7,1.4,1.2c0.3,0.5,0.5,1,0.5,1.7c0,1.1-0.4,2-1.3,2.6c-0.9,0.7-2,1-3.4,1
			c-1,0-1.9-0.2-2.6-0.5c-0.8-0.3-1.3-0.8-1.8-1.5c-0.4-0.6-0.6-1.3-0.6-2h2.1c0,0.7,0.3,1.3,0.8,1.7c0.5,0.4,1.2,0.6,2.1,0.6
			c0.8,0,1.4-0.2,1.9-0.5C326.4,213.5,326.6,213.1,326.6,212.6z"/>
		<path d="M344.4,212.6c0-0.6-0.2-1-0.6-1.3c-0.4-0.3-1.2-0.6-2.2-0.8s-1.9-0.5-2.5-0.8c-0.6-0.3-1.1-0.7-1.4-1.1
			c-0.3-0.4-0.4-1-0.4-1.6c0-1,0.4-1.9,1.3-2.6c0.9-0.7,1.9-1,3.3-1c1.4,0,2.5,0.4,3.4,1.1s1.3,1.6,1.3,2.8h-2.1
			c0-0.6-0.2-1.1-0.7-1.5s-1.1-0.6-1.8-0.6c-0.8,0-1.4,0.2-1.8,0.5s-0.6,0.8-0.6,1.3c0,0.5,0.2,0.9,0.6,1.1s1.1,0.5,2.2,0.7
			c1,0.2,1.9,0.5,2.5,0.8c0.6,0.3,1.1,0.7,1.4,1.2c0.3,0.5,0.5,1,0.5,1.7c0,1.1-0.4,2-1.3,2.6c-0.9,0.7-2,1-3.4,1
			c-1,0-1.9-0.2-2.6-0.5c-0.8-0.3-1.3-0.8-1.8-1.5c-0.4-0.6-0.6-1.3-0.6-2h2.1c0,0.7,0.3,1.3,0.8,1.7c0.5,0.4,1.2,0.6,2.1,0.6
			c0.8,0,1.4-0.2,1.9-0.5C344.1,213.5,344.4,213.1,344.4,212.6z"/>
		<path d="M348.6,209.6c0-1.2,0.2-2.3,0.7-3.2c0.5-1,1.1-1.7,2-2.2c0.8-0.5,1.8-0.8,2.9-0.8c1.7,0,3,0.6,4.1,1.7
			c1,1.2,1.5,2.7,1.5,4.6v0.1c0,1.2-0.2,2.3-0.7,3.2c-0.5,0.9-1.1,1.7-2,2.2s-1.8,0.8-2.9,0.8c-1.7,0-3-0.6-4-1.7
			c-1-1.2-1.5-2.7-1.5-4.6V209.6z M350.8,209.8c0,1.4,0.3,2.5,0.9,3.3c0.6,0.8,1.5,1.2,2.5,1.2c1.1,0,1.9-0.4,2.5-1.3
			c0.6-0.8,0.9-2,0.9-3.5c0-1.3-0.3-2.4-1-3.3c-0.6-0.8-1.5-1.3-2.5-1.3c-1,0-1.9,0.4-2.5,1.2S350.8,208.3,350.8,209.8z"/>
		<path d="M370,214.6c-0.8,1-2,1.4-3.6,1.4c-1.3,0-2.3-0.4-3-1.1c-0.7-0.8-1-1.9-1-3.4v-8h2.1v7.9c0,1.9,0.8,2.8,2.3,2.8
			c1.6,0,2.7-0.6,3.2-1.8v-8.9h2.1v12.3h-2L370,214.6z"/>
		<path d="M381.2,205.4c-0.3-0.1-0.7-0.1-1-0.1c-1.4,0-2.3,0.6-2.8,1.8v8.7h-2.1v-12.3h2l0,1.4c0.7-1.1,1.7-1.6,2.9-1.6
			c0.4,0,0.7,0.1,0.9,0.2V205.4z"/>
		<path d="M387.8,214.3c0.7,0,1.4-0.2,2-0.7c0.6-0.5,0.9-1,0.9-1.7h2c0,0.7-0.3,1.4-0.7,2c-0.4,0.6-1,1.1-1.8,1.5
			c-0.7,0.4-1.5,0.6-2.4,0.6c-1.7,0-3-0.6-4-1.7s-1.5-2.6-1.5-4.6v-0.4c0-1.2,0.2-2.3,0.7-3.2c0.4-0.9,1.1-1.7,1.9-2.2
			c0.8-0.5,1.8-0.8,2.9-0.8c1.4,0,2.5,0.4,3.4,1.2c0.9,0.8,1.4,1.9,1.5,3.2h-2c-0.1-0.8-0.4-1.4-0.9-2c-0.5-0.5-1.2-0.8-2-0.8
			c-1.1,0-1.9,0.4-2.5,1.2s-0.9,1.9-0.9,3.3v0.4c0,1.4,0.3,2.5,0.9,3.3C385.9,214,386.7,214.3,387.8,214.3z"/>
		<path d="M400.1,216.1c-1.7,0-3-0.5-4.1-1.6s-1.6-2.6-1.6-4.4v-0.4c0-1.2,0.2-2.3,0.7-3.3c0.5-1,1.1-1.7,2-2.2
			c0.8-0.5,1.7-0.8,2.7-0.8c1.6,0,2.8,0.5,3.7,1.6s1.3,2.6,1.3,4.5v0.9h-8.3c0,1.2,0.4,2.2,1.1,2.9c0.7,0.7,1.5,1.1,2.6,1.1
			c0.7,0,1.4-0.2,1.9-0.5c0.5-0.3,1-0.7,1.3-1.2l1.3,1C403.7,215.3,402.2,216.1,400.1,216.1z M399.9,205.1c-0.8,0-1.6,0.3-2.1,0.9
			c-0.6,0.6-0.9,1.5-1.1,2.6h6.1v-0.2c-0.1-1.1-0.3-1.9-0.9-2.5S400.8,205.1,399.9,205.1z"/>
		<path d="M414.5,212.6c0-0.6-0.2-1-0.6-1.3c-0.4-0.3-1.2-0.6-2.2-0.8s-1.9-0.5-2.5-0.8c-0.6-0.3-1.1-0.7-1.4-1.1
			c-0.3-0.4-0.4-1-0.4-1.6c0-1,0.4-1.9,1.3-2.6c0.9-0.7,1.9-1,3.3-1c1.4,0,2.5,0.4,3.4,1.1s1.3,1.6,1.3,2.8h-2.1
			c0-0.6-0.2-1.1-0.7-1.5s-1.1-0.6-1.8-0.6c-0.8,0-1.4,0.2-1.8,0.5s-0.6,0.8-0.6,1.3c0,0.5,0.2,0.9,0.6,1.1s1.1,0.5,2.2,0.7
			c1,0.2,1.9,0.5,2.5,0.8c0.6,0.3,1.1,0.7,1.4,1.2c0.3,0.5,0.5,1,0.5,1.7c0,1.1-0.4,2-1.3,2.6c-0.9,0.7-2,1-3.4,1
			c-1,0-1.9-0.2-2.6-0.5c-0.8-0.3-1.3-0.8-1.8-1.5c-0.4-0.6-0.6-1.3-0.6-2h2.1c0,0.7,0.3,1.3,0.8,1.7c0.5,0.4,1.2,0.6,2.1,0.6
			c0.8,0,1.4-0.2,1.9-0.5C414.3,213.5,414.5,213.1,414.5,212.6z"/>
		<path d="M427.3,203.6v13.7c0,2.4-1.1,3.5-3.2,3.5c-0.5,0-0.9-0.1-1.3-0.2v-1.7c0.2,0.1,0.6,0.1,1,0.1c0.5,0,0.8-0.1,1.1-0.4
			c0.2-0.3,0.4-0.7,0.4-1.3v-13.7H427.3z M424.9,200.3c0-0.3,0.1-0.6,0.3-0.9s0.5-0.4,0.9-0.4c0.4,0,0.7,0.1,0.9,0.4
			c0.2,0.2,0.3,0.5,0.3,0.9c0,0.3-0.1,0.6-0.3,0.9c-0.2,0.2-0.5,0.3-0.9,0.3s-0.7-0.1-0.9-0.3C425,200.9,424.9,200.6,424.9,200.3z"
			/>
		<path d="M438.2,214.6c-0.8,1-2,1.4-3.6,1.4c-1.3,0-2.3-0.4-3-1.1c-0.7-0.8-1-1.9-1-3.4v-8h2.1v7.9c0,1.9,0.8,2.8,2.3,2.8
			c1.6,0,2.7-0.6,3.2-1.8v-8.9h2.1v12.3h-2L438.2,214.6z"/>
		<path d="M449.4,205.4c-0.3-0.1-0.7-0.1-1-0.1c-1.4,0-2.3,0.6-2.8,1.8v8.7h-2.1v-12.3h2l0,1.4c0.7-1.1,1.7-1.6,2.9-1.6
			c0.4,0,0.7,0.1,0.9,0.2V205.4z"/>
		<path d="M451.3,200.3c0-0.3,0.1-0.6,0.3-0.9c0.2-0.2,0.5-0.4,0.9-0.4c0.4,0,0.7,0.1,0.9,0.4c0.2,0.2,0.3,0.5,0.3,0.9
			c0,0.3-0.1,0.6-0.3,0.9c-0.2,0.2-0.5,0.3-0.9,0.3c-0.4,0-0.7-0.1-0.9-0.3C451.4,200.9,451.3,200.6,451.3,200.3z M453.6,215.8h-2.1
			v-12.3h2.1V215.8z"/>
		<path d="M456.4,209.6c0-1.9,0.4-3.4,1.3-4.5c0.9-1.1,2.1-1.7,3.5-1.7c1.4,0,2.6,0.5,3.4,1.5v-6.4h2.1v17.4h-1.9l-0.1-1.3
			c-0.8,1-2,1.5-3.5,1.5c-1.4,0-2.6-0.6-3.5-1.7c-0.9-1.2-1.3-2.7-1.3-4.6V209.6z M458.5,209.8c0,1.4,0.3,2.5,0.9,3.3
			s1.4,1.2,2.4,1.2c1.3,0,2.3-0.6,2.9-1.8v-5.6c-0.6-1.2-1.6-1.7-2.9-1.7c-1,0-1.8,0.4-2.4,1.2C458.8,207.1,458.5,208.3,458.5,209.8
			z"/>
		<path d="M470.1,200.3c0-0.3,0.1-0.6,0.3-0.9c0.2-0.2,0.5-0.4,0.9-0.4c0.4,0,0.7,0.1,0.9,0.4c0.2,0.2,0.3,0.5,0.3,0.9
			c0,0.3-0.1,0.6-0.3,0.9c-0.2,0.2-0.5,0.3-0.9,0.3c-0.4,0-0.7-0.1-0.9-0.3C470.2,200.9,470.1,200.6,470.1,200.3z M472.3,215.8h-2.1
			v-12.3h2.1V215.8z"/>
		<path d="M475.2,209.6c0-1.9,0.4-3.5,1.3-4.6s2.1-1.7,3.6-1.7c1.5,0,2.6,0.5,3.4,1.5l0.1-1.2h1.9v17h-2.1v-5.9
			c-0.8,0.9-2,1.4-3.4,1.4c-1.5,0-2.7-0.6-3.5-1.7s-1.3-2.7-1.3-4.6V209.6z M477.3,209.8c0,1.4,0.3,2.5,0.9,3.3
			c0.6,0.8,1.4,1.2,2.4,1.2c1.2,0,2.2-0.6,2.9-1.7v-6c-0.7-1.1-1.6-1.6-2.8-1.6c-1,0-1.8,0.4-2.4,1.2
			C477.6,207.1,477.3,208.3,477.3,209.8z"/>
		<path d="M496.5,214.6c-0.8,1-2,1.4-3.6,1.4c-1.3,0-2.3-0.4-3-1.1c-0.7-0.8-1-1.9-1-3.4v-8h2.1v7.9c0,1.9,0.8,2.8,2.3,2.8
			c1.6,0,2.7-0.6,3.2-1.8v-8.9h2.1v12.3h-2L496.5,214.6z"/>
		<path d="M506.8,216.1c-1.7,0-3-0.5-4.1-1.6s-1.6-2.6-1.6-4.4v-0.4c0-1.2,0.2-2.3,0.7-3.3c0.5-1,1.1-1.7,2-2.2
			c0.8-0.5,1.7-0.8,2.7-0.8c1.6,0,2.8,0.5,3.7,1.6s1.3,2.6,1.3,4.5v0.9h-8.3c0,1.2,0.4,2.2,1.1,2.9c0.7,0.7,1.5,1.1,2.6,1.1
			c0.7,0,1.4-0.2,1.9-0.5c0.5-0.3,1-0.7,1.3-1.2l1.3,1C510.4,215.3,508.8,216.1,506.8,216.1z M506.5,205.1c-0.8,0-1.6,0.3-2.1,0.9
			c-0.6,0.6-0.9,1.5-1.1,2.6h6.1v-0.2c-0.1-1.1-0.3-1.9-0.9-2.5S507.4,205.1,506.5,205.1z"/>
		<path d="M521.1,212.6c0-0.6-0.2-1-0.6-1.3c-0.4-0.3-1.2-0.6-2.2-0.8s-1.9-0.5-2.5-0.8c-0.6-0.3-1.1-0.7-1.4-1.1
			c-0.3-0.4-0.4-1-0.4-1.6c0-1,0.4-1.9,1.3-2.6c0.9-0.7,1.9-1,3.3-1c1.4,0,2.5,0.4,3.4,1.1s1.3,1.6,1.3,2.8H521
			c0-0.6-0.2-1.1-0.7-1.5s-1.1-0.6-1.8-0.6c-0.8,0-1.4,0.2-1.8,0.5s-0.6,0.8-0.6,1.3c0,0.5,0.2,0.9,0.6,1.1s1.1,0.5,2.2,0.7
			c1,0.2,1.9,0.5,2.5,0.8c0.6,0.3,1.1,0.7,1.4,1.2c0.3,0.5,0.5,1,0.5,1.7c0,1.1-0.4,2-1.3,2.6c-0.9,0.7-2,1-3.4,1
			c-1,0-1.9-0.2-2.6-0.5c-0.8-0.3-1.3-0.8-1.8-1.5c-0.4-0.6-0.6-1.3-0.6-2h2.1c0,0.7,0.3,1.3,0.8,1.7c0.5,0.4,1.2,0.6,2.1,0.6
			c0.8,0,1.4-0.2,1.9-0.5C520.9,213.5,521.1,213.1,521.1,212.6z"/>
	</g>
	<g>
		<path fill="#FCFCFC" d="M203.8,408.4h-7.2v5.9h8.3v1.8h-10.5v-16.5h10.4v1.8h-8.2v5.3h7.2V408.4z M200.6,394.9h2.5l-3,3.3l-1.7,0
			L200.6,394.9z"/>
		<path fill="#FCFCFC" d="M210.2,400.8v3h2.3v1.6h-2.3v7.6c0,0.5,0.1,0.9,0.3,1.1s0.6,0.4,1,0.4c0.2,0,0.6,0,1-0.1v1.7
			c-0.6,0.2-1.1,0.2-1.6,0.2c-0.9,0-1.6-0.3-2.1-0.9c-0.5-0.6-0.7-1.4-0.7-2.4v-7.6h-2.2v-1.6h2.2v-3H210.2z"/>
		<path fill="#FCFCFC" d="M222.5,414.8c-0.8,1-2,1.4-3.6,1.4c-1.3,0-2.3-0.4-3-1.1c-0.7-0.8-1-1.9-1-3.4v-8h2.1v7.9
			c0,1.9,0.8,2.8,2.3,2.8c1.6,0,2.7-0.6,3.2-1.8v-8.9h2.1V416h-2L222.5,414.8z"/>
		<path fill="#FCFCFC" d="M227.2,409.8c0-1.9,0.4-3.4,1.3-4.5c0.9-1.1,2.1-1.7,3.5-1.7c1.4,0,2.6,0.5,3.4,1.5v-6.4h2.1V416h-1.9
			l-0.1-1.3c-0.8,1-2,1.5-3.5,1.5c-1.4,0-2.6-0.6-3.5-1.7c-0.9-1.2-1.3-2.7-1.3-4.6V409.8z M229.3,410c0,1.4,0.3,2.5,0.9,3.3
			s1.4,1.2,2.4,1.2c1.3,0,2.3-0.6,2.9-1.8V407c-0.6-1.2-1.6-1.7-2.9-1.7c-1,0-1.8,0.4-2.4,1.2C229.6,407.3,229.3,408.4,229.3,410z"
			/>
		<path fill="#FCFCFC" d="M240.8,400.5c0-0.3,0.1-0.6,0.3-0.9c0.2-0.2,0.5-0.4,0.9-0.4c0.4,0,0.7,0.1,0.9,0.4
			c0.2,0.2,0.3,0.5,0.3,0.9c0,0.3-0.1,0.6-0.3,0.9c-0.2,0.2-0.5,0.3-0.9,0.3c-0.4,0-0.7-0.1-0.9-0.3
			C240.9,401.1,240.8,400.8,240.8,400.5z M243.1,416H241v-12.3h2.1V416z"/>
		<path fill="#FCFCFC" d="M251.6,416.2c-1.7,0-3-0.5-4.1-1.6s-1.6-2.6-1.6-4.4v-0.4c0-1.2,0.2-2.3,0.7-3.3c0.5-1,1.1-1.7,2-2.2
			c0.8-0.5,1.7-0.8,2.7-0.8c1.6,0,2.8,0.5,3.7,1.6s1.3,2.6,1.3,4.5v0.9H248c0,1.2,0.4,2.2,1.1,2.9c0.7,0.7,1.5,1.1,2.6,1.1
			c0.7,0,1.4-0.2,1.9-0.5c0.5-0.3,1-0.7,1.3-1.2l1.3,1C255.2,415.4,253.6,416.2,251.6,416.2z M251.3,405.2c-0.8,0-1.6,0.3-2.1,0.9
			c-0.6,0.6-0.9,1.5-1.1,2.6h6.1v-0.2c-0.1-1.1-0.3-1.9-0.9-2.5S252.2,405.2,251.3,405.2z"/>
		<path fill="#FCFCFC" d="M264.7,405.6c-0.3-0.1-0.7-0.1-1-0.1c-1.4,0-2.3,0.6-2.8,1.8v8.7h-2.1v-12.3h2l0,1.4
			c0.7-1.1,1.7-1.6,2.9-1.6c0.4,0,0.7,0.1,0.9,0.2V405.6z"/>
		<path fill="#FCFCFC" d="M274.7,416h-2.1v-17.4h2.1V416z"/>
		<path fill="#FCFCFC" d="M283.1,416.2c-1.7,0-3-0.5-4.1-1.6s-1.6-2.6-1.6-4.4v-0.4c0-1.2,0.2-2.3,0.7-3.3c0.5-1,1.1-1.7,2-2.2
			c0.8-0.5,1.7-0.8,2.7-0.8c1.6,0,2.8,0.5,3.7,1.6s1.3,2.6,1.3,4.5v0.9h-8.3c0,1.2,0.4,2.2,1.1,2.9c0.7,0.7,1.5,1.1,2.6,1.1
			c0.7,0,1.4-0.2,1.9-0.5c0.5-0.3,1-0.7,1.3-1.2l1.3,1C286.7,415.4,285.2,416.2,283.1,416.2z M282.9,405.2c-0.8,0-1.6,0.3-2.1,0.9
			c-0.6,0.6-0.9,1.5-1.1,2.6h6.1v-0.2c-0.1-1.1-0.3-1.9-0.9-2.5S283.7,405.2,282.9,405.2z"/>
		<path fill="#FCFCFC" d="M295.6,409.8c0-1.9,0.4-3.4,1.3-4.5c0.9-1.1,2.1-1.7,3.5-1.7c1.4,0,2.6,0.5,3.4,1.5v-6.4h2.1V416H304
			l-0.1-1.3c-0.8,1-2,1.5-3.5,1.5c-1.4,0-2.6-0.6-3.5-1.7c-0.9-1.2-1.3-2.7-1.3-4.6V409.8z M297.7,410c0,1.4,0.3,2.5,0.9,3.3
			s1.4,1.2,2.4,1.2c1.3,0,2.3-0.6,2.9-1.8V407c-0.6-1.2-1.6-1.7-2.9-1.7c-1,0-1.8,0.4-2.4,1.2C298,407.3,297.7,408.4,297.7,410z"/>
		<path fill="#FCFCFC" d="M315.1,405.6c-0.3-0.1-0.7-0.1-1-0.1c-1.4,0-2.3,0.6-2.8,1.8v8.7h-2.1v-12.3h2l0,1.4
			c0.7-1.1,1.7-1.6,2.9-1.6c0.4,0,0.7,0.1,0.9,0.2V405.6z"/>
		<path fill="#FCFCFC" d="M316.3,409.7c0-1.2,0.2-2.3,0.7-3.2c0.5-1,1.1-1.7,2-2.2c0.8-0.5,1.8-0.8,2.9-0.8c1.7,0,3,0.6,4.1,1.7
			c1,1.2,1.5,2.7,1.5,4.6v0.1c0,1.2-0.2,2.3-0.7,3.2c-0.5,0.9-1.1,1.7-2,2.2s-1.8,0.8-2.9,0.8c-1.7,0-3-0.6-4-1.7
			c-1-1.2-1.5-2.7-1.5-4.6V409.7z M318.4,410c0,1.4,0.3,2.5,0.9,3.3c0.6,0.8,1.5,1.2,2.5,1.2c1.1,0,1.9-0.4,2.5-1.3
			c0.6-0.8,0.9-2,0.9-3.5c0-1.3-0.3-2.4-1-3.3c-0.6-0.8-1.5-1.3-2.5-1.3c-1,0-1.9,0.4-2.5,1.2S318.4,408.5,318.4,410z"/>
		<path fill="#FCFCFC" d="M330.1,400.5c0-0.3,0.1-0.6,0.3-0.9c0.2-0.2,0.5-0.4,0.9-0.4c0.4,0,0.7,0.1,0.9,0.4
			c0.2,0.2,0.3,0.5,0.3,0.9c0,0.3-0.1,0.6-0.3,0.9c-0.2,0.2-0.5,0.3-0.9,0.3c-0.4,0-0.7-0.1-0.9-0.3
			C330.2,401.1,330.1,400.8,330.1,400.5z M332.3,416h-2.1v-12.3h2.1V416z"/>
		<path fill="#FCFCFC" d="M338.6,400.8v3h2.3v1.6h-2.3v7.6c0,0.5,0.1,0.9,0.3,1.1s0.6,0.4,1,0.4c0.2,0,0.6,0,1-0.1v1.7
			c-0.6,0.2-1.1,0.2-1.6,0.2c-0.9,0-1.6-0.3-2.1-0.9c-0.5-0.6-0.7-1.4-0.7-2.4v-7.6h-2.2v-1.6h2.2v-3H338.6z"/>
		<path fill="#FCFCFC" d="M119.1,432.3c0-0.3,0.1-0.6,0.3-0.9c0.2-0.2,0.5-0.4,0.9-0.4c0.4,0,0.7,0.1,0.9,0.4
			c0.2,0.2,0.3,0.5,0.3,0.9c0,0.3-0.1,0.6-0.3,0.9c-0.2,0.2-0.5,0.3-0.9,0.3c-0.4,0-0.7-0.1-0.9-0.3
			C119.2,433,119.1,432.7,119.1,432.3z M121.3,447.9h-2.1v-12.3h2.1V447.9z"/>
		<path fill="#FCFCFC" d="M126.7,435.6l0.1,1.5c0.9-1.2,2.2-1.8,3.7-1.8c2.6,0,3.9,1.5,3.9,4.4v8.1h-2.1v-8.1c0-0.9-0.2-1.5-0.6-2
			c-0.4-0.4-1-0.6-1.9-0.6c-0.7,0-1.3,0.2-1.8,0.5c-0.5,0.4-0.9,0.8-1.2,1.4v8.7h-2.1v-12.3H126.7z"/>
		<path fill="#FCFCFC" d="M140.4,432.6v3h2.3v1.6h-2.3v7.6c0,0.5,0.1,0.9,0.3,1.1s0.6,0.4,1,0.4c0.2,0,0.6,0,1-0.1v1.7
			c-0.6,0.2-1.1,0.2-1.6,0.2c-0.9,0-1.6-0.3-2.1-0.9c-0.5-0.6-0.7-1.4-0.7-2.4v-7.6H136v-1.6h2.2v-3H140.4z"/>
		<path fill="#FCFCFC" d="M150.2,448.1c-1.7,0-3-0.5-4.1-1.6s-1.6-2.6-1.6-4.4v-0.4c0-1.2,0.2-2.3,0.7-3.3c0.5-1,1.1-1.7,2-2.2
			c0.8-0.5,1.7-0.8,2.7-0.8c1.6,0,2.8,0.5,3.7,1.6s1.3,2.6,1.3,4.5v0.9h-8.3c0,1.2,0.4,2.2,1.1,2.9c0.7,0.7,1.5,1.1,2.6,1.1
			c0.7,0,1.4-0.2,1.9-0.5c0.5-0.3,1-0.7,1.3-1.2l1.3,1C153.8,447.3,152.3,448.1,150.2,448.1z M149.9,437.1c-0.8,0-1.6,0.3-2.1,0.9
			c-0.6,0.6-0.9,1.5-1.1,2.6h6.1v-0.2c-0.1-1.1-0.3-1.9-0.9-2.5S150.8,437.1,149.9,437.1z"/>
		<path fill="#FCFCFC" d="M163.4,437.5c-0.3-0.1-0.7-0.1-1-0.1c-1.4,0-2.3,0.6-2.8,1.8v8.7h-2.1v-12.3h2l0,1.4
			c0.7-1.1,1.7-1.6,2.9-1.6c0.4,0,0.7,0.1,0.9,0.2V437.5z"/>
		<path fill="#FCFCFC" d="M167.3,435.6l0.1,1.5c0.9-1.2,2.2-1.8,3.7-1.8c2.6,0,3.9,1.5,3.9,4.4v8.1h-2.1v-8.1c0-0.9-0.2-1.5-0.6-2
			c-0.4-0.4-1-0.6-1.9-0.6c-0.7,0-1.3,0.2-1.8,0.5c-0.5,0.4-0.9,0.8-1.2,1.4v8.7h-2.1v-12.3H167.3z"/>
		<path fill="#FCFCFC" d="M185.7,447.9c-0.1-0.2-0.2-0.7-0.3-1.3c-1,1-2.1,1.5-3.5,1.5c-1.2,0-2.2-0.3-3-1c-0.8-0.7-1.2-1.6-1.2-2.6
			c0-1.3,0.5-2.3,1.5-3s2.3-1.1,4.1-1.1h2v-1c0-0.7-0.2-1.3-0.7-1.8c-0.4-0.4-1.1-0.7-1.9-0.7c-0.7,0-1.4,0.2-1.9,0.6
			c-0.5,0.4-0.8,0.8-0.8,1.4H178c0-0.6,0.2-1.2,0.7-1.8c0.4-0.6,1-1,1.8-1.4c0.7-0.3,1.6-0.5,2.5-0.5c1.4,0,2.5,0.4,3.3,1.1
			c0.8,0.7,1.2,1.7,1.2,2.9v5.6c0,1.1,0.1,2,0.4,2.7v0.2H185.7z M182.2,446.3c0.7,0,1.3-0.2,1.9-0.5c0.6-0.3,1-0.8,1.3-1.3v-2.5
			h-1.6c-2.6,0-3.9,0.8-3.9,2.3c0,0.7,0.2,1.2,0.7,1.5C180.9,446.1,181.5,446.3,182.2,446.3z"/>
		<path fill="#FCFCFC" d="M193.6,432.6v3h2.3v1.6h-2.3v7.6c0,0.5,0.1,0.9,0.3,1.1s0.6,0.4,1,0.4c0.2,0,0.6,0,1-0.1v1.7
			c-0.6,0.2-1.1,0.2-1.6,0.2c-0.9,0-1.6-0.3-2.1-0.9c-0.5-0.6-0.7-1.4-0.7-2.4v-7.6h-2.2v-1.6h2.2v-3H193.6z"/>
		<path fill="#FCFCFC" d="M198.3,432.3c0-0.3,0.1-0.6,0.3-0.9c0.2-0.2,0.5-0.4,0.9-0.4c0.4,0,0.7,0.1,0.9,0.4
			c0.2,0.2,0.3,0.5,0.3,0.9c0,0.3-0.1,0.6-0.3,0.9c-0.2,0.2-0.5,0.3-0.9,0.3c-0.4,0-0.7-0.1-0.9-0.3
			C198.4,433,198.3,432.7,198.3,432.3z M200.6,447.9h-2.1v-12.3h2.1V447.9z"/>
		<path fill="#FCFCFC" d="M203.4,441.6c0-1.2,0.2-2.3,0.7-3.2c0.5-1,1.1-1.7,2-2.2c0.8-0.5,1.8-0.8,2.9-0.8c1.7,0,3,0.6,4.1,1.7
			c1,1.2,1.5,2.7,1.5,4.6v0.1c0,1.2-0.2,2.3-0.7,3.2c-0.5,0.9-1.1,1.7-2,2.2s-1.8,0.8-2.9,0.8c-1.7,0-3-0.6-4-1.7
			c-1-1.2-1.5-2.7-1.5-4.6V441.6z M205.5,441.9c0,1.4,0.3,2.5,0.9,3.3c0.6,0.8,1.5,1.2,2.5,1.2c1.1,0,1.9-0.4,2.5-1.3
			c0.6-0.8,0.9-2,0.9-3.5c0-1.3-0.3-2.4-1-3.3c-0.6-0.8-1.5-1.3-2.5-1.3c-1,0-1.9,0.4-2.5,1.2S205.5,440.3,205.5,441.9z"/>
		<path fill="#FCFCFC" d="M219.2,435.6l0.1,1.5c0.9-1.2,2.2-1.8,3.7-1.8c2.6,0,3.9,1.5,3.9,4.4v8.1h-2.1v-8.1c0-0.9-0.2-1.5-0.6-2
			c-0.4-0.4-1-0.6-1.9-0.6c-0.7,0-1.3,0.2-1.8,0.5c-0.5,0.4-0.9,0.8-1.2,1.4v8.7h-2.1v-12.3H219.2z"/>
		<path fill="#FCFCFC" d="M237.6,447.9c-0.1-0.2-0.2-0.7-0.3-1.3c-1,1-2.1,1.5-3.5,1.5c-1.2,0-2.2-0.3-3-1c-0.8-0.7-1.2-1.6-1.2-2.6
			c0-1.3,0.5-2.3,1.5-3s2.3-1.1,4.1-1.1h2v-1c0-0.7-0.2-1.3-0.7-1.8c-0.4-0.4-1.1-0.7-1.9-0.7c-0.7,0-1.4,0.2-1.9,0.6
			c-0.5,0.4-0.8,0.8-0.8,1.4h-2.1c0-0.6,0.2-1.2,0.7-1.8c0.4-0.6,1-1,1.8-1.4c0.7-0.3,1.6-0.5,2.5-0.5c1.4,0,2.5,0.4,3.3,1.1
			c0.8,0.7,1.2,1.7,1.2,2.9v5.6c0,1.1,0.1,2,0.4,2.7v0.2H237.6z M234.1,446.3c0.7,0,1.3-0.2,1.9-0.5c0.6-0.3,1-0.8,1.3-1.3v-2.5
			h-1.6c-2.6,0-3.9,0.8-3.9,2.3c0,0.7,0.2,1.2,0.7,1.5C232.9,446.1,233.4,446.3,234.1,446.3z"/>
		<path fill="#FCFCFC" d="M244.9,447.9h-2.1v-17.4h2.1V447.9z"/>
		<path fill="#FCFCFC" d="M261.6,447.9c-0.1-0.2-0.2-0.7-0.3-1.3c-1,1-2.1,1.5-3.5,1.5c-1.2,0-2.2-0.3-3-1c-0.8-0.7-1.2-1.6-1.2-2.6
			c0-1.3,0.5-2.3,1.5-3s2.3-1.1,4.1-1.1h2v-1c0-0.7-0.2-1.3-0.7-1.8c-0.4-0.4-1.1-0.7-1.9-0.7c-0.7,0-1.4,0.2-1.9,0.6
			c-0.5,0.4-0.8,0.8-0.8,1.4h-2.1c0-0.6,0.2-1.2,0.7-1.8c0.4-0.6,1-1,1.8-1.4c0.7-0.3,1.6-0.5,2.5-0.5c1.4,0,2.5,0.4,3.3,1.1
			c0.8,0.7,1.2,1.7,1.2,2.9v5.6c0,1.1,0.1,2,0.4,2.7v0.2H261.6z M260.3,433.8l-1.8,0l-2.9-3.3h2.5L260.3,433.8z M258.1,446.3
			c0.7,0,1.3-0.2,1.9-0.5c0.6-0.3,1-0.8,1.3-1.3v-2.5h-1.6c-2.6,0-3.9,0.8-3.9,2.3c0,0.7,0.2,1.2,0.7,1.5
			C256.9,446.1,257.5,446.3,258.1,446.3z"/>
		<path fill="#FCFCFC" d="M275.3,432.6v3h2.3v1.6h-2.3v7.6c0,0.5,0.1,0.9,0.3,1.1s0.6,0.4,1,0.4c0.2,0,0.6,0,1-0.1v1.7
			c-0.6,0.2-1.1,0.2-1.6,0.2c-0.9,0-1.6-0.3-2.1-0.9c-0.5-0.6-0.7-1.4-0.7-2.4v-7.6h-2.2v-1.6h2.2v-3H275.3z"/>
		<path fill="#FCFCFC" d="M286,437.5c-0.3-0.1-0.7-0.1-1-0.1c-1.4,0-2.3,0.6-2.8,1.8v8.7H280v-12.3h2l0,1.4c0.7-1.1,1.7-1.6,2.9-1.6
			c0.4,0,0.7,0.1,0.9,0.2V437.5z"/>
		<path fill="#FCFCFC" d="M295,447.9c-0.1-0.2-0.2-0.7-0.3-1.3c-1,1-2.1,1.5-3.5,1.5c-1.2,0-2.2-0.3-3-1c-0.8-0.7-1.2-1.6-1.2-2.6
			c0-1.3,0.5-2.3,1.5-3s2.3-1.1,4.1-1.1h2v-1c0-0.7-0.2-1.3-0.7-1.8c-0.4-0.4-1.1-0.7-1.9-0.7c-0.7,0-1.4,0.2-1.9,0.6
			c-0.5,0.4-0.8,0.8-0.8,1.4h-2.1c0-0.6,0.2-1.2,0.7-1.8c0.4-0.6,1-1,1.8-1.4c0.7-0.3,1.6-0.5,2.5-0.5c1.4,0,2.5,0.4,3.3,1.1
			c0.8,0.7,1.2,1.7,1.2,2.9v5.6c0,1.1,0.1,2,0.4,2.7v0.2H295z M291.5,446.3c0.7,0,1.3-0.2,1.9-0.5c0.6-0.3,1-0.8,1.3-1.3v-2.5H293
			c-2.6,0-3.9,0.8-3.9,2.3c0,0.7,0.2,1.2,0.7,1.5C290.3,446.1,290.8,446.3,291.5,446.3z"/>
		<path fill="#FCFCFC" d="M303.9,445l3-9.4h2.1l-4.4,12.3h-1.6l-4.4-12.3h2.1L303.9,445z"/>
		<path fill="#FCFCFC" d="M316.2,448.1c-1.7,0-3-0.5-4.1-1.6s-1.6-2.6-1.6-4.4v-0.4c0-1.2,0.2-2.3,0.7-3.3c0.5-1,1.1-1.7,2-2.2
			c0.8-0.5,1.7-0.8,2.7-0.8c1.6,0,2.8,0.5,3.7,1.6s1.3,2.6,1.3,4.5v0.9h-8.3c0,1.2,0.4,2.2,1.1,2.9c0.7,0.7,1.5,1.1,2.6,1.1
			c0.7,0,1.4-0.2,1.9-0.5c0.5-0.3,1-0.7,1.3-1.2l1.3,1C319.8,447.3,318.3,448.1,316.2,448.1z M316,437.1c-0.8,0-1.6,0.3-2.1,0.9
			c-0.6,0.6-0.9,1.5-1.1,2.6h6.1v-0.2c-0.1-1.1-0.3-1.9-0.9-2.5S316.9,437.1,316,437.1z"/>
		<path fill="#FCFCFC" d="M329.4,437.5c-0.3-0.1-0.7-0.1-1-0.1c-1.4,0-2.3,0.6-2.8,1.8v8.7h-2.1v-12.3h2l0,1.4
			c0.7-1.1,1.7-1.6,2.9-1.6c0.4,0,0.7,0.1,0.9,0.2V437.5z"/>
		<path fill="#FCFCFC" d="M338.5,444.6c0-0.6-0.2-1-0.6-1.3c-0.4-0.3-1.2-0.6-2.2-0.8s-1.9-0.5-2.5-0.8c-0.6-0.3-1.1-0.7-1.4-1.1
			c-0.3-0.4-0.4-1-0.4-1.6c0-1,0.4-1.9,1.3-2.6c0.9-0.7,1.9-1,3.3-1c1.4,0,2.5,0.4,3.4,1.1s1.3,1.6,1.3,2.8h-2.1
			c0-0.6-0.2-1.1-0.7-1.5s-1.1-0.6-1.8-0.6c-0.8,0-1.4,0.2-1.8,0.5s-0.6,0.8-0.6,1.3c0,0.5,0.2,0.9,0.6,1.1s1.1,0.5,2.2,0.7
			c1,0.2,1.9,0.5,2.5,0.8c0.6,0.3,1.1,0.7,1.4,1.2c0.3,0.5,0.5,1,0.5,1.7c0,1.1-0.4,2-1.3,2.6c-0.9,0.7-2,1-3.4,1
			c-1,0-1.9-0.2-2.6-0.5c-0.8-0.3-1.3-0.8-1.8-1.5c-0.4-0.6-0.6-1.3-0.6-2h2.1c0,0.7,0.3,1.3,0.8,1.7c0.5,0.4,1.2,0.6,2.1,0.6
			c0.8,0,1.4-0.2,1.9-0.5C338.2,445.6,338.5,445.1,338.5,444.6z"/>
		<path fill="#FCFCFC" d="M157.6,473.5c0-1.9,0.4-3.4,1.3-4.5c0.9-1.1,2.1-1.7,3.5-1.7c1.4,0,2.6,0.5,3.4,1.5v-6.4h2.1v17.4h-1.9
			l-0.1-1.3c-0.8,1-2,1.5-3.5,1.5c-1.4,0-2.6-0.6-3.5-1.7c-0.9-1.2-1.3-2.7-1.3-4.6V473.5z M159.7,473.7c0,1.4,0.3,2.5,0.9,3.3
			s1.4,1.2,2.4,1.2c1.3,0,2.3-0.6,2.9-1.8v-5.6c-0.6-1.2-1.6-1.7-2.9-1.7c-1,0-1.8,0.4-2.4,1.2C160,471,159.7,472.2,159.7,473.7z"/>
		<path fill="#FCFCFC" d="M176.3,479.9c-1.7,0-3-0.5-4.1-1.6s-1.6-2.6-1.6-4.4v-0.4c0-1.2,0.2-2.3,0.7-3.3c0.5-1,1.1-1.7,2-2.2
			c0.8-0.5,1.7-0.8,2.7-0.8c1.6,0,2.8,0.5,3.7,1.6s1.3,2.6,1.3,4.5v0.9h-8.3c0,1.2,0.4,2.2,1.1,2.9c0.7,0.7,1.5,1.1,2.6,1.1
			c0.7,0,1.4-0.2,1.9-0.5c0.5-0.3,1-0.7,1.3-1.2l1.3,1C179.9,479.2,178.4,479.9,176.3,479.9z M176.1,468.9c-0.8,0-1.6,0.3-2.1,0.9
			c-0.6,0.6-0.9,1.5-1.1,2.6h6.1v-0.2c-0.1-1.1-0.3-1.9-0.9-2.5S177,468.9,176.1,468.9z"/>
		<path fill="#FCFCFC" d="M190.7,476.5c0-0.6-0.2-1-0.6-1.3c-0.4-0.3-1.2-0.6-2.2-0.8s-1.9-0.5-2.5-0.8c-0.6-0.3-1.1-0.7-1.4-1.1
			c-0.3-0.4-0.4-1-0.4-1.6c0-1,0.4-1.9,1.3-2.6c0.9-0.7,1.9-1,3.3-1c1.4,0,2.5,0.4,3.4,1.1s1.3,1.6,1.3,2.8h-2.1
			c0-0.6-0.2-1.1-0.7-1.5s-1.1-0.6-1.8-0.6c-0.8,0-1.4,0.2-1.8,0.5s-0.6,0.8-0.6,1.3c0,0.5,0.2,0.9,0.6,1.1s1.1,0.5,2.2,0.7
			c1,0.2,1.9,0.5,2.5,0.8c0.6,0.3,1.1,0.7,1.4,1.2c0.3,0.5,0.5,1,0.5,1.7c0,1.1-0.4,2-1.3,2.6c-0.9,0.7-2,1-3.4,1
			c-1,0-1.9-0.2-2.6-0.5c-0.8-0.3-1.3-0.8-1.8-1.5c-0.4-0.6-0.6-1.3-0.6-2h2.1c0,0.7,0.3,1.3,0.8,1.7c0.5,0.4,1.2,0.6,2.1,0.6
			c0.8,0,1.4-0.2,1.9-0.5C190.5,477.4,190.7,477,190.7,476.5z"/>
		<path fill="#FCFCFC" d="M200.8,473.5c0-1.9,0.4-3.4,1.3-4.5c0.9-1.1,2.1-1.7,3.5-1.7c1.4,0,2.6,0.5,3.4,1.5v-6.4h2.1v17.4h-1.9
			l-0.1-1.3c-0.8,1-2,1.5-3.5,1.5c-1.4,0-2.6-0.6-3.5-1.7c-0.9-1.2-1.3-2.7-1.3-4.6V473.5z M202.9,473.7c0,1.4,0.3,2.5,0.9,3.3
			s1.4,1.2,2.4,1.2c1.3,0,2.3-0.6,2.9-1.8v-5.6c-0.6-1.2-1.6-1.7-2.9-1.7c-1,0-1.8,0.4-2.4,1.2C203.2,471,202.9,472.2,202.9,473.7z"
			/>
		<path fill="#FCFCFC" d="M213.8,473.5c0-1.2,0.2-2.3,0.7-3.2c0.5-1,1.1-1.7,2-2.2c0.8-0.5,1.8-0.8,2.9-0.8c1.7,0,3,0.6,4.1,1.7
			c1,1.2,1.5,2.7,1.5,4.6v0.1c0,1.2-0.2,2.3-0.7,3.2c-0.5,0.9-1.1,1.7-2,2.2s-1.8,0.8-2.9,0.8c-1.7,0-3-0.6-4-1.7
			c-1-1.2-1.5-2.7-1.5-4.6V473.5z M215.9,473.7c0,1.4,0.3,2.5,0.9,3.3c0.6,0.8,1.5,1.2,2.5,1.2c1.1,0,1.9-0.4,2.5-1.3
			c0.6-0.8,0.9-2,0.9-3.5c0-1.3-0.3-2.4-1-3.3c-0.6-0.8-1.5-1.3-2.5-1.3c-1,0-1.9,0.4-2.5,1.2S215.9,472.2,215.9,473.7z"/>
		<path fill="#FCFCFC" d="M232.6,478.2c0.7,0,1.4-0.2,2-0.7c0.6-0.5,0.9-1,0.9-1.7h2c0,0.7-0.3,1.4-0.7,2c-0.4,0.6-1,1.1-1.8,1.5
			c-0.7,0.4-1.5,0.6-2.4,0.6c-1.7,0-3-0.6-4-1.7s-1.5-2.6-1.5-4.6v-0.4c0-1.2,0.2-2.3,0.7-3.2c0.4-0.9,1.1-1.7,1.9-2.2
			c0.8-0.5,1.8-0.8,2.9-0.8c1.4,0,2.5,0.4,3.4,1.2c0.9,0.8,1.4,1.9,1.5,3.2h-2c-0.1-0.8-0.4-1.4-0.9-2c-0.5-0.5-1.2-0.8-2-0.8
			c-1.1,0-1.9,0.4-2.5,1.2s-0.9,1.9-0.9,3.3v0.4c0,1.4,0.3,2.5,0.9,3.3C230.6,477.8,231.5,478.2,232.6,478.2z"/>
		<path fill="#FCFCFC" d="M247.4,478.5c-0.8,1-2,1.4-3.6,1.4c-1.3,0-2.3-0.4-3-1.1c-0.7-0.8-1-1.9-1-3.4v-8h2.1v7.9
			c0,1.9,0.8,2.8,2.3,2.8c1.6,0,2.7-0.6,3.2-1.8v-8.9h2.1v12.3h-2L247.4,478.5z"/>
		<path fill="#FCFCFC" d="M254.6,467.4l0.1,1.4c0.9-1.1,2.1-1.6,3.6-1.6c1.7,0,2.9,0.7,3.5,2c0.4-0.6,0.9-1.1,1.6-1.4
			c0.7-0.4,1.4-0.5,2.3-0.5c2.7,0,4.1,1.4,4.1,4.3v8.2h-2.1v-8.1c0-0.9-0.2-1.5-0.6-2c-0.4-0.4-1.1-0.7-2-0.7
			c-0.8,0-1.4,0.2-1.9,0.7c-0.5,0.5-0.8,1.1-0.9,1.9v8.1h-2.1v-8c0-1.8-0.9-2.7-2.6-2.7c-1.4,0-2.3,0.6-2.8,1.8v9h-2.1v-12.3H254.6z
			"/>
		<path fill="#FCFCFC" d="M278,479.9c-1.7,0-3-0.5-4.1-1.6s-1.6-2.6-1.6-4.4v-0.4c0-1.2,0.2-2.3,0.7-3.3c0.5-1,1.1-1.7,2-2.2
			c0.8-0.5,1.7-0.8,2.7-0.8c1.6,0,2.8,0.5,3.7,1.6s1.3,2.6,1.3,4.5v0.9h-8.3c0,1.2,0.4,2.2,1.1,2.9c0.7,0.7,1.5,1.1,2.6,1.1
			c0.7,0,1.4-0.2,1.9-0.5c0.5-0.3,1-0.7,1.3-1.2l1.3,1C281.6,479.2,280.1,479.9,278,479.9z M277.8,468.9c-0.8,0-1.6,0.3-2.1,0.9
			c-0.6,0.6-0.9,1.5-1.1,2.6h6.1v-0.2c-0.1-1.1-0.3-1.9-0.9-2.5S278.7,468.9,277.8,468.9z"/>
		<path fill="#FCFCFC" d="M287.2,467.4l0.1,1.5c0.9-1.2,2.2-1.8,3.7-1.8c2.6,0,3.9,1.5,3.9,4.4v8.1h-2.1v-8.1c0-0.9-0.2-1.5-0.6-2
			c-0.4-0.4-1-0.6-1.9-0.6c-0.7,0-1.3,0.2-1.8,0.5c-0.5,0.4-0.9,0.8-1.2,1.4v8.7h-2.1v-12.3H287.2z"/>
		<path fill="#FCFCFC" d="M300.9,464.5v3h2.3v1.6h-2.3v7.6c0,0.5,0.1,0.9,0.3,1.1s0.6,0.4,1,0.4c0.2,0,0.6,0,1-0.1v1.7
			c-0.6,0.2-1.1,0.2-1.6,0.2c-0.9,0-1.6-0.3-2.1-0.9c-0.5-0.6-0.7-1.4-0.7-2.4v-7.6h-2.2v-1.6h2.2v-3H300.9z"/>
		<path fill="#FCFCFC" d="M312.8,476.5c0-0.6-0.2-1-0.6-1.3c-0.4-0.3-1.2-0.6-2.2-0.8s-1.9-0.5-2.5-0.8c-0.6-0.3-1.1-0.7-1.4-1.1
			c-0.3-0.4-0.4-1-0.4-1.6c0-1,0.4-1.9,1.3-2.6c0.9-0.7,1.9-1,3.3-1c1.4,0,2.5,0.4,3.4,1.1s1.3,1.6,1.3,2.8h-2.1
			c0-0.6-0.2-1.1-0.7-1.5s-1.1-0.6-1.8-0.6c-0.8,0-1.4,0.2-1.8,0.5s-0.6,0.8-0.6,1.3c0,0.5,0.2,0.9,0.6,1.1s1.1,0.5,2.2,0.7
			c1,0.2,1.9,0.5,2.5,0.8c0.6,0.3,1.1,0.7,1.4,1.2c0.3,0.5,0.5,1,0.5,1.7c0,1.1-0.4,2-1.3,2.6c-0.9,0.7-2,1-3.4,1
			c-1,0-1.9-0.2-2.6-0.5c-0.8-0.3-1.3-0.8-1.8-1.5c-0.4-0.6-0.6-1.3-0.6-2h2.1c0,0.7,0.3,1.3,0.8,1.7c0.5,0.4,1.2,0.6,2.1,0.6
			c0.8,0,1.4-0.2,1.9-0.5C312.6,477.4,312.8,477,312.8,476.5z"/>
		<path fill="#FCFCFC" d="M328.5,479.9c-1.7,0-3-0.5-4.1-1.6s-1.6-2.6-1.6-4.4v-0.4c0-1.2,0.2-2.3,0.7-3.3c0.5-1,1.1-1.7,2-2.2
			c0.8-0.5,1.7-0.8,2.7-0.8c1.6,0,2.8,0.5,3.7,1.6s1.3,2.6,1.3,4.5v0.9H325c0,1.2,0.4,2.2,1.1,2.9c0.7,0.7,1.5,1.1,2.6,1.1
			c0.7,0,1.4-0.2,1.9-0.5c0.5-0.3,1-0.7,1.3-1.2l1.3,1C332.1,479.2,330.5,479.9,328.5,479.9z M328.2,468.9c-0.8,0-1.6,0.3-2.1,0.9
			c-0.6,0.6-0.9,1.5-1.1,2.6h6.1v-0.2c-0.1-1.1-0.3-1.9-0.9-2.5S329.1,468.9,328.2,468.9z"/>
		<path fill="#FCFCFC" d="M338.6,464.5v3h2.3v1.6h-2.3v7.6c0,0.5,0.1,0.9,0.3,1.1s0.6,0.4,1,0.4c0.2,0,0.6,0,1-0.1v1.7
			c-0.6,0.2-1.1,0.2-1.6,0.2c-0.9,0-1.6-0.3-2.1-0.9c-0.5-0.6-0.7-1.4-0.7-2.4v-7.6h-2.2v-1.6h2.2v-3H338.6z"/>
		<path fill="#FCFCFC" d="M220.2,510.1c0.7,0,1.4-0.2,2-0.7c0.6-0.5,0.9-1,0.9-1.7h2c0,0.7-0.3,1.4-0.7,2c-0.4,0.6-1,1.1-1.8,1.5
			c-0.7,0.4-1.5,0.6-2.4,0.6c-1.7,0-3-0.6-4-1.7s-1.5-2.6-1.5-4.6v-0.4c0-1.2,0.2-2.3,0.7-3.2c0.4-0.9,1.1-1.7,1.9-2.2
			c0.8-0.5,1.8-0.8,2.9-0.8c1.4,0,2.5,0.4,3.4,1.2c0.9,0.8,1.4,1.9,1.5,3.2h-2c-0.1-0.8-0.4-1.4-0.9-2c-0.5-0.5-1.2-0.8-2-0.8
			c-1.1,0-1.9,0.4-2.5,1.2s-0.9,1.9-0.9,3.3v0.4c0,1.4,0.3,2.5,0.9,3.3C218.3,509.7,219.1,510.1,220.2,510.1z"/>
		<path fill="#FCFCFC" d="M226.9,505.3c0-1.2,0.2-2.3,0.7-3.2c0.5-1,1.1-1.7,2-2.2c0.8-0.5,1.8-0.8,2.9-0.8c1.7,0,3,0.6,4.1,1.7
			c1,1.2,1.5,2.7,1.5,4.6v0.1c0,1.2-0.2,2.3-0.7,3.2c-0.5,0.9-1.1,1.7-2,2.2s-1.8,0.8-2.9,0.8c-1.7,0-3-0.6-4-1.7
			c-1-1.2-1.5-2.7-1.5-4.6V505.3z M229,505.6c0,1.4,0.3,2.5,0.9,3.3c0.6,0.8,1.5,1.2,2.5,1.2c1.1,0,1.9-0.4,2.5-1.3
			c0.6-0.8,0.9-2,0.9-3.5c0-1.3-0.3-2.4-1-3.3c-0.6-0.8-1.5-1.3-2.5-1.3c-1,0-1.9,0.4-2.5,1.2S229,504,229,505.6z"/>
		<path fill="#FCFCFC" d="M242.7,499.3l0.1,1.5c0.9-1.2,2.2-1.8,3.7-1.8c2.6,0,3.9,1.5,3.9,4.4v8.1h-2.1v-8.1c0-0.9-0.2-1.5-0.6-2
			c-0.4-0.4-1-0.6-1.9-0.6c-0.7,0-1.3,0.2-1.8,0.5c-0.5,0.4-0.9,0.8-1.2,1.4v8.7h-2.1v-12.3H242.7z"/>
		<path fill="#FCFCFC" d="M254.5,511.6v-10.7h-1.9v-1.6h1.9V498c0-1.3,0.4-2.3,1.1-3.1c0.7-0.7,1.7-1.1,3-1.1c0.5,0,1,0.1,1.4,0.2
			l-0.1,1.7c-0.4-0.1-0.7-0.1-1.1-0.1c-0.7,0-1.2,0.2-1.6,0.6c-0.4,0.4-0.6,1-0.6,1.7v1.3h2.6v1.6h-2.6v10.7H254.5z"/>
		<path fill="#FCFCFC" d="M266.6,511.8c-1.7,0-3-0.5-4.1-1.6s-1.6-2.6-1.6-4.4v-0.4c0-1.2,0.2-2.3,0.7-3.3c0.5-1,1.1-1.7,2-2.2
			c0.8-0.5,1.7-0.8,2.7-0.8c1.6,0,2.8,0.5,3.7,1.6s1.3,2.6,1.3,4.5v0.9h-8.3c0,1.2,0.4,2.2,1.1,2.9c0.7,0.7,1.5,1.1,2.6,1.1
			c0.7,0,1.4-0.2,1.9-0.5c0.5-0.3,1-0.7,1.3-1.2l1.3,1C270.2,511,268.7,511.8,266.6,511.8z M266.4,500.8c-0.8,0-1.6,0.3-2.1,0.9
			c-0.6,0.6-0.9,1.5-1.1,2.6h6.1v-0.2c-0.1-1.1-0.3-1.9-0.9-2.5S267.3,500.8,266.4,500.8z M267.4,494.2h2.5l-3,3.3l-1.7,0
			L267.4,494.2z"/>
		<path fill="#FCFCFC" d="M279.8,501.2c-0.3-0.1-0.7-0.1-1-0.1c-1.4,0-2.3,0.6-2.8,1.8v8.7h-2.1v-12.3h2l0,1.4
			c0.7-1.1,1.7-1.6,2.9-1.6c0.4,0,0.7,0.1,0.9,0.2V501.2z"/>
		<path fill="#FCFCFC" d="M286.8,511.8c-1.7,0-3-0.5-4.1-1.6s-1.6-2.6-1.6-4.4v-0.4c0-1.2,0.2-2.3,0.7-3.3c0.5-1,1.1-1.7,2-2.2
			c0.8-0.5,1.7-0.8,2.7-0.8c1.6,0,2.8,0.5,3.7,1.6s1.3,2.6,1.3,4.5v0.9h-8.3c0,1.2,0.4,2.2,1.1,2.9c0.7,0.7,1.5,1.1,2.6,1.1
			c0.7,0,1.4-0.2,1.9-0.5c0.5-0.3,1-0.7,1.3-1.2l1.3,1C290.4,511,288.9,511.8,286.8,511.8z M286.6,500.8c-0.8,0-1.6,0.3-2.1,0.9
			c-0.6,0.6-0.9,1.5-1.1,2.6h6.1v-0.2c-0.1-1.1-0.3-1.9-0.9-2.5S287.4,500.8,286.6,500.8z"/>
		<path fill="#FCFCFC" d="M296,499.3l0.1,1.5c0.9-1.2,2.2-1.8,3.7-1.8c2.6,0,3.9,1.5,3.9,4.4v8.1h-2.1v-8.1c0-0.9-0.2-1.5-0.6-2
			c-0.4-0.4-1-0.6-1.9-0.6c-0.7,0-1.3,0.2-1.8,0.5c-0.5,0.4-0.9,0.8-1.2,1.4v8.7H294v-12.3H296z"/>
		<path fill="#FCFCFC" d="M311.8,510.1c0.7,0,1.4-0.2,2-0.7c0.6-0.5,0.9-1,0.9-1.7h2c0,0.7-0.3,1.4-0.7,2c-0.4,0.6-1,1.1-1.8,1.5
			c-0.7,0.4-1.5,0.6-2.4,0.6c-1.7,0-3-0.6-4-1.7s-1.5-2.6-1.5-4.6v-0.4c0-1.2,0.2-2.3,0.7-3.2c0.4-0.9,1.1-1.7,1.9-2.2
			c0.8-0.5,1.8-0.8,2.9-0.8c1.4,0,2.5,0.4,3.4,1.2c0.9,0.8,1.4,1.9,1.5,3.2h-2c-0.1-0.8-0.4-1.4-0.9-2c-0.5-0.5-1.2-0.8-2-0.8
			c-1.1,0-1.9,0.4-2.5,1.2s-0.9,1.9-0.9,3.3v0.4c0,1.4,0.3,2.5,0.9,3.3C309.9,509.7,310.7,510.1,311.8,510.1z"/>
		<path fill="#FCFCFC" d="M324.1,511.8c-1.7,0-3-0.5-4.1-1.6s-1.6-2.6-1.6-4.4v-0.4c0-1.2,0.2-2.3,0.7-3.3c0.5-1,1.1-1.7,2-2.2
			c0.8-0.5,1.7-0.8,2.7-0.8c1.6,0,2.8,0.5,3.7,1.6s1.3,2.6,1.3,4.5v0.9h-8.3c0,1.2,0.4,2.2,1.1,2.9c0.7,0.7,1.5,1.1,2.6,1.1
			c0.7,0,1.4-0.2,1.9-0.5c0.5-0.3,1-0.7,1.3-1.2l1.3,1C327.7,511,326.2,511.8,324.1,511.8z M323.8,500.8c-0.8,0-1.6,0.3-2.1,0.9
			c-0.6,0.6-0.9,1.5-1.1,2.6h6.1v-0.2c-0.1-1.1-0.3-1.9-0.9-2.5S324.7,500.8,323.8,500.8z"/>
		<path fill="#FCFCFC" d="M338.5,508.3c0-0.6-0.2-1-0.6-1.3c-0.4-0.3-1.2-0.6-2.2-0.8s-1.9-0.5-2.5-0.8c-0.6-0.3-1.1-0.7-1.4-1.1
			c-0.3-0.4-0.4-1-0.4-1.6c0-1,0.4-1.9,1.3-2.6c0.9-0.7,1.9-1,3.3-1c1.4,0,2.5,0.4,3.4,1.1s1.3,1.6,1.3,2.8h-2.1
			c0-0.6-0.2-1.1-0.7-1.5s-1.1-0.6-1.8-0.6c-0.8,0-1.4,0.2-1.8,0.5s-0.6,0.8-0.6,1.3c0,0.5,0.2,0.9,0.6,1.1s1.1,0.5,2.2,0.7
			c1,0.2,1.9,0.5,2.5,0.8c0.6,0.3,1.1,0.7,1.4,1.2c0.3,0.5,0.5,1,0.5,1.7c0,1.1-0.4,2-1.3,2.6c-0.9,0.7-2,1-3.4,1
			c-1,0-1.9-0.2-2.6-0.5c-0.8-0.3-1.3-0.8-1.8-1.5c-0.4-0.6-0.6-1.3-0.6-2h2.1c0,0.7,0.3,1.3,0.8,1.7c0.5,0.4,1.2,0.6,2.1,0.6
			c0.8,0,1.4-0.2,1.9-0.5C338.2,509.3,338.5,508.9,338.5,508.3z"/>
		<path fill="#FCFCFC" d="M202,537.2c0-1.2,0.2-2.3,0.7-3.2c0.5-1,1.1-1.7,2-2.2c0.8-0.5,1.8-0.8,2.9-0.8c1.7,0,3,0.6,4.1,1.7
			c1,1.2,1.5,2.7,1.5,4.6v0.1c0,1.2-0.2,2.3-0.7,3.2c-0.5,0.9-1.1,1.7-2,2.2s-1.8,0.8-2.9,0.8c-1.7,0-3-0.6-4-1.7
			c-1-1.2-1.5-2.7-1.5-4.6V537.2z M204.1,537.4c0,1.4,0.3,2.5,0.9,3.3c0.6,0.8,1.5,1.2,2.5,1.2c1.1,0,1.9-0.4,2.5-1.3
			c0.6-0.8,0.9-2,0.9-3.5c0-1.3-0.3-2.4-1-3.3c-0.6-0.8-1.5-1.3-2.5-1.3c-1,0-1.9,0.4-2.5,1.2S204.1,535.9,204.1,537.4z"/>
		<path fill="#FCFCFC" d="M221.7,533c-0.3-0.1-0.7-0.1-1-0.1c-1.4,0-2.3,0.6-2.8,1.8v8.7h-2.1v-12.3h2l0,1.4
			c0.7-1.1,1.7-1.6,2.9-1.6c0.4,0,0.7,0.1,0.9,0.2V533z"/>
		<path fill="#FCFCFC" d="M223.1,537.2c0-1.9,0.4-3.4,1.3-4.6s2.1-1.7,3.5-1.7c1.5,0,2.7,0.5,3.5,1.6l0.1-1.4h1.9v12
			c0,1.6-0.5,2.8-1.4,3.8c-0.9,0.9-2.2,1.4-3.8,1.4c-0.9,0-1.8-0.2-2.6-0.6c-0.8-0.4-1.5-0.9-1.9-1.6l1.1-1.3c0.9,1.1,2,1.7,3.3,1.7
			c1,0,1.8-0.3,2.4-0.9c0.6-0.6,0.9-1.4,0.9-2.4v-1.1c-0.8,1-2,1.5-3.4,1.5c-1.4,0-2.6-0.6-3.5-1.7
			C223.6,540.8,223.1,539.2,223.1,537.2z M225.2,537.4c0,1.4,0.3,2.5,0.9,3.3c0.6,0.8,1.4,1.2,2.4,1.2c1.3,0,2.3-0.6,2.9-1.8v-5.6
			c-0.6-1.2-1.6-1.8-2.9-1.8c-1,0-1.8,0.4-2.4,1.2C225.5,534.7,225.2,535.9,225.2,537.4z"/>
		<path fill="#FCFCFC" d="M244.2,543.4c-0.1-0.2-0.2-0.7-0.3-1.3c-1,1-2.1,1.5-3.5,1.5c-1.2,0-2.2-0.3-3-1c-0.8-0.7-1.2-1.6-1.2-2.6
			c0-1.3,0.5-2.3,1.5-3s2.3-1.1,4.1-1.1h2v-1c0-0.7-0.2-1.3-0.7-1.8c-0.4-0.4-1.1-0.7-1.9-0.7c-0.7,0-1.4,0.2-1.9,0.6
			c-0.5,0.4-0.8,0.8-0.8,1.4h-2.1c0-0.6,0.2-1.2,0.7-1.8c0.4-0.6,1-1,1.8-1.4c0.7-0.3,1.6-0.5,2.5-0.5c1.4,0,2.5,0.4,3.3,1.1
			c0.8,0.7,1.2,1.7,1.2,2.9v5.6c0,1.1,0.1,2,0.4,2.7v0.2H244.2z M240.8,541.8c0.7,0,1.3-0.2,1.9-0.5c0.6-0.3,1-0.8,1.3-1.3v-2.5
			h-1.6c-2.6,0-3.9,0.8-3.9,2.3c0,0.7,0.2,1.2,0.7,1.5C239.5,541.6,240.1,541.8,240.8,541.8z"/>
		<path fill="#FCFCFC" d="M251.3,531.2l0.1,1.5c0.9-1.2,2.2-1.8,3.7-1.8c2.6,0,3.9,1.5,3.9,4.4v8.1h-2.1v-8.1c0-0.9-0.2-1.5-0.6-2
			c-0.4-0.4-1-0.6-1.9-0.6c-0.7,0-1.3,0.2-1.8,0.5c-0.5,0.4-0.9,0.8-1.2,1.4v8.7h-2.1v-12.3H251.3z"/>
		<path fill="#FCFCFC" d="M262.1,527.9c0-0.3,0.1-0.6,0.3-0.9c0.2-0.2,0.5-0.4,0.9-0.4c0.4,0,0.7,0.1,0.9,0.4
			c0.2,0.2,0.3,0.5,0.3,0.9c0,0.3-0.1,0.6-0.3,0.9c-0.2,0.2-0.5,0.3-0.9,0.3c-0.4,0-0.7-0.1-0.9-0.3
			C262.2,528.5,262.1,528.2,262.1,527.9z M264.4,543.4h-2.1v-12.3h2.1V543.4z"/>
		<path fill="#FCFCFC" d="M274.9,540.2c0-0.6-0.2-1-0.6-1.3c-0.4-0.3-1.2-0.6-2.2-0.8s-1.9-0.5-2.5-0.8c-0.6-0.3-1.1-0.7-1.4-1.1
			c-0.3-0.4-0.4-1-0.4-1.6c0-1,0.4-1.9,1.3-2.6c0.9-0.7,1.9-1,3.3-1c1.4,0,2.5,0.4,3.4,1.1s1.3,1.6,1.3,2.8h-2.1
			c0-0.6-0.2-1.1-0.7-1.5s-1.1-0.6-1.8-0.6c-0.8,0-1.4,0.2-1.8,0.5s-0.6,0.8-0.6,1.3c0,0.5,0.2,0.9,0.6,1.1s1.1,0.5,2.2,0.7
			c1,0.2,1.9,0.5,2.5,0.8c0.6,0.3,1.1,0.7,1.4,1.2c0.3,0.5,0.5,1,0.5,1.7c0,1.1-0.4,2-1.3,2.6c-0.9,0.7-2,1-3.4,1
			c-1,0-1.9-0.2-2.6-0.5c-0.8-0.3-1.3-0.8-1.8-1.5c-0.4-0.6-0.6-1.3-0.6-2h2.1c0,0.7,0.3,1.3,0.8,1.7c0.5,0.4,1.2,0.6,2.1,0.6
			c0.8,0,1.4-0.2,1.9-0.5C274.7,541.1,274.9,540.7,274.9,540.2z"/>
		<path fill="#FCFCFC" d="M284.8,543.7c-1.7,0-3-0.5-4.1-1.6s-1.6-2.6-1.6-4.4v-0.4c0-1.2,0.2-2.3,0.7-3.3c0.5-1,1.1-1.7,2-2.2
			c0.8-0.5,1.7-0.8,2.7-0.8c1.6,0,2.8,0.5,3.7,1.6s1.3,2.6,1.3,4.5v0.9h-8.3c0,1.2,0.4,2.2,1.1,2.9c0.7,0.7,1.5,1.1,2.6,1.1
			c0.7,0,1.4-0.2,1.9-0.5c0.5-0.3,1-0.7,1.3-1.2l1.3,1C288.4,542.9,286.9,543.7,284.8,543.7z M284.6,532.7c-0.8,0-1.6,0.3-2.1,0.9
			c-0.6,0.6-0.9,1.5-1.1,2.6h6.1V536c-0.1-1.1-0.3-1.9-0.9-2.5S285.4,532.7,284.6,532.7z M285.6,526h2.5l-3,3.3l-1.7,0L285.6,526z"
			/>
		<path fill="#FCFCFC" d="M299.2,540.2c0-0.6-0.2-1-0.6-1.3c-0.4-0.3-1.2-0.6-2.2-0.8s-1.9-0.5-2.5-0.8c-0.6-0.3-1.1-0.7-1.4-1.1
			c-0.3-0.4-0.4-1-0.4-1.6c0-1,0.4-1.9,1.3-2.6c0.9-0.7,1.9-1,3.3-1c1.4,0,2.5,0.4,3.4,1.1s1.3,1.6,1.3,2.8h-2.1
			c0-0.6-0.2-1.1-0.7-1.5s-1.1-0.6-1.8-0.6c-0.8,0-1.4,0.2-1.8,0.5s-0.6,0.8-0.6,1.3c0,0.5,0.2,0.9,0.6,1.1s1.1,0.5,2.2,0.7
			c1,0.2,1.9,0.5,2.5,0.8c0.6,0.3,1.1,0.7,1.4,1.2c0.3,0.5,0.5,1,0.5,1.7c0,1.1-0.4,2-1.3,2.6c-0.9,0.7-2,1-3.4,1
			c-1,0-1.9-0.2-2.6-0.5c-0.8-0.3-1.3-0.8-1.8-1.5c-0.4-0.6-0.6-1.3-0.6-2h2.1c0,0.7,0.3,1.3,0.8,1.7c0.5,0.4,1.2,0.6,2.1,0.6
			c0.8,0,1.4-0.2,1.9-0.5C298.9,541.1,299.2,540.7,299.2,540.2z"/>
		<path fill="#FCFCFC" d="M320.1,537.4c0,1.9-0.4,3.4-1.3,4.5c-0.9,1.1-2,1.7-3.5,1.7c-1.5,0-2.7-0.5-3.5-1.4v5.9h-2.1v-17h1.9
			l0.1,1.4c0.9-1.1,2-1.6,3.6-1.6c1.5,0,2.6,0.6,3.5,1.7c0.9,1.1,1.3,2.7,1.3,4.6V537.4z M318,537.2c0-1.4-0.3-2.5-0.9-3.3
			s-1.4-1.2-2.4-1.2c-1.3,0-2.2,0.6-2.9,1.7v5.9c0.6,1.1,1.6,1.7,2.9,1.7c1,0,1.8-0.4,2.4-1.2S318,538.8,318,537.2z"/>
		<path fill="#FCFCFC" d="M330.4,543.4c-0.1-0.2-0.2-0.7-0.3-1.3c-1,1-2.1,1.5-3.5,1.5c-1.2,0-2.2-0.3-3-1c-0.8-0.7-1.2-1.6-1.2-2.6
			c0-1.3,0.5-2.3,1.5-3s2.3-1.1,4.1-1.1h2v-1c0-0.7-0.2-1.3-0.7-1.8c-0.4-0.4-1.1-0.7-1.9-0.7c-0.7,0-1.4,0.2-1.9,0.6
			c-0.5,0.4-0.8,0.8-0.8,1.4h-2.1c0-0.6,0.2-1.2,0.7-1.8c0.4-0.6,1-1,1.8-1.4c0.7-0.3,1.6-0.5,2.5-0.5c1.4,0,2.5,0.4,3.3,1.1
			c0.8,0.7,1.2,1.7,1.2,2.9v5.6c0,1.1,0.1,2,0.4,2.7v0.2H330.4z M326.9,541.8c0.7,0,1.3-0.2,1.9-0.5c0.6-0.3,1-0.8,1.3-1.3v-2.5
			h-1.6c-2.6,0-3.9,0.8-3.9,2.3c0,0.7,0.2,1.2,0.7,1.5C325.6,541.6,326.2,541.8,326.9,541.8z"/>
		<path fill="#FCFCFC" d="M341.4,533c-0.3-0.1-0.7-0.1-1-0.1c-1.4,0-2.3,0.6-2.8,1.8v8.7h-2.1v-12.3h2l0,1.4
			c0.7-1.1,1.7-1.6,2.9-1.6c0.4,0,0.7,0.1,0.9,0.2V533z"/>
		<path fill="#FCFCFC" d="M228.9,569.1c0-1.9,0.4-3.4,1.3-4.5c0.9-1.1,2.1-1.7,3.5-1.7c1.4,0,2.6,0.5,3.4,1.5v-6.4h2.1v17.4h-1.9
			l-0.1-1.3c-0.8,1-2,1.5-3.5,1.5c-1.4,0-2.6-0.6-3.5-1.7c-0.9-1.2-1.3-2.7-1.3-4.6V569.1z M231,569.3c0,1.4,0.3,2.5,0.9,3.3
			s1.4,1.2,2.4,1.2c1.3,0,2.3-0.6,2.9-1.8v-5.6c-0.6-1.2-1.6-1.7-2.9-1.7c-1,0-1.8,0.4-2.4,1.2C231.3,566.6,231,567.7,231,569.3z"/>
		<path fill="#FCFCFC" d="M242.5,559.8c0-0.3,0.1-0.6,0.3-0.9c0.2-0.2,0.5-0.4,0.9-0.4c0.4,0,0.7,0.1,0.9,0.4
			c0.2,0.2,0.3,0.5,0.3,0.9c0,0.3-0.1,0.6-0.3,0.9c-0.2,0.2-0.5,0.3-0.9,0.3c-0.4,0-0.7-0.1-0.9-0.3
			C242.6,560.4,242.5,560.1,242.5,559.8z M244.8,575.3h-2.1V563h2.1V575.3z"/>
		<path fill="#FCFCFC" d="M255.3,572c0-0.6-0.2-1-0.6-1.3c-0.4-0.3-1.2-0.6-2.2-0.8s-1.9-0.5-2.5-0.8c-0.6-0.3-1.1-0.7-1.4-1.1
			c-0.3-0.4-0.4-1-0.4-1.6c0-1,0.4-1.9,1.3-2.6c0.9-0.7,1.9-1,3.3-1c1.4,0,2.5,0.4,3.4,1.1s1.3,1.6,1.3,2.8h-2.1
			c0-0.6-0.2-1.1-0.7-1.5s-1.1-0.6-1.8-0.6c-0.8,0-1.4,0.2-1.8,0.5s-0.6,0.8-0.6,1.3c0,0.5,0.2,0.9,0.6,1.1s1.1,0.5,2.2,0.7
			c1,0.2,1.9,0.5,2.5,0.8c0.6,0.3,1.1,0.7,1.4,1.2c0.3,0.5,0.5,1,0.5,1.7c0,1.1-0.4,2-1.3,2.6c-0.9,0.7-2,1-3.4,1
			c-1,0-1.9-0.2-2.6-0.5c-0.8-0.3-1.3-0.8-1.8-1.5c-0.4-0.6-0.6-1.3-0.6-2h2.1c0,0.7,0.3,1.3,0.8,1.7c0.5,0.4,1.2,0.6,2.1,0.6
			c0.8,0,1.4-0.2,1.9-0.5C255,573,255.3,572.6,255.3,572z"/>
		<path fill="#FCFCFC" d="M270.5,569.3c0,1.9-0.4,3.4-1.3,4.5c-0.9,1.1-2,1.7-3.5,1.7c-1.5,0-2.7-0.5-3.5-1.4v5.9h-2.1v-17h1.9
			l0.1,1.4c0.9-1.1,2-1.6,3.6-1.6c1.5,0,2.6,0.6,3.5,1.7c0.9,1.1,1.3,2.7,1.3,4.6V569.3z M268.4,569.1c0-1.4-0.3-2.5-0.9-3.3
			s-1.4-1.2-2.4-1.2c-1.3,0-2.2,0.6-2.9,1.7v5.9c0.6,1.1,1.6,1.7,2.9,1.7c1,0,1.8-0.4,2.4-1.2S268.4,570.6,268.4,569.1z"/>
		<path fill="#FCFCFC" d="M272.6,569c0-1.2,0.2-2.3,0.7-3.2c0.5-1,1.1-1.7,2-2.2c0.8-0.5,1.8-0.8,2.9-0.8c1.7,0,3,0.6,4.1,1.7
			c1,1.2,1.5,2.7,1.5,4.6v0.1c0,1.2-0.2,2.3-0.7,3.2c-0.5,0.9-1.1,1.7-2,2.2s-1.8,0.8-2.9,0.8c-1.7,0-3-0.6-4-1.7
			c-1-1.2-1.5-2.7-1.5-4.6V569z M274.7,569.3c0,1.4,0.3,2.5,0.9,3.3c0.6,0.8,1.5,1.2,2.5,1.2c1.1,0,1.9-0.4,2.5-1.3
			c0.6-0.8,0.9-2,0.9-3.5c0-1.3-0.3-2.4-1-3.3c-0.6-0.8-1.5-1.3-2.5-1.3c-1,0-1.9,0.4-2.5,1.2S274.7,567.8,274.7,569.3z"/>
		<path fill="#FCFCFC" d="M293.5,572c0-0.6-0.2-1-0.6-1.3c-0.4-0.3-1.2-0.6-2.2-0.8s-1.9-0.5-2.5-0.8c-0.6-0.3-1.1-0.7-1.4-1.1
			c-0.3-0.4-0.4-1-0.4-1.6c0-1,0.4-1.9,1.3-2.6c0.9-0.7,1.9-1,3.3-1c1.4,0,2.5,0.4,3.4,1.1s1.3,1.6,1.3,2.8h-2.1
			c0-0.6-0.2-1.1-0.7-1.5s-1.1-0.6-1.8-0.6c-0.8,0-1.4,0.2-1.8,0.5s-0.6,0.8-0.6,1.3c0,0.5,0.2,0.9,0.6,1.1s1.1,0.5,2.2,0.7
			c1,0.2,1.9,0.5,2.5,0.8c0.6,0.3,1.1,0.7,1.4,1.2c0.3,0.5,0.5,1,0.5,1.7c0,1.1-0.4,2-1.3,2.6c-0.9,0.7-2,1-3.4,1
			c-1,0-1.9-0.2-2.6-0.5c-0.8-0.3-1.3-0.8-1.8-1.5c-0.4-0.6-0.6-1.3-0.6-2h2.1c0,0.7,0.3,1.3,0.8,1.7c0.5,0.4,1.2,0.6,2.1,0.6
			c0.8,0,1.4-0.2,1.9-0.5C293.3,573,293.5,572.6,293.5,572z"/>
		<path fill="#FCFCFC" d="M298.4,559.8c0-0.3,0.1-0.6,0.3-0.9c0.2-0.2,0.5-0.4,0.9-0.4c0.4,0,0.7,0.1,0.9,0.4
			c0.2,0.2,0.3,0.5,0.3,0.9c0,0.3-0.1,0.6-0.3,0.9c-0.2,0.2-0.5,0.3-0.9,0.3c-0.4,0-0.7-0.1-0.9-0.3
			C298.5,560.4,298.4,560.1,298.4,559.8z M300.6,575.3h-2.1V563h2.1V575.3z"/>
		<path fill="#FCFCFC" d="M306.8,560v3h2.3v1.6h-2.3v7.6c0,0.5,0.1,0.9,0.3,1.1s0.6,0.4,1,0.4c0.2,0,0.6,0,1-0.1v1.7
			c-0.6,0.2-1.1,0.2-1.6,0.2c-0.9,0-1.6-0.3-2.1-0.9c-0.5-0.6-0.7-1.4-0.7-2.4v-7.6h-2.2V563h2.2v-3H306.8z"/>
		<path fill="#FCFCFC" d="M311.6,559.8c0-0.3,0.1-0.6,0.3-0.9c0.2-0.2,0.5-0.4,0.9-0.4c0.4,0,0.7,0.1,0.9,0.4
			c0.2,0.2,0.3,0.5,0.3,0.9c0,0.3-0.1,0.6-0.3,0.9c-0.2,0.2-0.5,0.3-0.9,0.3c-0.4,0-0.7-0.1-0.9-0.3
			C311.7,560.4,311.6,560.1,311.6,559.8z M313.9,575.3h-2.1V563h2.1V575.3z"/>
		<path fill="#FCFCFC" d="M316.7,569c0-1.2,0.2-2.3,0.7-3.2c0.5-1,1.1-1.7,2-2.2c0.8-0.5,1.8-0.8,2.9-0.8c1.7,0,3,0.6,4.1,1.7
			c1,1.2,1.5,2.7,1.5,4.6v0.1c0,1.2-0.2,2.3-0.7,3.2c-0.5,0.9-1.1,1.7-2,2.2s-1.8,0.8-2.9,0.8c-1.7,0-3-0.6-4-1.7
			c-1-1.2-1.5-2.7-1.5-4.6V569z M318.8,569.3c0,1.4,0.3,2.5,0.9,3.3c0.6,0.8,1.5,1.2,2.5,1.2c1.1,0,1.9-0.4,2.5-1.3
			c0.6-0.8,0.9-2,0.9-3.5c0-1.3-0.3-2.4-1-3.3c-0.6-0.8-1.5-1.3-2.5-1.3c-1,0-1.9,0.4-2.5,1.2S318.8,567.8,318.8,569.3z"/>
		<path fill="#FCFCFC" d="M332.5,563l0.1,1.5c0.9-1.2,2.2-1.8,3.7-1.8c2.6,0,3.9,1.5,3.9,4.4v8.1H338v-8.1c0-0.9-0.2-1.5-0.6-2
			c-0.4-0.4-1-0.6-1.9-0.6c-0.7,0-1.3,0.2-1.8,0.5c-0.5,0.4-0.9,0.8-1.2,1.4v8.7h-2.1V563H332.5z"/>
	</g>
	<g>
		<path fill="#FCFCFC" d="M393.3,414.7h-2.2v-16.5h2.2V414.7z"/>
		<path fill="#FCFCFC" d="M399,402.4l0.1,1.5c0.9-1.2,2.2-1.8,3.7-1.8c2.6,0,3.9,1.5,3.9,4.4v8.1h-2.1v-8.1c0-0.9-0.2-1.5-0.6-2
			c-0.4-0.4-1-0.6-1.9-0.6c-0.7,0-1.3,0.2-1.8,0.5c-0.5,0.4-0.9,0.8-1.2,1.4v8.7H397v-12.3H399z"/>
		<path fill="#FCFCFC" d="M412.6,399.5v3h2.3v1.6h-2.3v7.6c0,0.5,0.1,0.9,0.3,1.1s0.6,0.4,1,0.4c0.2,0,0.6,0,1-0.1v1.7
			c-0.6,0.2-1.1,0.2-1.6,0.2c-0.9,0-1.6-0.3-2.1-0.9c-0.5-0.6-0.7-1.4-0.7-2.4v-7.6h-2.2v-1.6h2.2v-3H412.6z"/>
		<path fill="#FCFCFC" d="M422.5,414.9c-1.7,0-3-0.5-4.1-1.6s-1.6-2.6-1.6-4.4v-0.4c0-1.2,0.2-2.3,0.7-3.3c0.5-1,1.1-1.7,2-2.2
			c0.8-0.5,1.7-0.8,2.7-0.8c1.6,0,2.8,0.5,3.7,1.6s1.3,2.6,1.3,4.5v0.9h-8.3c0,1.2,0.4,2.2,1.1,2.9c0.7,0.7,1.5,1.1,2.6,1.1
			c0.7,0,1.4-0.2,1.9-0.5c0.5-0.3,1-0.7,1.3-1.2l1.3,1C426.1,414.1,424.5,414.9,422.5,414.9z M422.2,403.9c-0.8,0-1.6,0.3-2.1,0.9
			c-0.6,0.6-0.9,1.5-1.1,2.6h6.1v-0.2c-0.1-1.1-0.3-1.9-0.9-2.5S423.1,403.9,422.2,403.9z"/>
		<path fill="#FCFCFC" d="M435.6,404.3c-0.3-0.1-0.7-0.1-1-0.1c-1.4,0-2.3,0.6-2.8,1.8v8.7h-2.1v-12.3h2l0,1.4
			c0.7-1.1,1.7-1.6,2.9-1.6c0.4,0,0.7,0.1,0.9,0.2V404.3z"/>
		<path fill="#FCFCFC" d="M447.9,408.7c0,1.9-0.4,3.4-1.3,4.5c-0.9,1.1-2,1.7-3.5,1.7c-1.5,0-2.7-0.5-3.5-1.4v5.9h-2.1v-17h1.9
			l0.1,1.4c0.9-1.1,2-1.6,3.6-1.6c1.5,0,2.6,0.6,3.5,1.7c0.9,1.1,1.3,2.7,1.3,4.6V408.7z M445.8,408.5c0-1.4-0.3-2.5-0.9-3.3
			s-1.4-1.2-2.4-1.2c-1.3,0-2.2,0.6-2.9,1.7v5.9c0.6,1.1,1.6,1.7,2.9,1.7c1,0,1.8-0.4,2.4-1.2S445.8,410,445.8,408.5z"/>
		<path fill="#FCFCFC" d="M456.5,404.3c-0.3-0.1-0.7-0.1-1-0.1c-1.4,0-2.3,0.6-2.8,1.8v8.7h-2.1v-12.3h2l0,1.4
			c0.7-1.1,1.7-1.6,2.9-1.6c0.4,0,0.7,0.1,0.9,0.2V404.3z"/>
		<path fill="#FCFCFC" d="M463.5,414.9c-1.7,0-3-0.5-4.1-1.6s-1.6-2.6-1.6-4.4v-0.4c0-1.2,0.2-2.3,0.7-3.3c0.5-1,1.1-1.7,2-2.2
			c0.8-0.5,1.7-0.8,2.7-0.8c1.6,0,2.8,0.5,3.7,1.6s1.3,2.6,1.3,4.5v0.9H460c0,1.2,0.4,2.2,1.1,2.9c0.7,0.7,1.5,1.1,2.6,1.1
			c0.7,0,1.4-0.2,1.9-0.5c0.5-0.3,1-0.7,1.3-1.2l1.3,1C467.1,414.1,465.6,414.9,463.5,414.9z M463.3,403.9c-0.8,0-1.6,0.3-2.1,0.9
			c-0.6,0.6-0.9,1.5-1.1,2.6h6.1v-0.2c-0.1-1.1-0.3-1.9-0.9-2.5S464.2,403.9,463.3,403.9z M464.3,397.3h2.5l-3,3.3l-1.7,0
			L464.3,397.3z"/>
		<path fill="#FCFCFC" d="M473.6,399.5v3h2.3v1.6h-2.3v7.6c0,0.5,0.1,0.9,0.3,1.1s0.6,0.4,1,0.4c0.2,0,0.6,0,1-0.1v1.7
			c-0.6,0.2-1.1,0.2-1.6,0.2c-0.9,0-1.6-0.3-2.1-0.9c-0.5-0.6-0.7-1.4-0.7-2.4v-7.6h-2.2v-1.6h2.2v-3H473.6z"/>
		<path fill="#FCFCFC" d="M483.4,414.9c-1.7,0-3-0.5-4.1-1.6s-1.6-2.6-1.6-4.4v-0.4c0-1.2,0.2-2.3,0.7-3.3c0.5-1,1.1-1.7,2-2.2
			c0.8-0.5,1.7-0.8,2.7-0.8c1.6,0,2.8,0.5,3.7,1.6s1.3,2.6,1.3,4.5v0.9h-8.3c0,1.2,0.4,2.2,1.1,2.9c0.7,0.7,1.5,1.1,2.6,1.1
			c0.7,0,1.4-0.2,1.9-0.5c0.5-0.3,1-0.7,1.3-1.2l1.3,1C487,414.1,485.5,414.9,483.4,414.9z M483.2,403.9c-0.8,0-1.6,0.3-2.1,0.9
			c-0.6,0.6-0.9,1.5-1.1,2.6h6.1v-0.2c-0.1-1.1-0.3-1.9-0.9-2.5S484,403.9,483.2,403.9z"/>
		<path fill="#FCFCFC" d="M496.6,404.3c-0.3-0.1-0.7-0.1-1-0.1c-1.4,0-2.3,0.6-2.8,1.8v8.7h-2.1v-12.3h2l0,1.4
			c0.7-1.1,1.7-1.6,2.9-1.6c0.4,0,0.7,0.1,0.9,0.2V404.3z"/>
		<path fill="#FCFCFC" d="M506.5,414.7h-2.1v-17.4h2.1V414.7z"/>
		<path fill="#FCFCFC" d="M515,414.9c-1.7,0-3-0.5-4.1-1.6s-1.6-2.6-1.6-4.4v-0.4c0-1.2,0.2-2.3,0.7-3.3c0.5-1,1.1-1.7,2-2.2
			c0.8-0.5,1.7-0.8,2.7-0.8c1.6,0,2.8,0.5,3.7,1.6s1.3,2.6,1.3,4.5v0.9h-8.3c0,1.2,0.4,2.2,1.1,2.9c0.7,0.7,1.5,1.1,2.6,1.1
			c0.7,0,1.4-0.2,1.9-0.5c0.5-0.3,1-0.7,1.3-1.2l1.3,1C518.6,414.1,517,414.9,515,414.9z M514.7,403.9c-0.8,0-1.6,0.3-2.1,0.9
			c-0.6,0.6-0.9,1.5-1.1,2.6h6.1v-0.2c-0.1-1.1-0.3-1.9-0.9-2.5S515.6,403.9,514.7,403.9z"/>
		<path fill="#FCFCFC" d="M529.3,411.4c0-0.6-0.2-1-0.6-1.3c-0.4-0.3-1.2-0.6-2.2-0.8s-1.9-0.5-2.5-0.8c-0.6-0.3-1.1-0.7-1.4-1.1
			c-0.3-0.4-0.4-1-0.4-1.6c0-1,0.4-1.9,1.3-2.6c0.9-0.7,1.9-1,3.3-1c1.4,0,2.5,0.4,3.4,1.1s1.3,1.6,1.3,2.8h-2.1
			c0-0.6-0.2-1.1-0.7-1.5s-1.1-0.6-1.8-0.6c-0.8,0-1.4,0.2-1.8,0.5s-0.6,0.8-0.6,1.3c0,0.5,0.2,0.9,0.6,1.1s1.1,0.5,2.2,0.7
			c1,0.2,1.9,0.5,2.5,0.8c0.6,0.3,1.1,0.7,1.4,1.2c0.3,0.5,0.5,1,0.5,1.7c0,1.1-0.4,2-1.3,2.6c-0.9,0.7-2,1-3.4,1
			c-1,0-1.9-0.2-2.6-0.5c-0.8-0.3-1.3-0.8-1.8-1.5c-0.4-0.6-0.6-1.3-0.6-2h2.1c0,0.7,0.3,1.3,0.8,1.7c0.5,0.4,1.2,0.6,2.1,0.6
			c0.8,0,1.4-0.2,1.9-0.5C529.1,412.4,529.3,412,529.3,411.4z"/>
		<path fill="#FCFCFC" d="M395.6,445.1c0.7,0,1.4-0.2,2-0.7c0.6-0.5,0.9-1,0.9-1.7h2c0,0.7-0.3,1.4-0.7,2c-0.4,0.6-1,1.1-1.8,1.5
			c-0.7,0.4-1.5,0.6-2.4,0.6c-1.7,0-3-0.6-4-1.7s-1.5-2.6-1.5-4.6v-0.4c0-1.2,0.2-2.3,0.7-3.2c0.4-0.9,1.1-1.7,1.9-2.2
			c0.8-0.5,1.8-0.8,2.9-0.8c1.4,0,2.5,0.4,3.4,1.2c0.9,0.8,1.4,1.9,1.5,3.2h-2c-0.1-0.8-0.4-1.4-0.9-2c-0.5-0.5-1.2-0.8-2-0.8
			c-1.1,0-1.9,0.4-2.5,1.2s-0.9,1.9-0.9,3.3v0.4c0,1.4,0.3,2.5,0.9,3.3C393.7,444.7,394.5,445.1,395.6,445.1z"/>
		<path fill="#FCFCFC" d="M402.8,431c0-0.3,0.1-0.6,0.3-0.9c0.2-0.2,0.5-0.4,0.9-0.4c0.4,0,0.7,0.1,0.9,0.4c0.2,0.2,0.3,0.5,0.3,0.9
			c0,0.3-0.1,0.6-0.3,0.9c-0.2,0.2-0.5,0.3-0.9,0.3c-0.4,0-0.7-0.1-0.9-0.3C402.9,431.7,402.8,431.4,402.8,431z M405.1,446.6H403
			v-12.3h2.1V446.6z"/>
		<path fill="#FCFCFC" d="M411.3,431.3v3h2.3v1.6h-2.3v7.6c0,0.5,0.1,0.9,0.3,1.1s0.6,0.4,1,0.4c0.2,0,0.6,0,1-0.1v1.7
			c-0.6,0.2-1.1,0.2-1.6,0.2c-0.9,0-1.6-0.3-2.1-0.9c-0.5-0.6-0.7-1.4-0.7-2.4v-7.6H407v-1.6h2.2v-3H411.3z"/>
		<path fill="#FCFCFC" d="M423.6,446.6c-0.1-0.2-0.2-0.7-0.3-1.3c-1,1-2.1,1.5-3.5,1.5c-1.2,0-2.2-0.3-3-1c-0.8-0.7-1.2-1.6-1.2-2.6
			c0-1.3,0.5-2.3,1.5-3s2.3-1.1,4.1-1.1h2v-1c0-0.7-0.2-1.3-0.7-1.8c-0.4-0.4-1.1-0.7-1.9-0.7c-0.7,0-1.4,0.2-1.9,0.6
			c-0.5,0.4-0.8,0.8-0.8,1.4h-2.1c0-0.6,0.2-1.2,0.7-1.8c0.4-0.6,1-1,1.8-1.4c0.7-0.3,1.6-0.5,2.5-0.5c1.4,0,2.5,0.4,3.3,1.1
			c0.8,0.7,1.2,1.7,1.2,2.9v5.6c0,1.1,0.1,2,0.4,2.7v0.2H423.6z M420.1,445c0.7,0,1.3-0.2,1.9-0.5c0.6-0.3,1-0.8,1.3-1.3v-2.5h-1.6
			c-2.6,0-3.9,0.8-3.9,2.3c0,0.7,0.2,1.2,0.7,1.5C418.9,444.8,419.5,445,420.1,445z"/>
		<path fill="#FCFCFC" d="M431.5,431.3v3h2.3v1.6h-2.3v7.6c0,0.5,0.1,0.9,0.3,1.1s0.6,0.4,1,0.4c0.2,0,0.6,0,1-0.1v1.7
			c-0.6,0.2-1.1,0.2-1.6,0.2c-0.9,0-1.6-0.3-2.1-0.9c-0.5-0.6-0.7-1.4-0.7-2.4v-7.6h-2.2v-1.6h2.2v-3H431.5z"/>
		<path fill="#FCFCFC" d="M436.3,431c0-0.3,0.1-0.6,0.3-0.9c0.2-0.2,0.5-0.4,0.9-0.4c0.4,0,0.7,0.1,0.9,0.4c0.2,0.2,0.3,0.5,0.3,0.9
			c0,0.3-0.1,0.6-0.3,0.9c-0.2,0.2-0.5,0.3-0.9,0.3c-0.4,0-0.7-0.1-0.9-0.3C436.4,431.7,436.3,431.4,436.3,431z M438.5,446.6h-2.1
			v-12.3h2.1V446.6z"/>
		<path fill="#FCFCFC" d="M441.3,440.3c0-1.2,0.2-2.3,0.7-3.2c0.5-1,1.1-1.7,2-2.2c0.8-0.5,1.8-0.8,2.9-0.8c1.7,0,3,0.6,4.1,1.7
			c1,1.2,1.5,2.7,1.5,4.6v0.1c0,1.2-0.2,2.3-0.7,3.2c-0.5,0.9-1.1,1.7-2,2.2s-1.8,0.8-2.9,0.8c-1.7,0-3-0.6-4-1.7
			c-1-1.2-1.5-2.7-1.5-4.6V440.3z M443.5,440.6c0,1.4,0.3,2.5,0.9,3.3c0.6,0.8,1.5,1.2,2.5,1.2c1.1,0,1.9-0.4,2.5-1.3
			c0.6-0.8,0.9-2,0.9-3.5c0-1.3-0.3-2.4-1-3.3c-0.6-0.8-1.5-1.3-2.5-1.3c-1,0-1.9,0.4-2.5,1.2S443.5,439,443.5,440.6z"/>
		<path fill="#FCFCFC" d="M457.1,434.3l0.1,1.5c0.9-1.2,2.2-1.8,3.7-1.8c2.6,0,3.9,1.5,3.9,4.4v8.1h-2.1v-8.1c0-0.9-0.2-1.5-0.6-2
			c-0.4-0.4-1-0.6-1.9-0.6c-0.7,0-1.3,0.2-1.8,0.5c-0.5,0.4-0.9,0.8-1.2,1.4v8.7h-2.1v-12.3H457.1z"/>
		<path fill="#FCFCFC" d="M475.1,443.3c0-0.6-0.2-1-0.6-1.3c-0.4-0.3-1.2-0.6-2.2-0.8s-1.9-0.5-2.5-0.8c-0.6-0.3-1.1-0.7-1.4-1.1
			c-0.3-0.4-0.4-1-0.4-1.6c0-1,0.4-1.9,1.3-2.6c0.9-0.7,1.9-1,3.3-1c1.4,0,2.5,0.4,3.4,1.1s1.3,1.6,1.3,2.8H475
			c0-0.6-0.2-1.1-0.7-1.5s-1.1-0.6-1.8-0.6c-0.8,0-1.4,0.2-1.8,0.5s-0.6,0.8-0.6,1.3c0,0.5,0.2,0.9,0.6,1.1s1.1,0.5,2.2,0.7
			c1,0.2,1.9,0.5,2.5,0.8c0.6,0.3,1.1,0.7,1.4,1.2c0.3,0.5,0.5,1,0.5,1.7c0,1.1-0.4,2-1.3,2.6c-0.9,0.7-2,1-3.4,1
			c-1,0-1.9-0.2-2.6-0.5c-0.8-0.3-1.3-0.8-1.8-1.5c-0.4-0.6-0.6-1.3-0.6-2h2.1c0,0.7,0.3,1.3,0.8,1.7c0.5,0.4,1.2,0.6,2.1,0.6
			c0.8,0,1.4-0.2,1.9-0.5C474.9,444.3,475.1,443.8,475.1,443.3z"/>
		<path fill="#FCFCFC" d="M485.2,440.3c0-1.9,0.4-3.4,1.3-4.5c0.9-1.1,2.1-1.7,3.5-1.7c1.4,0,2.6,0.5,3.4,1.5v-6.4h2.1v17.4h-1.9
			l-0.1-1.3c-0.8,1-2,1.5-3.5,1.5c-1.4,0-2.6-0.6-3.5-1.7c-0.9-1.2-1.3-2.7-1.3-4.6V440.3z M487.3,440.6c0,1.4,0.3,2.5,0.9,3.3
			s1.4,1.2,2.4,1.2c1.3,0,2.3-0.6,2.9-1.8v-5.6c-0.6-1.2-1.6-1.7-2.9-1.7c-1,0-1.8,0.4-2.4,1.2C487.6,437.8,487.3,439,487.3,440.6z"
			/>
		<path fill="#FCFCFC" d="M506.4,446.6c-0.1-0.2-0.2-0.7-0.3-1.3c-1,1-2.1,1.5-3.5,1.5c-1.2,0-2.2-0.3-3-1c-0.8-0.7-1.2-1.6-1.2-2.6
			c0-1.3,0.5-2.3,1.5-3s2.3-1.1,4.1-1.1h2v-1c0-0.7-0.2-1.3-0.7-1.8c-0.4-0.4-1.1-0.7-1.9-0.7c-0.7,0-1.4,0.2-1.9,0.6
			c-0.5,0.4-0.8,0.8-0.8,1.4h-2.1c0-0.6,0.2-1.2,0.7-1.8c0.4-0.6,1-1,1.8-1.4c0.7-0.3,1.6-0.5,2.5-0.5c1.4,0,2.5,0.4,3.3,1.1
			c0.8,0.7,1.2,1.7,1.2,2.9v5.6c0,1.1,0.1,2,0.4,2.7v0.2H506.4z M502.9,445c0.7,0,1.3-0.2,1.9-0.5c0.6-0.3,1-0.8,1.3-1.3v-2.5h-1.6
			c-2.6,0-3.9,0.8-3.9,2.3c0,0.7,0.2,1.2,0.7,1.5C501.6,444.8,502.2,445,502.9,445z"/>
		<path fill="#FCFCFC" d="M513.4,434.3l0.1,1.5c0.9-1.2,2.2-1.8,3.7-1.8c2.6,0,3.9,1.5,3.9,4.4v8.1H519v-8.1c0-0.9-0.2-1.5-0.6-2
			c-0.4-0.4-1-0.6-1.9-0.6c-0.7,0-1.3,0.2-1.8,0.5c-0.5,0.4-0.9,0.8-1.2,1.4v8.7h-2.1v-12.3H513.4z"/>
		<path fill="#FCFCFC" d="M531.4,443.3c0-0.6-0.2-1-0.6-1.3c-0.4-0.3-1.2-0.6-2.2-0.8s-1.9-0.5-2.5-0.8c-0.6-0.3-1.1-0.7-1.4-1.1
			c-0.3-0.4-0.4-1-0.4-1.6c0-1,0.4-1.9,1.3-2.6c0.9-0.7,1.9-1,3.3-1c1.4,0,2.5,0.4,3.4,1.1s1.3,1.6,1.3,2.8h-2.1
			c0-0.6-0.2-1.1-0.7-1.5s-1.1-0.6-1.8-0.6c-0.8,0-1.4,0.2-1.8,0.5s-0.6,0.8-0.6,1.3c0,0.5,0.2,0.9,0.6,1.1s1.1,0.5,2.2,0.7
			c1,0.2,1.9,0.5,2.5,0.8c0.6,0.3,1.1,0.7,1.4,1.2c0.3,0.5,0.5,1,0.5,1.7c0,1.1-0.4,2-1.3,2.6c-0.9,0.7-2,1-3.4,1
			c-1,0-1.9-0.2-2.6-0.5c-0.8-0.3-1.3-0.8-1.8-1.5c-0.4-0.6-0.6-1.3-0.6-2h2.1c0,0.7,0.3,1.3,0.8,1.7c0.5,0.4,1.2,0.6,2.1,0.6
			c0.8,0,1.4-0.2,1.9-0.5C531.2,444.3,531.4,443.8,531.4,443.3z"/>
		<path fill="#FCFCFC" d="M392.9,478.4h-2.1V461h2.1V478.4z"/>
		<path fill="#FCFCFC" d="M401.4,478.6c-1.7,0-3-0.5-4.1-1.6s-1.6-2.6-1.6-4.4v-0.4c0-1.2,0.2-2.3,0.7-3.3c0.5-1,1.1-1.7,2-2.2
			c0.8-0.5,1.7-0.8,2.7-0.8c1.6,0,2.8,0.5,3.7,1.6s1.3,2.6,1.3,4.5v0.9h-8.3c0,1.2,0.4,2.2,1.1,2.9c0.7,0.7,1.5,1.1,2.6,1.1
			c0.7,0,1.4-0.2,1.9-0.5c0.5-0.3,1-0.7,1.3-1.2l1.3,1C405,477.9,403.4,478.6,401.4,478.6z M401.1,467.6c-0.8,0-1.6,0.3-2.1,0.9
			c-0.6,0.6-0.9,1.5-1.1,2.6h6.1V471c-0.1-1.1-0.3-1.9-0.9-2.5S402,467.6,401.1,467.6z"/>
		<path fill="#FCFCFC" d="M415.7,475.2c0-0.6-0.2-1-0.6-1.3c-0.4-0.3-1.2-0.6-2.2-0.8s-1.9-0.5-2.5-0.8c-0.6-0.3-1.1-0.7-1.4-1.1
			c-0.3-0.4-0.4-1-0.4-1.6c0-1,0.4-1.9,1.3-2.6c0.9-0.7,1.9-1,3.3-1c1.4,0,2.5,0.4,3.4,1.1s1.3,1.6,1.3,2.8h-2.1
			c0-0.6-0.2-1.1-0.7-1.5s-1.1-0.6-1.8-0.6c-0.8,0-1.4,0.2-1.8,0.5s-0.6,0.8-0.6,1.3c0,0.5,0.2,0.9,0.6,1.1s1.1,0.5,2.2,0.7
			c1,0.2,1.9,0.5,2.5,0.8c0.6,0.3,1.1,0.7,1.4,1.2c0.3,0.5,0.5,1,0.5,1.7c0,1.1-0.4,2-1.3,2.6c-0.9,0.7-2,1-3.4,1
			c-1,0-1.9-0.2-2.6-0.5c-0.8-0.3-1.3-0.8-1.8-1.5c-0.4-0.6-0.6-1.3-0.6-2h2.1c0,0.7,0.3,1.3,0.8,1.7c0.5,0.4,1.2,0.6,2.1,0.6
			c0.8,0,1.4-0.2,1.9-0.5C415.5,476.1,415.7,475.7,415.7,475.2z"/>
		<path fill="#FCFCFC" d="M433.5,475.2c0-0.6-0.2-1-0.6-1.3c-0.4-0.3-1.2-0.6-2.2-0.8s-1.9-0.5-2.5-0.8c-0.6-0.3-1.1-0.7-1.4-1.1
			c-0.3-0.4-0.4-1-0.4-1.6c0-1,0.4-1.9,1.3-2.6c0.9-0.7,1.9-1,3.3-1c1.4,0,2.5,0.4,3.4,1.1s1.3,1.6,1.3,2.8h-2.1
			c0-0.6-0.2-1.1-0.7-1.5s-1.1-0.6-1.8-0.6c-0.8,0-1.4,0.2-1.8,0.5s-0.6,0.8-0.6,1.3c0,0.5,0.2,0.9,0.6,1.1s1.1,0.5,2.2,0.7
			c1,0.2,1.9,0.5,2.5,0.8c0.6,0.3,1.1,0.7,1.4,1.2c0.3,0.5,0.5,1,0.5,1.7c0,1.1-0.4,2-1.3,2.6c-0.9,0.7-2,1-3.4,1
			c-1,0-1.9-0.2-2.6-0.5c-0.8-0.3-1.3-0.8-1.8-1.5c-0.4-0.6-0.6-1.3-0.6-2h2.1c0,0.7,0.3,1.3,0.8,1.7c0.5,0.4,1.2,0.6,2.1,0.6
			c0.8,0,1.4-0.2,1.9-0.5C433.2,476.1,433.5,475.7,433.5,475.2z"/>
		<path fill="#FCFCFC" d="M437.8,472.2c0-1.2,0.2-2.3,0.7-3.2c0.5-1,1.1-1.7,2-2.2c0.8-0.5,1.8-0.8,2.9-0.8c1.7,0,3,0.6,4.1,1.7
			c1,1.2,1.5,2.7,1.5,4.6v0.1c0,1.2-0.2,2.3-0.7,3.2c-0.5,0.9-1.1,1.7-2,2.2s-1.8,0.8-2.9,0.8c-1.7,0-3-0.6-4-1.7
			c-1-1.2-1.5-2.7-1.5-4.6V472.2z M439.9,472.4c0,1.4,0.3,2.5,0.9,3.3c0.6,0.8,1.5,1.2,2.5,1.2c1.1,0,1.9-0.4,2.5-1.3
			c0.6-0.8,0.9-2,0.9-3.5c0-1.3-0.3-2.4-1-3.3c-0.6-0.8-1.5-1.3-2.5-1.3c-1,0-1.9,0.4-2.5,1.2S439.9,470.9,439.9,472.4z"/>
		<path fill="#FCFCFC" d="M459.1,477.2c-0.8,1-2,1.4-3.6,1.4c-1.3,0-2.3-0.4-3-1.1c-0.7-0.8-1-1.9-1-3.4v-8h2.1v7.9
			c0,1.9,0.8,2.8,2.3,2.8c1.6,0,2.7-0.6,3.2-1.8v-8.9h2.1v12.3h-2L459.1,477.2z"/>
		<path fill="#FCFCFC" d="M470.3,468c-0.3-0.1-0.7-0.1-1-0.1c-1.4,0-2.3,0.6-2.8,1.8v8.7h-2.1v-12.3h2l0,1.4
			c0.7-1.1,1.7-1.6,2.9-1.6c0.4,0,0.7,0.1,0.9,0.2V468z"/>
		<path fill="#FCFCFC" d="M476.9,476.9c0.7,0,1.4-0.2,2-0.7c0.6-0.5,0.9-1,0.9-1.7h2c0,0.7-0.3,1.4-0.7,2c-0.4,0.6-1,1.1-1.8,1.5
			c-0.7,0.4-1.5,0.6-2.4,0.6c-1.7,0-3-0.6-4-1.7s-1.5-2.6-1.5-4.6V472c0-1.2,0.2-2.3,0.7-3.2c0.4-0.9,1.1-1.7,1.9-2.2
			c0.8-0.5,1.8-0.8,2.9-0.8c1.4,0,2.5,0.4,3.4,1.2c0.9,0.8,1.4,1.9,1.5,3.2h-2c-0.1-0.8-0.4-1.4-0.9-2c-0.5-0.5-1.2-0.8-2-0.8
			c-1.1,0-1.9,0.4-2.5,1.2s-0.9,1.9-0.9,3.3v0.4c0,1.4,0.3,2.5,0.9,3.3C475,476.6,475.8,476.9,476.9,476.9z"/>
		<path fill="#FCFCFC" d="M489.3,478.6c-1.7,0-3-0.5-4.1-1.6s-1.6-2.6-1.6-4.4v-0.4c0-1.2,0.2-2.3,0.7-3.3c0.5-1,1.1-1.7,2-2.2
			c0.8-0.5,1.7-0.8,2.7-0.8c1.6,0,2.8,0.5,3.7,1.6s1.3,2.6,1.3,4.5v0.9h-8.3c0,1.2,0.4,2.2,1.1,2.9c0.7,0.7,1.5,1.1,2.6,1.1
			c0.7,0,1.4-0.2,1.9-0.5c0.5-0.3,1-0.7,1.3-1.2l1.3,1C492.9,477.9,491.3,478.6,489.3,478.6z M489,467.6c-0.8,0-1.6,0.3-2.1,0.9
			c-0.6,0.6-0.9,1.5-1.1,2.6h6.1V471c-0.1-1.1-0.3-1.9-0.9-2.5S489.9,467.6,489,467.6z"/>
		<path fill="#FCFCFC" d="M503.6,475.2c0-0.6-0.2-1-0.6-1.3c-0.4-0.3-1.2-0.6-2.2-0.8s-1.9-0.5-2.5-0.8c-0.6-0.3-1.1-0.7-1.4-1.1
			c-0.3-0.4-0.4-1-0.4-1.6c0-1,0.4-1.9,1.3-2.6c0.9-0.7,1.9-1,3.3-1c1.4,0,2.5,0.4,3.4,1.1s1.3,1.6,1.3,2.8h-2.1
			c0-0.6-0.2-1.1-0.7-1.5s-1.1-0.6-1.8-0.6c-0.8,0-1.4,0.2-1.8,0.5s-0.6,0.8-0.6,1.3c0,0.5,0.2,0.9,0.6,1.1s1.1,0.5,2.2,0.7
			c1,0.2,1.9,0.5,2.5,0.8c0.6,0.3,1.1,0.7,1.4,1.2c0.3,0.5,0.5,1,0.5,1.7c0,1.1-0.4,2-1.3,2.6c-0.9,0.7-2,1-3.4,1
			c-1,0-1.9-0.2-2.6-0.5c-0.8-0.3-1.3-0.8-1.8-1.5c-0.4-0.6-0.6-1.3-0.6-2h2.1c0,0.7,0.3,1.3,0.8,1.7c0.5,0.4,1.2,0.6,2.1,0.6
			c0.8,0,1.4-0.2,1.9-0.5C503.4,476.1,503.6,475.7,503.6,475.2z"/>
		<path fill="#FCFCFC" d="M516.4,466.1v13.7c0,2.4-1.1,3.5-3.2,3.5c-0.5,0-0.9-0.1-1.3-0.2v-1.7c0.2,0.1,0.6,0.1,1,0.1
			c0.5,0,0.8-0.1,1.1-0.4c0.2-0.3,0.4-0.7,0.4-1.3v-13.7H516.4z M514.1,462.9c0-0.3,0.1-0.6,0.3-0.9s0.5-0.4,0.9-0.4
			c0.4,0,0.7,0.1,0.9,0.4c0.2,0.2,0.3,0.5,0.3,0.9c0,0.3-0.1,0.6-0.3,0.9c-0.2,0.2-0.5,0.3-0.9,0.3s-0.7-0.1-0.9-0.3
			C514.2,463.5,514.1,463.2,514.1,462.9z"/>
		<path fill="#FCFCFC" d="M527.3,477.2c-0.8,1-2,1.4-3.6,1.4c-1.3,0-2.3-0.4-3-1.1c-0.7-0.8-1-1.9-1-3.4v-8h2.1v7.9
			c0,1.9,0.8,2.8,2.3,2.8c1.6,0,2.7-0.6,3.2-1.8v-8.9h2.1v12.3h-2L527.3,477.2z"/>
		<path fill="#FCFCFC" d="M538.5,468c-0.3-0.1-0.7-0.1-1-0.1c-1.4,0-2.3,0.6-2.8,1.8v8.7h-2.1v-12.3h2l0,1.4
			c0.7-1.1,1.7-1.6,2.9-1.6c0.4,0,0.7,0.1,0.9,0.2V468z"/>
		<path fill="#FCFCFC" d="M540.4,462.9c0-0.3,0.1-0.6,0.3-0.9c0.2-0.2,0.5-0.4,0.9-0.4c0.4,0,0.7,0.1,0.9,0.4
			c0.2,0.2,0.3,0.5,0.3,0.9c0,0.3-0.1,0.6-0.3,0.9c-0.2,0.2-0.5,0.3-0.9,0.3c-0.4,0-0.7-0.1-0.9-0.3
			C540.5,463.5,540.4,463.2,540.4,462.9z M542.7,478.4h-2.1v-12.3h2.1V478.4z"/>
		<path fill="#FCFCFC" d="M545.5,472.2c0-1.9,0.4-3.4,1.3-4.5c0.9-1.1,2.1-1.7,3.5-1.7c1.4,0,2.6,0.5,3.4,1.5V461h2.1v17.4H554
			l-0.1-1.3c-0.8,1-2,1.5-3.5,1.5c-1.4,0-2.6-0.6-3.5-1.7c-0.9-1.2-1.3-2.7-1.3-4.6V472.2z M547.6,472.4c0,1.4,0.3,2.5,0.9,3.3
			s1.4,1.2,2.4,1.2c1.3,0,2.3-0.6,2.9-1.8v-5.6c-0.6-1.2-1.6-1.7-2.9-1.7c-1,0-1.8,0.4-2.4,1.2C547.9,469.7,547.6,470.9,547.6,472.4
			z"/>
		<path fill="#FCFCFC" d="M559.2,462.9c0-0.3,0.1-0.6,0.3-0.9c0.2-0.2,0.5-0.4,0.9-0.4c0.4,0,0.7,0.1,0.9,0.4
			c0.2,0.2,0.3,0.5,0.3,0.9c0,0.3-0.1,0.6-0.3,0.9c-0.2,0.2-0.5,0.3-0.9,0.3c-0.4,0-0.7-0.1-0.9-0.3
			C559.3,463.5,559.2,463.2,559.2,462.9z M561.4,478.4h-2.1v-12.3h2.1V478.4z"/>
		<path fill="#FCFCFC" d="M564.3,472.2c0-1.9,0.4-3.5,1.3-4.6s2.1-1.7,3.6-1.7c1.5,0,2.6,0.5,3.4,1.5l0.1-1.2h1.9v17h-2.1v-5.9
			c-0.8,0.9-2,1.4-3.4,1.4c-1.5,0-2.7-0.6-3.5-1.7s-1.3-2.7-1.3-4.6V472.2z M566.4,472.4c0,1.4,0.3,2.5,0.9,3.3
			c0.6,0.8,1.4,1.2,2.4,1.2c1.2,0,2.2-0.6,2.9-1.7v-6c-0.7-1.1-1.6-1.6-2.8-1.6c-1,0-1.8,0.4-2.4,1.2
			C566.7,469.7,566.4,470.8,566.4,472.4z"/>
		<path fill="#FCFCFC" d="M585.6,477.2c-0.8,1-2,1.4-3.6,1.4c-1.3,0-2.3-0.4-3-1.1c-0.7-0.8-1-1.9-1-3.4v-8h2.1v7.9
			c0,1.9,0.8,2.8,2.3,2.8c1.6,0,2.7-0.6,3.2-1.8v-8.9h2.1v12.3h-2L585.6,477.2z"/>
		<path fill="#FCFCFC" d="M595.9,478.6c-1.7,0-3-0.5-4.1-1.6s-1.6-2.6-1.6-4.4v-0.4c0-1.2,0.2-2.3,0.7-3.3c0.5-1,1.1-1.7,2-2.2
			c0.8-0.5,1.7-0.8,2.7-0.8c1.6,0,2.8,0.5,3.7,1.6s1.3,2.6,1.3,4.5v0.9h-8.3c0,1.2,0.4,2.2,1.1,2.9c0.7,0.7,1.5,1.1,2.6,1.1
			c0.7,0,1.4-0.2,1.9-0.5c0.5-0.3,1-0.7,1.3-1.2l1.3,1C599.5,477.9,597.9,478.6,595.9,478.6z M595.6,467.6c-0.8,0-1.6,0.3-2.1,0.9
			c-0.6,0.6-0.9,1.5-1.1,2.6h6.1V471c-0.1-1.1-0.3-1.9-0.9-2.5S596.5,467.6,595.6,467.6z"/>
		<path fill="#FCFCFC" d="M610.3,475.2c0-0.6-0.2-1-0.6-1.3c-0.4-0.3-1.2-0.6-2.2-0.8s-1.9-0.5-2.5-0.8c-0.6-0.3-1.1-0.7-1.4-1.1
			c-0.3-0.4-0.4-1-0.4-1.6c0-1,0.4-1.9,1.3-2.6c0.9-0.7,1.9-1,3.3-1c1.4,0,2.5,0.4,3.4,1.1s1.3,1.6,1.3,2.8h-2.1
			c0-0.6-0.2-1.1-0.7-1.5s-1.1-0.6-1.8-0.6c-0.8,0-1.4,0.2-1.8,0.5s-0.6,0.8-0.6,1.3c0,0.5,0.2,0.9,0.6,1.1s1.1,0.5,2.2,0.7
			c1,0.2,1.9,0.5,2.5,0.8c0.6,0.3,1.1,0.7,1.4,1.2c0.3,0.5,0.5,1,0.5,1.7c0,1.1-0.4,2-1.3,2.6c-0.9,0.7-2,1-3.4,1
			c-1,0-1.9-0.2-2.6-0.5c-0.8-0.3-1.3-0.8-1.8-1.5c-0.4-0.6-0.6-1.3-0.6-2h2.1c0,0.7,0.3,1.3,0.8,1.7c0.5,0.4,1.2,0.6,2.1,0.6
			c0.8,0,1.4-0.2,1.9-0.5C610,476.1,610.3,475.7,610.3,475.2z"/>
		<path fill="#FCFCFC" d="M401,504.3c0,1.9-0.4,3.4-1.3,4.5c-0.9,1.1-2,1.7-3.5,1.7c-1.5,0-2.7-0.5-3.5-1.4v5.9h-2.1v-17h1.9
			l0.1,1.4c0.9-1.1,2-1.6,3.6-1.6c1.5,0,2.6,0.6,3.5,1.7c0.9,1.1,1.3,2.7,1.3,4.6V504.3z M398.9,504c0-1.4-0.3-2.5-0.9-3.3
			s-1.4-1.2-2.4-1.2c-1.3,0-2.2,0.6-2.9,1.7v5.9c0.6,1.1,1.6,1.7,2.9,1.7c1,0,1.8-0.4,2.4-1.2S398.9,505.6,398.9,504z"/>
		<path fill="#FCFCFC" d="M408.8,510.5c-1.7,0-3-0.5-4.1-1.6s-1.6-2.6-1.6-4.4v-0.4c0-1.2,0.2-2.3,0.7-3.3c0.5-1,1.1-1.7,2-2.2
			c0.8-0.5,1.7-0.8,2.7-0.8c1.6,0,2.8,0.5,3.7,1.6s1.3,2.6,1.3,4.5v0.9h-8.3c0,1.2,0.4,2.2,1.1,2.9c0.7,0.7,1.5,1.1,2.6,1.1
			c0.7,0,1.4-0.2,1.9-0.5c0.5-0.3,1-0.7,1.3-1.2l1.3,1C412.4,509.7,410.8,510.5,408.8,510.5z M408.5,499.5c-0.8,0-1.6,0.3-2.1,0.9
			c-0.6,0.6-0.9,1.5-1.1,2.6h6.1v-0.2c-0.1-1.1-0.3-1.9-0.9-2.5S409.4,499.5,408.5,499.5z"/>
		<path fill="#FCFCFC" d="M421.9,499.9c-0.3-0.1-0.7-0.1-1-0.1c-1.4,0-2.3,0.6-2.8,1.8v8.7H416V498h2l0,1.4c0.7-1.1,1.7-1.6,2.9-1.6
			c0.4,0,0.7,0.1,0.9,0.2V499.9z"/>
		<path fill="#FCFCFC" d="M427.3,495v3h2.3v1.6h-2.3v7.6c0,0.5,0.1,0.9,0.3,1.1s0.6,0.4,1,0.4c0.2,0,0.6,0,1-0.1v1.7
			c-0.6,0.2-1.1,0.2-1.6,0.2c-0.9,0-1.6-0.3-2.1-0.9c-0.5-0.6-0.7-1.4-0.7-2.4v-7.6h-2.2V498h2.2v-3H427.3z"/>
		<path fill="#FCFCFC" d="M432,494.7c0-0.3,0.1-0.6,0.3-0.9c0.2-0.2,0.5-0.4,0.9-0.4c0.4,0,0.7,0.1,0.9,0.4c0.2,0.2,0.3,0.5,0.3,0.9
			c0,0.3-0.1,0.6-0.3,0.9c-0.2,0.2-0.5,0.3-0.9,0.3c-0.4,0-0.7-0.1-0.9-0.3C432.1,495.4,432,495.1,432,494.7z M434.3,510.3h-2.1V498
			h2.1V510.3z"/>
		<path fill="#FCFCFC" d="M439.6,498l0.1,1.5c0.9-1.2,2.2-1.8,3.7-1.8c2.6,0,3.9,1.5,3.9,4.4v8.1h-2.1v-8.1c0-0.9-0.2-1.5-0.6-2
			c-0.4-0.4-1-0.6-1.9-0.6c-0.7,0-1.3,0.2-1.8,0.5c-0.5,0.4-0.9,0.8-1.2,1.4v8.7h-2.1V498H439.6z"/>
		<path fill="#FCFCFC" d="M455.6,510.5c-1.7,0-3-0.5-4.1-1.6s-1.6-2.6-1.6-4.4v-0.4c0-1.2,0.2-2.3,0.7-3.3c0.5-1,1.1-1.7,2-2.2
			c0.8-0.5,1.7-0.8,2.7-0.8c1.6,0,2.8,0.5,3.7,1.6s1.3,2.6,1.3,4.5v0.9H452c0,1.2,0.4,2.2,1.1,2.9c0.7,0.7,1.5,1.1,2.6,1.1
			c0.7,0,1.4-0.2,1.9-0.5c0.5-0.3,1-0.7,1.3-1.2l1.3,1C459.2,509.7,457.6,510.5,455.6,510.5z M455.3,499.5c-0.8,0-1.6,0.3-2.1,0.9
			c-0.6,0.6-0.9,1.5-1.1,2.6h6.1v-0.2c-0.1-1.1-0.3-1.9-0.9-2.5S456.2,499.5,455.3,499.5z"/>
		<path fill="#FCFCFC" d="M464.8,498l0.1,1.5c0.9-1.2,2.2-1.8,3.7-1.8c2.6,0,3.9,1.5,3.9,4.4v8.1h-2.1v-8.1c0-0.9-0.2-1.5-0.6-2
			c-0.4-0.4-1-0.6-1.9-0.6c-0.7,0-1.3,0.2-1.8,0.5c-0.5,0.4-0.9,0.8-1.2,1.4v8.7h-2.1V498H464.8z"/>
		<path fill="#FCFCFC" d="M478.4,495v3h2.3v1.6h-2.3v7.6c0,0.5,0.1,0.9,0.3,1.1s0.6,0.4,1,0.4c0.2,0,0.6,0,1-0.1v1.7
			c-0.6,0.2-1.1,0.2-1.6,0.2c-0.9,0-1.6-0.3-2.1-0.9c-0.5-0.6-0.7-1.4-0.7-2.4v-7.6h-2.2V498h2.2v-3H478.4z"/>
		<path fill="#FCFCFC" d="M488.3,510.5c-1.7,0-3-0.5-4.1-1.6s-1.6-2.6-1.6-4.4v-0.4c0-1.2,0.2-2.3,0.7-3.3c0.5-1,1.1-1.7,2-2.2
			c0.8-0.5,1.7-0.8,2.7-0.8c1.6,0,2.8,0.5,3.7,1.6s1.3,2.6,1.3,4.5v0.9h-8.3c0,1.2,0.4,2.2,1.1,2.9c0.7,0.7,1.5,1.1,2.6,1.1
			c0.7,0,1.4-0.2,1.9-0.5c0.5-0.3,1-0.7,1.3-1.2l1.3,1C491.9,509.7,490.3,510.5,488.3,510.5z M488,499.5c-0.8,0-1.6,0.3-2.1,0.9
			c-0.6,0.6-0.9,1.5-1.1,2.6h6.1v-0.2c-0.1-1.1-0.3-1.9-0.9-2.5S488.9,499.5,488,499.5z"/>
		<path fill="#FCFCFC" d="M502.6,507c0-0.6-0.2-1-0.6-1.3c-0.4-0.3-1.2-0.6-2.2-0.8s-1.9-0.5-2.5-0.8c-0.6-0.3-1.1-0.7-1.4-1.1
			c-0.3-0.4-0.4-1-0.4-1.6c0-1,0.4-1.9,1.3-2.6c0.9-0.7,1.9-1,3.3-1c1.4,0,2.5,0.4,3.4,1.1s1.3,1.6,1.3,2.8h-2.1
			c0-0.6-0.2-1.1-0.7-1.5s-1.1-0.6-1.8-0.6c-0.8,0-1.4,0.2-1.8,0.5s-0.6,0.8-0.6,1.3c0,0.5,0.2,0.9,0.6,1.1s1.1,0.5,2.2,0.7
			c1,0.2,1.9,0.5,2.5,0.8c0.6,0.3,1.1,0.7,1.4,1.2c0.3,0.5,0.5,1,0.5,1.7c0,1.1-0.4,2-1.3,2.6c-0.9,0.7-2,1-3.4,1
			c-1,0-1.9-0.2-2.6-0.5c-0.8-0.3-1.3-0.8-1.8-1.5c-0.4-0.6-0.6-1.3-0.6-2h2.1c0,0.7,0.3,1.3,0.8,1.7c0.5,0.4,1.2,0.6,2.1,0.6
			c0.8,0,1.4-0.2,1.9-0.5C502.4,508,502.6,507.6,502.6,507z"/>
		<path fill="#FCFCFC" d="M523.6,504.3c0,1.9-0.4,3.4-1.3,4.5c-0.9,1.1-2,1.7-3.5,1.7c-1.5,0-2.7-0.5-3.5-1.4v5.9h-2.1v-17h1.9
			l0.1,1.4c0.9-1.1,2-1.6,3.6-1.6c1.5,0,2.6,0.6,3.5,1.7c0.9,1.1,1.3,2.7,1.3,4.6V504.3z M521.5,504c0-1.4-0.3-2.5-0.9-3.3
			s-1.4-1.2-2.4-1.2c-1.3,0-2.2,0.6-2.9,1.7v5.9c0.6,1.1,1.6,1.7,2.9,1.7c1,0,1.8-0.4,2.4-1.2S521.5,505.6,521.5,504z"/>
		<path fill="#FCFCFC" d="M525.7,504c0-1.2,0.2-2.3,0.7-3.2c0.5-1,1.1-1.7,2-2.2c0.8-0.5,1.8-0.8,2.9-0.8c1.7,0,3,0.6,4.1,1.7
			c1,1.2,1.5,2.7,1.5,4.6v0.1c0,1.2-0.2,2.3-0.7,3.2c-0.5,0.9-1.1,1.7-2,2.2s-1.8,0.8-2.9,0.8c-1.7,0-3-0.6-4-1.7
			c-1-1.2-1.5-2.7-1.5-4.6V504z M527.8,504.3c0,1.4,0.3,2.5,0.9,3.3c0.6,0.8,1.5,1.2,2.5,1.2c1.1,0,1.9-0.4,2.5-1.3
			c0.6-0.8,0.9-2,0.9-3.5c0-1.3-0.3-2.4-1-3.3c-0.6-0.8-1.5-1.3-2.5-1.3c-1,0-1.9,0.4-2.5,1.2S527.8,502.7,527.8,504.3z"/>
		<path fill="#FCFCFC" d="M547.1,509.1c-0.8,1-2,1.4-3.6,1.4c-1.3,0-2.3-0.4-3-1.1c-0.7-0.8-1-1.9-1-3.4v-8h2.1v7.9
			c0,1.9,0.8,2.8,2.3,2.8c1.6,0,2.7-0.6,3.2-1.8V498h2.1v12.3h-2L547.1,509.1z"/>
		<path fill="#FCFCFC" d="M558.2,499.9c-0.3-0.1-0.7-0.1-1-0.1c-1.4,0-2.3,0.6-2.8,1.8v8.7h-2.1V498h2l0,1.4
			c0.7-1.1,1.7-1.6,2.9-1.6c0.4,0,0.7,0.1,0.9,0.2V499.9z"/>
		<path fill="#FCFCFC" d="M570,507.4l3-9.4h2.1l-4.4,12.3h-1.6l-4.4-12.3h2.1L570,507.4z"/>
		<path fill="#FCFCFC" d="M576.4,504c0-1.2,0.2-2.3,0.7-3.2c0.5-1,1.1-1.7,2-2.2c0.8-0.5,1.8-0.8,2.9-0.8c1.7,0,3,0.6,4.1,1.7
			c1,1.2,1.5,2.7,1.5,4.6v0.1c0,1.2-0.2,2.3-0.7,3.2c-0.5,0.9-1.1,1.7-2,2.2s-1.8,0.8-2.9,0.8c-1.7,0-3-0.6-4-1.7
			c-1-1.2-1.5-2.7-1.5-4.6V504z M578.5,504.3c0,1.4,0.3,2.5,0.9,3.3c0.6,0.8,1.5,1.2,2.5,1.2c1.1,0,1.9-0.4,2.5-1.3
			c0.6-0.8,0.9-2,0.9-3.5c0-1.3-0.3-2.4-1-3.3c-0.6-0.8-1.5-1.3-2.5-1.3c-1,0-1.9,0.4-2.5,1.2S578.5,502.7,578.5,504.3z"/>
		<path fill="#FCFCFC" d="M593.1,495v3h2.3v1.6h-2.3v7.6c0,0.5,0.1,0.9,0.3,1.1s0.6,0.4,1,0.4c0.2,0,0.6,0,1-0.1v1.7
			c-0.6,0.2-1.1,0.2-1.6,0.2c-0.9,0-1.6-0.3-2.1-0.9c-0.5-0.6-0.7-1.4-0.7-2.4v-7.6h-2.2V498h2.2v-3H593.1z"/>
		<path fill="#FCFCFC" d="M603.8,499.9c-0.3-0.1-0.7-0.1-1-0.1c-1.4,0-2.3,0.6-2.8,1.8v8.7h-2.1V498h2l0,1.4
			c0.7-1.1,1.7-1.6,2.9-1.6c0.4,0,0.7,0.1,0.9,0.2V499.9z"/>
		<path fill="#FCFCFC" d="M610.8,510.5c-1.7,0-3-0.5-4.1-1.6s-1.6-2.6-1.6-4.4v-0.4c0-1.2,0.2-2.3,0.7-3.3c0.5-1,1.1-1.7,2-2.2
			c0.8-0.5,1.7-0.8,2.7-0.8c1.6,0,2.8,0.5,3.7,1.6s1.3,2.6,1.3,4.5v0.9h-8.3c0,1.2,0.4,2.2,1.1,2.9c0.7,0.7,1.5,1.1,2.6,1.1
			c0.7,0,1.4-0.2,1.9-0.5c0.5-0.3,1-0.7,1.3-1.2l1.3,1C614.4,509.7,612.8,510.5,610.8,510.5z M610.5,499.5c-0.8,0-1.6,0.3-2.1,0.9
			c-0.6,0.6-0.9,1.5-1.1,2.6h6.1v-0.2c-0.1-1.1-0.3-1.9-0.9-2.5S611.4,499.5,610.5,499.5z"/>
		<path fill="#FCFCFC" d="M398.2,542.1c-0.1-0.2-0.2-0.7-0.3-1.3c-1,1-2.1,1.5-3.5,1.5c-1.2,0-2.2-0.3-3-1c-0.8-0.7-1.2-1.6-1.2-2.6
			c0-1.3,0.5-2.3,1.5-3s2.3-1.1,4.1-1.1h2v-1c0-0.7-0.2-1.3-0.7-1.8c-0.4-0.4-1.1-0.7-1.9-0.7c-0.7,0-1.4,0.2-1.9,0.6
			c-0.5,0.4-0.8,0.8-0.8,1.4h-2.1c0-0.6,0.2-1.2,0.7-1.8c0.4-0.6,1-1,1.8-1.4c0.7-0.3,1.6-0.5,2.5-0.5c1.4,0,2.5,0.4,3.3,1.1
			c0.8,0.7,1.2,1.7,1.2,2.9v5.6c0,1.1,0.1,2,0.4,2.7v0.2H398.2z M394.8,540.5c0.7,0,1.3-0.2,1.9-0.5c0.6-0.3,1-0.8,1.3-1.3v-2.5
			h-1.6c-2.6,0-3.9,0.8-3.9,2.3c0,0.7,0.2,1.2,0.7,1.5C393.5,540.4,394.1,540.5,394.8,540.5z"/>
		<path fill="#FCFCFC" d="M405.3,529.9l0.1,1.5c0.9-1.2,2.2-1.8,3.7-1.8c2.6,0,3.9,1.5,3.9,4.4v8.1h-2.1V534c0-0.9-0.2-1.5-0.6-2
			c-0.4-0.4-1-0.6-1.9-0.6c-0.7,0-1.3,0.2-1.8,0.5c-0.5,0.4-0.9,0.8-1.2,1.4v8.7h-2.1v-12.3H405.3z"/>
		<path fill="#FCFCFC" d="M423.7,542.1c-0.1-0.2-0.2-0.7-0.3-1.3c-1,1-2.1,1.5-3.5,1.5c-1.2,0-2.2-0.3-3-1c-0.8-0.7-1.2-1.6-1.2-2.6
			c0-1.3,0.5-2.3,1.5-3s2.3-1.1,4.1-1.1h2v-1c0-0.7-0.2-1.3-0.7-1.8c-0.4-0.4-1.1-0.7-1.9-0.7c-0.7,0-1.4,0.2-1.9,0.6
			c-0.5,0.4-0.8,0.8-0.8,1.4H416c0-0.6,0.2-1.2,0.7-1.8c0.4-0.6,1-1,1.8-1.4c0.7-0.3,1.6-0.5,2.5-0.5c1.4,0,2.5,0.4,3.3,1.1
			c0.8,0.7,1.2,1.7,1.2,2.9v5.6c0,1.1,0.1,2,0.4,2.7v0.2H423.7z M420.2,540.5c0.7,0,1.3-0.2,1.9-0.5c0.6-0.3,1-0.8,1.3-1.3v-2.5
			h-1.6c-2.6,0-3.9,0.8-3.9,2.3c0,0.7,0.2,1.2,0.7,1.5C419,540.4,419.5,540.5,420.2,540.5z"/>
		<path fill="#FCFCFC" d="M431,542.1h-2.1v-17.4h2.1V542.1z"/>
		<path fill="#FCFCFC" d="M438.4,539.1l2.9-9.2h2.2l-4.9,14.2c-0.8,2-2,3.1-3.6,3.1l-0.4,0l-0.8-0.1v-1.7l0.6,0
			c0.7,0,1.3-0.1,1.7-0.4c0.4-0.3,0.7-0.8,1-1.6l0.5-1.2l-4.4-12.1h2.3L438.4,539.1z"/>
		<path fill="#FCFCFC" d="M452.5,538.9c0-0.6-0.2-1-0.6-1.3c-0.4-0.3-1.2-0.6-2.2-0.8s-1.9-0.5-2.5-0.8c-0.6-0.3-1.1-0.7-1.4-1.1
			c-0.3-0.4-0.4-1-0.4-1.6c0-1,0.4-1.9,1.3-2.6c0.9-0.7,1.9-1,3.3-1c1.4,0,2.5,0.4,3.4,1.1s1.3,1.6,1.3,2.8h-2.1
			c0-0.6-0.2-1.1-0.7-1.5s-1.1-0.6-1.8-0.6c-0.8,0-1.4,0.2-1.8,0.5s-0.6,0.8-0.6,1.3c0,0.5,0.2,0.9,0.6,1.1s1.1,0.5,2.2,0.7
			c1,0.2,1.9,0.5,2.5,0.8c0.6,0.3,1.1,0.7,1.4,1.2c0.3,0.5,0.5,1,0.5,1.7c0,1.1-0.4,2-1.3,2.6c-0.9,0.7-2,1-3.4,1
			c-1,0-1.9-0.2-2.6-0.5c-0.8-0.3-1.3-0.8-1.8-1.5c-0.4-0.6-0.6-1.3-0.6-2h2.1c0,0.7,0.3,1.3,0.8,1.7c0.5,0.4,1.2,0.6,2.1,0.6
			c0.8,0,1.4-0.2,1.9-0.5C452.3,539.8,452.5,539.4,452.5,538.9z"/>
		<path fill="#FCFCFC" d="M462.4,542.4c-1.7,0-3-0.5-4.1-1.6s-1.6-2.6-1.6-4.4V536c0-1.2,0.2-2.3,0.7-3.3c0.5-1,1.1-1.7,2-2.2
			c0.8-0.5,1.7-0.8,2.7-0.8c1.6,0,2.8,0.5,3.7,1.6s1.3,2.6,1.3,4.5v0.9h-8.3c0,1.2,0.4,2.2,1.1,2.9c0.7,0.7,1.5,1.1,2.6,1.1
			c0.7,0,1.4-0.2,1.9-0.5c0.5-0.3,1-0.7,1.3-1.2l1.3,1C466,541.6,464.5,542.4,462.4,542.4z M462.2,531.4c-0.8,0-1.6,0.3-2.1,0.9
			c-0.6,0.6-0.9,1.5-1.1,2.6h6.1v-0.2c-0.1-1.1-0.3-1.9-0.9-2.5S463.1,531.4,462.2,531.4z"/>
		<path fill="#FCFCFC" d="M480.5,542.4c-1.7,0-3-0.5-4.1-1.6s-1.6-2.6-1.6-4.4V536c0-1.2,0.2-2.3,0.7-3.3c0.5-1,1.1-1.7,2-2.2
			c0.8-0.5,1.7-0.8,2.7-0.8c1.6,0,2.8,0.5,3.7,1.6s1.3,2.6,1.3,4.5v0.9H477c0,1.2,0.4,2.2,1.1,2.9c0.7,0.7,1.5,1.1,2.6,1.1
			c0.7,0,1.4-0.2,1.9-0.5c0.5-0.3,1-0.7,1.3-1.2l1.3,1C484.1,541.6,482.6,542.4,480.5,542.4z M480.2,531.4c-0.8,0-1.6,0.3-2.1,0.9
			c-0.6,0.6-0.9,1.5-1.1,2.6h6.1v-0.2c-0.1-1.1-0.3-1.9-0.9-2.5S481.1,531.4,480.2,531.4z"/>
		<path fill="#FCFCFC" d="M490.6,526.9v3h2.3v1.6h-2.3v7.6c0,0.5,0.1,0.9,0.3,1.1s0.6,0.4,1,0.4c0.2,0,0.6,0,1-0.1v1.7
			c-0.6,0.2-1.1,0.2-1.6,0.2c-0.9,0-1.6-0.3-2.1-0.9c-0.5-0.6-0.7-1.4-0.7-2.4v-7.6h-2.2v-1.6h2.2v-3H490.6z"/>
		<path fill="#FCFCFC" d="M505.1,539.3l3-9.4h2.1l-4.4,12.3h-1.6l-4.4-12.3h2.1L505.1,539.3z"/>
		<path fill="#FCFCFC" d="M511.6,535.9c0-1.2,0.2-2.3,0.7-3.2c0.5-1,1.1-1.7,2-2.2c0.8-0.5,1.8-0.8,2.9-0.8c1.7,0,3,0.6,4.1,1.7
			c1,1.2,1.5,2.7,1.5,4.6v0.1c0,1.2-0.2,2.3-0.7,3.2c-0.5,0.9-1.1,1.7-2,2.2s-1.8,0.8-2.9,0.8c-1.7,0-3-0.6-4-1.7
			c-1-1.2-1.5-2.7-1.5-4.6V535.9z M513.7,536.1c0,1.4,0.3,2.5,0.9,3.3c0.6,0.8,1.5,1.2,2.5,1.2c1.1,0,1.9-0.4,2.5-1.3
			c0.6-0.8,0.9-2,0.9-3.5c0-1.3-0.3-2.4-1-3.3c-0.6-0.8-1.5-1.3-2.5-1.3c-1,0-1.9,0.4-2.5,1.2S513.7,534.6,513.7,536.1z"/>
		<path fill="#FCFCFC" d="M528.2,526.9v3h2.3v1.6h-2.3v7.6c0,0.5,0.1,0.9,0.3,1.1s0.6,0.4,1,0.4c0.2,0,0.6,0,1-0.1v1.7
			c-0.6,0.2-1.1,0.2-1.6,0.2c-0.9,0-1.6-0.3-2.1-0.9c-0.5-0.6-0.7-1.4-0.7-2.4v-7.6h-2.2v-1.6h2.2v-3H528.2z"/>
		<path fill="#FCFCFC" d="M538.9,531.7c-0.3-0.1-0.7-0.1-1-0.1c-1.4,0-2.3,0.6-2.8,1.8v8.7H533v-12.3h2l0,1.4
			c0.7-1.1,1.7-1.6,2.9-1.6c0.4,0,0.7,0.1,0.9,0.2V531.7z"/>
		<path fill="#FCFCFC" d="M545.9,542.4c-1.7,0-3-0.5-4.1-1.6s-1.6-2.6-1.6-4.4V536c0-1.2,0.2-2.3,0.7-3.3c0.5-1,1.1-1.7,2-2.2
			c0.8-0.5,1.7-0.8,2.7-0.8c1.6,0,2.8,0.5,3.7,1.6s1.3,2.6,1.3,4.5v0.9h-8.3c0,1.2,0.4,2.2,1.1,2.9c0.7,0.7,1.5,1.1,2.6,1.1
			c0.7,0,1.4-0.2,1.9-0.5c0.5-0.3,1-0.7,1.3-1.2l1.3,1C549.5,541.6,548,542.4,545.9,542.4z M545.7,531.4c-0.8,0-1.6,0.3-2.1,0.9
			c-0.6,0.6-0.9,1.5-1.1,2.6h6.1v-0.2c-0.1-1.1-0.3-1.9-0.9-2.5S546.5,531.4,545.7,531.4z"/>
		<path fill="#FCFCFC" d="M396.6,563.6c-0.3-0.1-0.7-0.1-1-0.1c-1.4,0-2.3,0.6-2.8,1.8v8.7h-2.1v-12.3h2l0,1.4
			c0.7-1.1,1.7-1.6,2.9-1.6c0.4,0,0.7,0.1,0.9,0.2V563.6z"/>
		<path fill="#FCFCFC" d="M403.6,574.2c-1.7,0-3-0.5-4.1-1.6s-1.6-2.6-1.6-4.4v-0.4c0-1.2,0.2-2.3,0.7-3.3c0.5-1,1.1-1.7,2-2.2
			c0.8-0.5,1.7-0.8,2.7-0.8c1.6,0,2.8,0.5,3.7,1.6s1.3,2.6,1.3,4.5v0.9h-8.3c0,1.2,0.4,2.2,1.1,2.9c0.7,0.7,1.5,1.1,2.6,1.1
			c0.7,0,1.4-0.2,1.9-0.5c0.5-0.3,1-0.7,1.3-1.2l1.3,1C407.2,573.4,405.7,574.2,403.6,574.2z M403.4,563.2c-0.8,0-1.6,0.3-2.1,0.9
			c-0.6,0.6-0.9,1.5-1.1,2.6h6.1v-0.2c-0.1-1.1-0.3-1.9-0.9-2.5S404.2,563.2,403.4,563.2z M404.4,556.6h2.5l-3,3.3l-1.7,0
			L404.4,556.6z"/>
		<path fill="#FCFCFC" d="M410.3,567.8c0-1.9,0.4-3.4,1.3-4.5c0.9-1.1,2.1-1.7,3.5-1.7c1.4,0,2.6,0.5,3.4,1.5v-6.4h2.1V574h-1.9
			l-0.1-1.3c-0.8,1-2,1.5-3.5,1.5c-1.4,0-2.6-0.6-3.5-1.7c-0.9-1.2-1.3-2.7-1.3-4.6V567.8z M412.4,568c0,1.4,0.3,2.5,0.9,3.3
			s1.4,1.2,2.4,1.2c1.3,0,2.3-0.6,2.9-1.8V565c-0.6-1.2-1.6-1.7-2.9-1.7c-1,0-1.8,0.4-2.4,1.2C412.7,565.3,412.4,566.4,412.4,568z"
			/>
		<path fill="#FCFCFC" d="M431.5,574c-0.1-0.2-0.2-0.7-0.3-1.3c-1,1-2.1,1.5-3.5,1.5c-1.2,0-2.2-0.3-3-1c-0.8-0.7-1.2-1.6-1.2-2.6
			c0-1.3,0.5-2.3,1.5-3s2.3-1.1,4.1-1.1h2v-1c0-0.7-0.2-1.3-0.7-1.8c-0.4-0.4-1.1-0.7-1.9-0.7c-0.7,0-1.4,0.2-1.9,0.6
			c-0.5,0.4-0.8,0.8-0.8,1.4h-2.1c0-0.6,0.2-1.2,0.7-1.8c0.4-0.6,1-1,1.8-1.4c0.7-0.3,1.6-0.5,2.5-0.5c1.4,0,2.5,0.4,3.3,1.1
			c0.8,0.7,1.2,1.7,1.2,2.9v5.6c0,1.1,0.1,2,0.4,2.7v0.2H431.5z M428,572.4c0.7,0,1.3-0.2,1.9-0.5c0.6-0.3,1-0.8,1.3-1.3V568h-1.6
			c-2.6,0-3.9,0.8-3.9,2.3c0,0.7,0.2,1.2,0.7,1.5C426.8,572.2,427.3,572.4,428,572.4z"/>
		<path fill="#FCFCFC" d="M441.5,572.5c0.7,0,1.4-0.2,2-0.7c0.6-0.5,0.9-1,0.9-1.7h2c0,0.7-0.3,1.4-0.7,2c-0.4,0.6-1,1.1-1.8,1.5
			c-0.7,0.4-1.5,0.6-2.4,0.6c-1.7,0-3-0.6-4-1.7s-1.5-2.6-1.5-4.6v-0.4c0-1.2,0.2-2.3,0.7-3.2c0.4-0.9,1.1-1.7,1.9-2.2
			c0.8-0.5,1.8-0.8,2.9-0.8c1.4,0,2.5,0.4,3.4,1.2c0.9,0.8,1.4,1.9,1.5,3.2h-2c-0.1-0.8-0.4-1.4-0.9-2c-0.5-0.5-1.2-0.8-2-0.8
			c-1.1,0-1.9,0.4-2.5,1.2s-0.9,1.9-0.9,3.3v0.4c0,1.4,0.3,2.5,0.9,3.3C439.6,572.1,440.4,572.5,441.5,572.5z"/>
		<path fill="#FCFCFC" d="M451.6,558.7v3h2.3v1.6h-2.3v7.6c0,0.5,0.1,0.9,0.3,1.1s0.6,0.4,1,0.4c0.2,0,0.6,0,1-0.1v1.7
			c-0.6,0.2-1.1,0.2-1.6,0.2c-0.9,0-1.6-0.3-2.1-0.9c-0.5-0.6-0.7-1.4-0.7-2.4v-7.6h-2.2v-1.6h2.2v-3H451.6z"/>
		<path fill="#FCFCFC" d="M456.3,558.5c0-0.3,0.1-0.6,0.3-0.9c0.2-0.2,0.5-0.4,0.9-0.4c0.4,0,0.7,0.1,0.9,0.4
			c0.2,0.2,0.3,0.5,0.3,0.9c0,0.3-0.1,0.6-0.3,0.9c-0.2,0.2-0.5,0.3-0.9,0.3c-0.4,0-0.7-0.1-0.9-0.3
			C456.4,559.1,456.3,558.8,456.3,558.5z M458.6,574h-2.1v-12.3h2.1V574z"/>
		<path fill="#FCFCFC" d="M461.4,567.7c0-1.2,0.2-2.3,0.7-3.2c0.5-1,1.1-1.7,2-2.2c0.8-0.5,1.8-0.8,2.9-0.8c1.7,0,3,0.6,4.1,1.7
			c1,1.2,1.5,2.7,1.5,4.6v0.1c0,1.2-0.2,2.3-0.7,3.2c-0.5,0.9-1.1,1.7-2,2.2s-1.8,0.8-2.9,0.8c-1.7,0-3-0.6-4-1.7
			c-1-1.2-1.5-2.7-1.5-4.6V567.7z M463.5,568c0,1.4,0.3,2.5,0.9,3.3c0.6,0.8,1.5,1.2,2.5,1.2c1.1,0,1.9-0.4,2.5-1.3
			c0.6-0.8,0.9-2,0.9-3.5c0-1.3-0.3-2.4-1-3.3c-0.6-0.8-1.5-1.3-2.5-1.3c-1,0-1.9,0.4-2.5,1.2S463.5,566.5,463.5,568z"/>
		<path fill="#FCFCFC" d="M477.2,561.7l0.1,1.5c0.9-1.2,2.2-1.8,3.7-1.8c2.6,0,3.9,1.5,3.9,4.4v8.1h-2.1v-8.1c0-0.9-0.2-1.5-0.6-2
			c-0.4-0.4-1-0.6-1.9-0.6c-0.7,0-1.3,0.2-1.8,0.5c-0.5,0.4-0.9,0.8-1.2,1.4v8.7h-2.1v-12.3H477.2z"/>
		<path fill="#FCFCFC" d="M488.1,572.9c0-0.4,0.1-0.7,0.3-0.9s0.5-0.4,1-0.4c0.4,0,0.8,0.1,1,0.4c0.2,0.2,0.3,0.5,0.3,0.9
			c0,0.3-0.1,0.6-0.3,0.9c-0.2,0.2-0.6,0.4-1,0.4c-0.4,0-0.8-0.1-1-0.4S488.1,573.2,488.1,572.9z"/>
	</g>
</g>
</svg>
